M48
; DRILL file {KiCad 5.1.6-c6e7f7d~87~ubuntu20.04.1} date Sun Oct  4 13:32:35 2020
; FORMAT={-:-/ absolute / inch / decimal}
; #@! TF.CreationDate,2020-10-04T13:32:35-03:00
; #@! TF.GenerationSoftware,Kicad,Pcbnew,5.1.6-c6e7f7d~87~ubuntu20.04.1
FMAT,2
INCH
T1C0.0157
T2C0.0217
T3C0.0315
T4C0.0335
T5C0.0394
T6C0.0433
T7C0.0591
T8C0.0598
T9C0.0315
T10C0.0394
T11C0.1181
%
G90
G05
T1
X3.3229Y-2.307
X3.376Y-3.253
X3.4292Y-1.807
X3.451Y-4.092
X3.547Y-3.965
X3.634Y-1.7558
X3.634Y-1.8346
X3.634Y-1.992
X3.634Y-2.0708
X3.634Y-2.1495
X3.634Y-2.2283
X3.634Y-2.4999
X3.6365Y-1.9133
X3.684Y-4.129
X3.7309Y-3.9296
X3.7422Y-2.2873
X3.7481Y-2.3975
X3.768Y-3.253
X3.776Y-4.001
X3.792Y-4.243
X3.821Y-2.2873
X3.8254Y-3.9912
X3.834Y-4.18
X3.8997Y-2.1101
X3.959Y-3.992
X3.9751Y-2.0347
X3.9804Y-1.9212
X4.0572Y-2.1889
X4.1261Y-2.2873
X4.2206Y-3.307
X4.2344Y-1.8346
X4.2344Y-1.9133
X4.2344Y-1.992
X4.2344Y-2.0708
X4.2344Y-2.1495
X4.2344Y-2.2283
X4.235Y-1.6771
X4.235Y-1.7558
X4.3229Y-2.7912
X4.3284Y-3.1237
X4.33Y-3.23
X4.3495Y-2.1495
X4.3525Y-1.9527
X4.3525Y-2.0314
X4.3525Y-2.1101
X4.3662Y-2.8424
X4.434Y-3.23
X4.447Y-2.206
X4.4686Y-3.3109
X4.4686Y-3.4094
X4.4686Y-3.5196
X4.5237Y-2.4054
X4.6423Y-2.0625
X4.6427Y-3.1817
X4.8048Y-3.19
X4.8093Y-3.3269
X4.8119Y-3.3591
X4.8134Y-3.2951
X4.8153Y-3.2636
X4.817Y-3.0294
X4.8246Y-3.1654
X4.8548Y-3.429
X4.9056Y-2.9802
X4.9056Y-2.4527
X4.963Y-2.9516
X4.9678Y-3.0324
X4.968Y-3.431
X5.0159Y-2.4527
X5.0237Y-3.3247
X5.0926Y-3.4231
X5.0937Y-4.0347
X5.0986Y-3.8719
X5.132Y-3.246
X5.1517Y-3.2853
X5.1714Y-3.3149
X5.191Y-3.3542
X5.266Y-3.8428
X5.2856Y-3.8821
X5.3053Y-3.9117
X5.325Y-3.951
X5.3584Y-3.3251
X5.3633Y-3.1623
X5.3644Y-3.7739
X5.4333Y-3.8723
X5.4411Y-4.7443
X5.489Y-3.766
X5.4892Y-4.1646
X5.494Y-4.2454
X5.5514Y-4.7443
X5.5514Y-4.2168
X5.6022Y-3.768
X5.6324Y-4.0316
X5.64Y-4.1676
X5.6417Y-3.9334
X5.6436Y-3.9019
X5.6451Y-3.8379
X5.6477Y-3.8701
X5.6522Y-4.007
X5.8143Y-4.0153
X5.8147Y-5.1345
X5.9333Y-4.7916
X5.9884Y-3.6774
X5.9884Y-3.7876
X5.9884Y-3.8861
X6.01Y-4.991
X6.023Y-3.967
X6.0908Y-4.3546
X6.1045Y-5.0869
X6.1045Y-5.1656
X6.1045Y-5.2443
X6.1075Y-5.0475
X6.127Y-3.967
X6.1286Y-4.0733
X6.1341Y-4.4058
X6.222Y-5.4412
X6.222Y-5.5199
X6.2226Y-4.9687
X6.2226Y-5.0475
X6.2226Y-5.1262
X6.2226Y-5.205
X6.2226Y-5.2837
X6.2226Y-5.3624
X6.2364Y-3.89
X6.3309Y-4.9097
X6.3998Y-5.0081
X6.4766Y-5.2758
X6.4819Y-5.1623
X6.498Y-3.205
X6.5573Y-5.0869
X6.623Y-3.017
X6.6316Y-3.2058
X6.636Y-4.9097
X6.665Y-2.954
X6.681Y-3.196
X6.689Y-3.944
X6.7089Y-4.7995
X6.7148Y-4.9097
X6.7261Y-3.2674
X6.773Y-3.068
X6.8205Y-5.2837
X6.823Y-4.6971
X6.823Y-4.9687
X6.823Y-5.0475
X6.823Y-5.1262
X6.823Y-5.205
X6.823Y-5.3624
X6.823Y-5.4412
X6.91Y-3.232
X7.006Y-3.105
X7.0278Y-5.39
X7.081Y-3.944
X7.1341Y-4.89
T3
X5.9788Y-4.04
X5.9788Y-4.14
X5.9788Y-4.24
X5.9788Y-4.34
X5.9788Y-4.44
X5.9788Y-4.54
X5.9788Y-4.64
X5.9788Y-4.74
X5.9788Y-4.84
X5.9788Y-4.94
X5.9788Y-5.04
X5.9788Y-5.14
X5.9788Y-5.24
X5.9788Y-5.34
X5.9788Y-5.44
X7.0772Y-4.04
X7.0772Y-4.14
X7.0772Y-4.24
X7.0772Y-4.34
X7.0772Y-4.44
X7.0772Y-4.54
X7.0772Y-4.64
X7.0772Y-4.74
X7.0772Y-4.84
X7.0772Y-4.94
X7.0772Y-5.04
X7.0772Y-5.14
X7.0772Y-5.24
X7.0772Y-5.34
X7.0772Y-5.44
X3.3798Y-1.757
X3.3798Y-1.857
X3.3798Y-1.957
X3.3798Y-2.057
X3.3798Y-2.157
X3.3798Y-2.257
X3.3798Y-2.357
X3.3798Y-2.457
X3.3798Y-2.557
X3.3798Y-2.657
X3.3798Y-2.757
X3.3798Y-2.857
X3.3798Y-2.957
X3.3798Y-3.057
X3.3798Y-3.157
X4.4782Y-1.757
X4.4782Y-1.857
X4.4782Y-1.957
X4.4782Y-2.057
X4.4782Y-2.157
X4.4782Y-2.257
X4.4782Y-2.357
X4.4782Y-2.457
X4.4782Y-2.557
X4.4782Y-2.657
X4.4782Y-2.757
X4.4782Y-2.857
X4.4782Y-2.957
X4.4782Y-3.057
X4.4782Y-3.157
T5
X4.645Y-2.23
X4.092Y-3.73
X4.092Y-3.83
X4.092Y-3.93
X4.0749Y-2.4416
X4.0749Y-2.5416
X4.0749Y-2.6416
X4.0749Y-2.7416
X4.0749Y-2.8416
X3.5763Y-3.1094
X3.6763Y-3.1094
X3.7763Y-3.1094
X4.2206Y-2.4416
X4.2206Y-2.5416
X4.2206Y-2.6416
X4.2206Y-2.7416
X4.2206Y-2.8416
X4.2206Y-2.9416
X4.2206Y-3.0416
X4.2206Y-3.1416
X4.754Y-2.714
X4.854Y-2.714
X6.6807Y-4.0876
X6.7807Y-4.0876
X6.8807Y-4.0876
X6.5278Y-4.4538
X6.5278Y-4.5538
X6.5278Y-4.6538
X6.5278Y-4.7538
X6.2364Y-4.0554
X6.2364Y-4.1554
X6.2364Y-4.2554
X6.2364Y-4.3554
X6.2364Y-4.4554
X6.2364Y-4.5554
X6.2364Y-4.6554
X6.2364Y-4.7554
X3.335Y-4.4908
X3.335Y-4.5908
X3.335Y-4.6908
X3.335Y-4.7908
X3.335Y-4.8908
X3.335Y-4.9908
X3.335Y-5.0908
X3.335Y-5.1908
X3.335Y-5.2908
X3.335Y-5.3908
X3.335Y-5.4908
X5.812Y-4.813
X4.209Y-4.4908
X4.209Y-4.5908
X4.209Y-4.6908
X4.209Y-4.7908
X4.209Y-4.8908
X4.209Y-4.9908
X4.209Y-5.0908
X4.209Y-5.1908
X4.209Y-5.2908
X4.209Y-5.3908
X4.209Y-5.4908
X5.0159Y-2.7204
X5.603Y-4.483
X5.703Y-4.483
X6.248Y-1.7062
X6.248Y-1.8062
X6.248Y-1.9062
X6.248Y-2.0062
X6.248Y-2.1062
X6.248Y-2.2062
X6.248Y-2.3062
X6.248Y-2.4062
X6.248Y-2.5062
X6.248Y-2.6062
X6.248Y-2.7062
X6.3821Y-4.3554
X6.3821Y-4.4554
X6.3821Y-4.5554
X6.3821Y-4.6554
X6.3821Y-4.7554
X5.4411Y-4.4766
X5.316Y-5.481
X5.416Y-5.481
X5.516Y-5.481
X5.616Y-5.481
X3.9292Y-2.4432
X3.9292Y-2.5432
X3.9292Y-2.6432
X3.9292Y-2.7432
X4.841Y-1.716
X4.941Y-1.716
X5.041Y-1.716
X5.141Y-1.716
X5.812Y-4.967
X7.122Y-1.7062
X7.122Y-1.8062
X7.122Y-1.9062
X7.122Y-2.0062
X7.122Y-2.1062
X7.122Y-2.2062
X7.122Y-2.3062
X7.122Y-2.4062
X7.122Y-2.5062
X7.122Y-2.6062
X7.122Y-2.7062
X4.239Y-3.731
X4.239Y-3.831
X4.239Y-3.931
X4.239Y-4.031
X4.8159Y-2.5747
X4.9159Y-2.5747
X5.0159Y-2.5747
X6.218Y-3.166
X6.218Y-3.266
X6.218Y-3.366
X6.218Y-3.466
X4.645Y-2.384
X6.365Y-3.267
X6.365Y-3.367
X6.365Y-3.467
X5.4411Y-4.6223
X5.5411Y-4.6223
X5.6411Y-4.6223
T6
X5.2836Y-2.7409
X5.2836Y-2.8409
X5.2836Y-2.9409
X5.2836Y-2.3196
X5.2836Y-2.4196
X5.2836Y-2.5196
X5.1734Y-4.2561
X5.1734Y-4.3561
X5.1734Y-4.4561
X5.2836Y-3.1621
X5.2836Y-3.2621
X5.2836Y-3.3621
X5.1734Y-3.8349
X5.1734Y-3.9349
X5.1734Y-4.0349
X5.1734Y-5.0987
X5.1734Y-5.1987
X5.1734Y-5.2987
X5.2836Y-1.8983
X5.2836Y-1.9983
X5.2836Y-2.0983
X5.1734Y-4.6774
X5.1734Y-4.7774
X5.1734Y-4.8774
T7
X5.789Y-2.043
X5.789Y-2.2399
X5.789Y-2.4367
X5.789Y-2.6336
X5.789Y-2.8304
X5.789Y-3.0273
X5.789Y-3.2241
X5.789Y-3.421
X4.6458Y-1.7794
X4.6458Y-2.5861
X5.8112Y-4.6109
X5.8112Y-5.4176
X4.668Y-3.776
X4.668Y-3.9729
X4.668Y-4.1697
X4.668Y-4.3666
X4.668Y-4.5634
X4.668Y-4.7603
X4.668Y-4.9571
X4.668Y-5.154
T8
X3.86Y-3.393
X4.06Y-3.393
X6.397Y-3.804
X6.597Y-3.804
T9
X3.4625Y-3.9436
X3.4625Y-4.1404
X6.9945Y-3.0566
X6.9945Y-3.2534
T10
X6.088Y-2.1304
X4.369Y-4.4749
X4.369Y-4.5407
X6.088Y-1.736
X4.369Y-4.6721
X4.369Y-4.0148
X4.369Y-5.0666
X6.088Y-2.2619
X6.088Y-1.8017
X6.088Y-2.985
X6.088Y-3.3794
X6.088Y-3.248
X6.088Y-3.5109
X4.369Y-4.2777
X6.088Y-2.5249
X6.088Y-3.0508
X4.369Y-5.3295
X4.369Y-3.8176
X6.088Y-1.9332
X6.088Y-2.0647
X6.088Y-2.7878
X4.369Y-5.2638
X4.369Y-4.212
X4.369Y-4.9351
X4.369Y-4.3435
X4.369Y-4.8036
X6.088Y-1.8675
X4.369Y-4.6064
X6.088Y-1.999
X6.088Y-2.5906
X4.369Y-3.7518
X6.088Y-1.6703
X4.369Y-4.8694
X6.088Y-2.7221
X6.088Y-3.3137
X6.088Y-3.4452
X4.369Y-4.0805
X4.369Y-5.5267
X6.088Y-2.3934
X4.369Y-5.1323
X4.369Y-5.198
X4.369Y-4.4092
X6.088Y-3.1822
X6.088Y-3.1165
X4.369Y-4.7379
X4.369Y-3.949
X6.088Y-2.1962
X4.369Y-5.461
X6.088Y-2.9193
X4.369Y-3.8833
X4.369Y-4.1462
X6.088Y-2.3276
X6.088Y-2.6563
X4.369Y-3.6861
X6.088Y-2.8535
X4.369Y-5.3953
X6.088Y-2.4591
X4.369Y-5.0008
T11
X4.543Y-5.425
X3.431Y-3.438
X7.026Y-3.759
X5.914Y-1.772
T2
G00X3.367Y-3.8894
M15
G01X3.3414Y-3.8894
M16
G05
G00X3.367Y-4.1946
M15
G01X3.3414Y-4.1946
M16
G05
G00X7.09Y-3.0024
M15
G01X7.1156Y-3.0024
M16
G05
G00X7.09Y-3.3076
M15
G01X7.1156Y-3.3076
M16
G05
T4
G00X3.5147Y-3.8953
M15
G01X3.493Y-3.8953
M16
G05
G00X3.5147Y-4.1887
M15
G01X3.493Y-4.1887
M16
G05
G00X6.9423Y-3.0083
M15
G01X6.964Y-3.0083
M16
G05
G00X6.9423Y-3.3017
M15
G01X6.964Y-3.3017
M16
G05
T0
M30
