%TF.GenerationSoftware,KiCad,Pcbnew,5.1.6-c6e7f7d~87~ubuntu20.04.1*%
%TF.CreationDate,2020-10-04T13:32:25-03:00*%
%TF.ProjectId,Placa tesis,506c6163-6120-4746-9573-69732e6b6963,rev?*%
%TF.SameCoordinates,Original*%
%TF.FileFunction,Legend,Bot*%
%TF.FilePolarity,Positive*%
%FSLAX46Y46*%
G04 Gerber Fmt 4.6, Leading zero omitted, Abs format (unit mm)*
G04 Created by KiCad (PCBNEW 5.1.6-c6e7f7d~87~ubuntu20.04.1) date 2020-10-04 13:32:25*
%MOMM*%
%LPD*%
G01*
G04 APERTURE LIST*
%ADD10C,0.150000*%
%TA.AperFunction,Profile*%
%ADD11C,0.150000*%
%TD*%
%ADD12C,0.120000*%
G04 APERTURE END LIST*
D10*
X111861600Y-141376400D02*
X111861600Y-91694000D01*
X109829600Y-111937800D02*
X82804000Y-111937800D01*
X109949801Y-111937800D02*
X109949801Y-92608400D01*
X108839000Y-141376400D02*
X108839000Y-112141000D01*
X108839000Y-112141000D02*
X82804000Y-112141000D01*
D11*
X82804000Y-141408200D02*
X182805200Y-141406200D01*
X82804000Y-91414600D02*
X82804000Y-141408200D01*
X182803800Y-91414600D02*
X182805200Y-141406200D01*
D10*
X153746200Y-41427400D02*
X153746200Y-91109800D01*
X155657999Y-70866000D02*
X155657999Y-90195400D01*
X155778200Y-70866000D02*
X182803800Y-70866000D01*
X156768800Y-41427400D02*
X156768800Y-70662800D01*
X156768800Y-70662800D02*
X182803800Y-70662800D01*
D11*
X182803800Y-41395600D02*
X82802600Y-41397600D01*
X82804000Y-91414600D02*
X82802600Y-41397600D01*
X182803800Y-91414600D02*
X182803800Y-41395600D01*
D12*
%TO.C,BT1*%
X144605200Y-139806200D02*
X144605200Y-134106200D01*
X144605200Y-139806200D02*
X150605200Y-139806200D01*
X150605200Y-139806200D02*
X150604533Y-134106200D01*
X150604533Y-134106200D02*
G75*
G02*
X151090008Y-133367742I794761J6319D01*
G01*
X144078816Y-133354446D02*
G75*
G02*
X144605200Y-134106200I-273616J-751754D01*
G01*
X151090008Y-133367742D02*
G75*
G03*
X144078816Y-133354446I-3484833J10955151D01*
G01*
%TO.C,J2*%
X109000600Y-93437400D02*
X107670600Y-93437400D01*
X109000600Y-94767400D02*
X109000600Y-93437400D01*
X109000600Y-96037400D02*
X106340600Y-96037400D01*
X106340600Y-96037400D02*
X106340600Y-103717400D01*
X109000600Y-96037400D02*
X109000600Y-103717400D01*
X109000600Y-103717400D02*
X106340600Y-103717400D01*
%TO.C,BT1*%
X121002600Y-42997600D02*
X121002600Y-48697600D01*
X121002600Y-42997600D02*
X115002600Y-42997600D01*
X115002600Y-42997600D02*
X115003267Y-48697600D01*
X114517792Y-49436058D02*
G75*
G03*
X121528984Y-49449354I3484833J-10955151D01*
G01*
X121528984Y-49449354D02*
G75*
G02*
X121002600Y-48697600I273616J751754D01*
G01*
X115003267Y-48697600D02*
G75*
G02*
X114517792Y-49436058I-794761J-6319D01*
G01*
%TO.C,J2*%
X156607200Y-89366400D02*
X157937200Y-89366400D01*
X156607200Y-88036400D02*
X156607200Y-89366400D01*
X156607200Y-86766400D02*
X159267200Y-86766400D01*
X159267200Y-86766400D02*
X159267200Y-79086400D01*
X156607200Y-86766400D02*
X156607200Y-79086400D01*
X156607200Y-79086400D02*
X159267200Y-79086400D01*
%TD*%
%TO.C,BT1*%
D10*
X151833771Y-136820485D02*
X151881390Y-136963342D01*
X151929009Y-137010961D01*
X152024247Y-137058580D01*
X152167104Y-137058580D01*
X152262342Y-137010961D01*
X152309961Y-136963342D01*
X152357580Y-136868104D01*
X152357580Y-136487152D01*
X151357580Y-136487152D01*
X151357580Y-136820485D01*
X151405200Y-136915723D01*
X151452819Y-136963342D01*
X151548057Y-137010961D01*
X151643295Y-137010961D01*
X151738533Y-136963342D01*
X151786152Y-136915723D01*
X151833771Y-136820485D01*
X151833771Y-136487152D01*
X151357580Y-137344295D02*
X151357580Y-137915723D01*
X152357580Y-137630009D02*
X151357580Y-137630009D01*
X152357580Y-138772866D02*
X152357580Y-138201438D01*
X152357580Y-138487152D02*
X151357580Y-138487152D01*
X151500438Y-138391914D01*
X151595676Y-138296676D01*
X151643295Y-138201438D01*
X147712342Y-134284771D02*
X147712342Y-135427628D01*
X148283771Y-134856200D02*
X147140914Y-134856200D01*
%TO.C,J2*%
X108003933Y-91889780D02*
X108003933Y-92604066D01*
X108051552Y-92746923D01*
X108146790Y-92842161D01*
X108289647Y-92889780D01*
X108384885Y-92889780D01*
X107575361Y-91985019D02*
X107527742Y-91937400D01*
X107432504Y-91889780D01*
X107194409Y-91889780D01*
X107099171Y-91937400D01*
X107051552Y-91985019D01*
X107003933Y-92080257D01*
X107003933Y-92175495D01*
X107051552Y-92318352D01*
X107622980Y-92889780D01*
X107003933Y-92889780D01*
%TO.C,BT1*%
X113631171Y-44411885D02*
X113678790Y-44554742D01*
X113726409Y-44602361D01*
X113821647Y-44649980D01*
X113964504Y-44649980D01*
X114059742Y-44602361D01*
X114107361Y-44554742D01*
X114154980Y-44459504D01*
X114154980Y-44078552D01*
X113154980Y-44078552D01*
X113154980Y-44411885D01*
X113202600Y-44507123D01*
X113250219Y-44554742D01*
X113345457Y-44602361D01*
X113440695Y-44602361D01*
X113535933Y-44554742D01*
X113583552Y-44507123D01*
X113631171Y-44411885D01*
X113631171Y-44078552D01*
X113154980Y-44935695D02*
X113154980Y-45507123D01*
X114154980Y-45221409D02*
X113154980Y-45221409D01*
X114154980Y-46364266D02*
X114154980Y-45792838D01*
X114154980Y-46078552D02*
X113154980Y-46078552D01*
X113297838Y-45983314D01*
X113393076Y-45888076D01*
X113440695Y-45792838D01*
X118109742Y-47376171D02*
X118109742Y-48519028D01*
X118681171Y-47947600D02*
X117538314Y-47947600D01*
%TO.C,J2*%
X158270533Y-89818780D02*
X158270533Y-90533066D01*
X158318152Y-90675923D01*
X158413390Y-90771161D01*
X158556247Y-90818780D01*
X158651485Y-90818780D01*
X157841961Y-89914019D02*
X157794342Y-89866400D01*
X157699104Y-89818780D01*
X157461009Y-89818780D01*
X157365771Y-89866400D01*
X157318152Y-89914019D01*
X157270533Y-90009257D01*
X157270533Y-90104495D01*
X157318152Y-90247352D01*
X157889580Y-90818780D01*
X157270533Y-90818780D01*
%TD*%
M02*
