%TF.GenerationSoftware,KiCad,Pcbnew,5.1.6-c6e7f7d~87~ubuntu20.04.1*%
%TF.CreationDate,2020-10-04T13:32:25-03:00*%
%TF.ProjectId,Placa tesis,506c6163-6120-4746-9573-69732e6b6963,rev?*%
%TF.SameCoordinates,Original*%
%TF.FileFunction,Soldermask,Bot*%
%TF.FilePolarity,Negative*%
%FSLAX46Y46*%
G04 Gerber Fmt 4.6, Leading zero omitted, Abs format (unit mm)*
G04 Created by KiCad (PCBNEW 5.1.6-c6e7f7d~87~ubuntu20.04.1) date 2020-10-04 13:32:25*
%MOMM*%
%LPD*%
G01*
G04 APERTURE LIST*
%TA.AperFunction,Profile*%
%ADD10C,0.150000*%
%TD*%
%ADD11C,0.150000*%
%ADD12C,1.400000*%
%ADD13R,3.400000X3.400000*%
%ADD14C,3.400000*%
%ADD15R,2.100000X2.100000*%
%ADD16O,1.200000X1.200000*%
%ADD17O,2.200000X1.550000*%
%ADD18O,2.400000X1.850000*%
%ADD19O,2.100000X2.100000*%
%ADD20O,2.400000X1.600000*%
%ADD21O,2.400000X2.305000*%
%ADD22R,2.400000X2.305000*%
G04 APERTURE END LIST*
D10*
X82804000Y-141408200D02*
X182805200Y-141406200D01*
D11*
X82804000Y-91414600D02*
X182803800Y-91414600D01*
D10*
X82804000Y-91414600D02*
X82804000Y-141408200D01*
X182803800Y-91414600D02*
X182805200Y-141406200D01*
X182803800Y-41395600D02*
X82802600Y-41397600D01*
X82804000Y-91414600D02*
X82802600Y-41397600D01*
X182803800Y-91414600D02*
X182803800Y-41395600D01*
D12*
%TO.C,REF\u002A\u002A*%
X110972600Y-140378874D03*
%TD*%
%TO.C,REF\u002A\u002A*%
X110972600Y-132030244D03*
%TD*%
%TO.C,REF\u002A\u002A*%
X110972600Y-135369696D03*
%TD*%
%TO.C,REF\u002A\u002A*%
X110972600Y-105314628D03*
%TD*%
%TO.C,REF\u002A\u002A*%
X110972600Y-101975176D03*
%TD*%
%TO.C,REF\u002A\u002A*%
X110972600Y-98635724D03*
%TD*%
D13*
%TO.C,BT1*%
X147605200Y-137606200D03*
D14*
X147605200Y-117116200D03*
%TD*%
D12*
%TO.C,REF\u002A\u002A*%
X110972600Y-108654080D03*
%TD*%
%TO.C,REF\u002A\u002A*%
X110972600Y-125351340D03*
%TD*%
%TO.C,REF\u002A\u002A*%
X110972600Y-113663258D03*
%TD*%
%TO.C,REF\u002A\u002A*%
X110972600Y-115332984D03*
%TD*%
%TO.C,REF\u002A\u002A*%
X110972600Y-128690792D03*
%TD*%
%TO.C,REF\u002A\u002A*%
X110972600Y-110323806D03*
%TD*%
%TO.C,REF\u002A\u002A*%
X110972600Y-120342162D03*
%TD*%
%TO.C,REF\u002A\u002A*%
X110972600Y-96965998D03*
%TD*%
%TO.C,REF\u002A\u002A*%
X110972600Y-138709148D03*
%TD*%
%TO.C,REF\u002A\u002A*%
X110972600Y-127021066D03*
%TD*%
D15*
%TO.C,J12*%
X147624800Y-122250200D03*
%TD*%
D16*
%TO.C,J11*%
X87947400Y-105166800D03*
X87947400Y-100166800D03*
D17*
X85197400Y-106541800D03*
X85197400Y-98791800D03*
D18*
X88997400Y-106391800D03*
X88997400Y-98941800D03*
%TD*%
D12*
%TO.C,REF\u002A\u002A*%
X110972600Y-100305450D03*
%TD*%
D19*
%TO.C,J2*%
X107670600Y-102387400D03*
X107670600Y-99847400D03*
X107670600Y-97307400D03*
D15*
X107670600Y-94767400D03*
%TD*%
D19*
%TO.C,J9*%
X103936800Y-94742000D03*
X103936800Y-97282000D03*
D15*
X103936800Y-99822000D03*
%TD*%
D12*
%TO.C,REF\u002A\u002A*%
X110972600Y-95296272D03*
%TD*%
D15*
%TO.C,J10*%
X147624800Y-126161800D03*
%TD*%
D12*
%TO.C,REF\u002A\u002A*%
X110972600Y-123681614D03*
%TD*%
%TO.C,REF\u002A\u002A*%
X110972600Y-133699970D03*
%TD*%
%TO.C,REF\u002A\u002A*%
X110972600Y-130360518D03*
%TD*%
%TO.C,REF\u002A\u002A*%
X110972600Y-118672436D03*
%TD*%
%TO.C,REF\u002A\u002A*%
X110972600Y-122011888D03*
%TD*%
%TO.C,REF\u002A\u002A*%
X110972600Y-111993532D03*
%TD*%
%TO.C,REF\u002A\u002A*%
X110972600Y-117002710D03*
%TD*%
%TO.C,REF\u002A\u002A*%
X110972600Y-137039422D03*
%TD*%
%TO.C,REF\u002A\u002A*%
X110972600Y-93626546D03*
%TD*%
%TO.C,REF\u002A\u002A*%
X110972600Y-106984354D03*
%TD*%
%TO.C,REF\u002A\u002A*%
X110972600Y-103644902D03*
%TD*%
D20*
%TO.C,U2*%
X151861200Y-138176000D03*
X179761200Y-138176000D03*
X151861200Y-135636000D03*
X179761200Y-135636000D03*
X151861200Y-133096000D03*
X179761200Y-133096000D03*
X151861200Y-130556000D03*
X179761200Y-130556000D03*
X151861200Y-128016000D03*
X179761200Y-128016000D03*
X151861200Y-125476000D03*
X179761200Y-125476000D03*
X151861200Y-122936000D03*
X179761200Y-122936000D03*
X151861200Y-120396000D03*
X179761200Y-120396000D03*
X151861200Y-117856000D03*
X179761200Y-117856000D03*
X151861200Y-115316000D03*
X179761200Y-115316000D03*
X151861200Y-112776000D03*
X179761200Y-112776000D03*
X151861200Y-110236000D03*
X179761200Y-110236000D03*
X151861200Y-107696000D03*
X179761200Y-107696000D03*
X151861200Y-105156000D03*
X179761200Y-105156000D03*
X151861200Y-102616000D03*
X179761200Y-102616000D03*
%TD*%
D15*
%TO.C,TH1*%
X142316200Y-113868200D03*
D19*
X144856200Y-113868200D03*
%TD*%
D21*
%TO.C,Q4*%
X131405200Y-102486200D03*
X131405200Y-99946200D03*
D22*
X131405200Y-97406200D03*
%TD*%
D15*
%TO.C,J1*%
X169690200Y-103824200D03*
D19*
X172230200Y-103824200D03*
X174770200Y-103824200D03*
%TD*%
D14*
%TO.C,REF\u002A\u002A*%
X178460400Y-95478600D03*
%TD*%
%TO.C,J3*%
X162483800Y-96621600D03*
D13*
X167563800Y-96621600D03*
%TD*%
D22*
%TO.C,Q1*%
X131405200Y-129506200D03*
D21*
X131405200Y-132046200D03*
X131405200Y-134586200D03*
%TD*%
D19*
%TO.C,J13*%
X162105200Y-120786200D03*
X162105200Y-118246200D03*
X162105200Y-115706200D03*
X162105200Y-113166200D03*
D15*
X162105200Y-110626200D03*
%TD*%
D19*
%TO.C,J15*%
X165805200Y-113126200D03*
X165805200Y-115666200D03*
X165805200Y-118206200D03*
D15*
X165805200Y-120746200D03*
%TD*%
D21*
%TO.C,Q2*%
X131405200Y-123886200D03*
X131405200Y-121346200D03*
D22*
X131405200Y-118806200D03*
%TD*%
D21*
%TO.C,Q3*%
X131405200Y-113186200D03*
X131405200Y-110646200D03*
D22*
X131405200Y-108106200D03*
%TD*%
D19*
%TO.C,J4*%
X138205200Y-117406200D03*
X140745200Y-117406200D03*
D15*
X143285200Y-117406200D03*
%TD*%
%TO.C,J8*%
X84708400Y-114067400D03*
D19*
X84708400Y-116607400D03*
X84708400Y-119147400D03*
X84708400Y-121687400D03*
X84708400Y-124227400D03*
X84708400Y-126767400D03*
X84708400Y-129307400D03*
X84708400Y-131847400D03*
X84708400Y-134387400D03*
X84708400Y-136927400D03*
X84708400Y-139467400D03*
%TD*%
%TO.C,J7*%
X106908400Y-114067400D03*
X106908400Y-116607400D03*
X106908400Y-119147400D03*
X106908400Y-121687400D03*
X106908400Y-124227400D03*
X106908400Y-126767400D03*
X106908400Y-129307400D03*
X106908400Y-131847400D03*
X106908400Y-134387400D03*
X106908400Y-136927400D03*
D15*
X106908400Y-139467400D03*
%TD*%
D14*
%TO.C,J6*%
X118567200Y-130910400D03*
X118567200Y-125910400D03*
X118567200Y-120910400D03*
X118567200Y-115910400D03*
X118567200Y-110910400D03*
X118567200Y-105910400D03*
X118567200Y-100910400D03*
D13*
X118567200Y-95910400D03*
%TD*%
D14*
%TO.C,REF\u002A\u002A*%
X115392200Y-137795000D03*
%TD*%
D19*
%TO.C,J14*%
X158405200Y-120786200D03*
X158405200Y-118246200D03*
X158405200Y-115706200D03*
X158405200Y-113166200D03*
X158405200Y-110626200D03*
X158405200Y-108086200D03*
X158405200Y-105546200D03*
D15*
X158405200Y-103006200D03*
%TD*%
%TO.C,OutP*%
X138205200Y-113706200D03*
%TD*%
D19*
%TO.C,J5*%
X142646400Y-139217400D03*
X140106400Y-139217400D03*
X137566400Y-139217400D03*
D15*
X135026400Y-139217400D03*
%TD*%
D14*
%TO.C,BT1*%
X118002600Y-65687600D03*
D13*
X118002600Y-45197600D03*
%TD*%
D20*
%TO.C,U2*%
X85846600Y-80187800D03*
X113746600Y-80187800D03*
X85846600Y-77647800D03*
X113746600Y-77647800D03*
X85846600Y-75107800D03*
X113746600Y-75107800D03*
X85846600Y-72567800D03*
X113746600Y-72567800D03*
X85846600Y-70027800D03*
X113746600Y-70027800D03*
X85846600Y-67487800D03*
X113746600Y-67487800D03*
X85846600Y-64947800D03*
X113746600Y-64947800D03*
X85846600Y-62407800D03*
X113746600Y-62407800D03*
X85846600Y-59867800D03*
X113746600Y-59867800D03*
X85846600Y-57327800D03*
X113746600Y-57327800D03*
X85846600Y-54787800D03*
X113746600Y-54787800D03*
X85846600Y-52247800D03*
X113746600Y-52247800D03*
X85846600Y-49707800D03*
X113746600Y-49707800D03*
X85846600Y-47167800D03*
X113746600Y-47167800D03*
X85846600Y-44627800D03*
X113746600Y-44627800D03*
%TD*%
D15*
%TO.C,J5*%
X130581400Y-43586400D03*
D19*
X128041400Y-43586400D03*
X125501400Y-43586400D03*
X122961400Y-43586400D03*
%TD*%
D12*
%TO.C,REF\u002A\u002A*%
X154635200Y-89177254D03*
%TD*%
%TO.C,REF\u002A\u002A*%
X154635200Y-87507528D03*
%TD*%
%TO.C,REF\u002A\u002A*%
X154635200Y-85837802D03*
%TD*%
%TO.C,REF\u002A\u002A*%
X154635200Y-84168076D03*
%TD*%
%TO.C,REF\u002A\u002A*%
X154635200Y-82498350D03*
%TD*%
%TO.C,REF\u002A\u002A*%
X154635200Y-80828624D03*
%TD*%
%TO.C,REF\u002A\u002A*%
X154635200Y-79158898D03*
%TD*%
%TO.C,REF\u002A\u002A*%
X154635200Y-77489172D03*
%TD*%
%TO.C,REF\u002A\u002A*%
X154635200Y-75819446D03*
%TD*%
%TO.C,REF\u002A\u002A*%
X154635200Y-74149720D03*
%TD*%
%TO.C,REF\u002A\u002A*%
X154635200Y-72479994D03*
%TD*%
%TO.C,REF\u002A\u002A*%
X154635200Y-70810268D03*
%TD*%
%TO.C,REF\u002A\u002A*%
X154635200Y-69140542D03*
%TD*%
%TO.C,REF\u002A\u002A*%
X154635200Y-65801090D03*
%TD*%
%TO.C,REF\u002A\u002A*%
X154635200Y-67470816D03*
%TD*%
%TO.C,REF\u002A\u002A*%
X154635200Y-64131364D03*
%TD*%
%TO.C,REF\u002A\u002A*%
X154635200Y-62461638D03*
%TD*%
%TO.C,REF\u002A\u002A*%
X154635200Y-60791912D03*
%TD*%
%TO.C,REF\u002A\u002A*%
X154635200Y-59122186D03*
%TD*%
%TO.C,REF\u002A\u002A*%
X154635200Y-57452460D03*
%TD*%
%TO.C,REF\u002A\u002A*%
X154635200Y-55782734D03*
%TD*%
%TO.C,REF\u002A\u002A*%
X154635200Y-54113008D03*
%TD*%
%TO.C,REF\u002A\u002A*%
X154635200Y-52443282D03*
%TD*%
%TO.C,REF\u002A\u002A*%
X154635200Y-50773556D03*
%TD*%
%TO.C,REF\u002A\u002A*%
X154635200Y-49103830D03*
%TD*%
%TO.C,REF\u002A\u002A*%
X154635200Y-47434104D03*
%TD*%
%TO.C,REF\u002A\u002A*%
X154635200Y-45764378D03*
%TD*%
%TO.C,REF\u002A\u002A*%
X154635200Y-44094652D03*
%TD*%
%TO.C,REF\u002A\u002A*%
X154635200Y-42424926D03*
%TD*%
D15*
%TO.C,J9*%
X161671000Y-82981800D03*
D19*
X161671000Y-85521800D03*
X161671000Y-88061800D03*
%TD*%
D15*
%TO.C,J4*%
X122322600Y-65397600D03*
D19*
X124862600Y-65397600D03*
X127402600Y-65397600D03*
%TD*%
D14*
%TO.C,REF\u002A\u002A*%
X150215600Y-45008800D03*
%TD*%
D15*
%TO.C,J13*%
X103502600Y-72177600D03*
D19*
X103502600Y-69637600D03*
X103502600Y-67097600D03*
X103502600Y-64557600D03*
X103502600Y-62017600D03*
%TD*%
D15*
%TO.C,J14*%
X107202600Y-79797600D03*
D19*
X107202600Y-77257600D03*
X107202600Y-74717600D03*
X107202600Y-72177600D03*
X107202600Y-69637600D03*
X107202600Y-67097600D03*
X107202600Y-64557600D03*
X107202600Y-62017600D03*
%TD*%
D15*
%TO.C,J15*%
X99802600Y-62057600D03*
D19*
X99802600Y-64597600D03*
X99802600Y-67137600D03*
X99802600Y-69677600D03*
%TD*%
%TO.C,TH1*%
X120751600Y-68935600D03*
D15*
X123291600Y-68935600D03*
%TD*%
D19*
%TO.C,J1*%
X90837600Y-78979600D03*
X93377600Y-78979600D03*
D15*
X95917600Y-78979600D03*
%TD*%
D14*
%TO.C,REF\u002A\u002A*%
X87147400Y-87325200D03*
%TD*%
D15*
%TO.C,OutP*%
X127402600Y-69097600D03*
%TD*%
D13*
%TO.C,J6*%
X147040600Y-86893400D03*
D14*
X147040600Y-81893400D03*
X147040600Y-76893400D03*
X147040600Y-71893400D03*
X147040600Y-66893400D03*
X147040600Y-61893400D03*
X147040600Y-56893400D03*
X147040600Y-51893400D03*
%TD*%
D22*
%TO.C,Q4*%
X134202600Y-85397600D03*
D21*
X134202600Y-82857600D03*
X134202600Y-80317600D03*
%TD*%
%TO.C,Q1*%
X134202600Y-48217600D03*
X134202600Y-50757600D03*
D22*
X134202600Y-53297600D03*
%TD*%
%TO.C,Q2*%
X134202600Y-63997600D03*
D21*
X134202600Y-61457600D03*
X134202600Y-58917600D03*
%TD*%
D22*
%TO.C,Q3*%
X134202600Y-74697600D03*
D21*
X134202600Y-72157600D03*
X134202600Y-69617600D03*
%TD*%
D13*
%TO.C,J3*%
X98044000Y-86182200D03*
D14*
X103124000Y-86182200D03*
%TD*%
D15*
%TO.C,J7*%
X158699400Y-43336400D03*
D19*
X158699400Y-45876400D03*
X158699400Y-48416400D03*
X158699400Y-50956400D03*
X158699400Y-53496400D03*
X158699400Y-56036400D03*
X158699400Y-58576400D03*
X158699400Y-61116400D03*
X158699400Y-63656400D03*
X158699400Y-66196400D03*
X158699400Y-68736400D03*
%TD*%
%TO.C,J8*%
X180899400Y-43336400D03*
X180899400Y-45876400D03*
X180899400Y-48416400D03*
X180899400Y-50956400D03*
X180899400Y-53496400D03*
X180899400Y-56036400D03*
X180899400Y-58576400D03*
X180899400Y-61116400D03*
X180899400Y-63656400D03*
X180899400Y-66196400D03*
D15*
X180899400Y-68736400D03*
%TD*%
%TO.C,J2*%
X157937200Y-88036400D03*
D19*
X157937200Y-85496400D03*
X157937200Y-82956400D03*
X157937200Y-80416400D03*
%TD*%
D18*
%TO.C,J11*%
X176610400Y-83862000D03*
X176610400Y-76412000D03*
D17*
X180410400Y-84012000D03*
X180410400Y-76262000D03*
D16*
X177660400Y-82637000D03*
X177660400Y-77637000D03*
%TD*%
D15*
%TO.C,J10*%
X117983000Y-56642000D03*
%TD*%
%TO.C,J12*%
X117983000Y-60553600D03*
%TD*%
M02*
