%TF.GenerationSoftware,KiCad,Pcbnew,5.0.0-fee4fd1~66~ubuntu18.04.1*%
%TF.CreationDate,2019-06-24T19:08:59-03:00*%
%TF.ProjectId,Placa tesis,506C6163612074657369732E6B696361,rev?*%
%TF.SameCoordinates,Original*%
%TF.FileFunction,Copper,L2,Bot,Signal*%
%TF.FilePolarity,Positive*%
%FSLAX46Y46*%
G04 Gerber Fmt 4.6, Leading zero omitted, Abs format (unit mm)*
G04 Created by KiCad (PCBNEW 5.0.0-fee4fd1~66~ubuntu18.04.1) date Mon Jun 24 19:08:59 2019*
%MOMM*%
%LPD*%
G01*
G04 APERTURE LIST*
%TA.AperFunction,NonConductor*%
%ADD10C,0.150000*%
%TD*%
%TA.AperFunction,ComponentPad*%
%ADD11O,1.700000X1.700000*%
%TD*%
%TA.AperFunction,ComponentPad*%
%ADD12R,1.700000X1.700000*%
%TD*%
%TA.AperFunction,ComponentPad*%
%ADD13O,3.960000X1.980000*%
%TD*%
%TA.AperFunction,ComponentPad*%
%ADD14R,3.960000X1.980000*%
%TD*%
%TA.AperFunction,ComponentPad*%
%ADD15O,2.000000X1.200000*%
%TD*%
%TA.AperFunction,ComponentPad*%
%ADD16O,2.032000X2.540000*%
%TD*%
%TA.AperFunction,ComponentPad*%
%ADD17O,1.800000X1.150000*%
%TD*%
%TA.AperFunction,ComponentPad*%
%ADD18O,2.000000X1.450000*%
%TD*%
%TA.AperFunction,ComponentPad*%
%ADD19C,3.000000*%
%TD*%
%TA.AperFunction,ComponentPad*%
%ADD20R,3.000000X3.000000*%
%TD*%
%TA.AperFunction,ViaPad*%
%ADD21C,0.600000*%
%TD*%
%TA.AperFunction,Conductor*%
%ADD22C,0.250000*%
%TD*%
%TA.AperFunction,Conductor*%
%ADD23C,0.500000*%
%TD*%
%TA.AperFunction,Conductor*%
%ADD24C,2.000000*%
%TD*%
%TA.AperFunction,Conductor*%
%ADD25C,1.000000*%
%TD*%
%TA.AperFunction,Conductor*%
%ADD26C,1.500000*%
%TD*%
%TA.AperFunction,Conductor*%
%ADD27C,0.254000*%
%TD*%
G04 APERTURE END LIST*
D10*
X70485000Y-140119100D02*
X153924000Y-140119100D01*
X70485000Y-101854000D02*
X153924000Y-101854000D01*
X153924000Y-41021000D02*
X153924000Y-140119100D01*
X70485000Y-41021000D02*
X70485000Y-140119100D01*
X70485000Y-41021000D02*
X153924000Y-41021000D01*
D11*
%TO.P,J1,3*%
%TO.N,V5*%
X132715000Y-55118000D03*
%TO.P,J1,2*%
%TO.N,GND*%
X130175000Y-55118000D03*
D12*
%TO.P,J1,1*%
%TO.N,Vin*%
X127635000Y-55118000D03*
%TD*%
%TO.P,J7,1*%
%TO.N,Net-(J7-Pad1)*%
X97996544Y-123860024D03*
D11*
%TO.P,J7,2*%
%TO.N,Net-(J7-Pad2)*%
X97996544Y-121320024D03*
%TO.P,J7,3*%
%TO.N,Net-(J7-Pad3)*%
X97996544Y-118780024D03*
%TO.P,J7,4*%
%TO.N,Net-(J7-Pad4)*%
X97996544Y-116240024D03*
%TO.P,J7,5*%
%TO.N,Net-(J7-Pad5)*%
X97996544Y-113700024D03*
%TO.P,J7,6*%
%TO.N,Net-(J7-Pad6)*%
X97996544Y-111160024D03*
%TO.P,J7,7*%
%TO.N,Net-(J7-Pad7)*%
X97996544Y-108620024D03*
%TO.P,J7,8*%
%TO.N,Net-(J7-Pad8)*%
X97996544Y-106080024D03*
%TD*%
D12*
%TO.P,OutP,1*%
%TO.N,OutP*%
X94869000Y-89408000D03*
%TD*%
D11*
%TO.P,TH1,2*%
%TO.N,GND*%
X97409000Y-89408000D03*
D12*
%TO.P,TH1,1*%
%TO.N,Net-(R10-Pad2)*%
X99949000Y-89408000D03*
%TD*%
D13*
%TO.P,D1,2*%
%TO.N,Vin*%
X80579001Y-46453001D03*
D14*
%TO.P,D1,1*%
%TO.N,DR1*%
X80579001Y-51453001D03*
%TD*%
D13*
%TO.P,D2,2*%
%TO.N,Vin*%
X91440000Y-46435000D03*
D14*
%TO.P,D2,1*%
%TO.N,DR2*%
X91440000Y-51435000D03*
%TD*%
%TO.P,D4,1*%
%TO.N,DR4*%
X113284000Y-51435000D03*
D13*
%TO.P,D4,2*%
%TO.N,Vin*%
X113284000Y-46435000D03*
%TD*%
D14*
%TO.P,D3,1*%
%TO.N,DR3*%
X102362000Y-51435000D03*
D13*
%TO.P,D3,2*%
%TO.N,Vin*%
X102362000Y-46435000D03*
%TD*%
D15*
%TO.P,U2,30*%
%TO.N,D0*%
X122382978Y-89333063D03*
%TO.P,U2,1*%
%TO.N,ADC*%
X150282978Y-89333063D03*
%TO.P,U2,29*%
%TO.N,D1*%
X122382978Y-86793063D03*
%TO.P,U2,2*%
%TO.N,Net-(U2-Pad2)*%
X150282978Y-86793063D03*
%TO.P,U2,28*%
%TO.N,D2*%
X122382978Y-84253063D03*
%TO.P,U2,3*%
%TO.N,Net-(U2-Pad3)*%
X150282978Y-84253063D03*
%TO.P,U2,27*%
%TO.N,D3*%
X122382978Y-81713063D03*
%TO.P,U2,4*%
%TO.N,S3*%
X150282978Y-81713063D03*
%TO.P,U2,26*%
%TO.N,D4*%
X122382978Y-79173063D03*
%TO.P,U2,5*%
%TO.N,S2*%
X150282978Y-79173063D03*
%TO.P,U2,25*%
%TO.N,Net-(U2-Pad11)*%
X122382978Y-76633063D03*
%TO.P,U2,6*%
%TO.N,MOSI*%
X150282978Y-76633063D03*
%TO.P,U2,24*%
%TO.N,GND*%
X122382978Y-74093063D03*
%TO.P,U2,7*%
%TO.N,CS*%
X150282978Y-74093063D03*
%TO.P,U2,23*%
%TO.N,D5*%
X122382978Y-71553063D03*
%TO.P,U2,8*%
%TO.N,MISO*%
X150282978Y-71553063D03*
%TO.P,U2,22*%
%TO.N,D6*%
X122382978Y-69013063D03*
%TO.P,U2,9*%
%TO.N,CLK*%
X150282978Y-69013063D03*
%TO.P,U2,21*%
%TO.N,D7*%
X122382978Y-66473063D03*
%TO.P,U2,10*%
%TO.N,GND*%
X150282978Y-66473063D03*
%TO.P,U2,20*%
%TO.N,D8*%
X122382978Y-63933063D03*
%TO.P,U2,11*%
%TO.N,Net-(U2-Pad11)*%
X150282978Y-63933063D03*
%TO.P,U2,19*%
%TO.N,RX*%
X122382978Y-61393063D03*
%TO.P,U2,12*%
%TO.N,EN_esp*%
X150282978Y-61393063D03*
%TO.P,U2,18*%
%TO.N,TX*%
X122382978Y-58853063D03*
%TO.P,U2,13*%
%TO.N,RST_esp*%
X150282978Y-58853063D03*
%TO.P,U2,17*%
%TO.N,GND*%
X122382978Y-56313063D03*
%TO.P,U2,14*%
X150282978Y-56313063D03*
%TO.P,U2,16*%
%TO.N,Net-(U2-Pad11)*%
X122382978Y-53773063D03*
%TO.P,U2,15*%
%TO.N,V5*%
X150282978Y-53773063D03*
%TD*%
D16*
%TO.P,Q1,1*%
%TO.N,GD1*%
X83058000Y-65278000D03*
%TO.P,Q1,3*%
%TO.N,SE1*%
X77978000Y-65278000D03*
%TO.P,Q1,2*%
%TO.N,DR1*%
X80518000Y-65278000D03*
%TD*%
%TO.P,Q2,2*%
%TO.N,DR2*%
X91440000Y-65278000D03*
%TO.P,Q2,3*%
%TO.N,SE2*%
X88900000Y-65278000D03*
%TO.P,Q2,1*%
%TO.N,GD2*%
X93980000Y-65278000D03*
%TD*%
%TO.P,Q3,1*%
%TO.N,GD3*%
X104902000Y-65278000D03*
%TO.P,Q3,3*%
%TO.N,SE3*%
X99822000Y-65278000D03*
%TO.P,Q3,2*%
%TO.N,DR3*%
X102362000Y-65278000D03*
%TD*%
%TO.P,Q4,2*%
%TO.N,DR4*%
X113284000Y-65278000D03*
%TO.P,Q4,3*%
%TO.N,SE4*%
X110744000Y-65278000D03*
%TO.P,Q4,1*%
%TO.N,GD4*%
X115824000Y-65278000D03*
%TD*%
D17*
%TO.P,J2,6*%
%TO.N,Net-(J2-Pad6)*%
X72853000Y-91759000D03*
X72853000Y-84009000D03*
D18*
X76653000Y-91609000D03*
X76653000Y-84159000D03*
%TD*%
D11*
%TO.P,J4,3*%
%TO.N,V5*%
X118491000Y-74422000D03*
%TO.P,J4,2*%
%TO.N,D3*%
X118491000Y-76962000D03*
D12*
%TO.P,J4,1*%
%TO.N,GND*%
X118491000Y-79502000D03*
%TD*%
D19*
%TO.P,J3,2*%
%TO.N,VinS*%
X143383000Y-47117000D03*
D20*
%TO.P,J3,1*%
%TO.N,GND*%
X148463000Y-47117000D03*
%TD*%
D11*
%TO.P,J5,8*%
%TO.N,Net-(J5-Pad8)*%
X150169065Y-136973947D03*
%TO.P,J5,7*%
%TO.N,Net-(J5-Pad7)*%
X147629065Y-136973947D03*
%TO.P,J5,6*%
%TO.N,Net-(J5-Pad6)*%
X145089065Y-136973947D03*
%TO.P,J5,5*%
%TO.N,Net-(J5-Pad5)*%
X142549065Y-136973947D03*
%TO.P,J5,4*%
%TO.N,Net-(J5-Pad4)*%
X140009065Y-136973947D03*
%TO.P,J5,3*%
%TO.N,Net-(J5-Pad3)*%
X137469065Y-136973947D03*
%TO.P,J5,2*%
%TO.N,Net-(J5-Pad2)*%
X134929065Y-136973947D03*
D12*
%TO.P,J5,1*%
%TO.N,Net-(J5-Pad1)*%
X132389065Y-136973947D03*
%TD*%
D11*
%TO.P,J6,8*%
%TO.N,Net-(J6-Pad8)*%
X132389065Y-126813947D03*
%TO.P,J6,7*%
%TO.N,Net-(J6-Pad7)*%
X134929065Y-126813947D03*
%TO.P,J6,6*%
%TO.N,Net-(J6-Pad6)*%
X137469065Y-126813947D03*
%TO.P,J6,5*%
%TO.N,Net-(J6-Pad5)*%
X140009065Y-126813947D03*
%TO.P,J6,4*%
%TO.N,Net-(J6-Pad4)*%
X142549065Y-126813947D03*
%TO.P,J6,3*%
%TO.N,Net-(J6-Pad3)*%
X145089065Y-126813947D03*
%TO.P,J6,2*%
%TO.N,Net-(J6-Pad2)*%
X147629065Y-126813947D03*
D12*
%TO.P,J6,1*%
%TO.N,Net-(J6-Pad1)*%
X150169065Y-126813947D03*
%TD*%
%TO.P,J8,1*%
%TO.N,Net-(J8-Pad1)*%
X120856544Y-123860024D03*
D11*
%TO.P,J8,2*%
%TO.N,Net-(J8-Pad2)*%
X120856544Y-121320024D03*
%TO.P,J8,3*%
%TO.N,Net-(J8-Pad3)*%
X120856544Y-118780024D03*
%TO.P,J8,4*%
%TO.N,Net-(J8-Pad4)*%
X120856544Y-116240024D03*
%TO.P,J8,5*%
%TO.N,Net-(J8-Pad5)*%
X120856544Y-113700024D03*
%TO.P,J8,6*%
%TO.N,Net-(J8-Pad6)*%
X120856544Y-111160024D03*
%TO.P,J8,7*%
%TO.N,Net-(J8-Pad7)*%
X120856544Y-108620024D03*
%TO.P,J8,8*%
%TO.N,Net-(J8-Pad8)*%
X120856544Y-106080024D03*
%TD*%
%TO.P,J9,14*%
%TO.N,Net-(J9-Pad14)*%
X72961500Y-137922000D03*
%TO.P,J9,13*%
%TO.N,Net-(J9-Pad13)*%
X72961500Y-135382000D03*
%TO.P,J9,12*%
%TO.N,Net-(J9-Pad12)*%
X72961500Y-132842000D03*
%TO.P,J9,11*%
%TO.N,Net-(J9-Pad11)*%
X72961500Y-130302000D03*
%TO.P,J9,10*%
%TO.N,Net-(J9-Pad10)*%
X72961500Y-127762000D03*
%TO.P,J9,9*%
%TO.N,Net-(J9-Pad9)*%
X72961500Y-125222000D03*
%TO.P,J9,8*%
%TO.N,Net-(J9-Pad8)*%
X72961500Y-122682000D03*
%TO.P,J9,7*%
%TO.N,Net-(J9-Pad7)*%
X72961500Y-120142000D03*
%TO.P,J9,6*%
%TO.N,Net-(J9-Pad6)*%
X72961500Y-117602000D03*
%TO.P,J9,5*%
%TO.N,Net-(J9-Pad5)*%
X72961500Y-115062000D03*
%TO.P,J9,4*%
%TO.N,Net-(J9-Pad4)*%
X72961500Y-112522000D03*
%TO.P,J9,3*%
%TO.N,Net-(J9-Pad3)*%
X72961500Y-109982000D03*
%TO.P,J9,2*%
%TO.N,Net-(J9-Pad2)*%
X72961500Y-107442000D03*
D12*
%TO.P,J9,1*%
%TO.N,Net-(J9-Pad1)*%
X72961500Y-104902000D03*
%TD*%
%TO.P,J10,1*%
%TO.N,Net-(J10-Pad1)*%
X88201500Y-137922000D03*
D11*
%TO.P,J10,2*%
%TO.N,Net-(J10-Pad2)*%
X88201500Y-135382000D03*
%TO.P,J10,3*%
%TO.N,Net-(J10-Pad3)*%
X88201500Y-132842000D03*
%TO.P,J10,4*%
%TO.N,Net-(J10-Pad4)*%
X88201500Y-130302000D03*
%TO.P,J10,5*%
%TO.N,Net-(J10-Pad5)*%
X88201500Y-127762000D03*
%TO.P,J10,6*%
%TO.N,Net-(J10-Pad6)*%
X88201500Y-125222000D03*
%TO.P,J10,7*%
%TO.N,Net-(J10-Pad7)*%
X88201500Y-122682000D03*
%TO.P,J10,8*%
%TO.N,Net-(J10-Pad8)*%
X88201500Y-120142000D03*
%TO.P,J10,9*%
%TO.N,Net-(J10-Pad9)*%
X88201500Y-117602000D03*
%TO.P,J10,10*%
%TO.N,Net-(J10-Pad10)*%
X88201500Y-115062000D03*
%TO.P,J10,11*%
%TO.N,Net-(J10-Pad11)*%
X88201500Y-112522000D03*
%TO.P,J10,12*%
%TO.N,Net-(J10-Pad12)*%
X88201500Y-109982000D03*
%TO.P,J10,13*%
%TO.N,Net-(J10-Pad13)*%
X88201500Y-107442000D03*
%TO.P,J10,14*%
%TO.N,Net-(J10-Pad14)*%
X88201500Y-104902000D03*
%TD*%
D17*
%TO.P,J11,6*%
%TO.N,Net-(J11-Pad6)*%
X151014586Y-106782103D03*
X151014586Y-114532103D03*
D18*
X147214586Y-106932103D03*
X147214586Y-114382103D03*
%TD*%
D11*
%TO.P,J12,6*%
%TO.N,Net-(J12-Pad6)*%
X131411586Y-121452103D03*
%TO.P,J12,5*%
%TO.N,Net-(J12-Pad5)*%
X133951586Y-121452103D03*
%TO.P,J12,4*%
%TO.N,Net-(J12-Pad4)*%
X136491586Y-121452103D03*
%TO.P,J12,3*%
%TO.N,Net-(J12-Pad3)*%
X139031586Y-121452103D03*
%TO.P,J12,2*%
%TO.N,GND2*%
X141571586Y-121452103D03*
D12*
%TO.P,J12,1*%
%TO.N,Net-(C11-Pad1)*%
X144111586Y-121452103D03*
%TD*%
D20*
%TO.P,BT1,1*%
%TO.N,Net-(BT1-Pad1)*%
X137033000Y-70612000D03*
D19*
%TO.P,BT1,2*%
%TO.N,GND*%
X137033000Y-50122000D03*
%TD*%
D21*
%TO.N,Net-(U2-Pad11)*%
X143932978Y-77309063D03*
X126680978Y-78284063D03*
X146893950Y-67564000D03*
%TO.N,GND*%
X99314000Y-75311000D03*
X94996000Y-75311000D03*
X92202000Y-84455000D03*
X86614000Y-87249000D03*
X128732978Y-77309063D03*
X140843004Y-70739000D03*
X142007972Y-64965054D03*
X145034000Y-64897000D03*
%TO.N,VinS*%
X139498000Y-46990000D03*
X139581681Y-62290743D03*
X144272000Y-63373002D03*
X134990000Y-52959000D03*
X133608000Y-51577000D03*
X139319004Y-52959000D03*
X133608000Y-46482000D03*
%TO.N,DR1*%
X98806000Y-70866000D03*
%TO.N,V5*%
X141605000Y-56896000D03*
X141097003Y-60960003D03*
X90043000Y-74168000D03*
X115443000Y-74189000D03*
%TO.N,VccLED*%
X108152000Y-81431000D03*
X109476582Y-86405586D03*
%TO.N,SE4*%
X110755893Y-58674000D03*
X110744000Y-61433241D03*
%TO.N,GD4*%
X109854998Y-67564000D03*
%TO.N,SE3*%
X99809421Y-58547000D03*
X99822000Y-61317694D03*
%TO.N,SE2*%
X88880285Y-58536516D03*
X88900000Y-61350231D03*
%TO.N,SE1*%
X77926000Y-58420000D03*
X77978000Y-61266000D03*
%TO.N,MOSI*%
X143002000Y-71500994D03*
X143384136Y-74450457D03*
%TO.N,CS*%
X141332978Y-75809063D03*
X144788681Y-73677724D03*
X144399000Y-71501000D03*
X141285972Y-73846021D03*
%TO.N,MISO*%
X139332978Y-75809063D03*
X139253978Y-73712063D03*
X142112994Y-71501000D03*
X142629681Y-73396010D03*
%TO.N,Vin*%
X124587000Y-46435000D03*
X117729000Y-46435000D03*
X142999194Y-63881000D03*
X127635000Y-46990000D03*
X127635000Y-51435000D03*
%TO.N,DR2*%
X99441000Y-70104000D03*
%TO.N,DR3*%
X100457012Y-70104000D03*
%TO.N,RX*%
X128732978Y-89309063D03*
X125283978Y-61393067D03*
X84709000Y-92456000D03*
X126111000Y-89281000D03*
X88138000Y-92455998D03*
%TO.N,EN_esp*%
X143932978Y-87309063D03*
X143932978Y-87309063D03*
X147518960Y-61393063D03*
%TO.N,TX*%
X128732978Y-91309063D03*
X124648978Y-58853057D03*
X86560500Y-91440000D03*
%TO.N,RST_esp*%
X143932978Y-91309063D03*
X148143970Y-58853063D03*
%TO.N,D1*%
X107442000Y-78232000D03*
X93599000Y-76708000D03*
%TO.N,D2*%
X117093998Y-84201000D03*
%TO.N,S3*%
X135332978Y-75809063D03*
X135316978Y-82221063D03*
%TO.N,S2*%
X137332978Y-75809063D03*
X137332978Y-75809063D03*
X137348978Y-80189063D03*
%TO.N,D5*%
X132014978Y-83237063D03*
X132014972Y-73585063D03*
%TO.N,D6*%
X131379978Y-81332063D03*
X131379978Y-72823063D03*
%TO.N,D7*%
X130617978Y-79300063D03*
X130683012Y-72009000D03*
%TO.N,D8*%
X128732978Y-79309063D03*
X125918978Y-63933067D03*
%TO.N,Net-(C8-Pad1)*%
X87810500Y-88646000D03*
X85979000Y-88646000D03*
%TO.N,Net-(R11-Pad1)*%
X89090500Y-87947500D03*
X82222000Y-88646000D03*
%TO.N,Net-(R19-Pad1)*%
X89154000Y-86360000D03*
X82222000Y-86233000D03*
%TO.N,Net-(R27-Pad2)*%
X100129000Y-86868000D03*
X99822000Y-79756000D03*
%TO.N,Net-(C11-Pad1)*%
X146143586Y-116880103D03*
X137888586Y-115483103D03*
%TO.N,Net-(C16-Pad1)*%
X130670586Y-114721103D03*
X138460086Y-114693103D03*
X136491586Y-114721103D03*
%TO.N,Net-(R28-Pad1)*%
X142006098Y-113570445D03*
X139793586Y-116118103D03*
%TO.N,Net-(J12-Pad5)*%
X137190086Y-118785103D03*
X132681586Y-118658103D03*
%TO.N,Net-(J12-Pad4)*%
X131538586Y-119420101D03*
%TO.N,Net-(J12-Pad3)*%
X133570584Y-117134103D03*
X138396588Y-116245105D03*
%TO.N,GND2*%
X137761586Y-110911103D03*
%TD*%
D22*
%TO.N,Net-(U2-Pad11)*%
X122255978Y-76506063D02*
X122382978Y-76633063D01*
X146893950Y-67988264D02*
X146893950Y-67564000D01*
X146893950Y-73598091D02*
X146893950Y-67988264D01*
X143932978Y-77309063D02*
X143932978Y-76559063D01*
X143932978Y-76559063D02*
X146893950Y-73598091D01*
X122382978Y-53802978D02*
X122382978Y-53773063D01*
X126680978Y-78284063D02*
X126680978Y-58100978D01*
X126680978Y-58100978D02*
X122382978Y-53802978D01*
%TO.N,GND*%
X150282978Y-66473063D02*
X149882978Y-66473063D01*
X148778978Y-47432978D02*
X148463000Y-47117000D01*
D23*
%TO.N,VinS*%
X139581681Y-47073681D02*
X139498000Y-46990000D01*
D24*
X139625000Y-47117000D02*
X139498000Y-46990000D01*
X143383000Y-47117000D02*
X139625000Y-47117000D01*
D22*
X144272000Y-63456736D02*
X144272000Y-63373002D01*
D25*
X144272000Y-62992000D02*
X144272000Y-63456736D01*
X139581681Y-62290743D02*
X143570743Y-62290743D01*
X143570743Y-62290743D02*
X144272000Y-62992000D01*
X139581681Y-61730681D02*
X139581681Y-62290743D01*
X139573000Y-61722000D02*
X139581681Y-61730681D01*
D26*
X134990000Y-52959000D02*
X133608000Y-51577000D01*
X134990000Y-52959000D02*
X139319004Y-52959000D01*
X139573000Y-61976000D02*
X139319004Y-61722004D01*
X139319004Y-53383264D02*
X139319004Y-52959000D01*
X139319004Y-61722004D02*
X139319004Y-53383264D01*
X133608000Y-51577000D02*
X133608000Y-46482000D01*
D24*
X138990000Y-46482000D02*
X139498000Y-46990000D01*
X133608000Y-46482000D02*
X138990000Y-46482000D01*
D26*
%TO.N,DR1*%
X80518000Y-51514002D02*
X80579001Y-51453001D01*
D22*
X80518000Y-65659000D02*
X80518000Y-65278000D01*
X98806000Y-70866000D02*
X85725000Y-70866000D01*
X85725000Y-70866000D02*
X80518000Y-65659000D01*
D26*
X80579001Y-65216999D02*
X80518000Y-65278000D01*
X80579001Y-51453001D02*
X80579001Y-65216999D01*
D22*
%TO.N,V5*%
X141097003Y-57403997D02*
X141097003Y-60535739D01*
X141605000Y-56896000D02*
X141097003Y-57403997D01*
X141097003Y-60535739D02*
X141097003Y-60960003D01*
D23*
X90043000Y-74168000D02*
X115422000Y-74168000D01*
X115422000Y-74168000D02*
X115443000Y-74189000D01*
D22*
%TO.N,VccLED*%
X108152000Y-81431000D02*
X108152000Y-85081004D01*
X108152000Y-85081004D02*
X109476582Y-86405586D01*
D25*
%TO.N,SE4*%
X110744000Y-58685893D02*
X110755893Y-58674000D01*
X110744000Y-65278000D02*
X110744000Y-58685893D01*
D22*
%TO.N,GD4*%
X115824000Y-65278000D02*
X115824000Y-65532000D01*
X115824000Y-65532000D02*
X113792000Y-67564000D01*
X110279262Y-67564000D02*
X109854998Y-67564000D01*
X113792000Y-67564000D02*
X110279262Y-67564000D01*
D25*
%TO.N,SE3*%
X99822000Y-58559579D02*
X99809421Y-58547000D01*
X99822000Y-65278000D02*
X99822000Y-58559579D01*
%TO.N,SE2*%
X88900000Y-58556231D02*
X88880285Y-58536516D01*
X88900000Y-65278000D02*
X88900000Y-58556231D01*
%TO.N,SE1*%
X77978000Y-58472000D02*
X77926000Y-58420000D01*
X77978000Y-65278000D02*
X77978000Y-58472000D01*
D22*
%TO.N,MOSI*%
X143002000Y-71500994D02*
X143384136Y-71883130D01*
X143384136Y-74026193D02*
X143384136Y-74450457D01*
X143384136Y-71883130D02*
X143384136Y-74026193D01*
%TO.N,CS*%
X144698999Y-71800999D02*
X144399000Y-71501000D01*
X144788681Y-71890681D02*
X144698999Y-71800999D01*
X144788681Y-73677724D02*
X144788681Y-71890681D01*
X141332978Y-73893027D02*
X141285972Y-73846021D01*
X141332978Y-75809063D02*
X141332978Y-73893027D01*
%TO.N,MISO*%
X139332978Y-75809063D02*
X139332978Y-73791063D01*
X139332978Y-73791063D02*
X139253978Y-73712063D01*
X142629681Y-72017687D02*
X142629681Y-72971746D01*
X142112994Y-71501000D02*
X142629681Y-72017687D01*
X142629681Y-72971746D02*
X142629681Y-73396010D01*
D24*
%TO.N,Vin*%
X113265999Y-46453001D02*
X113284000Y-46435000D01*
X80579001Y-46453001D02*
X113265999Y-46453001D01*
X113284000Y-46435000D02*
X121285000Y-46435000D01*
X121285000Y-46435000D02*
X124587000Y-46435000D01*
D25*
X134548000Y-63881000D02*
X142999194Y-63881000D01*
X127635000Y-55118000D02*
X127635000Y-56968000D01*
X127635000Y-56968000D02*
X134548000Y-63881000D01*
D26*
X127635000Y-55118000D02*
X127635000Y-46482000D01*
D24*
X127588000Y-46435000D02*
X124587000Y-46435000D01*
X127635000Y-46482000D02*
X127588000Y-46435000D01*
D22*
%TO.N,DR2*%
X91440000Y-66548000D02*
X91440000Y-65278000D01*
X99441000Y-70104000D02*
X94996000Y-70104000D01*
X94996000Y-70104000D02*
X91440000Y-66548000D01*
D26*
X91440000Y-51435000D02*
X91440000Y-65278000D01*
D22*
%TO.N,DR3*%
X100757011Y-69804001D02*
X100457012Y-70104000D01*
X102362000Y-65278000D02*
X102362000Y-68199012D01*
X102362000Y-68199012D02*
X100757011Y-69804001D01*
D26*
X102362000Y-51435000D02*
X102362000Y-65278000D01*
%TO.N,DR4*%
X113284000Y-51435000D02*
X113284000Y-65278000D01*
D22*
%TO.N,RX*%
X128732978Y-89309063D02*
X126783978Y-89309063D01*
X125283978Y-61817331D02*
X125283978Y-61393067D01*
X125283978Y-88580978D02*
X125283978Y-61817331D01*
X126783978Y-89309063D02*
X126012063Y-89309063D01*
X126012063Y-89309063D02*
X125283978Y-88580978D01*
D23*
X88137998Y-92456000D02*
X88138000Y-92455998D01*
X84709000Y-92456000D02*
X88137998Y-92456000D01*
D22*
%TO.N,EN_esp*%
X147518960Y-61817327D02*
X147518960Y-61393063D01*
X143932978Y-86559063D02*
X147518960Y-82973081D01*
X147518960Y-82973081D02*
X147518960Y-61817327D01*
X143932978Y-87309063D02*
X143932978Y-86559063D01*
%TO.N,TX*%
X128602041Y-91440000D02*
X128732978Y-91309063D01*
X124648978Y-59277321D02*
X124648978Y-58853057D01*
X128602041Y-91440000D02*
X124648978Y-91440000D01*
X124648978Y-91440000D02*
X124648978Y-59277321D01*
D23*
X90391004Y-91440000D02*
X128602041Y-91440000D01*
X86560500Y-91440000D02*
X90391004Y-91440000D01*
D22*
%TO.N,RST_esp*%
X148143970Y-59277327D02*
X148143970Y-58853063D01*
X143932978Y-91309063D02*
X147437978Y-91309063D01*
X148143970Y-90603071D02*
X148143970Y-59277327D01*
X147437978Y-91309063D02*
X148143970Y-90603071D01*
%TO.N,D1*%
X106426000Y-76708000D02*
X93599000Y-76708000D01*
X107442000Y-78232000D02*
X107442000Y-77724000D01*
X107442000Y-77724000D02*
X106426000Y-76708000D01*
%TO.N,D2*%
X117146061Y-84253063D02*
X117093998Y-84201000D01*
X122382978Y-84253063D02*
X117146061Y-84253063D01*
%TO.N,S3*%
X135332978Y-75809063D02*
X135332978Y-82205063D01*
X135332978Y-82205063D02*
X135316978Y-82221063D01*
X150282978Y-81713063D02*
X150282978Y-81733063D01*
X149794978Y-82221063D02*
X149774978Y-82221063D01*
X150282978Y-81733063D02*
X149794978Y-82221063D01*
%TO.N,S2*%
X137332978Y-76959063D02*
X137348978Y-76975063D01*
X137332978Y-75809063D02*
X137332978Y-76959063D01*
X137348978Y-76975063D02*
X137348978Y-80189063D01*
%TO.N,D5*%
X122382978Y-71553063D02*
X122782978Y-71553063D01*
X132014978Y-83237063D02*
X132014978Y-73585069D01*
X132014978Y-73585069D02*
X132014972Y-73585063D01*
%TO.N,D6*%
X131379978Y-72950063D02*
X131379978Y-72823063D01*
X131379978Y-81332063D02*
X131379978Y-72950063D01*
%TO.N,D7*%
X122382978Y-66473063D02*
X122782978Y-66473063D01*
X130617978Y-79300063D02*
X130617978Y-72074034D01*
X130617978Y-72074034D02*
X130683012Y-72009000D01*
%TO.N,D8*%
X125918978Y-64357331D02*
X125918978Y-63933067D01*
X125918978Y-78792063D02*
X125918978Y-64357331D01*
X128732978Y-79309063D02*
X126435978Y-79309063D01*
X126435978Y-79309063D02*
X125918978Y-78792063D01*
%TO.N,Net-(C8-Pad1)*%
X87810500Y-88646000D02*
X85979000Y-88646000D01*
D23*
%TO.N,Net-(J2-Pad6)*%
X76653000Y-84159000D02*
X76653000Y-91609000D01*
X76503000Y-84009000D02*
X76653000Y-84159000D01*
X72853000Y-84009000D02*
X76503000Y-84009000D01*
X76503000Y-91759000D02*
X76653000Y-91609000D01*
X72853000Y-91759000D02*
X76503000Y-91759000D01*
D22*
%TO.N,Net-(R11-Pad1)*%
X89090500Y-87947500D02*
X82920500Y-87947500D01*
X82920500Y-87947500D02*
X82222000Y-88646000D01*
%TO.N,Net-(R19-Pad1)*%
X89154000Y-86360000D02*
X82349000Y-86360000D01*
X82349000Y-86360000D02*
X82222000Y-86233000D01*
%TO.N,Net-(R27-Pad2)*%
X100129000Y-80063000D02*
X99822000Y-79756000D01*
X100129000Y-86868000D02*
X100129000Y-80063000D01*
%TO.N,Net-(C11-Pad1)*%
X139630584Y-116880103D02*
X139031586Y-116281105D01*
X146143586Y-116880103D02*
X139630584Y-116880103D01*
X139031586Y-116281105D02*
X139031586Y-115483103D01*
X139031586Y-115483103D02*
X137888586Y-115483103D01*
%TO.N,Net-(C16-Pad1)*%
X138432086Y-114721103D02*
X138460086Y-114693103D01*
X130670586Y-114721103D02*
X136491586Y-114721103D01*
X136491586Y-114721103D02*
X138432086Y-114721103D01*
D23*
%TO.N,Net-(J11-Pad6)*%
X150864586Y-106932103D02*
X151014586Y-106782103D01*
X147214586Y-106932103D02*
X150864586Y-106932103D01*
X150864586Y-114382103D02*
X151014586Y-114532103D01*
X147214586Y-114382103D02*
X150864586Y-114382103D01*
X147214586Y-114382103D02*
X147214586Y-106932103D01*
D22*
%TO.N,Net-(R28-Pad1)*%
X139858440Y-116118103D02*
X139793586Y-116118103D01*
X142006098Y-113570445D02*
X142006098Y-113970445D01*
X142006098Y-113970445D02*
X139858440Y-116118103D01*
%TO.N,Net-(J12-Pad5)*%
X132808586Y-118785103D02*
X132681586Y-118658103D01*
X137190086Y-118785103D02*
X132808586Y-118785103D01*
%TO.N,Net-(J12-Pad4)*%
X131962850Y-119420101D02*
X131538586Y-119420101D01*
X136491586Y-121452103D02*
X134459584Y-119420101D01*
X134459584Y-119420101D02*
X131962850Y-119420101D01*
%TO.N,Net-(J12-Pad3)*%
X133570584Y-117134103D02*
X134459582Y-116245105D01*
X134459582Y-116245105D02*
X137972324Y-116245105D01*
X137972324Y-116245105D02*
X138396588Y-116245105D01*
%TD*%
D27*
%TO.N,GND*%
G36*
X153214001Y-92075000D02*
X147482978Y-92075000D01*
X147512825Y-92069063D01*
X147512830Y-92069063D01*
X147734515Y-92024967D01*
X147985907Y-91856992D01*
X148028308Y-91793534D01*
X148628446Y-91193398D01*
X148691899Y-91151000D01*
X148734297Y-91087547D01*
X148734299Y-91087545D01*
X148859873Y-90899609D01*
X148859874Y-90899608D01*
X148903970Y-90677923D01*
X148903970Y-90677919D01*
X148918858Y-90603072D01*
X148903970Y-90528225D01*
X148903970Y-90090814D01*
X148992593Y-90223448D01*
X149401105Y-90496407D01*
X149761342Y-90568063D01*
X150804614Y-90568063D01*
X151164851Y-90496407D01*
X151573363Y-90223448D01*
X151846322Y-89814936D01*
X151942173Y-89333063D01*
X151846322Y-88851190D01*
X151573363Y-88442678D01*
X151164851Y-88169719D01*
X150804614Y-88098063D01*
X149761342Y-88098063D01*
X149401105Y-88169719D01*
X148992593Y-88442678D01*
X148903970Y-88575312D01*
X148903970Y-87550814D01*
X148992593Y-87683448D01*
X149401105Y-87956407D01*
X149761342Y-88028063D01*
X150804614Y-88028063D01*
X151164851Y-87956407D01*
X151573363Y-87683448D01*
X151846322Y-87274936D01*
X151942173Y-86793063D01*
X151846322Y-86311190D01*
X151573363Y-85902678D01*
X151164851Y-85629719D01*
X150804614Y-85558063D01*
X149761342Y-85558063D01*
X149401105Y-85629719D01*
X148992593Y-85902678D01*
X148903970Y-86035312D01*
X148903970Y-85010814D01*
X148992593Y-85143448D01*
X149401105Y-85416407D01*
X149761342Y-85488063D01*
X150804614Y-85488063D01*
X151164851Y-85416407D01*
X151573363Y-85143448D01*
X151846322Y-84734936D01*
X151942173Y-84253063D01*
X151846322Y-83771190D01*
X151573363Y-83362678D01*
X151164851Y-83089719D01*
X150804614Y-83018063D01*
X149761342Y-83018063D01*
X149401105Y-83089719D01*
X148992593Y-83362678D01*
X148903970Y-83495312D01*
X148903970Y-82470814D01*
X148992593Y-82603448D01*
X149216323Y-82752940D01*
X149227049Y-82768992D01*
X149478441Y-82936967D01*
X149700126Y-82981063D01*
X149720131Y-82981063D01*
X149794978Y-82995951D01*
X149869825Y-82981063D01*
X149869830Y-82981063D01*
X150035732Y-82948063D01*
X150804614Y-82948063D01*
X151164851Y-82876407D01*
X151573363Y-82603448D01*
X151846322Y-82194936D01*
X151942173Y-81713063D01*
X151846322Y-81231190D01*
X151573363Y-80822678D01*
X151164851Y-80549719D01*
X150804614Y-80478063D01*
X149761342Y-80478063D01*
X149401105Y-80549719D01*
X148992593Y-80822678D01*
X148903970Y-80955312D01*
X148903970Y-79930814D01*
X148992593Y-80063448D01*
X149401105Y-80336407D01*
X149761342Y-80408063D01*
X150804614Y-80408063D01*
X151164851Y-80336407D01*
X151573363Y-80063448D01*
X151846322Y-79654936D01*
X151942173Y-79173063D01*
X151846322Y-78691190D01*
X151573363Y-78282678D01*
X151164851Y-78009719D01*
X150804614Y-77938063D01*
X149761342Y-77938063D01*
X149401105Y-78009719D01*
X148992593Y-78282678D01*
X148903970Y-78415312D01*
X148903970Y-77390814D01*
X148992593Y-77523448D01*
X149401105Y-77796407D01*
X149761342Y-77868063D01*
X150804614Y-77868063D01*
X151164851Y-77796407D01*
X151573363Y-77523448D01*
X151846322Y-77114936D01*
X151942173Y-76633063D01*
X151846322Y-76151190D01*
X151573363Y-75742678D01*
X151164851Y-75469719D01*
X150804614Y-75398063D01*
X149761342Y-75398063D01*
X149401105Y-75469719D01*
X148992593Y-75742678D01*
X148903970Y-75875312D01*
X148903970Y-74850814D01*
X148992593Y-74983448D01*
X149401105Y-75256407D01*
X149761342Y-75328063D01*
X150804614Y-75328063D01*
X151164851Y-75256407D01*
X151573363Y-74983448D01*
X151846322Y-74574936D01*
X151942173Y-74093063D01*
X151846322Y-73611190D01*
X151573363Y-73202678D01*
X151164851Y-72929719D01*
X150804614Y-72858063D01*
X149761342Y-72858063D01*
X149401105Y-72929719D01*
X148992593Y-73202678D01*
X148903970Y-73335312D01*
X148903970Y-72310814D01*
X148992593Y-72443448D01*
X149401105Y-72716407D01*
X149761342Y-72788063D01*
X150804614Y-72788063D01*
X151164851Y-72716407D01*
X151573363Y-72443448D01*
X151846322Y-72034936D01*
X151942173Y-71553063D01*
X151846322Y-71071190D01*
X151573363Y-70662678D01*
X151164851Y-70389719D01*
X150804614Y-70318063D01*
X149761342Y-70318063D01*
X149401105Y-70389719D01*
X148992593Y-70662678D01*
X148903970Y-70795312D01*
X148903970Y-69770814D01*
X148992593Y-69903448D01*
X149401105Y-70176407D01*
X149761342Y-70248063D01*
X150804614Y-70248063D01*
X151164851Y-70176407D01*
X151573363Y-69903448D01*
X151846322Y-69494936D01*
X151942173Y-69013063D01*
X151846322Y-68531190D01*
X151573363Y-68122678D01*
X151164851Y-67849719D01*
X150804614Y-67778063D01*
X149761342Y-67778063D01*
X149401105Y-67849719D01*
X148992593Y-68122678D01*
X148903970Y-68255312D01*
X148903970Y-67226427D01*
X148919898Y-67256537D01*
X149293031Y-67565453D01*
X149755978Y-67708063D01*
X150155978Y-67708063D01*
X150155978Y-66600063D01*
X150409978Y-66600063D01*
X150409978Y-67708063D01*
X150809978Y-67708063D01*
X151272925Y-67565453D01*
X151646058Y-67256537D01*
X151872570Y-66828344D01*
X151876440Y-66790672D01*
X151751709Y-66600063D01*
X150409978Y-66600063D01*
X150155978Y-66600063D01*
X150135978Y-66600063D01*
X150135978Y-66346063D01*
X150155978Y-66346063D01*
X150155978Y-65238063D01*
X150409978Y-65238063D01*
X150409978Y-66346063D01*
X151751709Y-66346063D01*
X151876440Y-66155454D01*
X151872570Y-66117782D01*
X151646058Y-65689589D01*
X151272925Y-65380673D01*
X150809978Y-65238063D01*
X150409978Y-65238063D01*
X150155978Y-65238063D01*
X149755978Y-65238063D01*
X149293031Y-65380673D01*
X148919898Y-65689589D01*
X148903970Y-65719699D01*
X148903970Y-64690814D01*
X148992593Y-64823448D01*
X149401105Y-65096407D01*
X149761342Y-65168063D01*
X150804614Y-65168063D01*
X151164851Y-65096407D01*
X151573363Y-64823448D01*
X151846322Y-64414936D01*
X151942173Y-63933063D01*
X151846322Y-63451190D01*
X151573363Y-63042678D01*
X151164851Y-62769719D01*
X150804614Y-62698063D01*
X149761342Y-62698063D01*
X149401105Y-62769719D01*
X148992593Y-63042678D01*
X148903970Y-63175312D01*
X148903970Y-62150814D01*
X148992593Y-62283448D01*
X149401105Y-62556407D01*
X149761342Y-62628063D01*
X150804614Y-62628063D01*
X151164851Y-62556407D01*
X151573363Y-62283448D01*
X151846322Y-61874936D01*
X151942173Y-61393063D01*
X151846322Y-60911190D01*
X151573363Y-60502678D01*
X151164851Y-60229719D01*
X150804614Y-60158063D01*
X149761342Y-60158063D01*
X149401105Y-60229719D01*
X148992593Y-60502678D01*
X148903970Y-60635312D01*
X148903970Y-59610814D01*
X148992593Y-59743448D01*
X149401105Y-60016407D01*
X149761342Y-60088063D01*
X150804614Y-60088063D01*
X151164851Y-60016407D01*
X151573363Y-59743448D01*
X151846322Y-59334936D01*
X151942173Y-58853063D01*
X151846322Y-58371190D01*
X151573363Y-57962678D01*
X151164851Y-57689719D01*
X150804614Y-57618063D01*
X149761342Y-57618063D01*
X149401105Y-57689719D01*
X148992593Y-57962678D01*
X148825679Y-58212482D01*
X148673605Y-58060408D01*
X148329953Y-57918063D01*
X147957987Y-57918063D01*
X147614335Y-58060408D01*
X147351315Y-58323428D01*
X147208970Y-58667080D01*
X147208970Y-59039046D01*
X147351315Y-59382698D01*
X147383971Y-59415354D01*
X147383971Y-60458063D01*
X147332977Y-60458063D01*
X146989325Y-60600408D01*
X146726305Y-60863428D01*
X146583960Y-61207080D01*
X146583960Y-61579046D01*
X146726305Y-61922698D01*
X146758961Y-61955354D01*
X146758961Y-66629000D01*
X146707967Y-66629000D01*
X146364315Y-66771345D01*
X146101295Y-67034365D01*
X145958950Y-67378017D01*
X145958950Y-67749983D01*
X146101295Y-68093635D01*
X146133951Y-68126291D01*
X146133950Y-73283289D01*
X145723681Y-73693558D01*
X145723681Y-73491741D01*
X145581336Y-73148089D01*
X145548681Y-73115434D01*
X145548681Y-71965529D01*
X145563569Y-71890681D01*
X145548681Y-71815833D01*
X145548681Y-71815829D01*
X145504585Y-71594144D01*
X145336610Y-71342752D01*
X145334000Y-71341008D01*
X145334000Y-71315017D01*
X145191655Y-70971365D01*
X144928635Y-70708345D01*
X144584983Y-70566000D01*
X144213017Y-70566000D01*
X143869365Y-70708345D01*
X143700503Y-70877207D01*
X143531635Y-70708339D01*
X143187983Y-70565994D01*
X142816017Y-70565994D01*
X142557490Y-70673079D01*
X142298977Y-70566000D01*
X141927011Y-70566000D01*
X141583359Y-70708345D01*
X141320339Y-70971365D01*
X141177994Y-71315017D01*
X141177994Y-71686983D01*
X141320339Y-72030635D01*
X141583359Y-72293655D01*
X141869681Y-72412253D01*
X141869682Y-72833719D01*
X141837026Y-72866375D01*
X141767778Y-73033555D01*
X141471955Y-72911021D01*
X141099989Y-72911021D01*
X140756337Y-73053366D01*
X140493317Y-73316386D01*
X140350972Y-73660038D01*
X140350972Y-74032004D01*
X140493317Y-74375656D01*
X140572979Y-74455318D01*
X140572978Y-75246773D01*
X140540323Y-75279428D01*
X140397978Y-75623080D01*
X140397978Y-75995046D01*
X140540323Y-76338698D01*
X140803343Y-76601718D01*
X141146995Y-76744063D01*
X141518961Y-76744063D01*
X141862613Y-76601718D01*
X142125633Y-76338698D01*
X142267978Y-75995046D01*
X142267978Y-75623080D01*
X142125633Y-75279428D01*
X142092978Y-75246773D01*
X142092978Y-74341010D01*
X142147875Y-74208476D01*
X142443698Y-74331010D01*
X142449136Y-74331010D01*
X142449136Y-74636440D01*
X142591481Y-74980092D01*
X142854501Y-75243112D01*
X143198153Y-75385457D01*
X143570119Y-75385457D01*
X143913771Y-75243112D01*
X144176791Y-74980092D01*
X144319136Y-74636440D01*
X144319136Y-74495269D01*
X144602698Y-74612724D01*
X144804516Y-74612724D01*
X143448506Y-75968734D01*
X143385050Y-76011134D01*
X143342650Y-76074590D01*
X143342649Y-76074591D01*
X143230015Y-76243160D01*
X143217075Y-76262526D01*
X143172978Y-76484211D01*
X143172978Y-76484216D01*
X143158090Y-76559063D01*
X143172978Y-76633910D01*
X143172978Y-76746773D01*
X143140323Y-76779428D01*
X142997978Y-77123080D01*
X142997978Y-77495046D01*
X143140323Y-77838698D01*
X143403343Y-78101718D01*
X143746995Y-78244063D01*
X144118961Y-78244063D01*
X144462613Y-78101718D01*
X144725633Y-77838698D01*
X144867978Y-77495046D01*
X144867978Y-77123080D01*
X144743728Y-76823114D01*
X146758960Y-74807882D01*
X146758960Y-82658278D01*
X143448506Y-85968734D01*
X143385050Y-86011134D01*
X143342650Y-86074590D01*
X143342649Y-86074591D01*
X143319626Y-86109048D01*
X143217075Y-86262526D01*
X143172978Y-86484211D01*
X143172978Y-86484216D01*
X143158090Y-86559063D01*
X143172978Y-86633910D01*
X143172978Y-86746773D01*
X143140323Y-86779428D01*
X142997978Y-87123080D01*
X142997978Y-87495046D01*
X143140323Y-87838698D01*
X143403343Y-88101718D01*
X143746995Y-88244063D01*
X144118961Y-88244063D01*
X144462613Y-88101718D01*
X144725633Y-87838698D01*
X144867978Y-87495046D01*
X144867978Y-87123080D01*
X144743728Y-86823114D01*
X147383970Y-84182873D01*
X147383970Y-90288269D01*
X147123176Y-90549063D01*
X144495268Y-90549063D01*
X144462613Y-90516408D01*
X144118961Y-90374063D01*
X143746995Y-90374063D01*
X143403343Y-90516408D01*
X143140323Y-90779428D01*
X142997978Y-91123080D01*
X142997978Y-91495046D01*
X143140323Y-91838698D01*
X143376625Y-92075000D01*
X129289331Y-92075000D01*
X129525633Y-91838698D01*
X129667978Y-91495046D01*
X129667978Y-91123080D01*
X129525633Y-90779428D01*
X129262613Y-90516408D01*
X128918961Y-90374063D01*
X128546995Y-90374063D01*
X128203343Y-90516408D01*
X128164751Y-90555000D01*
X125408978Y-90555000D01*
X125408978Y-89901268D01*
X125581365Y-90073655D01*
X125925017Y-90216000D01*
X126296983Y-90216000D01*
X126640635Y-90073655D01*
X126645227Y-90069063D01*
X128170688Y-90069063D01*
X128203343Y-90101718D01*
X128546995Y-90244063D01*
X128918961Y-90244063D01*
X129262613Y-90101718D01*
X129525633Y-89838698D01*
X129667978Y-89495046D01*
X129667978Y-89123080D01*
X129525633Y-88779428D01*
X129262613Y-88516408D01*
X128918961Y-88374063D01*
X128546995Y-88374063D01*
X128203343Y-88516408D01*
X128170688Y-88549063D01*
X126701353Y-88549063D01*
X126640635Y-88488345D01*
X126296983Y-88346000D01*
X126123801Y-88346000D01*
X126043978Y-88266177D01*
X126043978Y-79961181D01*
X126076880Y-79983165D01*
X126139441Y-80024967D01*
X126361126Y-80069063D01*
X126361130Y-80069063D01*
X126435977Y-80083951D01*
X126510824Y-80069063D01*
X128170688Y-80069063D01*
X128203343Y-80101718D01*
X128546995Y-80244063D01*
X128918961Y-80244063D01*
X129262613Y-80101718D01*
X129525633Y-79838698D01*
X129667978Y-79495046D01*
X129667978Y-79123080D01*
X129664251Y-79114080D01*
X129682978Y-79114080D01*
X129682978Y-79486046D01*
X129825323Y-79829698D01*
X130088343Y-80092718D01*
X130431995Y-80235063D01*
X130619978Y-80235063D01*
X130619978Y-80769773D01*
X130587323Y-80802428D01*
X130444978Y-81146080D01*
X130444978Y-81518046D01*
X130587323Y-81861698D01*
X130850343Y-82124718D01*
X131193995Y-82267063D01*
X131254978Y-82267063D01*
X131254978Y-82674773D01*
X131222323Y-82707428D01*
X131079978Y-83051080D01*
X131079978Y-83423046D01*
X131222323Y-83766698D01*
X131485343Y-84029718D01*
X131828995Y-84172063D01*
X132200961Y-84172063D01*
X132544613Y-84029718D01*
X132807633Y-83766698D01*
X132949978Y-83423046D01*
X132949978Y-83051080D01*
X132807633Y-82707428D01*
X132774978Y-82674773D01*
X132774978Y-82035080D01*
X134381978Y-82035080D01*
X134381978Y-82407046D01*
X134524323Y-82750698D01*
X134787343Y-83013718D01*
X135130995Y-83156063D01*
X135502961Y-83156063D01*
X135846613Y-83013718D01*
X136109633Y-82750698D01*
X136251978Y-82407046D01*
X136251978Y-82035080D01*
X136109633Y-81691428D01*
X136092978Y-81674773D01*
X136092978Y-76371353D01*
X136125633Y-76338698D01*
X136267978Y-75995046D01*
X136267978Y-75623080D01*
X136397978Y-75623080D01*
X136397978Y-75995046D01*
X136540323Y-76338698D01*
X136572978Y-76371353D01*
X136572979Y-76884212D01*
X136558090Y-76959063D01*
X136588978Y-77114347D01*
X136588979Y-79626772D01*
X136556323Y-79659428D01*
X136413978Y-80003080D01*
X136413978Y-80375046D01*
X136556323Y-80718698D01*
X136819343Y-80981718D01*
X137162995Y-81124063D01*
X137534961Y-81124063D01*
X137878613Y-80981718D01*
X138141633Y-80718698D01*
X138283978Y-80375046D01*
X138283978Y-80003080D01*
X138141633Y-79659428D01*
X138108978Y-79626773D01*
X138108978Y-77049909D01*
X138123866Y-76975062D01*
X138108978Y-76900215D01*
X138108978Y-76900211D01*
X138092978Y-76819774D01*
X138092978Y-76371353D01*
X138125633Y-76338698D01*
X138267978Y-75995046D01*
X138267978Y-75623080D01*
X138125633Y-75279428D01*
X137862613Y-75016408D01*
X137518961Y-74874063D01*
X137146995Y-74874063D01*
X136803343Y-75016408D01*
X136540323Y-75279428D01*
X136397978Y-75623080D01*
X136267978Y-75623080D01*
X136125633Y-75279428D01*
X135862613Y-75016408D01*
X135518961Y-74874063D01*
X135146995Y-74874063D01*
X134803343Y-75016408D01*
X134540323Y-75279428D01*
X134397978Y-75623080D01*
X134397978Y-75995046D01*
X134540323Y-76338698D01*
X134572978Y-76371353D01*
X134572979Y-81642772D01*
X134524323Y-81691428D01*
X134381978Y-82035080D01*
X132774978Y-82035080D01*
X132774978Y-74147347D01*
X132807627Y-74114698D01*
X132949972Y-73771046D01*
X132949972Y-73526080D01*
X138318978Y-73526080D01*
X138318978Y-73898046D01*
X138461323Y-74241698D01*
X138572979Y-74353354D01*
X138572978Y-75246773D01*
X138540323Y-75279428D01*
X138397978Y-75623080D01*
X138397978Y-75995046D01*
X138540323Y-76338698D01*
X138803343Y-76601718D01*
X139146995Y-76744063D01*
X139518961Y-76744063D01*
X139862613Y-76601718D01*
X140125633Y-76338698D01*
X140267978Y-75995046D01*
X140267978Y-75623080D01*
X140125633Y-75279428D01*
X140092978Y-75246773D01*
X140092978Y-74129811D01*
X140188978Y-73898046D01*
X140188978Y-73526080D01*
X140046633Y-73182428D01*
X139783613Y-72919408D01*
X139439961Y-72777063D01*
X139067995Y-72777063D01*
X138724343Y-72919408D01*
X138461323Y-73182428D01*
X138318978Y-73526080D01*
X132949972Y-73526080D01*
X132949972Y-73399080D01*
X132807627Y-73055428D01*
X132544607Y-72792408D01*
X132314978Y-72697293D01*
X132314978Y-72637080D01*
X132172633Y-72293428D01*
X131909613Y-72030408D01*
X131618012Y-71909623D01*
X131618012Y-71823017D01*
X131475667Y-71479365D01*
X131212647Y-71216345D01*
X130868995Y-71074000D01*
X130497029Y-71074000D01*
X130153377Y-71216345D01*
X129890357Y-71479365D01*
X129748012Y-71823017D01*
X129748012Y-72194983D01*
X129857979Y-72460467D01*
X129857978Y-78737773D01*
X129825323Y-78770428D01*
X129682978Y-79114080D01*
X129664251Y-79114080D01*
X129525633Y-78779428D01*
X129262613Y-78516408D01*
X128918961Y-78374063D01*
X128546995Y-78374063D01*
X128203343Y-78516408D01*
X128170688Y-78549063D01*
X127583248Y-78549063D01*
X127615978Y-78470046D01*
X127615978Y-78098080D01*
X127473633Y-77754428D01*
X127440978Y-77721773D01*
X127440978Y-69112000D01*
X134885560Y-69112000D01*
X134885560Y-72112000D01*
X134934843Y-72359765D01*
X135075191Y-72569809D01*
X135285235Y-72710157D01*
X135533000Y-72759440D01*
X138533000Y-72759440D01*
X138780765Y-72710157D01*
X138990809Y-72569809D01*
X139131157Y-72359765D01*
X139180440Y-72112000D01*
X139180440Y-69112000D01*
X139131157Y-68864235D01*
X138990809Y-68654191D01*
X138780765Y-68513843D01*
X138533000Y-68464560D01*
X135533000Y-68464560D01*
X135285235Y-68513843D01*
X135075191Y-68654191D01*
X134934843Y-68864235D01*
X134885560Y-69112000D01*
X127440978Y-69112000D01*
X127440978Y-58379109D01*
X133666389Y-64604521D01*
X133729711Y-64699289D01*
X134105145Y-64950146D01*
X134436217Y-65016000D01*
X134547999Y-65038235D01*
X134659781Y-65016000D01*
X143110977Y-65016000D01*
X143442049Y-64950146D01*
X143817483Y-64699289D01*
X143921125Y-64544178D01*
X144272000Y-64613971D01*
X144714855Y-64525882D01*
X145090289Y-64275025D01*
X145341146Y-63899590D01*
X145407000Y-63568518D01*
X145407000Y-63103782D01*
X145429235Y-62991999D01*
X145341146Y-62549145D01*
X145292757Y-62476726D01*
X145090289Y-62173711D01*
X144995519Y-62110388D01*
X144452356Y-61567225D01*
X144389032Y-61472454D01*
X144013598Y-61221597D01*
X143682526Y-61155743D01*
X143570743Y-61133508D01*
X143458960Y-61155743D01*
X142027962Y-61155743D01*
X142032003Y-61145986D01*
X142032003Y-60774020D01*
X141889658Y-60430368D01*
X141857003Y-60397713D01*
X141857003Y-57803654D01*
X142134635Y-57688655D01*
X142397655Y-57425635D01*
X142540000Y-57081983D01*
X142540000Y-56710017D01*
X142507135Y-56630672D01*
X148689516Y-56630672D01*
X148693386Y-56668344D01*
X148919898Y-57096537D01*
X149293031Y-57405453D01*
X149755978Y-57548063D01*
X150155978Y-57548063D01*
X150155978Y-56440063D01*
X150409978Y-56440063D01*
X150409978Y-57548063D01*
X150809978Y-57548063D01*
X151272925Y-57405453D01*
X151646058Y-57096537D01*
X151872570Y-56668344D01*
X151876440Y-56630672D01*
X151751709Y-56440063D01*
X150409978Y-56440063D01*
X150155978Y-56440063D01*
X148814247Y-56440063D01*
X148689516Y-56630672D01*
X142507135Y-56630672D01*
X142397655Y-56366365D01*
X142134635Y-56103345D01*
X141874163Y-55995454D01*
X148689516Y-55995454D01*
X148814247Y-56186063D01*
X150155978Y-56186063D01*
X150155978Y-55078063D01*
X150409978Y-55078063D01*
X150409978Y-56186063D01*
X151751709Y-56186063D01*
X151876440Y-55995454D01*
X151872570Y-55957782D01*
X151646058Y-55529589D01*
X151272925Y-55220673D01*
X150809978Y-55078063D01*
X150409978Y-55078063D01*
X150155978Y-55078063D01*
X149755978Y-55078063D01*
X149293031Y-55220673D01*
X148919898Y-55529589D01*
X148693386Y-55957782D01*
X148689516Y-55995454D01*
X141874163Y-55995454D01*
X141790983Y-55961000D01*
X141419017Y-55961000D01*
X141075365Y-56103345D01*
X140812345Y-56366365D01*
X140704004Y-56627924D01*
X140704004Y-53773063D01*
X148623783Y-53773063D01*
X148719634Y-54254936D01*
X148992593Y-54663448D01*
X149401105Y-54936407D01*
X149761342Y-55008063D01*
X150804614Y-55008063D01*
X151164851Y-54936407D01*
X151573363Y-54663448D01*
X151846322Y-54254936D01*
X151942173Y-53773063D01*
X151846322Y-53291190D01*
X151573363Y-52882678D01*
X151164851Y-52609719D01*
X150804614Y-52538063D01*
X149761342Y-52538063D01*
X149401105Y-52609719D01*
X148992593Y-52882678D01*
X148719634Y-53291190D01*
X148623783Y-53773063D01*
X140704004Y-53773063D01*
X140704004Y-53095407D01*
X140731137Y-52959000D01*
X140623645Y-52418600D01*
X140317533Y-51960471D01*
X139859404Y-51654359D01*
X139455411Y-51574000D01*
X139319004Y-51546867D01*
X139182597Y-51574000D01*
X138655980Y-51574000D01*
X138660294Y-51569686D01*
X138546972Y-51456364D01*
X138865739Y-51296582D01*
X139175723Y-50505813D01*
X139159497Y-49656613D01*
X138865739Y-48947418D01*
X138546970Y-48787635D01*
X137212605Y-50122000D01*
X137226748Y-50136143D01*
X137047143Y-50315748D01*
X137033000Y-50301605D01*
X137018858Y-50315748D01*
X136839253Y-50136143D01*
X136853395Y-50122000D01*
X135519030Y-48787635D01*
X135200261Y-48947418D01*
X134993000Y-49476141D01*
X134993000Y-48117000D01*
X136274293Y-48117000D01*
X135858418Y-48289261D01*
X135698635Y-48608030D01*
X137033000Y-49942395D01*
X138367365Y-48608030D01*
X138207582Y-48289261D01*
X137768144Y-48117000D01*
X138312762Y-48117000D01*
X138355012Y-48159250D01*
X138446231Y-48295769D01*
X138987055Y-48657136D01*
X139463969Y-48752000D01*
X139463970Y-48752000D01*
X139624999Y-48784031D01*
X139786029Y-48752000D01*
X141998654Y-48752000D01*
X142173620Y-48926966D01*
X142958322Y-49252000D01*
X143807678Y-49252000D01*
X144592380Y-48926966D01*
X145192966Y-48326380D01*
X145518000Y-47541678D01*
X145518000Y-47402750D01*
X146328000Y-47402750D01*
X146328000Y-48743310D01*
X146424673Y-48976699D01*
X146603302Y-49155327D01*
X146836691Y-49252000D01*
X148177250Y-49252000D01*
X148336000Y-49093250D01*
X148336000Y-47244000D01*
X148590000Y-47244000D01*
X148590000Y-49093250D01*
X148748750Y-49252000D01*
X150089309Y-49252000D01*
X150322698Y-49155327D01*
X150501327Y-48976699D01*
X150598000Y-48743310D01*
X150598000Y-47402750D01*
X150439250Y-47244000D01*
X148590000Y-47244000D01*
X148336000Y-47244000D01*
X146486750Y-47244000D01*
X146328000Y-47402750D01*
X145518000Y-47402750D01*
X145518000Y-46692322D01*
X145192966Y-45907620D01*
X144776036Y-45490690D01*
X146328000Y-45490690D01*
X146328000Y-46831250D01*
X146486750Y-46990000D01*
X148336000Y-46990000D01*
X148336000Y-45140750D01*
X148590000Y-45140750D01*
X148590000Y-46990000D01*
X150439250Y-46990000D01*
X150598000Y-46831250D01*
X150598000Y-45490690D01*
X150501327Y-45257301D01*
X150322698Y-45078673D01*
X150089309Y-44982000D01*
X148748750Y-44982000D01*
X148590000Y-45140750D01*
X148336000Y-45140750D01*
X148177250Y-44982000D01*
X146836691Y-44982000D01*
X146603302Y-45078673D01*
X146424673Y-45257301D01*
X146328000Y-45490690D01*
X144776036Y-45490690D01*
X144592380Y-45307034D01*
X143807678Y-44982000D01*
X142958322Y-44982000D01*
X142173620Y-45307034D01*
X141998654Y-45482000D01*
X140302238Y-45482000D01*
X140259988Y-45439750D01*
X140168769Y-45303231D01*
X139627945Y-44941864D01*
X139151031Y-44847000D01*
X139151030Y-44847000D01*
X138990000Y-44814969D01*
X138828970Y-44847000D01*
X133446969Y-44847000D01*
X132970055Y-44941864D01*
X132429231Y-45303231D01*
X132067864Y-45844055D01*
X131940969Y-46482000D01*
X132067864Y-47119945D01*
X132223001Y-47352124D01*
X132223000Y-51440593D01*
X132195867Y-51577000D01*
X132278694Y-51993401D01*
X132303359Y-52117399D01*
X132609471Y-52575528D01*
X132725112Y-52652797D01*
X133914202Y-53841888D01*
X133991471Y-53957529D01*
X134449600Y-54263641D01*
X134853593Y-54344000D01*
X134989999Y-54371133D01*
X135126405Y-54344000D01*
X137934005Y-54344000D01*
X137934004Y-61585597D01*
X137906871Y-61722004D01*
X137957394Y-61976000D01*
X138014363Y-62262403D01*
X138320475Y-62720532D01*
X138358590Y-62746000D01*
X135018132Y-62746000D01*
X128796021Y-56523890D01*
X128942809Y-56425809D01*
X129083157Y-56215765D01*
X129103739Y-56112292D01*
X129408076Y-56389645D01*
X129818110Y-56559476D01*
X130048000Y-56438155D01*
X130048000Y-55245000D01*
X130028000Y-55245000D01*
X130028000Y-54991000D01*
X130048000Y-54991000D01*
X130048000Y-53797845D01*
X130302000Y-53797845D01*
X130302000Y-54991000D01*
X130322000Y-54991000D01*
X130322000Y-55245000D01*
X130302000Y-55245000D01*
X130302000Y-56438155D01*
X130531890Y-56559476D01*
X130941924Y-56389645D01*
X131370183Y-55999358D01*
X131431157Y-55869522D01*
X131644375Y-56188625D01*
X132135582Y-56516839D01*
X132568744Y-56603000D01*
X132861256Y-56603000D01*
X133294418Y-56516839D01*
X133785625Y-56188625D01*
X134113839Y-55697418D01*
X134229092Y-55118000D01*
X134113839Y-54538582D01*
X133785625Y-54047375D01*
X133294418Y-53719161D01*
X132861256Y-53633000D01*
X132568744Y-53633000D01*
X132135582Y-53719161D01*
X131644375Y-54047375D01*
X131431157Y-54366478D01*
X131370183Y-54236642D01*
X130941924Y-53846355D01*
X130531890Y-53676524D01*
X130302000Y-53797845D01*
X130048000Y-53797845D01*
X129818110Y-53676524D01*
X129408076Y-53846355D01*
X129103739Y-54123708D01*
X129083157Y-54020235D01*
X129020000Y-53925715D01*
X129020000Y-47352121D01*
X129175135Y-47119945D01*
X129302031Y-46481999D01*
X129175135Y-45844055D01*
X128904985Y-45439747D01*
X128857988Y-45392750D01*
X128766769Y-45256231D01*
X128225945Y-44894864D01*
X127749031Y-44800000D01*
X127749030Y-44800000D01*
X127588000Y-44767969D01*
X127426970Y-44800000D01*
X113445025Y-44800000D01*
X113283999Y-44767970D01*
X113122973Y-44800000D01*
X113122969Y-44800000D01*
X113072696Y-44810000D01*
X112133955Y-44810000D01*
X112093731Y-44818001D01*
X103552269Y-44818001D01*
X103512045Y-44810000D01*
X101211955Y-44810000D01*
X101171731Y-44818001D01*
X92630269Y-44818001D01*
X92590045Y-44810000D01*
X90289955Y-44810000D01*
X90249731Y-44818001D01*
X80417970Y-44818001D01*
X80367697Y-44828001D01*
X79428956Y-44828001D01*
X78954958Y-44922285D01*
X78417442Y-45281442D01*
X78058285Y-45818958D01*
X77932166Y-46453001D01*
X78058285Y-47087044D01*
X78417442Y-47624560D01*
X78954958Y-47983717D01*
X79428956Y-48078001D01*
X80367697Y-48078001D01*
X80417970Y-48088001D01*
X113104969Y-48088001D01*
X113265999Y-48120032D01*
X113427029Y-48088001D01*
X113427030Y-48088001D01*
X113517527Y-48070000D01*
X126250001Y-48070000D01*
X126250000Y-53925714D01*
X126186843Y-54020235D01*
X126137560Y-54268000D01*
X126137560Y-55968000D01*
X126186843Y-56215765D01*
X126327191Y-56425809D01*
X126500001Y-56541278D01*
X126500001Y-56845199D01*
X123931668Y-54276867D01*
X123946322Y-54254936D01*
X124042173Y-53773063D01*
X123946322Y-53291190D01*
X123673363Y-52882678D01*
X123264851Y-52609719D01*
X122904614Y-52538063D01*
X121861342Y-52538063D01*
X121501105Y-52609719D01*
X121092593Y-52882678D01*
X120819634Y-53291190D01*
X120723783Y-53773063D01*
X120819634Y-54254936D01*
X121092593Y-54663448D01*
X121501105Y-54936407D01*
X121861342Y-55008063D01*
X122513262Y-55008063D01*
X122583262Y-55078063D01*
X122509978Y-55078063D01*
X122509978Y-56186063D01*
X122529978Y-56186063D01*
X122529978Y-56440063D01*
X122509978Y-56440063D01*
X122509978Y-57548063D01*
X122909978Y-57548063D01*
X123372925Y-57405453D01*
X123746058Y-57096537D01*
X123972570Y-56668344D01*
X123976440Y-56630672D01*
X123851710Y-56440065D01*
X123945264Y-56440065D01*
X125920979Y-58415781D01*
X125920979Y-60707778D01*
X125813613Y-60600412D01*
X125469961Y-60458067D01*
X125408978Y-60458067D01*
X125408978Y-59415347D01*
X125441633Y-59382692D01*
X125583978Y-59039040D01*
X125583978Y-58667074D01*
X125441633Y-58323422D01*
X125178613Y-58060402D01*
X124834961Y-57918057D01*
X124462995Y-57918057D01*
X124119343Y-58060402D01*
X123891140Y-58288605D01*
X123673363Y-57962678D01*
X123264851Y-57689719D01*
X122904614Y-57618063D01*
X121861342Y-57618063D01*
X121501105Y-57689719D01*
X121092593Y-57962678D01*
X120819634Y-58371190D01*
X120723783Y-58853063D01*
X120819634Y-59334936D01*
X121092593Y-59743448D01*
X121501105Y-60016407D01*
X121861342Y-60088063D01*
X122904614Y-60088063D01*
X123264851Y-60016407D01*
X123673363Y-59743448D01*
X123888979Y-59420756D01*
X123888979Y-60825370D01*
X123673363Y-60502678D01*
X123264851Y-60229719D01*
X122904614Y-60158063D01*
X121861342Y-60158063D01*
X121501105Y-60229719D01*
X121092593Y-60502678D01*
X120819634Y-60911190D01*
X120723783Y-61393063D01*
X120819634Y-61874936D01*
X121092593Y-62283448D01*
X121501105Y-62556407D01*
X121861342Y-62628063D01*
X122904614Y-62628063D01*
X123264851Y-62556407D01*
X123673363Y-62283448D01*
X123888979Y-61960756D01*
X123888979Y-63365370D01*
X123673363Y-63042678D01*
X123264851Y-62769719D01*
X122904614Y-62698063D01*
X121861342Y-62698063D01*
X121501105Y-62769719D01*
X121092593Y-63042678D01*
X120819634Y-63451190D01*
X120723783Y-63933063D01*
X120819634Y-64414936D01*
X121092593Y-64823448D01*
X121501105Y-65096407D01*
X121861342Y-65168063D01*
X122904614Y-65168063D01*
X123264851Y-65096407D01*
X123673363Y-64823448D01*
X123888979Y-64500756D01*
X123888979Y-65905370D01*
X123673363Y-65582678D01*
X123264851Y-65309719D01*
X122904614Y-65238063D01*
X121861342Y-65238063D01*
X121501105Y-65309719D01*
X121092593Y-65582678D01*
X120819634Y-65991190D01*
X120723783Y-66473063D01*
X120819634Y-66954936D01*
X121092593Y-67363448D01*
X121501105Y-67636407D01*
X121861342Y-67708063D01*
X122904614Y-67708063D01*
X123264851Y-67636407D01*
X123673363Y-67363448D01*
X123888979Y-67040756D01*
X123888979Y-68445370D01*
X123673363Y-68122678D01*
X123264851Y-67849719D01*
X122904614Y-67778063D01*
X121861342Y-67778063D01*
X121501105Y-67849719D01*
X121092593Y-68122678D01*
X120819634Y-68531190D01*
X120723783Y-69013063D01*
X120819634Y-69494936D01*
X121092593Y-69903448D01*
X121501105Y-70176407D01*
X121861342Y-70248063D01*
X122904614Y-70248063D01*
X123264851Y-70176407D01*
X123673363Y-69903448D01*
X123888979Y-69580756D01*
X123888979Y-70985370D01*
X123673363Y-70662678D01*
X123264851Y-70389719D01*
X122904614Y-70318063D01*
X121861342Y-70318063D01*
X121501105Y-70389719D01*
X121092593Y-70662678D01*
X120819634Y-71071190D01*
X120723783Y-71553063D01*
X120819634Y-72034936D01*
X121092593Y-72443448D01*
X121501105Y-72716407D01*
X121861342Y-72788063D01*
X122904614Y-72788063D01*
X123264851Y-72716407D01*
X123673363Y-72443448D01*
X123888979Y-72120756D01*
X123888979Y-73579763D01*
X123746058Y-73309589D01*
X123372925Y-73000673D01*
X122909978Y-72858063D01*
X122509978Y-72858063D01*
X122509978Y-73966063D01*
X122529978Y-73966063D01*
X122529978Y-74220063D01*
X122509978Y-74220063D01*
X122509978Y-75328063D01*
X122909978Y-75328063D01*
X123372925Y-75185453D01*
X123746058Y-74876537D01*
X123888979Y-74606363D01*
X123888978Y-76065369D01*
X123673363Y-75742678D01*
X123264851Y-75469719D01*
X122904614Y-75398063D01*
X121861342Y-75398063D01*
X121501105Y-75469719D01*
X121092593Y-75742678D01*
X120819634Y-76151190D01*
X120723783Y-76633063D01*
X120819634Y-77114936D01*
X121092593Y-77523448D01*
X121501105Y-77796407D01*
X121861342Y-77868063D01*
X122904614Y-77868063D01*
X123264851Y-77796407D01*
X123673363Y-77523448D01*
X123888978Y-77200757D01*
X123888978Y-78605369D01*
X123673363Y-78282678D01*
X123264851Y-78009719D01*
X122904614Y-77938063D01*
X121861342Y-77938063D01*
X121501105Y-78009719D01*
X121092593Y-78282678D01*
X120819634Y-78691190D01*
X120723783Y-79173063D01*
X120819634Y-79654936D01*
X121092593Y-80063448D01*
X121501105Y-80336407D01*
X121861342Y-80408063D01*
X122904614Y-80408063D01*
X123264851Y-80336407D01*
X123673363Y-80063448D01*
X123888978Y-79740757D01*
X123888978Y-81145369D01*
X123673363Y-80822678D01*
X123264851Y-80549719D01*
X122904614Y-80478063D01*
X121861342Y-80478063D01*
X121501105Y-80549719D01*
X121092593Y-80822678D01*
X120819634Y-81231190D01*
X120723783Y-81713063D01*
X120819634Y-82194936D01*
X121092593Y-82603448D01*
X121501105Y-82876407D01*
X121861342Y-82948063D01*
X122904614Y-82948063D01*
X123264851Y-82876407D01*
X123673363Y-82603448D01*
X123888978Y-82280757D01*
X123888978Y-83685369D01*
X123673363Y-83362678D01*
X123264851Y-83089719D01*
X122904614Y-83018063D01*
X121861342Y-83018063D01*
X121501105Y-83089719D01*
X121092593Y-83362678D01*
X121005473Y-83493063D01*
X117708351Y-83493063D01*
X117623633Y-83408345D01*
X117279981Y-83266000D01*
X116908015Y-83266000D01*
X116564363Y-83408345D01*
X116301343Y-83671365D01*
X116158998Y-84015017D01*
X116158998Y-84386983D01*
X116301343Y-84730635D01*
X116564363Y-84993655D01*
X116908015Y-85136000D01*
X117279981Y-85136000D01*
X117576778Y-85013063D01*
X121005473Y-85013063D01*
X121092593Y-85143448D01*
X121501105Y-85416407D01*
X121861342Y-85488063D01*
X122904614Y-85488063D01*
X123264851Y-85416407D01*
X123673363Y-85143448D01*
X123888978Y-84820757D01*
X123888978Y-86225369D01*
X123673363Y-85902678D01*
X123264851Y-85629719D01*
X122904614Y-85558063D01*
X121861342Y-85558063D01*
X121501105Y-85629719D01*
X121092593Y-85902678D01*
X120819634Y-86311190D01*
X120723783Y-86793063D01*
X120819634Y-87274936D01*
X121092593Y-87683448D01*
X121501105Y-87956407D01*
X121861342Y-88028063D01*
X122904614Y-88028063D01*
X123264851Y-87956407D01*
X123673363Y-87683448D01*
X123888978Y-87360757D01*
X123888978Y-88765369D01*
X123673363Y-88442678D01*
X123264851Y-88169719D01*
X122904614Y-88098063D01*
X121861342Y-88098063D01*
X121501105Y-88169719D01*
X121092593Y-88442678D01*
X120819634Y-88851190D01*
X120723783Y-89333063D01*
X120819634Y-89814936D01*
X121092593Y-90223448D01*
X121501105Y-90496407D01*
X121795670Y-90555000D01*
X101364259Y-90555000D01*
X101397157Y-90505765D01*
X101446440Y-90258000D01*
X101446440Y-88558000D01*
X101397157Y-88310235D01*
X101256809Y-88100191D01*
X101046765Y-87959843D01*
X100799000Y-87910560D01*
X99099000Y-87910560D01*
X98851235Y-87959843D01*
X98641191Y-88100191D01*
X98500843Y-88310235D01*
X98480261Y-88413708D01*
X98175924Y-88136355D01*
X97765890Y-87966524D01*
X97536000Y-88087845D01*
X97536000Y-89281000D01*
X97556000Y-89281000D01*
X97556000Y-89535000D01*
X97536000Y-89535000D01*
X97536000Y-89555000D01*
X97282000Y-89555000D01*
X97282000Y-89535000D01*
X97262000Y-89535000D01*
X97262000Y-89281000D01*
X97282000Y-89281000D01*
X97282000Y-88087845D01*
X97052110Y-87966524D01*
X96642076Y-88136355D01*
X96337739Y-88413708D01*
X96317157Y-88310235D01*
X96176809Y-88100191D01*
X95966765Y-87959843D01*
X95719000Y-87910560D01*
X94019000Y-87910560D01*
X93771235Y-87959843D01*
X93561191Y-88100191D01*
X93420843Y-88310235D01*
X93371560Y-88558000D01*
X93371560Y-90258000D01*
X93420843Y-90505765D01*
X93453741Y-90555000D01*
X86867194Y-90555000D01*
X86746483Y-90505000D01*
X86374517Y-90505000D01*
X86030865Y-90647345D01*
X85767845Y-90910365D01*
X85625500Y-91254017D01*
X85625500Y-91571000D01*
X85015694Y-91571000D01*
X84894983Y-91521000D01*
X84523017Y-91521000D01*
X84179365Y-91663345D01*
X83916345Y-91926365D01*
X83774000Y-92270017D01*
X83774000Y-92641983D01*
X83916345Y-92985635D01*
X84179365Y-93248655D01*
X84523017Y-93391000D01*
X84894983Y-93391000D01*
X85015694Y-93341000D01*
X87831311Y-93341000D01*
X87952017Y-93390998D01*
X88323983Y-93390998D01*
X88667635Y-93248653D01*
X88930655Y-92985633D01*
X89073000Y-92641981D01*
X89073000Y-92325000D01*
X118745000Y-92325000D01*
X118745000Y-101144000D01*
X71195000Y-101144000D01*
X71195000Y-96505457D01*
X72049000Y-96505457D01*
X72049000Y-97550543D01*
X72448937Y-98516076D01*
X73187924Y-99255063D01*
X74153457Y-99655000D01*
X75198543Y-99655000D01*
X76164076Y-99255063D01*
X76903063Y-98516076D01*
X77303000Y-97550543D01*
X77303000Y-96505457D01*
X76903063Y-95539924D01*
X76164076Y-94800937D01*
X75198543Y-94401000D01*
X74153457Y-94401000D01*
X73187924Y-94800937D01*
X72448937Y-95539924D01*
X72049000Y-96505457D01*
X71195000Y-96505457D01*
X71195000Y-84009000D01*
X71294295Y-84009000D01*
X71388205Y-84481118D01*
X71655639Y-84881361D01*
X72055882Y-85148795D01*
X72408827Y-85219000D01*
X73297173Y-85219000D01*
X73650118Y-85148795D01*
X74031445Y-84894000D01*
X74685624Y-84894000D01*
X74628052Y-84980163D01*
X74547724Y-85384000D01*
X74628052Y-85787837D01*
X74856807Y-86130193D01*
X75199163Y-86358948D01*
X75501065Y-86419000D01*
X75704935Y-86419000D01*
X75768000Y-86406456D01*
X75768001Y-89361545D01*
X75704935Y-89349000D01*
X75501065Y-89349000D01*
X75199163Y-89409052D01*
X74856807Y-89637807D01*
X74628052Y-89980163D01*
X74547724Y-90384000D01*
X74628052Y-90787837D01*
X74685624Y-90874000D01*
X74031445Y-90874000D01*
X73650118Y-90619205D01*
X73297173Y-90549000D01*
X72408827Y-90549000D01*
X72055882Y-90619205D01*
X71655639Y-90886639D01*
X71388205Y-91286882D01*
X71294295Y-91759000D01*
X71388205Y-92231118D01*
X71655639Y-92631361D01*
X72055882Y-92898795D01*
X72408827Y-92969000D01*
X73297173Y-92969000D01*
X73650118Y-92898795D01*
X74031445Y-92644000D01*
X75479053Y-92644000D01*
X75847355Y-92890091D01*
X76244057Y-92969000D01*
X77061943Y-92969000D01*
X77458645Y-92890091D01*
X77908505Y-92589505D01*
X78209091Y-92139645D01*
X78314643Y-91609000D01*
X78209091Y-91078355D01*
X77908505Y-90628495D01*
X77538000Y-90380932D01*
X77538000Y-86047017D01*
X81287000Y-86047017D01*
X81287000Y-86418983D01*
X81429345Y-86762635D01*
X81692365Y-87025655D01*
X82036017Y-87168000D01*
X82407983Y-87168000D01*
X82523866Y-87120000D01*
X88591710Y-87120000D01*
X88607315Y-87135605D01*
X88560865Y-87154845D01*
X88528210Y-87187500D01*
X82995346Y-87187500D01*
X82920499Y-87172612D01*
X82845652Y-87187500D01*
X82845648Y-87187500D01*
X82623963Y-87231596D01*
X82372571Y-87399571D01*
X82330171Y-87463027D01*
X82082198Y-87711000D01*
X82036017Y-87711000D01*
X81692365Y-87853345D01*
X81429345Y-88116365D01*
X81287000Y-88460017D01*
X81287000Y-88831983D01*
X81429345Y-89175635D01*
X81692365Y-89438655D01*
X82036017Y-89581000D01*
X82407983Y-89581000D01*
X82751635Y-89438655D01*
X83014655Y-89175635D01*
X83157000Y-88831983D01*
X83157000Y-88785802D01*
X83235302Y-88707500D01*
X85044000Y-88707500D01*
X85044000Y-88831983D01*
X85186345Y-89175635D01*
X85449365Y-89438655D01*
X85793017Y-89581000D01*
X86164983Y-89581000D01*
X86508635Y-89438655D01*
X86541290Y-89406000D01*
X87248210Y-89406000D01*
X87280865Y-89438655D01*
X87624517Y-89581000D01*
X87996483Y-89581000D01*
X88340135Y-89438655D01*
X88603155Y-89175635D01*
X88745500Y-88831983D01*
X88745500Y-88816633D01*
X88904517Y-88882500D01*
X89276483Y-88882500D01*
X89620135Y-88740155D01*
X89883155Y-88477135D01*
X90025500Y-88133483D01*
X90025500Y-87761517D01*
X89883155Y-87417865D01*
X89637185Y-87171895D01*
X89683635Y-87152655D01*
X89946655Y-86889635D01*
X90089000Y-86545983D01*
X90089000Y-86174017D01*
X89946655Y-85830365D01*
X89683635Y-85567345D01*
X89339983Y-85425000D01*
X88968017Y-85425000D01*
X88624365Y-85567345D01*
X88591710Y-85600000D01*
X82911290Y-85600000D01*
X82751635Y-85440345D01*
X82407983Y-85298000D01*
X82036017Y-85298000D01*
X81692365Y-85440345D01*
X81429345Y-85703365D01*
X81287000Y-86047017D01*
X77538000Y-86047017D01*
X77538000Y-85387068D01*
X77908505Y-85139505D01*
X78209091Y-84689645D01*
X78314643Y-84159000D01*
X78209091Y-83628355D01*
X77908505Y-83178495D01*
X77458645Y-82877909D01*
X77061943Y-82799000D01*
X76244057Y-82799000D01*
X75847355Y-82877909D01*
X75479053Y-83124000D01*
X74031445Y-83124000D01*
X73650118Y-82869205D01*
X73297173Y-82799000D01*
X72408827Y-82799000D01*
X72055882Y-82869205D01*
X71655639Y-83136639D01*
X71388205Y-83536882D01*
X71294295Y-84009000D01*
X71195000Y-84009000D01*
X71195000Y-79570017D01*
X98887000Y-79570017D01*
X98887000Y-79941983D01*
X99029345Y-80285635D01*
X99292365Y-80548655D01*
X99369001Y-80580399D01*
X99369000Y-86305710D01*
X99336345Y-86338365D01*
X99194000Y-86682017D01*
X99194000Y-87053983D01*
X99336345Y-87397635D01*
X99599365Y-87660655D01*
X99943017Y-87803000D01*
X100314983Y-87803000D01*
X100658635Y-87660655D01*
X100921655Y-87397635D01*
X101064000Y-87053983D01*
X101064000Y-86682017D01*
X100921655Y-86338365D01*
X100889000Y-86305710D01*
X100889000Y-81245017D01*
X107217000Y-81245017D01*
X107217000Y-81616983D01*
X107359345Y-81960635D01*
X107392000Y-81993290D01*
X107392001Y-85006152D01*
X107377112Y-85081004D01*
X107436097Y-85377541D01*
X107509946Y-85488063D01*
X107604072Y-85628933D01*
X107667528Y-85671333D01*
X108541582Y-86545388D01*
X108541582Y-86591569D01*
X108683927Y-86935221D01*
X108946947Y-87198241D01*
X109290599Y-87340586D01*
X109662565Y-87340586D01*
X110006217Y-87198241D01*
X110269237Y-86935221D01*
X110411582Y-86591569D01*
X110411582Y-86219603D01*
X110269237Y-85875951D01*
X110006217Y-85612931D01*
X109662565Y-85470586D01*
X109616384Y-85470586D01*
X108912000Y-84766203D01*
X108912000Y-81993290D01*
X108944655Y-81960635D01*
X109087000Y-81616983D01*
X109087000Y-81245017D01*
X108944655Y-80901365D01*
X108681635Y-80638345D01*
X108337983Y-80496000D01*
X107966017Y-80496000D01*
X107622365Y-80638345D01*
X107359345Y-80901365D01*
X107217000Y-81245017D01*
X100889000Y-81245017D01*
X100889000Y-80137848D01*
X100903888Y-80063000D01*
X100889000Y-79988152D01*
X100889000Y-79988148D01*
X100849139Y-79787750D01*
X117006000Y-79787750D01*
X117006000Y-80478310D01*
X117102673Y-80711699D01*
X117281302Y-80890327D01*
X117514691Y-80987000D01*
X118205250Y-80987000D01*
X118364000Y-80828250D01*
X118364000Y-79629000D01*
X118618000Y-79629000D01*
X118618000Y-80828250D01*
X118776750Y-80987000D01*
X119467309Y-80987000D01*
X119700698Y-80890327D01*
X119879327Y-80711699D01*
X119976000Y-80478310D01*
X119976000Y-79787750D01*
X119817250Y-79629000D01*
X118618000Y-79629000D01*
X118364000Y-79629000D01*
X117164750Y-79629000D01*
X117006000Y-79787750D01*
X100849139Y-79787750D01*
X100844904Y-79766463D01*
X100757000Y-79634906D01*
X100757000Y-79570017D01*
X100614655Y-79226365D01*
X100351635Y-78963345D01*
X100007983Y-78821000D01*
X99636017Y-78821000D01*
X99292365Y-78963345D01*
X99029345Y-79226365D01*
X98887000Y-79570017D01*
X71195000Y-79570017D01*
X71195000Y-76522017D01*
X92664000Y-76522017D01*
X92664000Y-76893983D01*
X92806345Y-77237635D01*
X93069365Y-77500655D01*
X93413017Y-77643000D01*
X93784983Y-77643000D01*
X94128635Y-77500655D01*
X94161290Y-77468000D01*
X106111199Y-77468000D01*
X106560370Y-77917171D01*
X106507000Y-78046017D01*
X106507000Y-78417983D01*
X106649345Y-78761635D01*
X106912365Y-79024655D01*
X107256017Y-79167000D01*
X107627983Y-79167000D01*
X107971635Y-79024655D01*
X108234655Y-78761635D01*
X108377000Y-78417983D01*
X108377000Y-78046017D01*
X108234655Y-77702365D01*
X108207104Y-77674814D01*
X108202000Y-77649153D01*
X108202000Y-77649148D01*
X108157904Y-77427463D01*
X107989929Y-77176071D01*
X107926473Y-77133671D01*
X107016331Y-76223530D01*
X106973929Y-76160071D01*
X106722537Y-75992096D01*
X106500852Y-75948000D01*
X106500847Y-75948000D01*
X106426000Y-75933112D01*
X106351153Y-75948000D01*
X94161290Y-75948000D01*
X94128635Y-75915345D01*
X93784983Y-75773000D01*
X93413017Y-75773000D01*
X93069365Y-75915345D01*
X92806345Y-76178365D01*
X92664000Y-76522017D01*
X71195000Y-76522017D01*
X71195000Y-73982017D01*
X89108000Y-73982017D01*
X89108000Y-74353983D01*
X89250345Y-74697635D01*
X89513365Y-74960655D01*
X89857017Y-75103000D01*
X90228983Y-75103000D01*
X90349694Y-75053000D01*
X115085607Y-75053000D01*
X115257017Y-75124000D01*
X115628983Y-75124000D01*
X115972635Y-74981655D01*
X116235655Y-74718635D01*
X116358524Y-74422000D01*
X116976908Y-74422000D01*
X117092161Y-75001418D01*
X117420375Y-75492625D01*
X117718761Y-75692000D01*
X117420375Y-75891375D01*
X117092161Y-76382582D01*
X116976908Y-76962000D01*
X117092161Y-77541418D01*
X117420375Y-78032625D01*
X117442033Y-78047096D01*
X117281302Y-78113673D01*
X117102673Y-78292301D01*
X117006000Y-78525690D01*
X117006000Y-79216250D01*
X117164750Y-79375000D01*
X118364000Y-79375000D01*
X118364000Y-79355000D01*
X118618000Y-79355000D01*
X118618000Y-79375000D01*
X119817250Y-79375000D01*
X119976000Y-79216250D01*
X119976000Y-78525690D01*
X119879327Y-78292301D01*
X119700698Y-78113673D01*
X119539967Y-78047096D01*
X119561625Y-78032625D01*
X119889839Y-77541418D01*
X120005092Y-76962000D01*
X119889839Y-76382582D01*
X119561625Y-75891375D01*
X119263239Y-75692000D01*
X119561625Y-75492625D01*
X119889839Y-75001418D01*
X120005092Y-74422000D01*
X120002839Y-74410672D01*
X120789516Y-74410672D01*
X120793386Y-74448344D01*
X121019898Y-74876537D01*
X121393031Y-75185453D01*
X121855978Y-75328063D01*
X122255978Y-75328063D01*
X122255978Y-74220063D01*
X120914247Y-74220063D01*
X120789516Y-74410672D01*
X120002839Y-74410672D01*
X119889839Y-73842582D01*
X119844986Y-73775454D01*
X120789516Y-73775454D01*
X120914247Y-73966063D01*
X122255978Y-73966063D01*
X122255978Y-72858063D01*
X121855978Y-72858063D01*
X121393031Y-73000673D01*
X121019898Y-73309589D01*
X120793386Y-73737782D01*
X120789516Y-73775454D01*
X119844986Y-73775454D01*
X119561625Y-73351375D01*
X119070418Y-73023161D01*
X118637256Y-72937000D01*
X118344744Y-72937000D01*
X117911582Y-73023161D01*
X117420375Y-73351375D01*
X117092161Y-73842582D01*
X116976908Y-74422000D01*
X116358524Y-74422000D01*
X116378000Y-74374983D01*
X116378000Y-74003017D01*
X116235655Y-73659365D01*
X115972635Y-73396345D01*
X115628983Y-73254000D01*
X115257017Y-73254000D01*
X115187005Y-73283000D01*
X90349694Y-73283000D01*
X90228983Y-73233000D01*
X89857017Y-73233000D01*
X89513365Y-73375345D01*
X89250345Y-73638365D01*
X89108000Y-73982017D01*
X71195000Y-73982017D01*
X71195000Y-64861391D01*
X76327000Y-64861391D01*
X76327000Y-65694608D01*
X76422792Y-66176187D01*
X76787695Y-66722305D01*
X77333812Y-67087208D01*
X77978000Y-67215345D01*
X78622187Y-67087208D01*
X79168305Y-66722305D01*
X79248000Y-66603033D01*
X79327695Y-66722305D01*
X79873812Y-67087208D01*
X80518000Y-67215345D01*
X80919650Y-67135452D01*
X85134671Y-71350473D01*
X85177071Y-71413929D01*
X85428463Y-71581904D01*
X85650148Y-71626000D01*
X85650152Y-71626000D01*
X85724999Y-71640888D01*
X85799846Y-71626000D01*
X98243710Y-71626000D01*
X98276365Y-71658655D01*
X98620017Y-71801000D01*
X98991983Y-71801000D01*
X99335635Y-71658655D01*
X99598655Y-71395635D01*
X99741000Y-71051983D01*
X99741000Y-70991773D01*
X99949006Y-70905614D01*
X100271029Y-71039000D01*
X100642995Y-71039000D01*
X100986647Y-70896655D01*
X101249667Y-70633635D01*
X101392012Y-70289983D01*
X101392012Y-70243801D01*
X102846473Y-68789341D01*
X102909929Y-68746941D01*
X103077904Y-68495549D01*
X103122000Y-68273864D01*
X103122000Y-68273860D01*
X103136888Y-68199013D01*
X103122000Y-68124166D01*
X103122000Y-67378017D01*
X108919998Y-67378017D01*
X108919998Y-67749983D01*
X109062343Y-68093635D01*
X109325363Y-68356655D01*
X109669015Y-68499000D01*
X110040981Y-68499000D01*
X110384633Y-68356655D01*
X110417288Y-68324000D01*
X113717153Y-68324000D01*
X113792000Y-68338888D01*
X113866847Y-68324000D01*
X113866852Y-68324000D01*
X114088537Y-68279904D01*
X114339929Y-68111929D01*
X114382331Y-68048470D01*
X115316420Y-67114381D01*
X115824000Y-67215345D01*
X116468187Y-67087208D01*
X117014305Y-66722305D01*
X117379208Y-66176188D01*
X117475000Y-65694609D01*
X117475000Y-64861392D01*
X117379208Y-64379812D01*
X117014305Y-63833695D01*
X116468188Y-63468792D01*
X115824000Y-63340655D01*
X115179813Y-63468792D01*
X114669000Y-63810105D01*
X114669000Y-56630672D01*
X120789516Y-56630672D01*
X120793386Y-56668344D01*
X121019898Y-57096537D01*
X121393031Y-57405453D01*
X121855978Y-57548063D01*
X122255978Y-57548063D01*
X122255978Y-56440063D01*
X120914247Y-56440063D01*
X120789516Y-56630672D01*
X114669000Y-56630672D01*
X114669000Y-55995454D01*
X120789516Y-55995454D01*
X120914247Y-56186063D01*
X122255978Y-56186063D01*
X122255978Y-55078063D01*
X121855978Y-55078063D01*
X121393031Y-55220673D01*
X121019898Y-55529589D01*
X120793386Y-55957782D01*
X120789516Y-55995454D01*
X114669000Y-55995454D01*
X114669000Y-53072440D01*
X115264000Y-53072440D01*
X115511765Y-53023157D01*
X115721809Y-52882809D01*
X115862157Y-52672765D01*
X115911440Y-52425000D01*
X115911440Y-50445000D01*
X115862157Y-50197235D01*
X115721809Y-49987191D01*
X115511765Y-49846843D01*
X115264000Y-49797560D01*
X111304000Y-49797560D01*
X111056235Y-49846843D01*
X110846191Y-49987191D01*
X110705843Y-50197235D01*
X110656560Y-50445000D01*
X110656560Y-52425000D01*
X110705843Y-52672765D01*
X110846191Y-52882809D01*
X111056235Y-53023157D01*
X111304000Y-53072440D01*
X111899000Y-53072440D01*
X111899001Y-58602978D01*
X111825038Y-58231146D01*
X111574181Y-57855712D01*
X111198747Y-57604855D01*
X110755892Y-57516765D01*
X110313039Y-57604855D01*
X110032370Y-57792392D01*
X110020480Y-57804282D01*
X109925712Y-57867604D01*
X109745605Y-58137153D01*
X109674854Y-58243039D01*
X109586765Y-58685893D01*
X109609001Y-58797681D01*
X109609000Y-63796741D01*
X109553695Y-63833695D01*
X109188792Y-64379812D01*
X109093000Y-64861391D01*
X109093000Y-65694608D01*
X109188792Y-66176187D01*
X109529863Y-66686638D01*
X109325363Y-66771345D01*
X109062343Y-67034365D01*
X108919998Y-67378017D01*
X103122000Y-67378017D01*
X103122000Y-67009825D01*
X103552305Y-66722305D01*
X103632000Y-66603033D01*
X103711695Y-66722305D01*
X104257812Y-67087208D01*
X104902000Y-67215345D01*
X105546187Y-67087208D01*
X106092305Y-66722305D01*
X106457208Y-66176188D01*
X106553000Y-65694609D01*
X106553000Y-64861392D01*
X106457208Y-64379812D01*
X106092305Y-63833695D01*
X105546188Y-63468792D01*
X104902000Y-63340655D01*
X104257813Y-63468792D01*
X103747000Y-63810105D01*
X103747000Y-53072440D01*
X104342000Y-53072440D01*
X104589765Y-53023157D01*
X104799809Y-52882809D01*
X104940157Y-52672765D01*
X104989440Y-52425000D01*
X104989440Y-50445000D01*
X104940157Y-50197235D01*
X104799809Y-49987191D01*
X104589765Y-49846843D01*
X104342000Y-49797560D01*
X100382000Y-49797560D01*
X100134235Y-49846843D01*
X99924191Y-49987191D01*
X99783843Y-50197235D01*
X99734560Y-50445000D01*
X99734560Y-52425000D01*
X99783843Y-52672765D01*
X99924191Y-52882809D01*
X100134235Y-53023157D01*
X100382000Y-53072440D01*
X100977000Y-53072440D01*
X100977001Y-58548345D01*
X100951471Y-58420000D01*
X100891146Y-58116724D01*
X100640289Y-57741290D01*
X100545518Y-57677966D01*
X100532944Y-57665392D01*
X100252275Y-57477854D01*
X99809421Y-57389765D01*
X99366567Y-57477854D01*
X98991133Y-57728712D01*
X98740275Y-58104146D01*
X98652186Y-58547000D01*
X98687001Y-58722027D01*
X98687000Y-63796741D01*
X98631695Y-63833695D01*
X98266792Y-64379812D01*
X98171000Y-64861391D01*
X98171000Y-65694608D01*
X98266792Y-66176187D01*
X98631695Y-66722305D01*
X99177812Y-67087208D01*
X99822000Y-67215345D01*
X100466187Y-67087208D01*
X101012305Y-66722305D01*
X101092000Y-66603033D01*
X101171695Y-66722305D01*
X101602001Y-67009825D01*
X101602001Y-67884209D01*
X100317211Y-69169000D01*
X100271029Y-69169000D01*
X99949006Y-69302386D01*
X99626983Y-69169000D01*
X99255017Y-69169000D01*
X98911365Y-69311345D01*
X98878710Y-69344000D01*
X95310803Y-69344000D01*
X92653858Y-66687056D01*
X92710000Y-66603033D01*
X92789695Y-66722305D01*
X93335812Y-67087208D01*
X93980000Y-67215345D01*
X94624187Y-67087208D01*
X95170305Y-66722305D01*
X95535208Y-66176188D01*
X95631000Y-65694609D01*
X95631000Y-64861392D01*
X95535208Y-64379812D01*
X95170305Y-63833695D01*
X94624188Y-63468792D01*
X93980000Y-63340655D01*
X93335813Y-63468792D01*
X92825000Y-63810105D01*
X92825000Y-53072440D01*
X93420000Y-53072440D01*
X93667765Y-53023157D01*
X93877809Y-52882809D01*
X94018157Y-52672765D01*
X94067440Y-52425000D01*
X94067440Y-50445000D01*
X94018157Y-50197235D01*
X93877809Y-49987191D01*
X93667765Y-49846843D01*
X93420000Y-49797560D01*
X89460000Y-49797560D01*
X89212235Y-49846843D01*
X89002191Y-49987191D01*
X88861843Y-50197235D01*
X88812560Y-50445000D01*
X88812560Y-52425000D01*
X88861843Y-52672765D01*
X89002191Y-52882809D01*
X89212235Y-53023157D01*
X89460000Y-53072440D01*
X90055000Y-53072440D01*
X90055001Y-58544996D01*
X89973877Y-58137159D01*
X89969146Y-58113376D01*
X89718289Y-57737942D01*
X89623518Y-57674618D01*
X89603808Y-57654908D01*
X89323139Y-57467370D01*
X88880285Y-57379281D01*
X88437431Y-57467370D01*
X88061997Y-57718228D01*
X87811139Y-58093662D01*
X87723050Y-58536516D01*
X87765001Y-58747418D01*
X87765000Y-63796741D01*
X87709695Y-63833695D01*
X87344792Y-64379812D01*
X87249000Y-64861391D01*
X87249000Y-65694608D01*
X87344792Y-66176187D01*
X87709695Y-66722305D01*
X88255812Y-67087208D01*
X88900000Y-67215345D01*
X89544187Y-67087208D01*
X90090305Y-66722305D01*
X90170000Y-66603033D01*
X90249695Y-66722305D01*
X90795812Y-67087208D01*
X90914289Y-67110775D01*
X90955530Y-67138331D01*
X93923197Y-70106000D01*
X86039802Y-70106000D01*
X83134024Y-67200223D01*
X83702187Y-67087208D01*
X84248305Y-66722305D01*
X84613208Y-66176188D01*
X84709000Y-65694609D01*
X84709000Y-64861392D01*
X84613208Y-64379812D01*
X84248305Y-63833695D01*
X83702188Y-63468792D01*
X83058000Y-63340655D01*
X82413813Y-63468792D01*
X81964001Y-63769346D01*
X81964001Y-53090441D01*
X82559001Y-53090441D01*
X82806766Y-53041158D01*
X83016810Y-52900810D01*
X83157158Y-52690766D01*
X83206441Y-52443001D01*
X83206441Y-50463001D01*
X83157158Y-50215236D01*
X83016810Y-50005192D01*
X82806766Y-49864844D01*
X82559001Y-49815561D01*
X78599001Y-49815561D01*
X78351236Y-49864844D01*
X78141192Y-50005192D01*
X78000844Y-50215236D01*
X77951561Y-50463001D01*
X77951561Y-52443001D01*
X78000844Y-52690766D01*
X78141192Y-52900810D01*
X78351236Y-53041158D01*
X78599001Y-53090441D01*
X79194001Y-53090441D01*
X79194002Y-63872153D01*
X79168305Y-63833695D01*
X79113000Y-63796741D01*
X79113000Y-58583782D01*
X79135235Y-58471999D01*
X79063901Y-58113377D01*
X79047146Y-58029145D01*
X78796289Y-57653711D01*
X78701518Y-57590387D01*
X78649523Y-57538392D01*
X78368854Y-57350854D01*
X77926000Y-57262765D01*
X77483146Y-57350854D01*
X77107712Y-57601712D01*
X76856854Y-57977146D01*
X76768765Y-58420000D01*
X76843001Y-58793210D01*
X76843000Y-63796741D01*
X76787695Y-63833695D01*
X76422792Y-64379812D01*
X76327000Y-64861391D01*
X71195000Y-64861391D01*
X71195000Y-41731000D01*
X153214000Y-41731000D01*
X153214001Y-92075000D01*
X153214001Y-92075000D01*
G37*
X153214001Y-92075000D02*
X147482978Y-92075000D01*
X147512825Y-92069063D01*
X147512830Y-92069063D01*
X147734515Y-92024967D01*
X147985907Y-91856992D01*
X148028308Y-91793534D01*
X148628446Y-91193398D01*
X148691899Y-91151000D01*
X148734297Y-91087547D01*
X148734299Y-91087545D01*
X148859873Y-90899609D01*
X148859874Y-90899608D01*
X148903970Y-90677923D01*
X148903970Y-90677919D01*
X148918858Y-90603072D01*
X148903970Y-90528225D01*
X148903970Y-90090814D01*
X148992593Y-90223448D01*
X149401105Y-90496407D01*
X149761342Y-90568063D01*
X150804614Y-90568063D01*
X151164851Y-90496407D01*
X151573363Y-90223448D01*
X151846322Y-89814936D01*
X151942173Y-89333063D01*
X151846322Y-88851190D01*
X151573363Y-88442678D01*
X151164851Y-88169719D01*
X150804614Y-88098063D01*
X149761342Y-88098063D01*
X149401105Y-88169719D01*
X148992593Y-88442678D01*
X148903970Y-88575312D01*
X148903970Y-87550814D01*
X148992593Y-87683448D01*
X149401105Y-87956407D01*
X149761342Y-88028063D01*
X150804614Y-88028063D01*
X151164851Y-87956407D01*
X151573363Y-87683448D01*
X151846322Y-87274936D01*
X151942173Y-86793063D01*
X151846322Y-86311190D01*
X151573363Y-85902678D01*
X151164851Y-85629719D01*
X150804614Y-85558063D01*
X149761342Y-85558063D01*
X149401105Y-85629719D01*
X148992593Y-85902678D01*
X148903970Y-86035312D01*
X148903970Y-85010814D01*
X148992593Y-85143448D01*
X149401105Y-85416407D01*
X149761342Y-85488063D01*
X150804614Y-85488063D01*
X151164851Y-85416407D01*
X151573363Y-85143448D01*
X151846322Y-84734936D01*
X151942173Y-84253063D01*
X151846322Y-83771190D01*
X151573363Y-83362678D01*
X151164851Y-83089719D01*
X150804614Y-83018063D01*
X149761342Y-83018063D01*
X149401105Y-83089719D01*
X148992593Y-83362678D01*
X148903970Y-83495312D01*
X148903970Y-82470814D01*
X148992593Y-82603448D01*
X149216323Y-82752940D01*
X149227049Y-82768992D01*
X149478441Y-82936967D01*
X149700126Y-82981063D01*
X149720131Y-82981063D01*
X149794978Y-82995951D01*
X149869825Y-82981063D01*
X149869830Y-82981063D01*
X150035732Y-82948063D01*
X150804614Y-82948063D01*
X151164851Y-82876407D01*
X151573363Y-82603448D01*
X151846322Y-82194936D01*
X151942173Y-81713063D01*
X151846322Y-81231190D01*
X151573363Y-80822678D01*
X151164851Y-80549719D01*
X150804614Y-80478063D01*
X149761342Y-80478063D01*
X149401105Y-80549719D01*
X148992593Y-80822678D01*
X148903970Y-80955312D01*
X148903970Y-79930814D01*
X148992593Y-80063448D01*
X149401105Y-80336407D01*
X149761342Y-80408063D01*
X150804614Y-80408063D01*
X151164851Y-80336407D01*
X151573363Y-80063448D01*
X151846322Y-79654936D01*
X151942173Y-79173063D01*
X151846322Y-78691190D01*
X151573363Y-78282678D01*
X151164851Y-78009719D01*
X150804614Y-77938063D01*
X149761342Y-77938063D01*
X149401105Y-78009719D01*
X148992593Y-78282678D01*
X148903970Y-78415312D01*
X148903970Y-77390814D01*
X148992593Y-77523448D01*
X149401105Y-77796407D01*
X149761342Y-77868063D01*
X150804614Y-77868063D01*
X151164851Y-77796407D01*
X151573363Y-77523448D01*
X151846322Y-77114936D01*
X151942173Y-76633063D01*
X151846322Y-76151190D01*
X151573363Y-75742678D01*
X151164851Y-75469719D01*
X150804614Y-75398063D01*
X149761342Y-75398063D01*
X149401105Y-75469719D01*
X148992593Y-75742678D01*
X148903970Y-75875312D01*
X148903970Y-74850814D01*
X148992593Y-74983448D01*
X149401105Y-75256407D01*
X149761342Y-75328063D01*
X150804614Y-75328063D01*
X151164851Y-75256407D01*
X151573363Y-74983448D01*
X151846322Y-74574936D01*
X151942173Y-74093063D01*
X151846322Y-73611190D01*
X151573363Y-73202678D01*
X151164851Y-72929719D01*
X150804614Y-72858063D01*
X149761342Y-72858063D01*
X149401105Y-72929719D01*
X148992593Y-73202678D01*
X148903970Y-73335312D01*
X148903970Y-72310814D01*
X148992593Y-72443448D01*
X149401105Y-72716407D01*
X149761342Y-72788063D01*
X150804614Y-72788063D01*
X151164851Y-72716407D01*
X151573363Y-72443448D01*
X151846322Y-72034936D01*
X151942173Y-71553063D01*
X151846322Y-71071190D01*
X151573363Y-70662678D01*
X151164851Y-70389719D01*
X150804614Y-70318063D01*
X149761342Y-70318063D01*
X149401105Y-70389719D01*
X148992593Y-70662678D01*
X148903970Y-70795312D01*
X148903970Y-69770814D01*
X148992593Y-69903448D01*
X149401105Y-70176407D01*
X149761342Y-70248063D01*
X150804614Y-70248063D01*
X151164851Y-70176407D01*
X151573363Y-69903448D01*
X151846322Y-69494936D01*
X151942173Y-69013063D01*
X151846322Y-68531190D01*
X151573363Y-68122678D01*
X151164851Y-67849719D01*
X150804614Y-67778063D01*
X149761342Y-67778063D01*
X149401105Y-67849719D01*
X148992593Y-68122678D01*
X148903970Y-68255312D01*
X148903970Y-67226427D01*
X148919898Y-67256537D01*
X149293031Y-67565453D01*
X149755978Y-67708063D01*
X150155978Y-67708063D01*
X150155978Y-66600063D01*
X150409978Y-66600063D01*
X150409978Y-67708063D01*
X150809978Y-67708063D01*
X151272925Y-67565453D01*
X151646058Y-67256537D01*
X151872570Y-66828344D01*
X151876440Y-66790672D01*
X151751709Y-66600063D01*
X150409978Y-66600063D01*
X150155978Y-66600063D01*
X150135978Y-66600063D01*
X150135978Y-66346063D01*
X150155978Y-66346063D01*
X150155978Y-65238063D01*
X150409978Y-65238063D01*
X150409978Y-66346063D01*
X151751709Y-66346063D01*
X151876440Y-66155454D01*
X151872570Y-66117782D01*
X151646058Y-65689589D01*
X151272925Y-65380673D01*
X150809978Y-65238063D01*
X150409978Y-65238063D01*
X150155978Y-65238063D01*
X149755978Y-65238063D01*
X149293031Y-65380673D01*
X148919898Y-65689589D01*
X148903970Y-65719699D01*
X148903970Y-64690814D01*
X148992593Y-64823448D01*
X149401105Y-65096407D01*
X149761342Y-65168063D01*
X150804614Y-65168063D01*
X151164851Y-65096407D01*
X151573363Y-64823448D01*
X151846322Y-64414936D01*
X151942173Y-63933063D01*
X151846322Y-63451190D01*
X151573363Y-63042678D01*
X151164851Y-62769719D01*
X150804614Y-62698063D01*
X149761342Y-62698063D01*
X149401105Y-62769719D01*
X148992593Y-63042678D01*
X148903970Y-63175312D01*
X148903970Y-62150814D01*
X148992593Y-62283448D01*
X149401105Y-62556407D01*
X149761342Y-62628063D01*
X150804614Y-62628063D01*
X151164851Y-62556407D01*
X151573363Y-62283448D01*
X151846322Y-61874936D01*
X151942173Y-61393063D01*
X151846322Y-60911190D01*
X151573363Y-60502678D01*
X151164851Y-60229719D01*
X150804614Y-60158063D01*
X149761342Y-60158063D01*
X149401105Y-60229719D01*
X148992593Y-60502678D01*
X148903970Y-60635312D01*
X148903970Y-59610814D01*
X148992593Y-59743448D01*
X149401105Y-60016407D01*
X149761342Y-60088063D01*
X150804614Y-60088063D01*
X151164851Y-60016407D01*
X151573363Y-59743448D01*
X151846322Y-59334936D01*
X151942173Y-58853063D01*
X151846322Y-58371190D01*
X151573363Y-57962678D01*
X151164851Y-57689719D01*
X150804614Y-57618063D01*
X149761342Y-57618063D01*
X149401105Y-57689719D01*
X148992593Y-57962678D01*
X148825679Y-58212482D01*
X148673605Y-58060408D01*
X148329953Y-57918063D01*
X147957987Y-57918063D01*
X147614335Y-58060408D01*
X147351315Y-58323428D01*
X147208970Y-58667080D01*
X147208970Y-59039046D01*
X147351315Y-59382698D01*
X147383971Y-59415354D01*
X147383971Y-60458063D01*
X147332977Y-60458063D01*
X146989325Y-60600408D01*
X146726305Y-60863428D01*
X146583960Y-61207080D01*
X146583960Y-61579046D01*
X146726305Y-61922698D01*
X146758961Y-61955354D01*
X146758961Y-66629000D01*
X146707967Y-66629000D01*
X146364315Y-66771345D01*
X146101295Y-67034365D01*
X145958950Y-67378017D01*
X145958950Y-67749983D01*
X146101295Y-68093635D01*
X146133951Y-68126291D01*
X146133950Y-73283289D01*
X145723681Y-73693558D01*
X145723681Y-73491741D01*
X145581336Y-73148089D01*
X145548681Y-73115434D01*
X145548681Y-71965529D01*
X145563569Y-71890681D01*
X145548681Y-71815833D01*
X145548681Y-71815829D01*
X145504585Y-71594144D01*
X145336610Y-71342752D01*
X145334000Y-71341008D01*
X145334000Y-71315017D01*
X145191655Y-70971365D01*
X144928635Y-70708345D01*
X144584983Y-70566000D01*
X144213017Y-70566000D01*
X143869365Y-70708345D01*
X143700503Y-70877207D01*
X143531635Y-70708339D01*
X143187983Y-70565994D01*
X142816017Y-70565994D01*
X142557490Y-70673079D01*
X142298977Y-70566000D01*
X141927011Y-70566000D01*
X141583359Y-70708345D01*
X141320339Y-70971365D01*
X141177994Y-71315017D01*
X141177994Y-71686983D01*
X141320339Y-72030635D01*
X141583359Y-72293655D01*
X141869681Y-72412253D01*
X141869682Y-72833719D01*
X141837026Y-72866375D01*
X141767778Y-73033555D01*
X141471955Y-72911021D01*
X141099989Y-72911021D01*
X140756337Y-73053366D01*
X140493317Y-73316386D01*
X140350972Y-73660038D01*
X140350972Y-74032004D01*
X140493317Y-74375656D01*
X140572979Y-74455318D01*
X140572978Y-75246773D01*
X140540323Y-75279428D01*
X140397978Y-75623080D01*
X140397978Y-75995046D01*
X140540323Y-76338698D01*
X140803343Y-76601718D01*
X141146995Y-76744063D01*
X141518961Y-76744063D01*
X141862613Y-76601718D01*
X142125633Y-76338698D01*
X142267978Y-75995046D01*
X142267978Y-75623080D01*
X142125633Y-75279428D01*
X142092978Y-75246773D01*
X142092978Y-74341010D01*
X142147875Y-74208476D01*
X142443698Y-74331010D01*
X142449136Y-74331010D01*
X142449136Y-74636440D01*
X142591481Y-74980092D01*
X142854501Y-75243112D01*
X143198153Y-75385457D01*
X143570119Y-75385457D01*
X143913771Y-75243112D01*
X144176791Y-74980092D01*
X144319136Y-74636440D01*
X144319136Y-74495269D01*
X144602698Y-74612724D01*
X144804516Y-74612724D01*
X143448506Y-75968734D01*
X143385050Y-76011134D01*
X143342650Y-76074590D01*
X143342649Y-76074591D01*
X143230015Y-76243160D01*
X143217075Y-76262526D01*
X143172978Y-76484211D01*
X143172978Y-76484216D01*
X143158090Y-76559063D01*
X143172978Y-76633910D01*
X143172978Y-76746773D01*
X143140323Y-76779428D01*
X142997978Y-77123080D01*
X142997978Y-77495046D01*
X143140323Y-77838698D01*
X143403343Y-78101718D01*
X143746995Y-78244063D01*
X144118961Y-78244063D01*
X144462613Y-78101718D01*
X144725633Y-77838698D01*
X144867978Y-77495046D01*
X144867978Y-77123080D01*
X144743728Y-76823114D01*
X146758960Y-74807882D01*
X146758960Y-82658278D01*
X143448506Y-85968734D01*
X143385050Y-86011134D01*
X143342650Y-86074590D01*
X143342649Y-86074591D01*
X143319626Y-86109048D01*
X143217075Y-86262526D01*
X143172978Y-86484211D01*
X143172978Y-86484216D01*
X143158090Y-86559063D01*
X143172978Y-86633910D01*
X143172978Y-86746773D01*
X143140323Y-86779428D01*
X142997978Y-87123080D01*
X142997978Y-87495046D01*
X143140323Y-87838698D01*
X143403343Y-88101718D01*
X143746995Y-88244063D01*
X144118961Y-88244063D01*
X144462613Y-88101718D01*
X144725633Y-87838698D01*
X144867978Y-87495046D01*
X144867978Y-87123080D01*
X144743728Y-86823114D01*
X147383970Y-84182873D01*
X147383970Y-90288269D01*
X147123176Y-90549063D01*
X144495268Y-90549063D01*
X144462613Y-90516408D01*
X144118961Y-90374063D01*
X143746995Y-90374063D01*
X143403343Y-90516408D01*
X143140323Y-90779428D01*
X142997978Y-91123080D01*
X142997978Y-91495046D01*
X143140323Y-91838698D01*
X143376625Y-92075000D01*
X129289331Y-92075000D01*
X129525633Y-91838698D01*
X129667978Y-91495046D01*
X129667978Y-91123080D01*
X129525633Y-90779428D01*
X129262613Y-90516408D01*
X128918961Y-90374063D01*
X128546995Y-90374063D01*
X128203343Y-90516408D01*
X128164751Y-90555000D01*
X125408978Y-90555000D01*
X125408978Y-89901268D01*
X125581365Y-90073655D01*
X125925017Y-90216000D01*
X126296983Y-90216000D01*
X126640635Y-90073655D01*
X126645227Y-90069063D01*
X128170688Y-90069063D01*
X128203343Y-90101718D01*
X128546995Y-90244063D01*
X128918961Y-90244063D01*
X129262613Y-90101718D01*
X129525633Y-89838698D01*
X129667978Y-89495046D01*
X129667978Y-89123080D01*
X129525633Y-88779428D01*
X129262613Y-88516408D01*
X128918961Y-88374063D01*
X128546995Y-88374063D01*
X128203343Y-88516408D01*
X128170688Y-88549063D01*
X126701353Y-88549063D01*
X126640635Y-88488345D01*
X126296983Y-88346000D01*
X126123801Y-88346000D01*
X126043978Y-88266177D01*
X126043978Y-79961181D01*
X126076880Y-79983165D01*
X126139441Y-80024967D01*
X126361126Y-80069063D01*
X126361130Y-80069063D01*
X126435977Y-80083951D01*
X126510824Y-80069063D01*
X128170688Y-80069063D01*
X128203343Y-80101718D01*
X128546995Y-80244063D01*
X128918961Y-80244063D01*
X129262613Y-80101718D01*
X129525633Y-79838698D01*
X129667978Y-79495046D01*
X129667978Y-79123080D01*
X129664251Y-79114080D01*
X129682978Y-79114080D01*
X129682978Y-79486046D01*
X129825323Y-79829698D01*
X130088343Y-80092718D01*
X130431995Y-80235063D01*
X130619978Y-80235063D01*
X130619978Y-80769773D01*
X130587323Y-80802428D01*
X130444978Y-81146080D01*
X130444978Y-81518046D01*
X130587323Y-81861698D01*
X130850343Y-82124718D01*
X131193995Y-82267063D01*
X131254978Y-82267063D01*
X131254978Y-82674773D01*
X131222323Y-82707428D01*
X131079978Y-83051080D01*
X131079978Y-83423046D01*
X131222323Y-83766698D01*
X131485343Y-84029718D01*
X131828995Y-84172063D01*
X132200961Y-84172063D01*
X132544613Y-84029718D01*
X132807633Y-83766698D01*
X132949978Y-83423046D01*
X132949978Y-83051080D01*
X132807633Y-82707428D01*
X132774978Y-82674773D01*
X132774978Y-82035080D01*
X134381978Y-82035080D01*
X134381978Y-82407046D01*
X134524323Y-82750698D01*
X134787343Y-83013718D01*
X135130995Y-83156063D01*
X135502961Y-83156063D01*
X135846613Y-83013718D01*
X136109633Y-82750698D01*
X136251978Y-82407046D01*
X136251978Y-82035080D01*
X136109633Y-81691428D01*
X136092978Y-81674773D01*
X136092978Y-76371353D01*
X136125633Y-76338698D01*
X136267978Y-75995046D01*
X136267978Y-75623080D01*
X136397978Y-75623080D01*
X136397978Y-75995046D01*
X136540323Y-76338698D01*
X136572978Y-76371353D01*
X136572979Y-76884212D01*
X136558090Y-76959063D01*
X136588978Y-77114347D01*
X136588979Y-79626772D01*
X136556323Y-79659428D01*
X136413978Y-80003080D01*
X136413978Y-80375046D01*
X136556323Y-80718698D01*
X136819343Y-80981718D01*
X137162995Y-81124063D01*
X137534961Y-81124063D01*
X137878613Y-80981718D01*
X138141633Y-80718698D01*
X138283978Y-80375046D01*
X138283978Y-80003080D01*
X138141633Y-79659428D01*
X138108978Y-79626773D01*
X138108978Y-77049909D01*
X138123866Y-76975062D01*
X138108978Y-76900215D01*
X138108978Y-76900211D01*
X138092978Y-76819774D01*
X138092978Y-76371353D01*
X138125633Y-76338698D01*
X138267978Y-75995046D01*
X138267978Y-75623080D01*
X138125633Y-75279428D01*
X137862613Y-75016408D01*
X137518961Y-74874063D01*
X137146995Y-74874063D01*
X136803343Y-75016408D01*
X136540323Y-75279428D01*
X136397978Y-75623080D01*
X136267978Y-75623080D01*
X136125633Y-75279428D01*
X135862613Y-75016408D01*
X135518961Y-74874063D01*
X135146995Y-74874063D01*
X134803343Y-75016408D01*
X134540323Y-75279428D01*
X134397978Y-75623080D01*
X134397978Y-75995046D01*
X134540323Y-76338698D01*
X134572978Y-76371353D01*
X134572979Y-81642772D01*
X134524323Y-81691428D01*
X134381978Y-82035080D01*
X132774978Y-82035080D01*
X132774978Y-74147347D01*
X132807627Y-74114698D01*
X132949972Y-73771046D01*
X132949972Y-73526080D01*
X138318978Y-73526080D01*
X138318978Y-73898046D01*
X138461323Y-74241698D01*
X138572979Y-74353354D01*
X138572978Y-75246773D01*
X138540323Y-75279428D01*
X138397978Y-75623080D01*
X138397978Y-75995046D01*
X138540323Y-76338698D01*
X138803343Y-76601718D01*
X139146995Y-76744063D01*
X139518961Y-76744063D01*
X139862613Y-76601718D01*
X140125633Y-76338698D01*
X140267978Y-75995046D01*
X140267978Y-75623080D01*
X140125633Y-75279428D01*
X140092978Y-75246773D01*
X140092978Y-74129811D01*
X140188978Y-73898046D01*
X140188978Y-73526080D01*
X140046633Y-73182428D01*
X139783613Y-72919408D01*
X139439961Y-72777063D01*
X139067995Y-72777063D01*
X138724343Y-72919408D01*
X138461323Y-73182428D01*
X138318978Y-73526080D01*
X132949972Y-73526080D01*
X132949972Y-73399080D01*
X132807627Y-73055428D01*
X132544607Y-72792408D01*
X132314978Y-72697293D01*
X132314978Y-72637080D01*
X132172633Y-72293428D01*
X131909613Y-72030408D01*
X131618012Y-71909623D01*
X131618012Y-71823017D01*
X131475667Y-71479365D01*
X131212647Y-71216345D01*
X130868995Y-71074000D01*
X130497029Y-71074000D01*
X130153377Y-71216345D01*
X129890357Y-71479365D01*
X129748012Y-71823017D01*
X129748012Y-72194983D01*
X129857979Y-72460467D01*
X129857978Y-78737773D01*
X129825323Y-78770428D01*
X129682978Y-79114080D01*
X129664251Y-79114080D01*
X129525633Y-78779428D01*
X129262613Y-78516408D01*
X128918961Y-78374063D01*
X128546995Y-78374063D01*
X128203343Y-78516408D01*
X128170688Y-78549063D01*
X127583248Y-78549063D01*
X127615978Y-78470046D01*
X127615978Y-78098080D01*
X127473633Y-77754428D01*
X127440978Y-77721773D01*
X127440978Y-69112000D01*
X134885560Y-69112000D01*
X134885560Y-72112000D01*
X134934843Y-72359765D01*
X135075191Y-72569809D01*
X135285235Y-72710157D01*
X135533000Y-72759440D01*
X138533000Y-72759440D01*
X138780765Y-72710157D01*
X138990809Y-72569809D01*
X139131157Y-72359765D01*
X139180440Y-72112000D01*
X139180440Y-69112000D01*
X139131157Y-68864235D01*
X138990809Y-68654191D01*
X138780765Y-68513843D01*
X138533000Y-68464560D01*
X135533000Y-68464560D01*
X135285235Y-68513843D01*
X135075191Y-68654191D01*
X134934843Y-68864235D01*
X134885560Y-69112000D01*
X127440978Y-69112000D01*
X127440978Y-58379109D01*
X133666389Y-64604521D01*
X133729711Y-64699289D01*
X134105145Y-64950146D01*
X134436217Y-65016000D01*
X134547999Y-65038235D01*
X134659781Y-65016000D01*
X143110977Y-65016000D01*
X143442049Y-64950146D01*
X143817483Y-64699289D01*
X143921125Y-64544178D01*
X144272000Y-64613971D01*
X144714855Y-64525882D01*
X145090289Y-64275025D01*
X145341146Y-63899590D01*
X145407000Y-63568518D01*
X145407000Y-63103782D01*
X145429235Y-62991999D01*
X145341146Y-62549145D01*
X145292757Y-62476726D01*
X145090289Y-62173711D01*
X144995519Y-62110388D01*
X144452356Y-61567225D01*
X144389032Y-61472454D01*
X144013598Y-61221597D01*
X143682526Y-61155743D01*
X143570743Y-61133508D01*
X143458960Y-61155743D01*
X142027962Y-61155743D01*
X142032003Y-61145986D01*
X142032003Y-60774020D01*
X141889658Y-60430368D01*
X141857003Y-60397713D01*
X141857003Y-57803654D01*
X142134635Y-57688655D01*
X142397655Y-57425635D01*
X142540000Y-57081983D01*
X142540000Y-56710017D01*
X142507135Y-56630672D01*
X148689516Y-56630672D01*
X148693386Y-56668344D01*
X148919898Y-57096537D01*
X149293031Y-57405453D01*
X149755978Y-57548063D01*
X150155978Y-57548063D01*
X150155978Y-56440063D01*
X150409978Y-56440063D01*
X150409978Y-57548063D01*
X150809978Y-57548063D01*
X151272925Y-57405453D01*
X151646058Y-57096537D01*
X151872570Y-56668344D01*
X151876440Y-56630672D01*
X151751709Y-56440063D01*
X150409978Y-56440063D01*
X150155978Y-56440063D01*
X148814247Y-56440063D01*
X148689516Y-56630672D01*
X142507135Y-56630672D01*
X142397655Y-56366365D01*
X142134635Y-56103345D01*
X141874163Y-55995454D01*
X148689516Y-55995454D01*
X148814247Y-56186063D01*
X150155978Y-56186063D01*
X150155978Y-55078063D01*
X150409978Y-55078063D01*
X150409978Y-56186063D01*
X151751709Y-56186063D01*
X151876440Y-55995454D01*
X151872570Y-55957782D01*
X151646058Y-55529589D01*
X151272925Y-55220673D01*
X150809978Y-55078063D01*
X150409978Y-55078063D01*
X150155978Y-55078063D01*
X149755978Y-55078063D01*
X149293031Y-55220673D01*
X148919898Y-55529589D01*
X148693386Y-55957782D01*
X148689516Y-55995454D01*
X141874163Y-55995454D01*
X141790983Y-55961000D01*
X141419017Y-55961000D01*
X141075365Y-56103345D01*
X140812345Y-56366365D01*
X140704004Y-56627924D01*
X140704004Y-53773063D01*
X148623783Y-53773063D01*
X148719634Y-54254936D01*
X148992593Y-54663448D01*
X149401105Y-54936407D01*
X149761342Y-55008063D01*
X150804614Y-55008063D01*
X151164851Y-54936407D01*
X151573363Y-54663448D01*
X151846322Y-54254936D01*
X151942173Y-53773063D01*
X151846322Y-53291190D01*
X151573363Y-52882678D01*
X151164851Y-52609719D01*
X150804614Y-52538063D01*
X149761342Y-52538063D01*
X149401105Y-52609719D01*
X148992593Y-52882678D01*
X148719634Y-53291190D01*
X148623783Y-53773063D01*
X140704004Y-53773063D01*
X140704004Y-53095407D01*
X140731137Y-52959000D01*
X140623645Y-52418600D01*
X140317533Y-51960471D01*
X139859404Y-51654359D01*
X139455411Y-51574000D01*
X139319004Y-51546867D01*
X139182597Y-51574000D01*
X138655980Y-51574000D01*
X138660294Y-51569686D01*
X138546972Y-51456364D01*
X138865739Y-51296582D01*
X139175723Y-50505813D01*
X139159497Y-49656613D01*
X138865739Y-48947418D01*
X138546970Y-48787635D01*
X137212605Y-50122000D01*
X137226748Y-50136143D01*
X137047143Y-50315748D01*
X137033000Y-50301605D01*
X137018858Y-50315748D01*
X136839253Y-50136143D01*
X136853395Y-50122000D01*
X135519030Y-48787635D01*
X135200261Y-48947418D01*
X134993000Y-49476141D01*
X134993000Y-48117000D01*
X136274293Y-48117000D01*
X135858418Y-48289261D01*
X135698635Y-48608030D01*
X137033000Y-49942395D01*
X138367365Y-48608030D01*
X138207582Y-48289261D01*
X137768144Y-48117000D01*
X138312762Y-48117000D01*
X138355012Y-48159250D01*
X138446231Y-48295769D01*
X138987055Y-48657136D01*
X139463969Y-48752000D01*
X139463970Y-48752000D01*
X139624999Y-48784031D01*
X139786029Y-48752000D01*
X141998654Y-48752000D01*
X142173620Y-48926966D01*
X142958322Y-49252000D01*
X143807678Y-49252000D01*
X144592380Y-48926966D01*
X145192966Y-48326380D01*
X145518000Y-47541678D01*
X145518000Y-47402750D01*
X146328000Y-47402750D01*
X146328000Y-48743310D01*
X146424673Y-48976699D01*
X146603302Y-49155327D01*
X146836691Y-49252000D01*
X148177250Y-49252000D01*
X148336000Y-49093250D01*
X148336000Y-47244000D01*
X148590000Y-47244000D01*
X148590000Y-49093250D01*
X148748750Y-49252000D01*
X150089309Y-49252000D01*
X150322698Y-49155327D01*
X150501327Y-48976699D01*
X150598000Y-48743310D01*
X150598000Y-47402750D01*
X150439250Y-47244000D01*
X148590000Y-47244000D01*
X148336000Y-47244000D01*
X146486750Y-47244000D01*
X146328000Y-47402750D01*
X145518000Y-47402750D01*
X145518000Y-46692322D01*
X145192966Y-45907620D01*
X144776036Y-45490690D01*
X146328000Y-45490690D01*
X146328000Y-46831250D01*
X146486750Y-46990000D01*
X148336000Y-46990000D01*
X148336000Y-45140750D01*
X148590000Y-45140750D01*
X148590000Y-46990000D01*
X150439250Y-46990000D01*
X150598000Y-46831250D01*
X150598000Y-45490690D01*
X150501327Y-45257301D01*
X150322698Y-45078673D01*
X150089309Y-44982000D01*
X148748750Y-44982000D01*
X148590000Y-45140750D01*
X148336000Y-45140750D01*
X148177250Y-44982000D01*
X146836691Y-44982000D01*
X146603302Y-45078673D01*
X146424673Y-45257301D01*
X146328000Y-45490690D01*
X144776036Y-45490690D01*
X144592380Y-45307034D01*
X143807678Y-44982000D01*
X142958322Y-44982000D01*
X142173620Y-45307034D01*
X141998654Y-45482000D01*
X140302238Y-45482000D01*
X140259988Y-45439750D01*
X140168769Y-45303231D01*
X139627945Y-44941864D01*
X139151031Y-44847000D01*
X139151030Y-44847000D01*
X138990000Y-44814969D01*
X138828970Y-44847000D01*
X133446969Y-44847000D01*
X132970055Y-44941864D01*
X132429231Y-45303231D01*
X132067864Y-45844055D01*
X131940969Y-46482000D01*
X132067864Y-47119945D01*
X132223001Y-47352124D01*
X132223000Y-51440593D01*
X132195867Y-51577000D01*
X132278694Y-51993401D01*
X132303359Y-52117399D01*
X132609471Y-52575528D01*
X132725112Y-52652797D01*
X133914202Y-53841888D01*
X133991471Y-53957529D01*
X134449600Y-54263641D01*
X134853593Y-54344000D01*
X134989999Y-54371133D01*
X135126405Y-54344000D01*
X137934005Y-54344000D01*
X137934004Y-61585597D01*
X137906871Y-61722004D01*
X137957394Y-61976000D01*
X138014363Y-62262403D01*
X138320475Y-62720532D01*
X138358590Y-62746000D01*
X135018132Y-62746000D01*
X128796021Y-56523890D01*
X128942809Y-56425809D01*
X129083157Y-56215765D01*
X129103739Y-56112292D01*
X129408076Y-56389645D01*
X129818110Y-56559476D01*
X130048000Y-56438155D01*
X130048000Y-55245000D01*
X130028000Y-55245000D01*
X130028000Y-54991000D01*
X130048000Y-54991000D01*
X130048000Y-53797845D01*
X130302000Y-53797845D01*
X130302000Y-54991000D01*
X130322000Y-54991000D01*
X130322000Y-55245000D01*
X130302000Y-55245000D01*
X130302000Y-56438155D01*
X130531890Y-56559476D01*
X130941924Y-56389645D01*
X131370183Y-55999358D01*
X131431157Y-55869522D01*
X131644375Y-56188625D01*
X132135582Y-56516839D01*
X132568744Y-56603000D01*
X132861256Y-56603000D01*
X133294418Y-56516839D01*
X133785625Y-56188625D01*
X134113839Y-55697418D01*
X134229092Y-55118000D01*
X134113839Y-54538582D01*
X133785625Y-54047375D01*
X133294418Y-53719161D01*
X132861256Y-53633000D01*
X132568744Y-53633000D01*
X132135582Y-53719161D01*
X131644375Y-54047375D01*
X131431157Y-54366478D01*
X131370183Y-54236642D01*
X130941924Y-53846355D01*
X130531890Y-53676524D01*
X130302000Y-53797845D01*
X130048000Y-53797845D01*
X129818110Y-53676524D01*
X129408076Y-53846355D01*
X129103739Y-54123708D01*
X129083157Y-54020235D01*
X129020000Y-53925715D01*
X129020000Y-47352121D01*
X129175135Y-47119945D01*
X129302031Y-46481999D01*
X129175135Y-45844055D01*
X128904985Y-45439747D01*
X128857988Y-45392750D01*
X128766769Y-45256231D01*
X128225945Y-44894864D01*
X127749031Y-44800000D01*
X127749030Y-44800000D01*
X127588000Y-44767969D01*
X127426970Y-44800000D01*
X113445025Y-44800000D01*
X113283999Y-44767970D01*
X113122973Y-44800000D01*
X113122969Y-44800000D01*
X113072696Y-44810000D01*
X112133955Y-44810000D01*
X112093731Y-44818001D01*
X103552269Y-44818001D01*
X103512045Y-44810000D01*
X101211955Y-44810000D01*
X101171731Y-44818001D01*
X92630269Y-44818001D01*
X92590045Y-44810000D01*
X90289955Y-44810000D01*
X90249731Y-44818001D01*
X80417970Y-44818001D01*
X80367697Y-44828001D01*
X79428956Y-44828001D01*
X78954958Y-44922285D01*
X78417442Y-45281442D01*
X78058285Y-45818958D01*
X77932166Y-46453001D01*
X78058285Y-47087044D01*
X78417442Y-47624560D01*
X78954958Y-47983717D01*
X79428956Y-48078001D01*
X80367697Y-48078001D01*
X80417970Y-48088001D01*
X113104969Y-48088001D01*
X113265999Y-48120032D01*
X113427029Y-48088001D01*
X113427030Y-48088001D01*
X113517527Y-48070000D01*
X126250001Y-48070000D01*
X126250000Y-53925714D01*
X126186843Y-54020235D01*
X126137560Y-54268000D01*
X126137560Y-55968000D01*
X126186843Y-56215765D01*
X126327191Y-56425809D01*
X126500001Y-56541278D01*
X126500001Y-56845199D01*
X123931668Y-54276867D01*
X123946322Y-54254936D01*
X124042173Y-53773063D01*
X123946322Y-53291190D01*
X123673363Y-52882678D01*
X123264851Y-52609719D01*
X122904614Y-52538063D01*
X121861342Y-52538063D01*
X121501105Y-52609719D01*
X121092593Y-52882678D01*
X120819634Y-53291190D01*
X120723783Y-53773063D01*
X120819634Y-54254936D01*
X121092593Y-54663448D01*
X121501105Y-54936407D01*
X121861342Y-55008063D01*
X122513262Y-55008063D01*
X122583262Y-55078063D01*
X122509978Y-55078063D01*
X122509978Y-56186063D01*
X122529978Y-56186063D01*
X122529978Y-56440063D01*
X122509978Y-56440063D01*
X122509978Y-57548063D01*
X122909978Y-57548063D01*
X123372925Y-57405453D01*
X123746058Y-57096537D01*
X123972570Y-56668344D01*
X123976440Y-56630672D01*
X123851710Y-56440065D01*
X123945264Y-56440065D01*
X125920979Y-58415781D01*
X125920979Y-60707778D01*
X125813613Y-60600412D01*
X125469961Y-60458067D01*
X125408978Y-60458067D01*
X125408978Y-59415347D01*
X125441633Y-59382692D01*
X125583978Y-59039040D01*
X125583978Y-58667074D01*
X125441633Y-58323422D01*
X125178613Y-58060402D01*
X124834961Y-57918057D01*
X124462995Y-57918057D01*
X124119343Y-58060402D01*
X123891140Y-58288605D01*
X123673363Y-57962678D01*
X123264851Y-57689719D01*
X122904614Y-57618063D01*
X121861342Y-57618063D01*
X121501105Y-57689719D01*
X121092593Y-57962678D01*
X120819634Y-58371190D01*
X120723783Y-58853063D01*
X120819634Y-59334936D01*
X121092593Y-59743448D01*
X121501105Y-60016407D01*
X121861342Y-60088063D01*
X122904614Y-60088063D01*
X123264851Y-60016407D01*
X123673363Y-59743448D01*
X123888979Y-59420756D01*
X123888979Y-60825370D01*
X123673363Y-60502678D01*
X123264851Y-60229719D01*
X122904614Y-60158063D01*
X121861342Y-60158063D01*
X121501105Y-60229719D01*
X121092593Y-60502678D01*
X120819634Y-60911190D01*
X120723783Y-61393063D01*
X120819634Y-61874936D01*
X121092593Y-62283448D01*
X121501105Y-62556407D01*
X121861342Y-62628063D01*
X122904614Y-62628063D01*
X123264851Y-62556407D01*
X123673363Y-62283448D01*
X123888979Y-61960756D01*
X123888979Y-63365370D01*
X123673363Y-63042678D01*
X123264851Y-62769719D01*
X122904614Y-62698063D01*
X121861342Y-62698063D01*
X121501105Y-62769719D01*
X121092593Y-63042678D01*
X120819634Y-63451190D01*
X120723783Y-63933063D01*
X120819634Y-64414936D01*
X121092593Y-64823448D01*
X121501105Y-65096407D01*
X121861342Y-65168063D01*
X122904614Y-65168063D01*
X123264851Y-65096407D01*
X123673363Y-64823448D01*
X123888979Y-64500756D01*
X123888979Y-65905370D01*
X123673363Y-65582678D01*
X123264851Y-65309719D01*
X122904614Y-65238063D01*
X121861342Y-65238063D01*
X121501105Y-65309719D01*
X121092593Y-65582678D01*
X120819634Y-65991190D01*
X120723783Y-66473063D01*
X120819634Y-66954936D01*
X121092593Y-67363448D01*
X121501105Y-67636407D01*
X121861342Y-67708063D01*
X122904614Y-67708063D01*
X123264851Y-67636407D01*
X123673363Y-67363448D01*
X123888979Y-67040756D01*
X123888979Y-68445370D01*
X123673363Y-68122678D01*
X123264851Y-67849719D01*
X122904614Y-67778063D01*
X121861342Y-67778063D01*
X121501105Y-67849719D01*
X121092593Y-68122678D01*
X120819634Y-68531190D01*
X120723783Y-69013063D01*
X120819634Y-69494936D01*
X121092593Y-69903448D01*
X121501105Y-70176407D01*
X121861342Y-70248063D01*
X122904614Y-70248063D01*
X123264851Y-70176407D01*
X123673363Y-69903448D01*
X123888979Y-69580756D01*
X123888979Y-70985370D01*
X123673363Y-70662678D01*
X123264851Y-70389719D01*
X122904614Y-70318063D01*
X121861342Y-70318063D01*
X121501105Y-70389719D01*
X121092593Y-70662678D01*
X120819634Y-71071190D01*
X120723783Y-71553063D01*
X120819634Y-72034936D01*
X121092593Y-72443448D01*
X121501105Y-72716407D01*
X121861342Y-72788063D01*
X122904614Y-72788063D01*
X123264851Y-72716407D01*
X123673363Y-72443448D01*
X123888979Y-72120756D01*
X123888979Y-73579763D01*
X123746058Y-73309589D01*
X123372925Y-73000673D01*
X122909978Y-72858063D01*
X122509978Y-72858063D01*
X122509978Y-73966063D01*
X122529978Y-73966063D01*
X122529978Y-74220063D01*
X122509978Y-74220063D01*
X122509978Y-75328063D01*
X122909978Y-75328063D01*
X123372925Y-75185453D01*
X123746058Y-74876537D01*
X123888979Y-74606363D01*
X123888978Y-76065369D01*
X123673363Y-75742678D01*
X123264851Y-75469719D01*
X122904614Y-75398063D01*
X121861342Y-75398063D01*
X121501105Y-75469719D01*
X121092593Y-75742678D01*
X120819634Y-76151190D01*
X120723783Y-76633063D01*
X120819634Y-77114936D01*
X121092593Y-77523448D01*
X121501105Y-77796407D01*
X121861342Y-77868063D01*
X122904614Y-77868063D01*
X123264851Y-77796407D01*
X123673363Y-77523448D01*
X123888978Y-77200757D01*
X123888978Y-78605369D01*
X123673363Y-78282678D01*
X123264851Y-78009719D01*
X122904614Y-77938063D01*
X121861342Y-77938063D01*
X121501105Y-78009719D01*
X121092593Y-78282678D01*
X120819634Y-78691190D01*
X120723783Y-79173063D01*
X120819634Y-79654936D01*
X121092593Y-80063448D01*
X121501105Y-80336407D01*
X121861342Y-80408063D01*
X122904614Y-80408063D01*
X123264851Y-80336407D01*
X123673363Y-80063448D01*
X123888978Y-79740757D01*
X123888978Y-81145369D01*
X123673363Y-80822678D01*
X123264851Y-80549719D01*
X122904614Y-80478063D01*
X121861342Y-80478063D01*
X121501105Y-80549719D01*
X121092593Y-80822678D01*
X120819634Y-81231190D01*
X120723783Y-81713063D01*
X120819634Y-82194936D01*
X121092593Y-82603448D01*
X121501105Y-82876407D01*
X121861342Y-82948063D01*
X122904614Y-82948063D01*
X123264851Y-82876407D01*
X123673363Y-82603448D01*
X123888978Y-82280757D01*
X123888978Y-83685369D01*
X123673363Y-83362678D01*
X123264851Y-83089719D01*
X122904614Y-83018063D01*
X121861342Y-83018063D01*
X121501105Y-83089719D01*
X121092593Y-83362678D01*
X121005473Y-83493063D01*
X117708351Y-83493063D01*
X117623633Y-83408345D01*
X117279981Y-83266000D01*
X116908015Y-83266000D01*
X116564363Y-83408345D01*
X116301343Y-83671365D01*
X116158998Y-84015017D01*
X116158998Y-84386983D01*
X116301343Y-84730635D01*
X116564363Y-84993655D01*
X116908015Y-85136000D01*
X117279981Y-85136000D01*
X117576778Y-85013063D01*
X121005473Y-85013063D01*
X121092593Y-85143448D01*
X121501105Y-85416407D01*
X121861342Y-85488063D01*
X122904614Y-85488063D01*
X123264851Y-85416407D01*
X123673363Y-85143448D01*
X123888978Y-84820757D01*
X123888978Y-86225369D01*
X123673363Y-85902678D01*
X123264851Y-85629719D01*
X122904614Y-85558063D01*
X121861342Y-85558063D01*
X121501105Y-85629719D01*
X121092593Y-85902678D01*
X120819634Y-86311190D01*
X120723783Y-86793063D01*
X120819634Y-87274936D01*
X121092593Y-87683448D01*
X121501105Y-87956407D01*
X121861342Y-88028063D01*
X122904614Y-88028063D01*
X123264851Y-87956407D01*
X123673363Y-87683448D01*
X123888978Y-87360757D01*
X123888978Y-88765369D01*
X123673363Y-88442678D01*
X123264851Y-88169719D01*
X122904614Y-88098063D01*
X121861342Y-88098063D01*
X121501105Y-88169719D01*
X121092593Y-88442678D01*
X120819634Y-88851190D01*
X120723783Y-89333063D01*
X120819634Y-89814936D01*
X121092593Y-90223448D01*
X121501105Y-90496407D01*
X121795670Y-90555000D01*
X101364259Y-90555000D01*
X101397157Y-90505765D01*
X101446440Y-90258000D01*
X101446440Y-88558000D01*
X101397157Y-88310235D01*
X101256809Y-88100191D01*
X101046765Y-87959843D01*
X100799000Y-87910560D01*
X99099000Y-87910560D01*
X98851235Y-87959843D01*
X98641191Y-88100191D01*
X98500843Y-88310235D01*
X98480261Y-88413708D01*
X98175924Y-88136355D01*
X97765890Y-87966524D01*
X97536000Y-88087845D01*
X97536000Y-89281000D01*
X97556000Y-89281000D01*
X97556000Y-89535000D01*
X97536000Y-89535000D01*
X97536000Y-89555000D01*
X97282000Y-89555000D01*
X97282000Y-89535000D01*
X97262000Y-89535000D01*
X97262000Y-89281000D01*
X97282000Y-89281000D01*
X97282000Y-88087845D01*
X97052110Y-87966524D01*
X96642076Y-88136355D01*
X96337739Y-88413708D01*
X96317157Y-88310235D01*
X96176809Y-88100191D01*
X95966765Y-87959843D01*
X95719000Y-87910560D01*
X94019000Y-87910560D01*
X93771235Y-87959843D01*
X93561191Y-88100191D01*
X93420843Y-88310235D01*
X93371560Y-88558000D01*
X93371560Y-90258000D01*
X93420843Y-90505765D01*
X93453741Y-90555000D01*
X86867194Y-90555000D01*
X86746483Y-90505000D01*
X86374517Y-90505000D01*
X86030865Y-90647345D01*
X85767845Y-90910365D01*
X85625500Y-91254017D01*
X85625500Y-91571000D01*
X85015694Y-91571000D01*
X84894983Y-91521000D01*
X84523017Y-91521000D01*
X84179365Y-91663345D01*
X83916345Y-91926365D01*
X83774000Y-92270017D01*
X83774000Y-92641983D01*
X83916345Y-92985635D01*
X84179365Y-93248655D01*
X84523017Y-93391000D01*
X84894983Y-93391000D01*
X85015694Y-93341000D01*
X87831311Y-93341000D01*
X87952017Y-93390998D01*
X88323983Y-93390998D01*
X88667635Y-93248653D01*
X88930655Y-92985633D01*
X89073000Y-92641981D01*
X89073000Y-92325000D01*
X118745000Y-92325000D01*
X118745000Y-101144000D01*
X71195000Y-101144000D01*
X71195000Y-96505457D01*
X72049000Y-96505457D01*
X72049000Y-97550543D01*
X72448937Y-98516076D01*
X73187924Y-99255063D01*
X74153457Y-99655000D01*
X75198543Y-99655000D01*
X76164076Y-99255063D01*
X76903063Y-98516076D01*
X77303000Y-97550543D01*
X77303000Y-96505457D01*
X76903063Y-95539924D01*
X76164076Y-94800937D01*
X75198543Y-94401000D01*
X74153457Y-94401000D01*
X73187924Y-94800937D01*
X72448937Y-95539924D01*
X72049000Y-96505457D01*
X71195000Y-96505457D01*
X71195000Y-84009000D01*
X71294295Y-84009000D01*
X71388205Y-84481118D01*
X71655639Y-84881361D01*
X72055882Y-85148795D01*
X72408827Y-85219000D01*
X73297173Y-85219000D01*
X73650118Y-85148795D01*
X74031445Y-84894000D01*
X74685624Y-84894000D01*
X74628052Y-84980163D01*
X74547724Y-85384000D01*
X74628052Y-85787837D01*
X74856807Y-86130193D01*
X75199163Y-86358948D01*
X75501065Y-86419000D01*
X75704935Y-86419000D01*
X75768000Y-86406456D01*
X75768001Y-89361545D01*
X75704935Y-89349000D01*
X75501065Y-89349000D01*
X75199163Y-89409052D01*
X74856807Y-89637807D01*
X74628052Y-89980163D01*
X74547724Y-90384000D01*
X74628052Y-90787837D01*
X74685624Y-90874000D01*
X74031445Y-90874000D01*
X73650118Y-90619205D01*
X73297173Y-90549000D01*
X72408827Y-90549000D01*
X72055882Y-90619205D01*
X71655639Y-90886639D01*
X71388205Y-91286882D01*
X71294295Y-91759000D01*
X71388205Y-92231118D01*
X71655639Y-92631361D01*
X72055882Y-92898795D01*
X72408827Y-92969000D01*
X73297173Y-92969000D01*
X73650118Y-92898795D01*
X74031445Y-92644000D01*
X75479053Y-92644000D01*
X75847355Y-92890091D01*
X76244057Y-92969000D01*
X77061943Y-92969000D01*
X77458645Y-92890091D01*
X77908505Y-92589505D01*
X78209091Y-92139645D01*
X78314643Y-91609000D01*
X78209091Y-91078355D01*
X77908505Y-90628495D01*
X77538000Y-90380932D01*
X77538000Y-86047017D01*
X81287000Y-86047017D01*
X81287000Y-86418983D01*
X81429345Y-86762635D01*
X81692365Y-87025655D01*
X82036017Y-87168000D01*
X82407983Y-87168000D01*
X82523866Y-87120000D01*
X88591710Y-87120000D01*
X88607315Y-87135605D01*
X88560865Y-87154845D01*
X88528210Y-87187500D01*
X82995346Y-87187500D01*
X82920499Y-87172612D01*
X82845652Y-87187500D01*
X82845648Y-87187500D01*
X82623963Y-87231596D01*
X82372571Y-87399571D01*
X82330171Y-87463027D01*
X82082198Y-87711000D01*
X82036017Y-87711000D01*
X81692365Y-87853345D01*
X81429345Y-88116365D01*
X81287000Y-88460017D01*
X81287000Y-88831983D01*
X81429345Y-89175635D01*
X81692365Y-89438655D01*
X82036017Y-89581000D01*
X82407983Y-89581000D01*
X82751635Y-89438655D01*
X83014655Y-89175635D01*
X83157000Y-88831983D01*
X83157000Y-88785802D01*
X83235302Y-88707500D01*
X85044000Y-88707500D01*
X85044000Y-88831983D01*
X85186345Y-89175635D01*
X85449365Y-89438655D01*
X85793017Y-89581000D01*
X86164983Y-89581000D01*
X86508635Y-89438655D01*
X86541290Y-89406000D01*
X87248210Y-89406000D01*
X87280865Y-89438655D01*
X87624517Y-89581000D01*
X87996483Y-89581000D01*
X88340135Y-89438655D01*
X88603155Y-89175635D01*
X88745500Y-88831983D01*
X88745500Y-88816633D01*
X88904517Y-88882500D01*
X89276483Y-88882500D01*
X89620135Y-88740155D01*
X89883155Y-88477135D01*
X90025500Y-88133483D01*
X90025500Y-87761517D01*
X89883155Y-87417865D01*
X89637185Y-87171895D01*
X89683635Y-87152655D01*
X89946655Y-86889635D01*
X90089000Y-86545983D01*
X90089000Y-86174017D01*
X89946655Y-85830365D01*
X89683635Y-85567345D01*
X89339983Y-85425000D01*
X88968017Y-85425000D01*
X88624365Y-85567345D01*
X88591710Y-85600000D01*
X82911290Y-85600000D01*
X82751635Y-85440345D01*
X82407983Y-85298000D01*
X82036017Y-85298000D01*
X81692365Y-85440345D01*
X81429345Y-85703365D01*
X81287000Y-86047017D01*
X77538000Y-86047017D01*
X77538000Y-85387068D01*
X77908505Y-85139505D01*
X78209091Y-84689645D01*
X78314643Y-84159000D01*
X78209091Y-83628355D01*
X77908505Y-83178495D01*
X77458645Y-82877909D01*
X77061943Y-82799000D01*
X76244057Y-82799000D01*
X75847355Y-82877909D01*
X75479053Y-83124000D01*
X74031445Y-83124000D01*
X73650118Y-82869205D01*
X73297173Y-82799000D01*
X72408827Y-82799000D01*
X72055882Y-82869205D01*
X71655639Y-83136639D01*
X71388205Y-83536882D01*
X71294295Y-84009000D01*
X71195000Y-84009000D01*
X71195000Y-79570017D01*
X98887000Y-79570017D01*
X98887000Y-79941983D01*
X99029345Y-80285635D01*
X99292365Y-80548655D01*
X99369001Y-80580399D01*
X99369000Y-86305710D01*
X99336345Y-86338365D01*
X99194000Y-86682017D01*
X99194000Y-87053983D01*
X99336345Y-87397635D01*
X99599365Y-87660655D01*
X99943017Y-87803000D01*
X100314983Y-87803000D01*
X100658635Y-87660655D01*
X100921655Y-87397635D01*
X101064000Y-87053983D01*
X101064000Y-86682017D01*
X100921655Y-86338365D01*
X100889000Y-86305710D01*
X100889000Y-81245017D01*
X107217000Y-81245017D01*
X107217000Y-81616983D01*
X107359345Y-81960635D01*
X107392000Y-81993290D01*
X107392001Y-85006152D01*
X107377112Y-85081004D01*
X107436097Y-85377541D01*
X107509946Y-85488063D01*
X107604072Y-85628933D01*
X107667528Y-85671333D01*
X108541582Y-86545388D01*
X108541582Y-86591569D01*
X108683927Y-86935221D01*
X108946947Y-87198241D01*
X109290599Y-87340586D01*
X109662565Y-87340586D01*
X110006217Y-87198241D01*
X110269237Y-86935221D01*
X110411582Y-86591569D01*
X110411582Y-86219603D01*
X110269237Y-85875951D01*
X110006217Y-85612931D01*
X109662565Y-85470586D01*
X109616384Y-85470586D01*
X108912000Y-84766203D01*
X108912000Y-81993290D01*
X108944655Y-81960635D01*
X109087000Y-81616983D01*
X109087000Y-81245017D01*
X108944655Y-80901365D01*
X108681635Y-80638345D01*
X108337983Y-80496000D01*
X107966017Y-80496000D01*
X107622365Y-80638345D01*
X107359345Y-80901365D01*
X107217000Y-81245017D01*
X100889000Y-81245017D01*
X100889000Y-80137848D01*
X100903888Y-80063000D01*
X100889000Y-79988152D01*
X100889000Y-79988148D01*
X100849139Y-79787750D01*
X117006000Y-79787750D01*
X117006000Y-80478310D01*
X117102673Y-80711699D01*
X117281302Y-80890327D01*
X117514691Y-80987000D01*
X118205250Y-80987000D01*
X118364000Y-80828250D01*
X118364000Y-79629000D01*
X118618000Y-79629000D01*
X118618000Y-80828250D01*
X118776750Y-80987000D01*
X119467309Y-80987000D01*
X119700698Y-80890327D01*
X119879327Y-80711699D01*
X119976000Y-80478310D01*
X119976000Y-79787750D01*
X119817250Y-79629000D01*
X118618000Y-79629000D01*
X118364000Y-79629000D01*
X117164750Y-79629000D01*
X117006000Y-79787750D01*
X100849139Y-79787750D01*
X100844904Y-79766463D01*
X100757000Y-79634906D01*
X100757000Y-79570017D01*
X100614655Y-79226365D01*
X100351635Y-78963345D01*
X100007983Y-78821000D01*
X99636017Y-78821000D01*
X99292365Y-78963345D01*
X99029345Y-79226365D01*
X98887000Y-79570017D01*
X71195000Y-79570017D01*
X71195000Y-76522017D01*
X92664000Y-76522017D01*
X92664000Y-76893983D01*
X92806345Y-77237635D01*
X93069365Y-77500655D01*
X93413017Y-77643000D01*
X93784983Y-77643000D01*
X94128635Y-77500655D01*
X94161290Y-77468000D01*
X106111199Y-77468000D01*
X106560370Y-77917171D01*
X106507000Y-78046017D01*
X106507000Y-78417983D01*
X106649345Y-78761635D01*
X106912365Y-79024655D01*
X107256017Y-79167000D01*
X107627983Y-79167000D01*
X107971635Y-79024655D01*
X108234655Y-78761635D01*
X108377000Y-78417983D01*
X108377000Y-78046017D01*
X108234655Y-77702365D01*
X108207104Y-77674814D01*
X108202000Y-77649153D01*
X108202000Y-77649148D01*
X108157904Y-77427463D01*
X107989929Y-77176071D01*
X107926473Y-77133671D01*
X107016331Y-76223530D01*
X106973929Y-76160071D01*
X106722537Y-75992096D01*
X106500852Y-75948000D01*
X106500847Y-75948000D01*
X106426000Y-75933112D01*
X106351153Y-75948000D01*
X94161290Y-75948000D01*
X94128635Y-75915345D01*
X93784983Y-75773000D01*
X93413017Y-75773000D01*
X93069365Y-75915345D01*
X92806345Y-76178365D01*
X92664000Y-76522017D01*
X71195000Y-76522017D01*
X71195000Y-73982017D01*
X89108000Y-73982017D01*
X89108000Y-74353983D01*
X89250345Y-74697635D01*
X89513365Y-74960655D01*
X89857017Y-75103000D01*
X90228983Y-75103000D01*
X90349694Y-75053000D01*
X115085607Y-75053000D01*
X115257017Y-75124000D01*
X115628983Y-75124000D01*
X115972635Y-74981655D01*
X116235655Y-74718635D01*
X116358524Y-74422000D01*
X116976908Y-74422000D01*
X117092161Y-75001418D01*
X117420375Y-75492625D01*
X117718761Y-75692000D01*
X117420375Y-75891375D01*
X117092161Y-76382582D01*
X116976908Y-76962000D01*
X117092161Y-77541418D01*
X117420375Y-78032625D01*
X117442033Y-78047096D01*
X117281302Y-78113673D01*
X117102673Y-78292301D01*
X117006000Y-78525690D01*
X117006000Y-79216250D01*
X117164750Y-79375000D01*
X118364000Y-79375000D01*
X118364000Y-79355000D01*
X118618000Y-79355000D01*
X118618000Y-79375000D01*
X119817250Y-79375000D01*
X119976000Y-79216250D01*
X119976000Y-78525690D01*
X119879327Y-78292301D01*
X119700698Y-78113673D01*
X119539967Y-78047096D01*
X119561625Y-78032625D01*
X119889839Y-77541418D01*
X120005092Y-76962000D01*
X119889839Y-76382582D01*
X119561625Y-75891375D01*
X119263239Y-75692000D01*
X119561625Y-75492625D01*
X119889839Y-75001418D01*
X120005092Y-74422000D01*
X120002839Y-74410672D01*
X120789516Y-74410672D01*
X120793386Y-74448344D01*
X121019898Y-74876537D01*
X121393031Y-75185453D01*
X121855978Y-75328063D01*
X122255978Y-75328063D01*
X122255978Y-74220063D01*
X120914247Y-74220063D01*
X120789516Y-74410672D01*
X120002839Y-74410672D01*
X119889839Y-73842582D01*
X119844986Y-73775454D01*
X120789516Y-73775454D01*
X120914247Y-73966063D01*
X122255978Y-73966063D01*
X122255978Y-72858063D01*
X121855978Y-72858063D01*
X121393031Y-73000673D01*
X121019898Y-73309589D01*
X120793386Y-73737782D01*
X120789516Y-73775454D01*
X119844986Y-73775454D01*
X119561625Y-73351375D01*
X119070418Y-73023161D01*
X118637256Y-72937000D01*
X118344744Y-72937000D01*
X117911582Y-73023161D01*
X117420375Y-73351375D01*
X117092161Y-73842582D01*
X116976908Y-74422000D01*
X116358524Y-74422000D01*
X116378000Y-74374983D01*
X116378000Y-74003017D01*
X116235655Y-73659365D01*
X115972635Y-73396345D01*
X115628983Y-73254000D01*
X115257017Y-73254000D01*
X115187005Y-73283000D01*
X90349694Y-73283000D01*
X90228983Y-73233000D01*
X89857017Y-73233000D01*
X89513365Y-73375345D01*
X89250345Y-73638365D01*
X89108000Y-73982017D01*
X71195000Y-73982017D01*
X71195000Y-64861391D01*
X76327000Y-64861391D01*
X76327000Y-65694608D01*
X76422792Y-66176187D01*
X76787695Y-66722305D01*
X77333812Y-67087208D01*
X77978000Y-67215345D01*
X78622187Y-67087208D01*
X79168305Y-66722305D01*
X79248000Y-66603033D01*
X79327695Y-66722305D01*
X79873812Y-67087208D01*
X80518000Y-67215345D01*
X80919650Y-67135452D01*
X85134671Y-71350473D01*
X85177071Y-71413929D01*
X85428463Y-71581904D01*
X85650148Y-71626000D01*
X85650152Y-71626000D01*
X85724999Y-71640888D01*
X85799846Y-71626000D01*
X98243710Y-71626000D01*
X98276365Y-71658655D01*
X98620017Y-71801000D01*
X98991983Y-71801000D01*
X99335635Y-71658655D01*
X99598655Y-71395635D01*
X99741000Y-71051983D01*
X99741000Y-70991773D01*
X99949006Y-70905614D01*
X100271029Y-71039000D01*
X100642995Y-71039000D01*
X100986647Y-70896655D01*
X101249667Y-70633635D01*
X101392012Y-70289983D01*
X101392012Y-70243801D01*
X102846473Y-68789341D01*
X102909929Y-68746941D01*
X103077904Y-68495549D01*
X103122000Y-68273864D01*
X103122000Y-68273860D01*
X103136888Y-68199013D01*
X103122000Y-68124166D01*
X103122000Y-67378017D01*
X108919998Y-67378017D01*
X108919998Y-67749983D01*
X109062343Y-68093635D01*
X109325363Y-68356655D01*
X109669015Y-68499000D01*
X110040981Y-68499000D01*
X110384633Y-68356655D01*
X110417288Y-68324000D01*
X113717153Y-68324000D01*
X113792000Y-68338888D01*
X113866847Y-68324000D01*
X113866852Y-68324000D01*
X114088537Y-68279904D01*
X114339929Y-68111929D01*
X114382331Y-68048470D01*
X115316420Y-67114381D01*
X115824000Y-67215345D01*
X116468187Y-67087208D01*
X117014305Y-66722305D01*
X117379208Y-66176188D01*
X117475000Y-65694609D01*
X117475000Y-64861392D01*
X117379208Y-64379812D01*
X117014305Y-63833695D01*
X116468188Y-63468792D01*
X115824000Y-63340655D01*
X115179813Y-63468792D01*
X114669000Y-63810105D01*
X114669000Y-56630672D01*
X120789516Y-56630672D01*
X120793386Y-56668344D01*
X121019898Y-57096537D01*
X121393031Y-57405453D01*
X121855978Y-57548063D01*
X122255978Y-57548063D01*
X122255978Y-56440063D01*
X120914247Y-56440063D01*
X120789516Y-56630672D01*
X114669000Y-56630672D01*
X114669000Y-55995454D01*
X120789516Y-55995454D01*
X120914247Y-56186063D01*
X122255978Y-56186063D01*
X122255978Y-55078063D01*
X121855978Y-55078063D01*
X121393031Y-55220673D01*
X121019898Y-55529589D01*
X120793386Y-55957782D01*
X120789516Y-55995454D01*
X114669000Y-55995454D01*
X114669000Y-53072440D01*
X115264000Y-53072440D01*
X115511765Y-53023157D01*
X115721809Y-52882809D01*
X115862157Y-52672765D01*
X115911440Y-52425000D01*
X115911440Y-50445000D01*
X115862157Y-50197235D01*
X115721809Y-49987191D01*
X115511765Y-49846843D01*
X115264000Y-49797560D01*
X111304000Y-49797560D01*
X111056235Y-49846843D01*
X110846191Y-49987191D01*
X110705843Y-50197235D01*
X110656560Y-50445000D01*
X110656560Y-52425000D01*
X110705843Y-52672765D01*
X110846191Y-52882809D01*
X111056235Y-53023157D01*
X111304000Y-53072440D01*
X111899000Y-53072440D01*
X111899001Y-58602978D01*
X111825038Y-58231146D01*
X111574181Y-57855712D01*
X111198747Y-57604855D01*
X110755892Y-57516765D01*
X110313039Y-57604855D01*
X110032370Y-57792392D01*
X110020480Y-57804282D01*
X109925712Y-57867604D01*
X109745605Y-58137153D01*
X109674854Y-58243039D01*
X109586765Y-58685893D01*
X109609001Y-58797681D01*
X109609000Y-63796741D01*
X109553695Y-63833695D01*
X109188792Y-64379812D01*
X109093000Y-64861391D01*
X109093000Y-65694608D01*
X109188792Y-66176187D01*
X109529863Y-66686638D01*
X109325363Y-66771345D01*
X109062343Y-67034365D01*
X108919998Y-67378017D01*
X103122000Y-67378017D01*
X103122000Y-67009825D01*
X103552305Y-66722305D01*
X103632000Y-66603033D01*
X103711695Y-66722305D01*
X104257812Y-67087208D01*
X104902000Y-67215345D01*
X105546187Y-67087208D01*
X106092305Y-66722305D01*
X106457208Y-66176188D01*
X106553000Y-65694609D01*
X106553000Y-64861392D01*
X106457208Y-64379812D01*
X106092305Y-63833695D01*
X105546188Y-63468792D01*
X104902000Y-63340655D01*
X104257813Y-63468792D01*
X103747000Y-63810105D01*
X103747000Y-53072440D01*
X104342000Y-53072440D01*
X104589765Y-53023157D01*
X104799809Y-52882809D01*
X104940157Y-52672765D01*
X104989440Y-52425000D01*
X104989440Y-50445000D01*
X104940157Y-50197235D01*
X104799809Y-49987191D01*
X104589765Y-49846843D01*
X104342000Y-49797560D01*
X100382000Y-49797560D01*
X100134235Y-49846843D01*
X99924191Y-49987191D01*
X99783843Y-50197235D01*
X99734560Y-50445000D01*
X99734560Y-52425000D01*
X99783843Y-52672765D01*
X99924191Y-52882809D01*
X100134235Y-53023157D01*
X100382000Y-53072440D01*
X100977000Y-53072440D01*
X100977001Y-58548345D01*
X100951471Y-58420000D01*
X100891146Y-58116724D01*
X100640289Y-57741290D01*
X100545518Y-57677966D01*
X100532944Y-57665392D01*
X100252275Y-57477854D01*
X99809421Y-57389765D01*
X99366567Y-57477854D01*
X98991133Y-57728712D01*
X98740275Y-58104146D01*
X98652186Y-58547000D01*
X98687001Y-58722027D01*
X98687000Y-63796741D01*
X98631695Y-63833695D01*
X98266792Y-64379812D01*
X98171000Y-64861391D01*
X98171000Y-65694608D01*
X98266792Y-66176187D01*
X98631695Y-66722305D01*
X99177812Y-67087208D01*
X99822000Y-67215345D01*
X100466187Y-67087208D01*
X101012305Y-66722305D01*
X101092000Y-66603033D01*
X101171695Y-66722305D01*
X101602001Y-67009825D01*
X101602001Y-67884209D01*
X100317211Y-69169000D01*
X100271029Y-69169000D01*
X99949006Y-69302386D01*
X99626983Y-69169000D01*
X99255017Y-69169000D01*
X98911365Y-69311345D01*
X98878710Y-69344000D01*
X95310803Y-69344000D01*
X92653858Y-66687056D01*
X92710000Y-66603033D01*
X92789695Y-66722305D01*
X93335812Y-67087208D01*
X93980000Y-67215345D01*
X94624187Y-67087208D01*
X95170305Y-66722305D01*
X95535208Y-66176188D01*
X95631000Y-65694609D01*
X95631000Y-64861392D01*
X95535208Y-64379812D01*
X95170305Y-63833695D01*
X94624188Y-63468792D01*
X93980000Y-63340655D01*
X93335813Y-63468792D01*
X92825000Y-63810105D01*
X92825000Y-53072440D01*
X93420000Y-53072440D01*
X93667765Y-53023157D01*
X93877809Y-52882809D01*
X94018157Y-52672765D01*
X94067440Y-52425000D01*
X94067440Y-50445000D01*
X94018157Y-50197235D01*
X93877809Y-49987191D01*
X93667765Y-49846843D01*
X93420000Y-49797560D01*
X89460000Y-49797560D01*
X89212235Y-49846843D01*
X89002191Y-49987191D01*
X88861843Y-50197235D01*
X88812560Y-50445000D01*
X88812560Y-52425000D01*
X88861843Y-52672765D01*
X89002191Y-52882809D01*
X89212235Y-53023157D01*
X89460000Y-53072440D01*
X90055000Y-53072440D01*
X90055001Y-58544996D01*
X89973877Y-58137159D01*
X89969146Y-58113376D01*
X89718289Y-57737942D01*
X89623518Y-57674618D01*
X89603808Y-57654908D01*
X89323139Y-57467370D01*
X88880285Y-57379281D01*
X88437431Y-57467370D01*
X88061997Y-57718228D01*
X87811139Y-58093662D01*
X87723050Y-58536516D01*
X87765001Y-58747418D01*
X87765000Y-63796741D01*
X87709695Y-63833695D01*
X87344792Y-64379812D01*
X87249000Y-64861391D01*
X87249000Y-65694608D01*
X87344792Y-66176187D01*
X87709695Y-66722305D01*
X88255812Y-67087208D01*
X88900000Y-67215345D01*
X89544187Y-67087208D01*
X90090305Y-66722305D01*
X90170000Y-66603033D01*
X90249695Y-66722305D01*
X90795812Y-67087208D01*
X90914289Y-67110775D01*
X90955530Y-67138331D01*
X93923197Y-70106000D01*
X86039802Y-70106000D01*
X83134024Y-67200223D01*
X83702187Y-67087208D01*
X84248305Y-66722305D01*
X84613208Y-66176188D01*
X84709000Y-65694609D01*
X84709000Y-64861392D01*
X84613208Y-64379812D01*
X84248305Y-63833695D01*
X83702188Y-63468792D01*
X83058000Y-63340655D01*
X82413813Y-63468792D01*
X81964001Y-63769346D01*
X81964001Y-53090441D01*
X82559001Y-53090441D01*
X82806766Y-53041158D01*
X83016810Y-52900810D01*
X83157158Y-52690766D01*
X83206441Y-52443001D01*
X83206441Y-50463001D01*
X83157158Y-50215236D01*
X83016810Y-50005192D01*
X82806766Y-49864844D01*
X82559001Y-49815561D01*
X78599001Y-49815561D01*
X78351236Y-49864844D01*
X78141192Y-50005192D01*
X78000844Y-50215236D01*
X77951561Y-50463001D01*
X77951561Y-52443001D01*
X78000844Y-52690766D01*
X78141192Y-52900810D01*
X78351236Y-53041158D01*
X78599001Y-53090441D01*
X79194001Y-53090441D01*
X79194002Y-63872153D01*
X79168305Y-63833695D01*
X79113000Y-63796741D01*
X79113000Y-58583782D01*
X79135235Y-58471999D01*
X79063901Y-58113377D01*
X79047146Y-58029145D01*
X78796289Y-57653711D01*
X78701518Y-57590387D01*
X78649523Y-57538392D01*
X78368854Y-57350854D01*
X77926000Y-57262765D01*
X77483146Y-57350854D01*
X77107712Y-57601712D01*
X76856854Y-57977146D01*
X76768765Y-58420000D01*
X76843001Y-58793210D01*
X76843000Y-63796741D01*
X76787695Y-63833695D01*
X76422792Y-64379812D01*
X76327000Y-64861391D01*
X71195000Y-64861391D01*
X71195000Y-41731000D01*
X153214000Y-41731000D01*
X153214001Y-92075000D01*
%TO.N,GND2*%
G36*
X153214001Y-123611103D02*
X129125586Y-123611103D01*
X129125586Y-114535120D01*
X129735586Y-114535120D01*
X129735586Y-114907086D01*
X129877931Y-115250738D01*
X130140951Y-115513758D01*
X130484603Y-115656103D01*
X130856569Y-115656103D01*
X131200221Y-115513758D01*
X131232876Y-115481103D01*
X134404853Y-115481103D01*
X134384734Y-115485105D01*
X134384730Y-115485105D01*
X134163045Y-115529201D01*
X133911653Y-115697176D01*
X133869253Y-115760632D01*
X133430783Y-116199103D01*
X133384601Y-116199103D01*
X133040949Y-116341448D01*
X132777929Y-116604468D01*
X132635584Y-116948120D01*
X132635584Y-117320086D01*
X132777929Y-117663738D01*
X132837294Y-117723103D01*
X132495603Y-117723103D01*
X132151951Y-117865448D01*
X131888931Y-118128468D01*
X131746586Y-118472120D01*
X131746586Y-118494221D01*
X131724569Y-118485101D01*
X131352603Y-118485101D01*
X131008951Y-118627446D01*
X130745931Y-118890466D01*
X130603586Y-119234118D01*
X130603586Y-119606084D01*
X130745931Y-119949736D01*
X130846590Y-120050395D01*
X130832168Y-120053264D01*
X130340961Y-120381478D01*
X130012747Y-120872685D01*
X129897494Y-121452103D01*
X130012747Y-122031521D01*
X130340961Y-122522728D01*
X130832168Y-122850942D01*
X131265330Y-122937103D01*
X131557842Y-122937103D01*
X131991004Y-122850942D01*
X132482211Y-122522728D01*
X132681586Y-122224342D01*
X132880961Y-122522728D01*
X133372168Y-122850942D01*
X133805330Y-122937103D01*
X134097842Y-122937103D01*
X134531004Y-122850942D01*
X135022211Y-122522728D01*
X135221586Y-122224342D01*
X135420961Y-122522728D01*
X135912168Y-122850942D01*
X136345330Y-122937103D01*
X136637842Y-122937103D01*
X137071004Y-122850942D01*
X137562211Y-122522728D01*
X137761586Y-122224342D01*
X137960961Y-122522728D01*
X138452168Y-122850942D01*
X138885330Y-122937103D01*
X139177842Y-122937103D01*
X139611004Y-122850942D01*
X140102211Y-122522728D01*
X140315429Y-122203625D01*
X140376403Y-122333461D01*
X140804662Y-122723748D01*
X141214696Y-122893579D01*
X141444586Y-122772258D01*
X141444586Y-121579103D01*
X141424586Y-121579103D01*
X141424586Y-121325103D01*
X141444586Y-121325103D01*
X141444586Y-120131948D01*
X141698586Y-120131948D01*
X141698586Y-121325103D01*
X141718586Y-121325103D01*
X141718586Y-121579103D01*
X141698586Y-121579103D01*
X141698586Y-122772258D01*
X141928476Y-122893579D01*
X142338510Y-122723748D01*
X142642847Y-122446395D01*
X142663429Y-122549868D01*
X142803777Y-122759912D01*
X143013821Y-122900260D01*
X143261586Y-122949543D01*
X144961586Y-122949543D01*
X145209351Y-122900260D01*
X145419395Y-122759912D01*
X145559743Y-122549868D01*
X145609026Y-122302103D01*
X145609026Y-120602103D01*
X145559743Y-120354338D01*
X145419395Y-120144294D01*
X145209351Y-120003946D01*
X144961586Y-119954663D01*
X143261586Y-119954663D01*
X143013821Y-120003946D01*
X142803777Y-120144294D01*
X142663429Y-120354338D01*
X142642847Y-120457811D01*
X142338510Y-120180458D01*
X141928476Y-120010627D01*
X141698586Y-120131948D01*
X141444586Y-120131948D01*
X141214696Y-120010627D01*
X140804662Y-120180458D01*
X140376403Y-120570745D01*
X140315429Y-120700581D01*
X140102211Y-120381478D01*
X139611004Y-120053264D01*
X139177842Y-119967103D01*
X138885330Y-119967103D01*
X138452168Y-120053264D01*
X137960961Y-120381478D01*
X137761586Y-120679864D01*
X137562211Y-120381478D01*
X137071004Y-120053264D01*
X136637842Y-119967103D01*
X136345330Y-119967103D01*
X136125178Y-120010894D01*
X135659387Y-119545103D01*
X136627796Y-119545103D01*
X136660451Y-119577758D01*
X137004103Y-119720103D01*
X137376069Y-119720103D01*
X137719721Y-119577758D01*
X137982741Y-119314738D01*
X138125086Y-118971086D01*
X138125086Y-118599120D01*
X137982741Y-118255468D01*
X137719721Y-117992448D01*
X137376069Y-117850103D01*
X137004103Y-117850103D01*
X136660451Y-117992448D01*
X136627796Y-118025103D01*
X133862793Y-118025103D01*
X134100219Y-117926758D01*
X134363239Y-117663738D01*
X134505584Y-117320086D01*
X134505584Y-117273904D01*
X134774384Y-117005105D01*
X137834298Y-117005105D01*
X137866953Y-117037760D01*
X138210605Y-117180105D01*
X138582571Y-117180105D01*
X138775762Y-117100083D01*
X139040255Y-117364576D01*
X139082655Y-117428032D01*
X139334047Y-117596007D01*
X139555732Y-117640103D01*
X139555736Y-117640103D01*
X139630583Y-117654991D01*
X139705430Y-117640103D01*
X145581296Y-117640103D01*
X145613951Y-117672758D01*
X145957603Y-117815103D01*
X146329569Y-117815103D01*
X146673221Y-117672758D01*
X146936241Y-117409738D01*
X147078586Y-117066086D01*
X147078586Y-116694120D01*
X146936241Y-116350468D01*
X146673221Y-116087448D01*
X146329569Y-115945103D01*
X145957603Y-115945103D01*
X145613951Y-116087448D01*
X145581296Y-116120103D01*
X140931241Y-116120103D01*
X142490571Y-114560774D01*
X142554027Y-114518374D01*
X142722002Y-114266982D01*
X142744387Y-114154446D01*
X142798753Y-114100080D01*
X142941098Y-113756428D01*
X142941098Y-113384462D01*
X142798753Y-113040810D01*
X142535733Y-112777790D01*
X142192081Y-112635445D01*
X141820115Y-112635445D01*
X141476463Y-112777790D01*
X141213443Y-113040810D01*
X141071098Y-113384462D01*
X141071098Y-113756428D01*
X141092835Y-113808906D01*
X139734547Y-115167195D01*
X139579515Y-114935174D01*
X139395086Y-114811942D01*
X139395086Y-114507120D01*
X139252741Y-114163468D01*
X138989721Y-113900448D01*
X138646069Y-113758103D01*
X138274103Y-113758103D01*
X137930451Y-113900448D01*
X137869796Y-113961103D01*
X137053876Y-113961103D01*
X137021221Y-113928448D01*
X136677569Y-113786103D01*
X136305603Y-113786103D01*
X135961951Y-113928448D01*
X135929296Y-113961103D01*
X131232876Y-113961103D01*
X131200221Y-113928448D01*
X130856569Y-113786103D01*
X130484603Y-113786103D01*
X130140951Y-113928448D01*
X129877931Y-114191468D01*
X129735586Y-114535120D01*
X129125586Y-114535120D01*
X129125586Y-106932103D01*
X145552943Y-106932103D01*
X145658495Y-107462748D01*
X145959081Y-107912608D01*
X146329587Y-108160171D01*
X146329586Y-113154035D01*
X145959081Y-113401598D01*
X145658495Y-113851458D01*
X145552943Y-114382103D01*
X145658495Y-114912748D01*
X145959081Y-115362608D01*
X146408941Y-115663194D01*
X146805643Y-115742103D01*
X147623529Y-115742103D01*
X148020231Y-115663194D01*
X148470091Y-115362608D01*
X148533905Y-115267103D01*
X149725443Y-115267103D01*
X149817225Y-115404464D01*
X150217468Y-115671898D01*
X150570413Y-115742103D01*
X151458759Y-115742103D01*
X151811704Y-115671898D01*
X152211947Y-115404464D01*
X152479381Y-115004221D01*
X152573291Y-114532103D01*
X152479381Y-114059985D01*
X152211947Y-113659742D01*
X151811704Y-113392308D01*
X151458759Y-113322103D01*
X150570413Y-113322103D01*
X150217468Y-113392308D01*
X150060631Y-113497103D01*
X149252232Y-113497103D01*
X149319862Y-113157103D01*
X149239534Y-112753266D01*
X149010779Y-112410910D01*
X148668423Y-112182155D01*
X148366521Y-112122103D01*
X148162651Y-112122103D01*
X148099586Y-112134647D01*
X148099586Y-109179559D01*
X148162651Y-109192103D01*
X148366521Y-109192103D01*
X148668423Y-109132051D01*
X149010779Y-108903296D01*
X149239534Y-108560940D01*
X149319862Y-108157103D01*
X149252232Y-107817103D01*
X150060631Y-107817103D01*
X150217468Y-107921898D01*
X150570413Y-107992103D01*
X151458759Y-107992103D01*
X151811704Y-107921898D01*
X152211947Y-107654464D01*
X152479381Y-107254221D01*
X152573291Y-106782103D01*
X152479381Y-106309985D01*
X152211947Y-105909742D01*
X151811704Y-105642308D01*
X151458759Y-105572103D01*
X150570413Y-105572103D01*
X150217468Y-105642308D01*
X149817225Y-105909742D01*
X149725443Y-106047103D01*
X148533905Y-106047103D01*
X148470091Y-105951598D01*
X148020231Y-105651012D01*
X147623529Y-105572103D01*
X146805643Y-105572103D01*
X146408941Y-105651012D01*
X145959081Y-105951598D01*
X145658495Y-106401458D01*
X145552943Y-106932103D01*
X129125586Y-106932103D01*
X129125586Y-104307103D01*
X153214001Y-104307103D01*
X153214001Y-123611103D01*
X153214001Y-123611103D01*
G37*
X153214001Y-123611103D02*
X129125586Y-123611103D01*
X129125586Y-114535120D01*
X129735586Y-114535120D01*
X129735586Y-114907086D01*
X129877931Y-115250738D01*
X130140951Y-115513758D01*
X130484603Y-115656103D01*
X130856569Y-115656103D01*
X131200221Y-115513758D01*
X131232876Y-115481103D01*
X134404853Y-115481103D01*
X134384734Y-115485105D01*
X134384730Y-115485105D01*
X134163045Y-115529201D01*
X133911653Y-115697176D01*
X133869253Y-115760632D01*
X133430783Y-116199103D01*
X133384601Y-116199103D01*
X133040949Y-116341448D01*
X132777929Y-116604468D01*
X132635584Y-116948120D01*
X132635584Y-117320086D01*
X132777929Y-117663738D01*
X132837294Y-117723103D01*
X132495603Y-117723103D01*
X132151951Y-117865448D01*
X131888931Y-118128468D01*
X131746586Y-118472120D01*
X131746586Y-118494221D01*
X131724569Y-118485101D01*
X131352603Y-118485101D01*
X131008951Y-118627446D01*
X130745931Y-118890466D01*
X130603586Y-119234118D01*
X130603586Y-119606084D01*
X130745931Y-119949736D01*
X130846590Y-120050395D01*
X130832168Y-120053264D01*
X130340961Y-120381478D01*
X130012747Y-120872685D01*
X129897494Y-121452103D01*
X130012747Y-122031521D01*
X130340961Y-122522728D01*
X130832168Y-122850942D01*
X131265330Y-122937103D01*
X131557842Y-122937103D01*
X131991004Y-122850942D01*
X132482211Y-122522728D01*
X132681586Y-122224342D01*
X132880961Y-122522728D01*
X133372168Y-122850942D01*
X133805330Y-122937103D01*
X134097842Y-122937103D01*
X134531004Y-122850942D01*
X135022211Y-122522728D01*
X135221586Y-122224342D01*
X135420961Y-122522728D01*
X135912168Y-122850942D01*
X136345330Y-122937103D01*
X136637842Y-122937103D01*
X137071004Y-122850942D01*
X137562211Y-122522728D01*
X137761586Y-122224342D01*
X137960961Y-122522728D01*
X138452168Y-122850942D01*
X138885330Y-122937103D01*
X139177842Y-122937103D01*
X139611004Y-122850942D01*
X140102211Y-122522728D01*
X140315429Y-122203625D01*
X140376403Y-122333461D01*
X140804662Y-122723748D01*
X141214696Y-122893579D01*
X141444586Y-122772258D01*
X141444586Y-121579103D01*
X141424586Y-121579103D01*
X141424586Y-121325103D01*
X141444586Y-121325103D01*
X141444586Y-120131948D01*
X141698586Y-120131948D01*
X141698586Y-121325103D01*
X141718586Y-121325103D01*
X141718586Y-121579103D01*
X141698586Y-121579103D01*
X141698586Y-122772258D01*
X141928476Y-122893579D01*
X142338510Y-122723748D01*
X142642847Y-122446395D01*
X142663429Y-122549868D01*
X142803777Y-122759912D01*
X143013821Y-122900260D01*
X143261586Y-122949543D01*
X144961586Y-122949543D01*
X145209351Y-122900260D01*
X145419395Y-122759912D01*
X145559743Y-122549868D01*
X145609026Y-122302103D01*
X145609026Y-120602103D01*
X145559743Y-120354338D01*
X145419395Y-120144294D01*
X145209351Y-120003946D01*
X144961586Y-119954663D01*
X143261586Y-119954663D01*
X143013821Y-120003946D01*
X142803777Y-120144294D01*
X142663429Y-120354338D01*
X142642847Y-120457811D01*
X142338510Y-120180458D01*
X141928476Y-120010627D01*
X141698586Y-120131948D01*
X141444586Y-120131948D01*
X141214696Y-120010627D01*
X140804662Y-120180458D01*
X140376403Y-120570745D01*
X140315429Y-120700581D01*
X140102211Y-120381478D01*
X139611004Y-120053264D01*
X139177842Y-119967103D01*
X138885330Y-119967103D01*
X138452168Y-120053264D01*
X137960961Y-120381478D01*
X137761586Y-120679864D01*
X137562211Y-120381478D01*
X137071004Y-120053264D01*
X136637842Y-119967103D01*
X136345330Y-119967103D01*
X136125178Y-120010894D01*
X135659387Y-119545103D01*
X136627796Y-119545103D01*
X136660451Y-119577758D01*
X137004103Y-119720103D01*
X137376069Y-119720103D01*
X137719721Y-119577758D01*
X137982741Y-119314738D01*
X138125086Y-118971086D01*
X138125086Y-118599120D01*
X137982741Y-118255468D01*
X137719721Y-117992448D01*
X137376069Y-117850103D01*
X137004103Y-117850103D01*
X136660451Y-117992448D01*
X136627796Y-118025103D01*
X133862793Y-118025103D01*
X134100219Y-117926758D01*
X134363239Y-117663738D01*
X134505584Y-117320086D01*
X134505584Y-117273904D01*
X134774384Y-117005105D01*
X137834298Y-117005105D01*
X137866953Y-117037760D01*
X138210605Y-117180105D01*
X138582571Y-117180105D01*
X138775762Y-117100083D01*
X139040255Y-117364576D01*
X139082655Y-117428032D01*
X139334047Y-117596007D01*
X139555732Y-117640103D01*
X139555736Y-117640103D01*
X139630583Y-117654991D01*
X139705430Y-117640103D01*
X145581296Y-117640103D01*
X145613951Y-117672758D01*
X145957603Y-117815103D01*
X146329569Y-117815103D01*
X146673221Y-117672758D01*
X146936241Y-117409738D01*
X147078586Y-117066086D01*
X147078586Y-116694120D01*
X146936241Y-116350468D01*
X146673221Y-116087448D01*
X146329569Y-115945103D01*
X145957603Y-115945103D01*
X145613951Y-116087448D01*
X145581296Y-116120103D01*
X140931241Y-116120103D01*
X142490571Y-114560774D01*
X142554027Y-114518374D01*
X142722002Y-114266982D01*
X142744387Y-114154446D01*
X142798753Y-114100080D01*
X142941098Y-113756428D01*
X142941098Y-113384462D01*
X142798753Y-113040810D01*
X142535733Y-112777790D01*
X142192081Y-112635445D01*
X141820115Y-112635445D01*
X141476463Y-112777790D01*
X141213443Y-113040810D01*
X141071098Y-113384462D01*
X141071098Y-113756428D01*
X141092835Y-113808906D01*
X139734547Y-115167195D01*
X139579515Y-114935174D01*
X139395086Y-114811942D01*
X139395086Y-114507120D01*
X139252741Y-114163468D01*
X138989721Y-113900448D01*
X138646069Y-113758103D01*
X138274103Y-113758103D01*
X137930451Y-113900448D01*
X137869796Y-113961103D01*
X137053876Y-113961103D01*
X137021221Y-113928448D01*
X136677569Y-113786103D01*
X136305603Y-113786103D01*
X135961951Y-113928448D01*
X135929296Y-113961103D01*
X131232876Y-113961103D01*
X131200221Y-113928448D01*
X130856569Y-113786103D01*
X130484603Y-113786103D01*
X130140951Y-113928448D01*
X129877931Y-114191468D01*
X129735586Y-114535120D01*
X129125586Y-114535120D01*
X129125586Y-106932103D01*
X145552943Y-106932103D01*
X145658495Y-107462748D01*
X145959081Y-107912608D01*
X146329587Y-108160171D01*
X146329586Y-113154035D01*
X145959081Y-113401598D01*
X145658495Y-113851458D01*
X145552943Y-114382103D01*
X145658495Y-114912748D01*
X145959081Y-115362608D01*
X146408941Y-115663194D01*
X146805643Y-115742103D01*
X147623529Y-115742103D01*
X148020231Y-115663194D01*
X148470091Y-115362608D01*
X148533905Y-115267103D01*
X149725443Y-115267103D01*
X149817225Y-115404464D01*
X150217468Y-115671898D01*
X150570413Y-115742103D01*
X151458759Y-115742103D01*
X151811704Y-115671898D01*
X152211947Y-115404464D01*
X152479381Y-115004221D01*
X152573291Y-114532103D01*
X152479381Y-114059985D01*
X152211947Y-113659742D01*
X151811704Y-113392308D01*
X151458759Y-113322103D01*
X150570413Y-113322103D01*
X150217468Y-113392308D01*
X150060631Y-113497103D01*
X149252232Y-113497103D01*
X149319862Y-113157103D01*
X149239534Y-112753266D01*
X149010779Y-112410910D01*
X148668423Y-112182155D01*
X148366521Y-112122103D01*
X148162651Y-112122103D01*
X148099586Y-112134647D01*
X148099586Y-109179559D01*
X148162651Y-109192103D01*
X148366521Y-109192103D01*
X148668423Y-109132051D01*
X149010779Y-108903296D01*
X149239534Y-108560940D01*
X149319862Y-108157103D01*
X149252232Y-107817103D01*
X150060631Y-107817103D01*
X150217468Y-107921898D01*
X150570413Y-107992103D01*
X151458759Y-107992103D01*
X151811704Y-107921898D01*
X152211947Y-107654464D01*
X152479381Y-107254221D01*
X152573291Y-106782103D01*
X152479381Y-106309985D01*
X152211947Y-105909742D01*
X151811704Y-105642308D01*
X151458759Y-105572103D01*
X150570413Y-105572103D01*
X150217468Y-105642308D01*
X149817225Y-105909742D01*
X149725443Y-106047103D01*
X148533905Y-106047103D01*
X148470091Y-105951598D01*
X148020231Y-105651012D01*
X147623529Y-105572103D01*
X146805643Y-105572103D01*
X146408941Y-105651012D01*
X145959081Y-105951598D01*
X145658495Y-106401458D01*
X145552943Y-106932103D01*
X129125586Y-106932103D01*
X129125586Y-104307103D01*
X153214001Y-104307103D01*
X153214001Y-123611103D01*
%TD*%
M02*
