M48
;DRILL file {KiCad 5.0.0-fee4fd1~66~ubuntu18.04.1} date Mon Jun 24 18:59:03 2019
;FORMAT={-:-/ absolute / inch / decimal}
FMAT,2
INCH,TZ
T1C0.0157
T2C0.0217
T3C0.0315
T4C0.0335
T5C0.0394
T6C0.0450
T7C0.0520
T8C0.0591
T9C0.0598
%
G90
G05
M72
T1
X3.068Y-2.3
X3.07Y-2.412
X3.2371Y-3.395
X3.2371Y-3.49
X3.335Y-3.64
X3.385Y-3.49
X3.4079Y-3.6
X3.41Y-3.435
X3.4571Y-3.49
X3.47Y-3.64
X3.4992Y-2.3046
X3.5Y-2.4154
X3.5075Y-3.4625
X3.51Y-3.4
X3.545Y-2.92
X3.63Y-3.325
X3.685Y-3.02
X3.74Y-2.965
X3.89Y-2.79
X3.91Y-2.965
X3.915Y-2.76
X3.9295Y-2.305
X3.93Y-2.4141
X3.93Y-3.14
X3.9421Y-3.42
X3.955Y-2.76
X4.23Y-3.08
X4.258Y-3.2059
X4.3101Y-3.4018
X4.325Y-2.66
X4.36Y-2.4186
X4.3605Y-2.31
X4.545Y-2.9208
X4.61Y-3.315
X4.635Y-1.8281
X4.905Y-1.8281
X4.9074Y-2.317
X4.9324Y-2.417
X4.9574Y-2.517
X4.965Y-3.515
X4.9874Y-3.082
X5.025Y-1.85
X5.025Y-2.025
X5.0682Y-3.0437
X5.0682Y-3.1224
X5.0682Y-3.5161
X5.0682Y-3.5948
X5.1424Y-3.122
X5.1445Y-4.5166
X5.145Y-2.835
X5.1724Y-2.867
X5.1724Y-3.202
X5.1787Y-4.7016
X5.1974Y-2.897
X5.1974Y-3.277
X5.2237Y-4.6716
X5.2587Y-4.6116
X5.2602Y-1.83
X5.2602Y-2.0306
X5.3146Y-2.085
X5.3274Y-3.237
X5.3281Y-2.9846
X5.3737Y-4.5166
X5.4012Y-4.6766
X5.4068Y-2.9846
X5.4068Y-2.9846
X5.4074Y-3.157
X5.4237Y-4.3666
X5.4287Y-4.5466
X5.4487Y-4.5766
X5.4512Y-4.5155
X5.4824Y-2.902
X5.485Y-2.085
X5.4856Y-2.9846
X5.492Y-1.85
X5.4953Y-2.4524
X5.5037Y-4.5716
X5.545Y-2.785
X5.555Y-2.4
X5.5624Y-2.9073
X5.5643Y-2.9846
X5.575Y-2.24
X5.5908Y-4.4713
X5.5909Y-2.5577
X5.595Y-2.815
X5.6153Y-2.8896
X5.6299Y-2.515
X5.63Y-2.815
X5.645Y-2.9311
X5.6667Y-3.0437
X5.6667Y-3.4374
X5.6667Y-3.4374
X5.6667Y-3.5948
X5.68Y-2.495
X5.685Y-2.815
X5.7003Y-2.9007
X5.71Y-2.555
X5.7537Y-4.6016
X5.7832Y-2.66
X5.8078Y-2.417
X5.8324Y-2.317
T3
X4.8182Y-2.117
X4.8182Y-2.217
X4.8182Y-2.317
X4.8182Y-2.417
X4.8182Y-2.517
X4.8182Y-2.617
X4.8182Y-2.717
X4.8182Y-2.817
X4.8182Y-2.917
X4.8182Y-3.017
X4.8182Y-3.117
X4.8182Y-3.217
X4.8182Y-3.317
X4.8182Y-3.417
X4.8182Y-3.517
X5.9167Y-2.117
X5.9167Y-2.217
X5.9167Y-2.317
X5.9167Y-2.417
X5.9167Y-2.517
X5.9167Y-2.617
X5.9167Y-2.717
X5.9167Y-2.817
X5.9167Y-2.917
X5.9167Y-3.017
X5.9167Y-3.117
X5.9167Y-3.217
X5.9167Y-3.317
X5.9167Y-3.417
X5.9167Y-3.517
T5
X4.7581Y-4.1764
X4.7581Y-4.2764
X4.7581Y-4.3764
X4.7581Y-4.4764
X4.7581Y-4.5764
X4.7581Y-4.6764
X4.7581Y-4.7764
X4.7581Y-4.8764
X3.735Y-3.52
X5.1737Y-4.7816
X5.2737Y-4.7816
X5.3737Y-4.7816
X5.4737Y-4.7816
X5.5737Y-4.7816
X5.6737Y-4.7816
X2.845Y-4.175
X2.845Y-4.275
X2.845Y-4.375
X2.845Y-4.475
X2.845Y-4.575
X2.845Y-4.675
X2.845Y-4.775
X2.845Y-4.875
X2.845Y-4.975
X2.845Y-5.075
X2.845Y-5.175
X2.845Y-5.275
X2.845Y-5.375
X2.845Y-5.475
X3.835Y-3.52
X3.935Y-3.52
X5.2722Y-5.0592
X5.3722Y-5.0592
X5.4722Y-5.0592
X5.5722Y-5.0592
X5.6722Y-5.0592
X5.7722Y-5.0592
X5.8722Y-5.0592
X5.9722Y-5.0592
X4.665Y-2.93
X4.665Y-3.03
X4.665Y-3.13
X3.445Y-4.175
X3.445Y-4.275
X3.445Y-4.375
X3.445Y-4.475
X3.445Y-4.575
X3.445Y-4.675
X3.445Y-4.775
X3.445Y-4.875
X3.445Y-4.975
X3.445Y-5.075
X3.445Y-5.175
X3.445Y-5.275
X3.445Y-5.375
X3.445Y-5.475
X5.2722Y-5.4592
X5.3722Y-5.4592
X5.4722Y-5.4592
X5.5722Y-5.4592
X5.6722Y-5.4592
X5.7722Y-5.4592
X5.8722Y-5.4592
X5.9722Y-5.4592
X5.025Y-2.17
X5.125Y-2.17
X5.225Y-2.17
X3.8581Y-4.1764
X3.8581Y-4.2764
X3.8581Y-4.3764
X3.8581Y-4.4764
X3.8581Y-4.5764
X3.8581Y-4.6764
X3.8581Y-4.7764
X3.8581Y-4.8764
T6
X3.5Y-2.57
X3.6Y-2.57
X3.7Y-2.57
X4.36Y-2.57
X4.46Y-2.57
X4.56Y-2.57
X3.07Y-2.57
X3.17Y-2.57
X3.27Y-2.57
X3.93Y-2.57
X4.03Y-2.57
X4.13Y-2.57
T7
X3.1724Y-1.8289
X3.1724Y-2.0257
X4.46Y-1.8281
X4.46Y-2.025
X4.03Y-1.8281
X4.03Y-2.025
X3.6Y-1.8281
X3.6Y-2.025
T8
X5.395Y-1.9733
X5.395Y-2.78
T9
X5.645Y-1.855
X5.845Y-1.855
T2
X5.9327Y-4.204G85X5.9583Y-4.204
G05
X5.9327Y-4.5091G85X5.9583Y-4.5091
G05
X2.881Y-3.3074G85X2.8554Y-3.3074
G05
X2.881Y-3.6126G85X2.8554Y-3.6126
G05
T4
X5.785Y-4.2099G85X5.8067Y-4.2099
G05
X5.785Y-4.5032G85X5.8067Y-4.5032
G05
X3.0287Y-3.3133G85X3.007Y-3.3133
G05
X3.0287Y-3.6067G85X3.007Y-3.6067
G05
T0
M30
