%TF.GenerationSoftware,KiCad,Pcbnew,5.0.0-fee4fd1~66~ubuntu18.04.1*%
%TF.CreationDate,2019-06-24T19:08:59-03:00*%
%TF.ProjectId,Placa tesis,506C6163612074657369732E6B696361,rev?*%
%TF.SameCoordinates,Original*%
%TF.FileFunction,Legend,Top*%
%TF.FilePolarity,Positive*%
%FSLAX46Y46*%
G04 Gerber Fmt 4.6, Leading zero omitted, Abs format (unit mm)*
G04 Created by KiCad (PCBNEW 5.0.0-fee4fd1~66~ubuntu18.04.1) date Mon Jun 24 19:08:59 2019*
%MOMM*%
%LPD*%
G01*
G04 APERTURE LIST*
%ADD10C,0.500000*%
%ADD11C,0.150000*%
%ADD12C,0.300000*%
%ADD13C,0.200000*%
%ADD14C,0.120000*%
%ADD15C,0.100000*%
%ADD16C,0.152400*%
%ADD17C,0.127000*%
%ADD18C,0.050000*%
G04 APERTURE END LIST*
D10*
X94742000Y-102616000D02*
X94742000Y-127127000D01*
X127508000Y-124333000D02*
X153416000Y-124333000D01*
X127508000Y-102616000D02*
X127508000Y-139407900D01*
X123952000Y-127127000D02*
X94742000Y-127127000D01*
X123952000Y-102616000D02*
X123952000Y-127127000D01*
X90678000Y-102616000D02*
X90678000Y-139560300D01*
X71247000Y-102616000D02*
X153035000Y-102616000D01*
D11*
X70485000Y-140119100D02*
X153924000Y-140119100D01*
X70485000Y-101854000D02*
X153924000Y-101854000D01*
D10*
X83925210Y-89916000D02*
G75*
G03X83925210Y-89916000I-359210J0D01*
G01*
X92053210Y-78232000D02*
G75*
G03X92053210Y-78232000I-359210J0D01*
G01*
X135665981Y-115951000D02*
G75*
G03X135665981Y-115951000I-283981J0D01*
G01*
X133096000Y-134200900D02*
G75*
G03X133096000Y-134200900I-889000J0D01*
G01*
X76780526Y-104902000D02*
G75*
G03X76780526Y-104902000I-898026J0D01*
G01*
X102778574Y-105410000D02*
G75*
G03X102778574Y-105410000I-924574J0D01*
G01*
D12*
X106850571Y-120756428D02*
X106136285Y-121256428D01*
X106850571Y-121613571D02*
X105350571Y-121613571D01*
X105350571Y-121042142D01*
X105422000Y-120899285D01*
X105493428Y-120827857D01*
X105636285Y-120756428D01*
X105850571Y-120756428D01*
X105993428Y-120827857D01*
X106064857Y-120899285D01*
X106136285Y-121042142D01*
X106136285Y-121613571D01*
X106422000Y-120185000D02*
X106422000Y-119470714D01*
X106850571Y-120327857D02*
X105350571Y-119827857D01*
X106850571Y-119327857D01*
X106279142Y-118827857D02*
X106279142Y-117685000D01*
X105350571Y-116685000D02*
X105350571Y-116542142D01*
X105422000Y-116399285D01*
X105493428Y-116327857D01*
X105636285Y-116256428D01*
X105922000Y-116185000D01*
X106279142Y-116185000D01*
X106564857Y-116256428D01*
X106707714Y-116327857D01*
X106779142Y-116399285D01*
X106850571Y-116542142D01*
X106850571Y-116685000D01*
X106779142Y-116827857D01*
X106707714Y-116899285D01*
X106564857Y-116970714D01*
X106279142Y-117042142D01*
X105922000Y-117042142D01*
X105636285Y-116970714D01*
X105493428Y-116899285D01*
X105422000Y-116827857D01*
X105350571Y-116685000D01*
X106850571Y-114756428D02*
X106850571Y-115613571D01*
X106850571Y-115185000D02*
X105350571Y-115185000D01*
X105564857Y-115327857D01*
X105707714Y-115470714D01*
X105779142Y-115613571D01*
X106850571Y-112256428D02*
X106850571Y-112970714D01*
X105350571Y-112970714D01*
X106850571Y-111542142D02*
X106779142Y-111685000D01*
X106707714Y-111756428D01*
X106564857Y-111827857D01*
X106136285Y-111827857D01*
X105993428Y-111756428D01*
X105922000Y-111685000D01*
X105850571Y-111542142D01*
X105850571Y-111327857D01*
X105922000Y-111185000D01*
X105993428Y-111113571D01*
X106136285Y-111042142D01*
X106564857Y-111042142D01*
X106707714Y-111113571D01*
X106779142Y-111185000D01*
X106850571Y-111327857D01*
X106850571Y-111542142D01*
X106850571Y-109542142D02*
X106136285Y-110042142D01*
X106850571Y-110399285D02*
X105350571Y-110399285D01*
X105350571Y-109827857D01*
X105422000Y-109685000D01*
X105493428Y-109613571D01*
X105636285Y-109542142D01*
X105850571Y-109542142D01*
X105993428Y-109613571D01*
X106064857Y-109685000D01*
X106136285Y-109827857D01*
X106136285Y-110399285D01*
X106850571Y-108256428D02*
X106064857Y-108256428D01*
X105922000Y-108327857D01*
X105850571Y-108470714D01*
X105850571Y-108756428D01*
X105922000Y-108899285D01*
X106779142Y-108256428D02*
X106850571Y-108399285D01*
X106850571Y-108756428D01*
X106779142Y-108899285D01*
X106636285Y-108970714D01*
X106493428Y-108970714D01*
X106350571Y-108899285D01*
X106279142Y-108756428D01*
X106279142Y-108399285D01*
X106207714Y-108256428D01*
D11*
X153924000Y-41021000D02*
X153924000Y-140119100D01*
X70485000Y-41021000D02*
X70485000Y-140119100D01*
D13*
X124587000Y-69469000D02*
X135763000Y-69469000D01*
D12*
X117669571Y-90836142D02*
X117669571Y-89979000D01*
X119169571Y-90407571D02*
X117669571Y-90407571D01*
X118383857Y-89479000D02*
X118383857Y-88979000D01*
X119169571Y-88764714D02*
X119169571Y-89479000D01*
X117669571Y-89479000D01*
X117669571Y-88764714D01*
X119169571Y-88121857D02*
X117669571Y-88121857D01*
X118741000Y-87621857D01*
X117669571Y-87121857D01*
X119169571Y-87121857D01*
X119169571Y-86407571D02*
X117669571Y-86407571D01*
X117669571Y-85836142D01*
X117741000Y-85693285D01*
X117812428Y-85621857D01*
X117955285Y-85550428D01*
X118169571Y-85550428D01*
X118312428Y-85621857D01*
X118383857Y-85693285D01*
X118455285Y-85836142D01*
X118455285Y-86407571D01*
X119169571Y-82979000D02*
X119169571Y-83836142D01*
X119169571Y-83407571D02*
X117669571Y-83407571D01*
X117883857Y-83550428D01*
X118026714Y-83693285D01*
X118098142Y-83836142D01*
X117669571Y-82479000D02*
X119169571Y-82121857D01*
X118098142Y-81836142D01*
X119169571Y-81550428D01*
X117669571Y-81193285D01*
X86492857Y-96026857D02*
X85992857Y-96026857D01*
X85992857Y-96812571D02*
X85992857Y-95312571D01*
X86707142Y-95312571D01*
X87278571Y-96812571D02*
X87278571Y-95812571D01*
X87278571Y-96098285D02*
X87350000Y-95955428D01*
X87421428Y-95884000D01*
X87564285Y-95812571D01*
X87707142Y-95812571D01*
X88850000Y-96812571D02*
X88850000Y-96026857D01*
X88778571Y-95884000D01*
X88635714Y-95812571D01*
X88350000Y-95812571D01*
X88207142Y-95884000D01*
X88850000Y-96741142D02*
X88707142Y-96812571D01*
X88350000Y-96812571D01*
X88207142Y-96741142D01*
X88135714Y-96598285D01*
X88135714Y-96455428D01*
X88207142Y-96312571D01*
X88350000Y-96241142D01*
X88707142Y-96241142D01*
X88850000Y-96169714D01*
X89564285Y-95812571D02*
X89564285Y-96812571D01*
X89564285Y-95955428D02*
X89635714Y-95884000D01*
X89778571Y-95812571D01*
X89992857Y-95812571D01*
X90135714Y-95884000D01*
X90207142Y-96026857D01*
X90207142Y-96812571D01*
X91564285Y-96741142D02*
X91421428Y-96812571D01*
X91135714Y-96812571D01*
X90992857Y-96741142D01*
X90921428Y-96669714D01*
X90850000Y-96526857D01*
X90850000Y-96098285D01*
X90921428Y-95955428D01*
X90992857Y-95884000D01*
X91135714Y-95812571D01*
X91421428Y-95812571D01*
X91564285Y-95884000D01*
X92207142Y-96812571D02*
X92207142Y-95812571D01*
X92207142Y-95312571D02*
X92135714Y-95384000D01*
X92207142Y-95455428D01*
X92278571Y-95384000D01*
X92207142Y-95312571D01*
X92207142Y-95455428D01*
X92850000Y-96741142D02*
X92992857Y-96812571D01*
X93278571Y-96812571D01*
X93421428Y-96741142D01*
X93492857Y-96598285D01*
X93492857Y-96526857D01*
X93421428Y-96384000D01*
X93278571Y-96312571D01*
X93064285Y-96312571D01*
X92921428Y-96241142D01*
X92850000Y-96098285D01*
X92850000Y-96026857D01*
X92921428Y-95884000D01*
X93064285Y-95812571D01*
X93278571Y-95812571D01*
X93421428Y-95884000D01*
X94778571Y-96741142D02*
X94635714Y-96812571D01*
X94350000Y-96812571D01*
X94207142Y-96741142D01*
X94135714Y-96669714D01*
X94064285Y-96526857D01*
X94064285Y-96098285D01*
X94135714Y-95955428D01*
X94207142Y-95884000D01*
X94350000Y-95812571D01*
X94635714Y-95812571D01*
X94778571Y-95884000D01*
X95635714Y-96812571D02*
X95492857Y-96741142D01*
X95421428Y-96669714D01*
X95350000Y-96526857D01*
X95350000Y-96098285D01*
X95421428Y-95955428D01*
X95492857Y-95884000D01*
X95635714Y-95812571D01*
X95850000Y-95812571D01*
X95992857Y-95884000D01*
X96064285Y-95955428D01*
X96135714Y-96098285D01*
X96135714Y-96526857D01*
X96064285Y-96669714D01*
X95992857Y-96741142D01*
X95850000Y-96812571D01*
X95635714Y-96812571D01*
X97921428Y-96812571D02*
X97921428Y-95312571D01*
X98421428Y-96384000D01*
X98921428Y-95312571D01*
X98921428Y-96812571D01*
X100278571Y-96812571D02*
X100278571Y-96026857D01*
X100207142Y-95884000D01*
X100064285Y-95812571D01*
X99778571Y-95812571D01*
X99635714Y-95884000D01*
X100278571Y-96741142D02*
X100135714Y-96812571D01*
X99778571Y-96812571D01*
X99635714Y-96741142D01*
X99564285Y-96598285D01*
X99564285Y-96455428D01*
X99635714Y-96312571D01*
X99778571Y-96241142D01*
X100135714Y-96241142D01*
X100278571Y-96169714D01*
X101207142Y-96812571D02*
X101064285Y-96741142D01*
X100992857Y-96598285D01*
X100992857Y-95312571D01*
X102421428Y-96812571D02*
X102421428Y-95312571D01*
X102421428Y-96741142D02*
X102278571Y-96812571D01*
X101992857Y-96812571D01*
X101850000Y-96741142D01*
X101778571Y-96669714D01*
X101707142Y-96526857D01*
X101707142Y-96098285D01*
X101778571Y-95955428D01*
X101850000Y-95884000D01*
X101992857Y-95812571D01*
X102278571Y-95812571D01*
X102421428Y-95884000D01*
X103350000Y-96812571D02*
X103207142Y-96741142D01*
X103135714Y-96669714D01*
X103064285Y-96526857D01*
X103064285Y-96098285D01*
X103135714Y-95955428D01*
X103207142Y-95884000D01*
X103350000Y-95812571D01*
X103564285Y-95812571D01*
X103707142Y-95884000D01*
X103778571Y-95955428D01*
X103850000Y-96098285D01*
X103850000Y-96526857D01*
X103778571Y-96669714D01*
X103707142Y-96741142D01*
X103564285Y-96812571D01*
X103350000Y-96812571D01*
X104492857Y-95812571D02*
X104492857Y-96812571D01*
X104492857Y-95955428D02*
X104564285Y-95884000D01*
X104707142Y-95812571D01*
X104921428Y-95812571D01*
X105064285Y-95884000D01*
X105135714Y-96026857D01*
X105135714Y-96812571D01*
X106492857Y-96812571D02*
X106492857Y-96026857D01*
X106421428Y-95884000D01*
X106278571Y-95812571D01*
X105992857Y-95812571D01*
X105850000Y-95884000D01*
X106492857Y-96741142D02*
X106350000Y-96812571D01*
X105992857Y-96812571D01*
X105850000Y-96741142D01*
X105778571Y-96598285D01*
X105778571Y-96455428D01*
X105850000Y-96312571D01*
X105992857Y-96241142D01*
X106350000Y-96241142D01*
X106492857Y-96169714D01*
X107850000Y-96812571D02*
X107850000Y-95312571D01*
X107850000Y-96741142D02*
X107707142Y-96812571D01*
X107421428Y-96812571D01*
X107278571Y-96741142D01*
X107207142Y-96669714D01*
X107135714Y-96526857D01*
X107135714Y-96098285D01*
X107207142Y-95955428D01*
X107278571Y-95884000D01*
X107421428Y-95812571D01*
X107707142Y-95812571D01*
X107850000Y-95884000D01*
X108778571Y-96812571D02*
X108635714Y-96741142D01*
X108564285Y-96669714D01*
X108492857Y-96526857D01*
X108492857Y-96098285D01*
X108564285Y-95955428D01*
X108635714Y-95884000D01*
X108778571Y-95812571D01*
X108992857Y-95812571D01*
X109135714Y-95884000D01*
X109207142Y-95955428D01*
X109278571Y-96098285D01*
X109278571Y-96526857D01*
X109207142Y-96669714D01*
X109135714Y-96741142D01*
X108992857Y-96812571D01*
X108778571Y-96812571D01*
X110992857Y-96384000D02*
X111707142Y-96384000D01*
X110850000Y-96812571D02*
X111350000Y-95312571D01*
X111850000Y-96812571D01*
X112992857Y-96741142D02*
X112850000Y-96812571D01*
X112564285Y-96812571D01*
X112421428Y-96741142D01*
X112350000Y-96669714D01*
X112278571Y-96526857D01*
X112278571Y-96098285D01*
X112350000Y-95955428D01*
X112421428Y-95884000D01*
X112564285Y-95812571D01*
X112850000Y-95812571D01*
X112992857Y-95884000D01*
X114278571Y-96741142D02*
X114135714Y-96812571D01*
X113850000Y-96812571D01*
X113707142Y-96741142D01*
X113635714Y-96669714D01*
X113564285Y-96526857D01*
X113564285Y-96098285D01*
X113635714Y-95955428D01*
X113707142Y-95884000D01*
X113850000Y-95812571D01*
X114135714Y-95812571D01*
X114278571Y-95884000D01*
X115564285Y-96812571D02*
X115564285Y-96026857D01*
X115492857Y-95884000D01*
X115350000Y-95812571D01*
X115064285Y-95812571D01*
X114921428Y-95884000D01*
X115564285Y-96741142D02*
X115421428Y-96812571D01*
X115064285Y-96812571D01*
X114921428Y-96741142D01*
X114850000Y-96598285D01*
X114850000Y-96455428D01*
X114921428Y-96312571D01*
X115064285Y-96241142D01*
X115421428Y-96241142D01*
X115564285Y-96169714D01*
X116278571Y-96812571D02*
X116278571Y-95812571D01*
X116278571Y-96098285D02*
X116350000Y-95955428D01*
X116421428Y-95884000D01*
X116564285Y-95812571D01*
X116707142Y-95812571D01*
X117207142Y-96812571D02*
X117207142Y-95812571D01*
X117207142Y-95312571D02*
X117135714Y-95384000D01*
X117207142Y-95455428D01*
X117278571Y-95384000D01*
X117207142Y-95312571D01*
X117207142Y-95455428D01*
X93778571Y-99362571D02*
X93778571Y-97862571D01*
X94350000Y-97862571D01*
X94492857Y-97934000D01*
X94564285Y-98005428D01*
X94635714Y-98148285D01*
X94635714Y-98362571D01*
X94564285Y-98505428D01*
X94492857Y-98576857D01*
X94350000Y-98648285D01*
X93778571Y-98648285D01*
X95278571Y-99362571D02*
X95278571Y-98362571D01*
X95278571Y-98648285D02*
X95350000Y-98505428D01*
X95421428Y-98434000D01*
X95564285Y-98362571D01*
X95707142Y-98362571D01*
X96421428Y-99362571D02*
X96278571Y-99291142D01*
X96207142Y-99219714D01*
X96135714Y-99076857D01*
X96135714Y-98648285D01*
X96207142Y-98505428D01*
X96278571Y-98434000D01*
X96421428Y-98362571D01*
X96635714Y-98362571D01*
X96778571Y-98434000D01*
X96850000Y-98505428D01*
X96921428Y-98648285D01*
X96921428Y-99076857D01*
X96850000Y-99219714D01*
X96778571Y-99291142D01*
X96635714Y-99362571D01*
X96421428Y-99362571D01*
X97421428Y-98362571D02*
X97778571Y-99362571D01*
X98135714Y-98362571D02*
X97778571Y-99362571D01*
X97635714Y-99719714D01*
X97564285Y-99791142D01*
X97421428Y-99862571D01*
X99278571Y-99291142D02*
X99135714Y-99362571D01*
X98850000Y-99362571D01*
X98707142Y-99291142D01*
X98635714Y-99148285D01*
X98635714Y-98576857D01*
X98707142Y-98434000D01*
X98850000Y-98362571D01*
X99135714Y-98362571D01*
X99278571Y-98434000D01*
X99350000Y-98576857D01*
X99350000Y-98719714D01*
X98635714Y-98862571D01*
X100635714Y-99291142D02*
X100492857Y-99362571D01*
X100207142Y-99362571D01*
X100064285Y-99291142D01*
X99992857Y-99219714D01*
X99921428Y-99076857D01*
X99921428Y-98648285D01*
X99992857Y-98505428D01*
X100064285Y-98434000D01*
X100207142Y-98362571D01*
X100492857Y-98362571D01*
X100635714Y-98434000D01*
X101064285Y-98362571D02*
X101635714Y-98362571D01*
X101278571Y-97862571D02*
X101278571Y-99148285D01*
X101350000Y-99291142D01*
X101492857Y-99362571D01*
X101635714Y-99362571D01*
X102350000Y-99362571D02*
X102207142Y-99291142D01*
X102135714Y-99219714D01*
X102064285Y-99076857D01*
X102064285Y-98648285D01*
X102135714Y-98505428D01*
X102207142Y-98434000D01*
X102350000Y-98362571D01*
X102564285Y-98362571D01*
X102707142Y-98434000D01*
X102778571Y-98505428D01*
X102850000Y-98648285D01*
X102850000Y-99076857D01*
X102778571Y-99219714D01*
X102707142Y-99291142D01*
X102564285Y-99362571D01*
X102350000Y-99362571D01*
X105135714Y-98576857D02*
X104635714Y-98576857D01*
X104635714Y-99362571D02*
X104635714Y-97862571D01*
X105350000Y-97862571D01*
X105921428Y-99362571D02*
X105921428Y-98362571D01*
X105921428Y-97862571D02*
X105850000Y-97934000D01*
X105921428Y-98005428D01*
X105992857Y-97934000D01*
X105921428Y-97862571D01*
X105921428Y-98005428D01*
X106635714Y-98362571D02*
X106635714Y-99362571D01*
X106635714Y-98505428D02*
X106707142Y-98434000D01*
X106850000Y-98362571D01*
X107064285Y-98362571D01*
X107207142Y-98434000D01*
X107278571Y-98576857D01*
X107278571Y-99362571D01*
X108635714Y-99362571D02*
X108635714Y-98576857D01*
X108564285Y-98434000D01*
X108421428Y-98362571D01*
X108135714Y-98362571D01*
X107992857Y-98434000D01*
X108635714Y-99291142D02*
X108492857Y-99362571D01*
X108135714Y-99362571D01*
X107992857Y-99291142D01*
X107921428Y-99148285D01*
X107921428Y-99005428D01*
X107992857Y-98862571D01*
X108135714Y-98791142D01*
X108492857Y-98791142D01*
X108635714Y-98719714D01*
X109564285Y-99362571D02*
X109421428Y-99291142D01*
X109349999Y-99148285D01*
X109349999Y-97862571D01*
X96968714Y-90872571D02*
X97825857Y-90872571D01*
X97397285Y-92372571D02*
X97397285Y-90872571D01*
X98325857Y-92372571D02*
X98325857Y-90872571D01*
X98325857Y-91586857D02*
X99183000Y-91586857D01*
X99183000Y-92372571D02*
X99183000Y-90872571D01*
X100754428Y-92372571D02*
X100254428Y-91658285D01*
X99897285Y-92372571D02*
X99897285Y-90872571D01*
X100468714Y-90872571D01*
X100611571Y-90944000D01*
X100683000Y-91015428D01*
X100754428Y-91158285D01*
X100754428Y-91372571D01*
X100683000Y-91515428D01*
X100611571Y-91586857D01*
X100468714Y-91658285D01*
X99897285Y-91658285D01*
D13*
X124587000Y-52451000D02*
X124587000Y-69469000D01*
X135763000Y-52451000D02*
X135763000Y-69469000D01*
X124587000Y-52451000D02*
X135763000Y-52451000D01*
D11*
X70485000Y-41021000D02*
X153924000Y-41021000D01*
D14*
%TO.C,J1*%
X126305000Y-56448000D02*
X126305000Y-55118000D01*
X127635000Y-56448000D02*
X126305000Y-56448000D01*
X128905000Y-56448000D02*
X128905000Y-53788000D01*
X128905000Y-53788000D02*
X134045000Y-53788000D01*
X128905000Y-56448000D02*
X134045000Y-56448000D01*
X134045000Y-56448000D02*
X134045000Y-53788000D01*
%TO.C,J7*%
X99326544Y-104750024D02*
X96666544Y-104750024D01*
X99326544Y-122590024D02*
X99326544Y-104750024D01*
X96666544Y-122590024D02*
X96666544Y-104750024D01*
X99326544Y-122590024D02*
X96666544Y-122590024D01*
X99326544Y-123860024D02*
X99326544Y-125190024D01*
X99326544Y-125190024D02*
X97996544Y-125190024D01*
%TO.C,C12*%
X150064586Y-116114103D02*
X148064586Y-116114103D01*
X148064586Y-118154103D02*
X150064586Y-118154103D01*
D11*
%TO.C,U9*%
X134782586Y-118123103D02*
X134782586Y-112848103D01*
X140182586Y-116848103D02*
X140182586Y-112848103D01*
D14*
%TO.C,OutP*%
X93539000Y-90738000D02*
X96199000Y-90738000D01*
X93539000Y-90678000D02*
X93539000Y-90738000D01*
X96199000Y-90678000D02*
X96199000Y-90738000D01*
X93539000Y-90678000D02*
X96199000Y-90678000D01*
X93539000Y-89408000D02*
X93539000Y-88078000D01*
X93539000Y-88078000D02*
X94869000Y-88078000D01*
D11*
%TO.C,U2*%
X151782977Y-99933063D02*
X151782978Y-43173063D01*
X151782978Y-43173063D02*
X120882979Y-43173063D01*
X120882979Y-43173063D02*
X120882978Y-99933063D01*
X120882978Y-99933063D02*
X131182978Y-99933063D01*
X131182978Y-99933063D02*
X131182978Y-99483063D01*
X131182978Y-99483063D02*
X141482977Y-99483063D01*
X141482977Y-99483063D02*
X141482977Y-99933063D01*
X141482977Y-99933063D02*
X151782977Y-99933063D01*
X125429029Y-96953063D02*
G75*
G03X125429029Y-96953063I-1796051J0D01*
G01*
X150829029Y-96953063D02*
G75*
G03X150829029Y-96953063I-1796051J0D01*
G01*
X150829029Y-46153063D02*
G75*
G03X150829029Y-46153063I-1796051J0D01*
G01*
X125429029Y-46153063D02*
G75*
G03X125429029Y-46153063I-1796051J0D01*
G01*
%TO.C,Q1*%
X75184000Y-68326000D02*
X85852000Y-68326000D01*
X75184000Y-68326000D02*
X75184000Y-63500000D01*
X85852000Y-68326000D02*
X85852000Y-63500000D01*
X75184000Y-63500000D02*
X85852000Y-63500000D01*
X85852000Y-66929000D02*
X75184000Y-66929000D01*
X82296000Y-67056000D02*
X82296000Y-68326000D01*
X78740000Y-67056000D02*
X78740000Y-68326000D01*
X75184000Y-68072000D02*
X85852000Y-68072000D01*
X85344000Y-66929000D02*
X85344000Y-63500000D01*
X75692000Y-66929000D02*
X75692000Y-63500000D01*
D15*
%TO.C,U4*%
X92303600Y-75006200D02*
G75*
G02X92303600Y-75615800I0J-304800D01*
G01*
D16*
X92303600Y-75615800D02*
X92303600Y-77520800D01*
X92303600Y-75006200D02*
X92303600Y-75615800D01*
X92303600Y-73101200D02*
X92303600Y-75006200D01*
X102006400Y-77520800D02*
X102006400Y-73101200D01*
D14*
%TO.C,R14*%
X141432681Y-61893743D02*
X141432681Y-59893743D01*
X143572681Y-59893743D02*
X143572681Y-61893743D01*
%TO.C,R13*%
X140651681Y-59840743D02*
X140651681Y-61840743D01*
X138511681Y-61840743D02*
X138511681Y-59840743D01*
%TO.C,C5*%
X144903000Y-60746000D02*
X144903000Y-62746000D01*
X146943000Y-62746000D02*
X146943000Y-60746000D01*
D17*
%TO.C,U3*%
X145891681Y-65825743D02*
X145891681Y-69825743D01*
X140891681Y-69825743D02*
X140891681Y-65825743D01*
X145212391Y-65425743D02*
G75*
G03X145212391Y-65425743I-70710J0D01*
G01*
D14*
%TO.C,C1*%
X109172000Y-83931000D02*
X109172000Y-81931000D01*
X107132000Y-81931000D02*
X107132000Y-83931000D01*
%TO.C,C2*%
X100731000Y-81931000D02*
X100731000Y-83931000D01*
X102771000Y-83931000D02*
X102771000Y-81931000D01*
%TO.C,C3*%
X99623000Y-83931000D02*
X99623000Y-81931000D01*
X97583000Y-81931000D02*
X97583000Y-83931000D01*
%TO.C,C4*%
X91182000Y-81931000D02*
X91182000Y-83931000D01*
X93222000Y-83931000D02*
X93222000Y-81931000D01*
D11*
%TO.C,Q2*%
X86614000Y-66929000D02*
X86614000Y-63500000D01*
X96266000Y-66929000D02*
X96266000Y-63500000D01*
X86106000Y-68072000D02*
X96774000Y-68072000D01*
X89662000Y-67056000D02*
X89662000Y-68326000D01*
X93218000Y-67056000D02*
X93218000Y-68326000D01*
X96774000Y-66929000D02*
X86106000Y-66929000D01*
X86106000Y-63500000D02*
X96774000Y-63500000D01*
X96774000Y-68326000D02*
X96774000Y-63500000D01*
X86106000Y-68326000D02*
X86106000Y-63500000D01*
X86106000Y-68326000D02*
X96774000Y-68326000D01*
%TO.C,Q3*%
X97028000Y-68326000D02*
X107696000Y-68326000D01*
X97028000Y-68326000D02*
X97028000Y-63500000D01*
X107696000Y-68326000D02*
X107696000Y-63500000D01*
X97028000Y-63500000D02*
X107696000Y-63500000D01*
X107696000Y-66929000D02*
X97028000Y-66929000D01*
X104140000Y-67056000D02*
X104140000Y-68326000D01*
X100584000Y-67056000D02*
X100584000Y-68326000D01*
X97028000Y-68072000D02*
X107696000Y-68072000D01*
X107188000Y-66929000D02*
X107188000Y-63500000D01*
X97536000Y-66929000D02*
X97536000Y-63500000D01*
%TO.C,Q4*%
X108458000Y-66929000D02*
X108458000Y-63500000D01*
X118110000Y-66929000D02*
X118110000Y-63500000D01*
X107950000Y-68072000D02*
X118618000Y-68072000D01*
X111506000Y-67056000D02*
X111506000Y-68326000D01*
X115062000Y-67056000D02*
X115062000Y-68326000D01*
X118618000Y-66929000D02*
X107950000Y-66929000D01*
X107950000Y-63500000D02*
X118618000Y-63500000D01*
X118618000Y-68326000D02*
X118618000Y-63500000D01*
X107950000Y-68326000D02*
X107950000Y-63500000D01*
X107950000Y-68326000D02*
X118618000Y-68326000D01*
D14*
%TO.C,R1*%
X112420000Y-81831000D02*
X112420000Y-83831000D01*
X110280000Y-83831000D02*
X110280000Y-81831000D01*
%TO.C,R2*%
X96470000Y-81831000D02*
X96470000Y-83831000D01*
X94330000Y-83831000D02*
X94330000Y-81831000D01*
%TO.C,R7*%
X105972000Y-77486000D02*
X105972000Y-79486000D01*
X103832000Y-79486000D02*
X103832000Y-77486000D01*
%TO.C,R8*%
X103879000Y-83831000D02*
X103879000Y-81831000D01*
X106019000Y-81831000D02*
X106019000Y-83831000D01*
%TO.C,R9*%
X109026582Y-87475586D02*
X107026582Y-87475586D01*
X107026582Y-85335586D02*
X109026582Y-85335586D01*
%TO.C,R10*%
X103197000Y-88884000D02*
X103197000Y-86884000D01*
X105337000Y-86884000D02*
X105337000Y-88884000D01*
%TO.C,U5*%
X144452978Y-92309063D02*
X145062978Y-92309063D01*
X144452978Y-92309063D02*
X144452978Y-99929063D01*
X144452978Y-75689063D02*
X144452978Y-76309063D01*
X142332978Y-75689063D02*
X144452978Y-75689063D01*
X128212978Y-75689063D02*
X130332978Y-75689063D01*
X128212978Y-76309063D02*
X128212978Y-75689063D01*
X128212978Y-99929063D02*
X128212978Y-92309063D01*
X144452978Y-99929063D02*
X128212978Y-99929063D01*
%TO.C,R3*%
X83626000Y-60240000D02*
X78426000Y-60240000D01*
X78426000Y-56600000D02*
X83626000Y-56600000D01*
%TO.C,R4*%
X89380285Y-56716516D02*
X94580285Y-56716516D01*
X94580285Y-60356516D02*
X89380285Y-60356516D01*
%TO.C,R5*%
X105509421Y-60331115D02*
X100309421Y-60331115D01*
X100309421Y-56691115D02*
X105509421Y-56691115D01*
%TO.C,R6*%
X111255893Y-56807348D02*
X116455893Y-56807348D01*
X116455893Y-60447348D02*
X111255893Y-60447348D01*
%TO.C,C6*%
X81772000Y-92198000D02*
X79772000Y-92198000D01*
X79772000Y-94238000D02*
X81772000Y-94238000D01*
%TO.C,C7*%
X79796000Y-91952000D02*
X81796000Y-91952000D01*
X81796000Y-89912000D02*
X79796000Y-89912000D01*
%TO.C,C8*%
X81772000Y-94484000D02*
X79772000Y-94484000D01*
X79772000Y-96524000D02*
X81772000Y-96524000D01*
%TO.C,C9*%
X144153000Y-55749000D02*
X142153000Y-55749000D01*
X142153000Y-57789000D02*
X144153000Y-57789000D01*
%TO.C,C10*%
X142153000Y-55503000D02*
X144153000Y-55503000D01*
X144153000Y-53463000D02*
X142153000Y-53463000D01*
D11*
%TO.C,J2*%
X77203000Y-89684000D02*
X77203000Y-90684000D01*
X77203000Y-86084000D02*
X77203000Y-85084000D01*
X77628000Y-86084000D02*
X77203000Y-86084000D01*
X77628000Y-86809000D02*
X77628000Y-86084000D01*
X74053000Y-92034000D02*
X75453000Y-92034000D01*
X71503000Y-92034000D02*
X71653000Y-92034000D01*
X71503000Y-91734000D02*
X71503000Y-92034000D01*
X71053000Y-91734000D02*
X71503000Y-91734000D01*
X71503000Y-84034000D02*
X71053000Y-84034000D01*
X71503000Y-83734000D02*
X71503000Y-84034000D01*
X71653000Y-83734000D02*
X71503000Y-83734000D01*
X75453000Y-83734000D02*
X74053000Y-83734000D01*
D14*
%TO.C,R11*%
X79772000Y-87576000D02*
X81772000Y-87576000D01*
X81772000Y-89716000D02*
X79772000Y-89716000D01*
%TO.C,R19*%
X81772000Y-87303000D02*
X79772000Y-87303000D01*
X79772000Y-85163000D02*
X81772000Y-85163000D01*
%TO.C,R20*%
X81719000Y-84890000D02*
X79719000Y-84890000D01*
X79719000Y-82750000D02*
X81719000Y-82750000D01*
%TO.C,R21*%
X81772000Y-82477000D02*
X79772000Y-82477000D01*
X79772000Y-80337000D02*
X81772000Y-80337000D01*
%TO.C,R22*%
X80280000Y-75590171D02*
X82280000Y-75590171D01*
X82280000Y-77730171D02*
X80280000Y-77730171D01*
%TO.C,R23*%
X82280000Y-80143171D02*
X80280000Y-80143171D01*
X80280000Y-78003171D02*
X82280000Y-78003171D01*
%TO.C,R24*%
X82280000Y-75317171D02*
X80280000Y-75317171D01*
X80280000Y-73177171D02*
X82280000Y-73177171D01*
D11*
%TO.C,U1*%
X84143000Y-90651000D02*
X84143000Y-85376000D01*
X89543000Y-89376000D02*
X89543000Y-85376000D01*
D14*
%TO.C,R25*%
X86687000Y-81592000D02*
X86687000Y-79592000D01*
X88827000Y-79592000D02*
X88827000Y-81592000D01*
%TO.C,J4*%
X119821000Y-80832000D02*
X118491000Y-80832000D01*
X119821000Y-79502000D02*
X119821000Y-80832000D01*
X119821000Y-78232000D02*
X117161000Y-78232000D01*
X117161000Y-78232000D02*
X117161000Y-73092000D01*
X119821000Y-78232000D02*
X119821000Y-73092000D01*
X119821000Y-73092000D02*
X117161000Y-73092000D01*
%TO.C,R26*%
X116513000Y-74639000D02*
X116513000Y-76639000D01*
X114373000Y-76639000D02*
X114373000Y-74639000D01*
%TO.C,R27*%
X97679000Y-85798000D02*
X99679000Y-85798000D01*
X99679000Y-87938000D02*
X97679000Y-87938000D01*
%TO.C,J3*%
X151003000Y-43307000D02*
X140843000Y-43307000D01*
X151003000Y-50927000D02*
X151003000Y-43307000D01*
X140843000Y-50927000D02*
X151003000Y-50927000D01*
X140843000Y-43307000D02*
X140843000Y-50927000D01*
X140843000Y-44577000D02*
X151003000Y-44577000D01*
%TO.C,J5*%
X131059065Y-138303947D02*
X131059065Y-136973947D01*
X132389065Y-138303947D02*
X131059065Y-138303947D01*
X133659065Y-138303947D02*
X133659065Y-135643947D01*
X133659065Y-135643947D02*
X151499065Y-135643947D01*
X133659065Y-138303947D02*
X151499065Y-138303947D01*
X151499065Y-138303947D02*
X151499065Y-135643947D01*
%TO.C,J6*%
X151499065Y-125483947D02*
X151499065Y-126813947D01*
X150169065Y-125483947D02*
X151499065Y-125483947D01*
X148899065Y-125483947D02*
X148899065Y-128143947D01*
X148899065Y-128143947D02*
X131059065Y-128143947D01*
X148899065Y-125483947D02*
X131059065Y-125483947D01*
X131059065Y-125483947D02*
X131059065Y-128143947D01*
%TO.C,J8*%
X122186544Y-104750024D02*
X119526544Y-104750024D01*
X122186544Y-122590024D02*
X122186544Y-104750024D01*
X119526544Y-122590024D02*
X119526544Y-104750024D01*
X122186544Y-122590024D02*
X119526544Y-122590024D01*
X122186544Y-123860024D02*
X122186544Y-125190024D01*
X122186544Y-125190024D02*
X120856544Y-125190024D01*
D17*
%TO.C,U6*%
X138779065Y-133893947D02*
X138779065Y-129893947D01*
X143779065Y-129893947D02*
X143779065Y-133893947D01*
X139599775Y-134293947D02*
G75*
G03X139599775Y-134293947I-70710J0D01*
G01*
D11*
%TO.C,U7*%
X101176544Y-122962023D02*
X101176544Y-123712023D01*
X101176544Y-123712023D02*
X117676544Y-123712023D01*
X117676544Y-123712023D02*
X117676544Y-122962023D01*
X101176544Y-106962023D02*
X101176544Y-106212023D01*
X101176544Y-106212023D02*
X117676544Y-106212023D01*
X117676544Y-106212023D02*
X117676544Y-106962023D01*
D16*
%TO.C,U8*%
X78371700Y-126263400D02*
X82791300Y-126263400D01*
X82791300Y-116560600D02*
X80886300Y-116560600D01*
X80886300Y-116560600D02*
X80276700Y-116560600D01*
X80276700Y-116560600D02*
X78371700Y-116560600D01*
D15*
X80886300Y-116560600D02*
G75*
G02X80276700Y-116560600I-304800J0D01*
G01*
D14*
%TO.C,J9*%
X71631500Y-103572000D02*
X72961500Y-103572000D01*
X71631500Y-104902000D02*
X71631500Y-103572000D01*
X71631500Y-106172000D02*
X74291500Y-106172000D01*
X74291500Y-106172000D02*
X74291500Y-139252000D01*
X71631500Y-106172000D02*
X71631500Y-139252000D01*
X71631500Y-139252000D02*
X74291500Y-139252000D01*
%TO.C,J10*%
X89531500Y-103572000D02*
X86871500Y-103572000D01*
X89531500Y-136652000D02*
X89531500Y-103572000D01*
X86871500Y-136652000D02*
X86871500Y-103572000D01*
X89531500Y-136652000D02*
X86871500Y-136652000D01*
X89531500Y-137922000D02*
X89531500Y-139252000D01*
X89531500Y-139252000D02*
X88201500Y-139252000D01*
%TO.C,C11*%
X148064586Y-122726103D02*
X150064586Y-122726103D01*
X150064586Y-120686103D02*
X148064586Y-120686103D01*
%TO.C,C13*%
X148064586Y-120440103D02*
X150064586Y-120440103D01*
X150064586Y-118400103D02*
X148064586Y-118400103D01*
%TO.C,C14*%
X142349586Y-112312103D02*
X144349586Y-112312103D01*
X144349586Y-110272103D02*
X142349586Y-110272103D01*
%TO.C,C15*%
X144349586Y-117130103D02*
X142349586Y-117130103D01*
X142349586Y-119170103D02*
X144349586Y-119170103D01*
%TO.C,C16*%
X133149586Y-106462103D02*
X131149586Y-106462103D01*
X131149586Y-108502103D02*
X133149586Y-108502103D01*
D11*
%TO.C,J11*%
X146664586Y-108857103D02*
X146664586Y-107857103D01*
X146664586Y-112457103D02*
X146664586Y-113457103D01*
X146239586Y-112457103D02*
X146664586Y-112457103D01*
X146239586Y-111732103D02*
X146239586Y-112457103D01*
X149814586Y-106507103D02*
X148414586Y-106507103D01*
X152364586Y-106507103D02*
X152214586Y-106507103D01*
X152364586Y-106807103D02*
X152364586Y-106507103D01*
X152814586Y-106807103D02*
X152364586Y-106807103D01*
X152364586Y-114507103D02*
X152814586Y-114507103D01*
X152364586Y-114807103D02*
X152364586Y-114507103D01*
X152214586Y-114807103D02*
X152364586Y-114807103D01*
X148414586Y-114807103D02*
X149814586Y-114807103D01*
D14*
%TO.C,R28*%
X142456098Y-112500445D02*
X144456098Y-112500445D01*
X144456098Y-114640445D02*
X142456098Y-114640445D01*
%TO.C,R29*%
X144456098Y-116926445D02*
X142456098Y-116926445D01*
X142456098Y-114786445D02*
X144456098Y-114786445D01*
%TO.C,R30*%
X133120586Y-113378103D02*
X131120586Y-113378103D01*
X131120586Y-111238103D02*
X133120586Y-111238103D01*
%TO.C,R31*%
X137199586Y-109117103D02*
X137199586Y-107117103D01*
X139339586Y-107117103D02*
X139339586Y-109117103D01*
%TO.C,R32*%
X136926586Y-107117103D02*
X136926586Y-109117103D01*
X134786586Y-109117103D02*
X134786586Y-107117103D01*
%TO.C,R33*%
X131120586Y-113651103D02*
X133120586Y-113651103D01*
X133120586Y-115791103D02*
X131120586Y-115791103D01*
%TO.C,R34*%
X133150207Y-110965103D02*
X131150207Y-110965103D01*
X131150207Y-108825103D02*
X133150207Y-108825103D01*
%TO.C,R35*%
X131120586Y-116064103D02*
X133120586Y-116064103D01*
X133120586Y-118204103D02*
X131120586Y-118204103D01*
%TO.C,Rx2*%
X143079586Y-109248103D02*
X139879586Y-109248103D01*
X139879586Y-107748103D02*
X143079586Y-107748103D01*
X139879586Y-107748103D02*
X139879586Y-109248103D01*
%TO.C,Tx2*%
X139879586Y-105589103D02*
X139879586Y-107089103D01*
X139879586Y-105589103D02*
X143079586Y-105589103D01*
X143079586Y-107089103D02*
X139879586Y-107089103D01*
%TO.C,J12*%
X145441586Y-120122103D02*
X145441586Y-121452103D01*
X144111586Y-120122103D02*
X145441586Y-120122103D01*
X142841586Y-120122103D02*
X142841586Y-122782103D01*
X142841586Y-122782103D02*
X130081586Y-122782103D01*
X142841586Y-120122103D02*
X130081586Y-120122103D01*
X130081586Y-120122103D02*
X130081586Y-122782103D01*
%TO.C,BT1*%
X140033000Y-72812000D02*
X140033000Y-67112000D01*
X140033000Y-72812000D02*
X134033000Y-72812000D01*
X134033000Y-72812000D02*
X134033000Y-67112000D01*
X133506616Y-66360246D02*
G75*
G02X134033000Y-67112000I-273616J-751754D01*
G01*
X137078281Y-43916329D02*
G75*
G03X133533000Y-66362000I-45281J-11495671D01*
G01*
X140559384Y-66360246D02*
G75*
G03X140033000Y-67112000I273616J-751754D01*
G01*
X136987719Y-43916329D02*
G75*
G02X140533000Y-66362000I45281J-11495671D01*
G01*
%TO.C,R12*%
X128528000Y-42672000D02*
X132588000Y-42672000D01*
X128528000Y-50292000D02*
X132588000Y-50292000D01*
%TO.C,Rx1*%
X78779300Y-77632600D02*
X74079300Y-77632600D01*
X78779300Y-75732600D02*
X74079300Y-75732600D01*
X78779300Y-77632600D02*
X78779300Y-75732600D01*
%TO.C,Tx1*%
X78842800Y-79994800D02*
X78842800Y-78094800D01*
X78842800Y-78094800D02*
X74142800Y-78094800D01*
X78842800Y-79994800D02*
X74142800Y-79994800D01*
%TO.C,PWR1*%
X78779300Y-75257700D02*
X74079300Y-75257700D01*
X78779300Y-73357700D02*
X74079300Y-73357700D01*
X78779300Y-75257700D02*
X78779300Y-73357700D01*
%TO.C,D5*%
X135243300Y-68576400D02*
X135243300Y-63176400D01*
X138543300Y-68576400D02*
X138543300Y-63176400D01*
X135243300Y-68576400D02*
X138543300Y-68576400D01*
%TD*%
%TO.C,J1*%
D11*
X124757380Y-55451333D02*
X125471666Y-55451333D01*
X125614523Y-55498952D01*
X125709761Y-55594190D01*
X125757380Y-55737047D01*
X125757380Y-55832285D01*
X125757380Y-54451333D02*
X125757380Y-55022761D01*
X125757380Y-54737047D02*
X124757380Y-54737047D01*
X124900238Y-54832285D01*
X124995476Y-54927523D01*
X125043095Y-55022761D01*
%TO.C,J7*%
X97663210Y-125642404D02*
X97663210Y-126356690D01*
X97615591Y-126499547D01*
X97520353Y-126594785D01*
X97377496Y-126642404D01*
X97282258Y-126642404D01*
X98044163Y-125642404D02*
X98710829Y-125642404D01*
X98282258Y-126642404D01*
%TO.C,C12*%
X148421728Y-115741245D02*
X148374109Y-115788864D01*
X148231252Y-115836483D01*
X148136014Y-115836483D01*
X147993157Y-115788864D01*
X147897919Y-115693626D01*
X147850300Y-115598388D01*
X147802681Y-115407912D01*
X147802681Y-115265055D01*
X147850300Y-115074579D01*
X147897919Y-114979341D01*
X147993157Y-114884103D01*
X148136014Y-114836483D01*
X148231252Y-114836483D01*
X148374109Y-114884103D01*
X148421728Y-114931722D01*
X149374109Y-115836483D02*
X148802681Y-115836483D01*
X149088395Y-115836483D02*
X149088395Y-114836483D01*
X148993157Y-114979341D01*
X148897919Y-115074579D01*
X148802681Y-115122198D01*
X149755062Y-114931722D02*
X149802681Y-114884103D01*
X149897919Y-114836483D01*
X150136014Y-114836483D01*
X150231252Y-114884103D01*
X150278871Y-114931722D01*
X150326490Y-115026960D01*
X150326490Y-115122198D01*
X150278871Y-115265055D01*
X149707443Y-115836483D01*
X150326490Y-115836483D01*
%TO.C,U9*%
X133459966Y-115610007D02*
X134269490Y-115610007D01*
X134364728Y-115562388D01*
X134412347Y-115514769D01*
X134459966Y-115419531D01*
X134459966Y-115229055D01*
X134412347Y-115133817D01*
X134364728Y-115086198D01*
X134269490Y-115038579D01*
X133459966Y-115038579D01*
X134459966Y-114514769D02*
X134459966Y-114324293D01*
X134412347Y-114229055D01*
X134364728Y-114181436D01*
X134221871Y-114086198D01*
X134031395Y-114038579D01*
X133650443Y-114038579D01*
X133555205Y-114086198D01*
X133507586Y-114133817D01*
X133459966Y-114229055D01*
X133459966Y-114419531D01*
X133507586Y-114514769D01*
X133555205Y-114562388D01*
X133650443Y-114610007D01*
X133888538Y-114610007D01*
X133983776Y-114562388D01*
X134031395Y-114514769D01*
X134079014Y-114419531D01*
X134079014Y-114229055D01*
X134031395Y-114133817D01*
X133983776Y-114086198D01*
X133888538Y-114038579D01*
%TO.C,OutP*%
X93408666Y-91400380D02*
X93599142Y-91400380D01*
X93694380Y-91448000D01*
X93789619Y-91543238D01*
X93837238Y-91733714D01*
X93837238Y-92067047D01*
X93789619Y-92257523D01*
X93694380Y-92352761D01*
X93599142Y-92400380D01*
X93408666Y-92400380D01*
X93313428Y-92352761D01*
X93218190Y-92257523D01*
X93170571Y-92067047D01*
X93170571Y-91733714D01*
X93218190Y-91543238D01*
X93313428Y-91448000D01*
X93408666Y-91400380D01*
X94694380Y-91733714D02*
X94694380Y-92400380D01*
X94265809Y-91733714D02*
X94265809Y-92257523D01*
X94313428Y-92352761D01*
X94408666Y-92400380D01*
X94551523Y-92400380D01*
X94646761Y-92352761D01*
X94694380Y-92305142D01*
X95027714Y-91733714D02*
X95408666Y-91733714D01*
X95170571Y-91400380D02*
X95170571Y-92257523D01*
X95218190Y-92352761D01*
X95313428Y-92400380D01*
X95408666Y-92400380D01*
X95742000Y-92400380D02*
X95742000Y-91400380D01*
X96122952Y-91400380D01*
X96218190Y-91448000D01*
X96265809Y-91495619D01*
X96313428Y-91590857D01*
X96313428Y-91733714D01*
X96265809Y-91828952D01*
X96218190Y-91876571D01*
X96122952Y-91924190D01*
X95742000Y-91924190D01*
%TO.C,U2*%
X125357776Y-98393123D02*
X125357776Y-99202647D01*
X125405395Y-99297885D01*
X125453014Y-99345504D01*
X125548252Y-99393123D01*
X125738728Y-99393123D01*
X125833966Y-99345504D01*
X125881585Y-99297885D01*
X125929204Y-99202647D01*
X125929204Y-98393123D01*
X126357776Y-98488362D02*
X126405395Y-98440743D01*
X126500633Y-98393123D01*
X126738728Y-98393123D01*
X126833966Y-98440743D01*
X126881585Y-98488362D01*
X126929204Y-98583600D01*
X126929204Y-98678838D01*
X126881585Y-98821695D01*
X126310157Y-99393123D01*
X126929204Y-99393123D01*
%TO.C,Q1*%
X80422761Y-70143619D02*
X80327523Y-70096000D01*
X80232285Y-70000761D01*
X80089428Y-69857904D01*
X79994190Y-69810285D01*
X79898952Y-69810285D01*
X79946571Y-70048380D02*
X79851333Y-70000761D01*
X79756095Y-69905523D01*
X79708476Y-69715047D01*
X79708476Y-69381714D01*
X79756095Y-69191238D01*
X79851333Y-69096000D01*
X79946571Y-69048380D01*
X80137047Y-69048380D01*
X80232285Y-69096000D01*
X80327523Y-69191238D01*
X80375142Y-69381714D01*
X80375142Y-69715047D01*
X80327523Y-69905523D01*
X80232285Y-70000761D01*
X80137047Y-70048380D01*
X79946571Y-70048380D01*
X81327523Y-70048380D02*
X80756095Y-70048380D01*
X81041809Y-70048380D02*
X81041809Y-69048380D01*
X80946571Y-69191238D01*
X80851333Y-69286476D01*
X80756095Y-69334095D01*
%TO.C,U4*%
D13*
X92687857Y-76098285D02*
X93659285Y-76098285D01*
X93773571Y-76041142D01*
X93830714Y-75984000D01*
X93887857Y-75869714D01*
X93887857Y-75641142D01*
X93830714Y-75526857D01*
X93773571Y-75469714D01*
X93659285Y-75412571D01*
X92687857Y-75412571D01*
X93087857Y-74326857D02*
X93887857Y-74326857D01*
X92630714Y-74612571D02*
X93487857Y-74898285D01*
X93487857Y-74155428D01*
%TO.C,R14*%
D11*
X142052681Y-61293123D02*
X141819347Y-60816933D01*
X141652681Y-61293123D02*
X141652681Y-60293123D01*
X141919347Y-60293123D01*
X141986014Y-60340743D01*
X142019347Y-60388362D01*
X142052681Y-60483600D01*
X142052681Y-60626457D01*
X142019347Y-60721695D01*
X141986014Y-60769314D01*
X141919347Y-60816933D01*
X141652681Y-60816933D01*
X142719347Y-61293123D02*
X142319347Y-61293123D01*
X142519347Y-61293123D02*
X142519347Y-60293123D01*
X142452681Y-60435981D01*
X142386014Y-60531219D01*
X142319347Y-60578838D01*
X143319347Y-60626457D02*
X143319347Y-61293123D01*
X143152681Y-60245504D02*
X142986014Y-60959790D01*
X143419347Y-60959790D01*
%TO.C,R13*%
X139123000Y-61412380D02*
X138889666Y-60936190D01*
X138723000Y-61412380D02*
X138723000Y-60412380D01*
X138989666Y-60412380D01*
X139056333Y-60460000D01*
X139089666Y-60507619D01*
X139123000Y-60602857D01*
X139123000Y-60745714D01*
X139089666Y-60840952D01*
X139056333Y-60888571D01*
X138989666Y-60936190D01*
X138723000Y-60936190D01*
X139789666Y-61412380D02*
X139389666Y-61412380D01*
X139589666Y-61412380D02*
X139589666Y-60412380D01*
X139523000Y-60555238D01*
X139456333Y-60650476D01*
X139389666Y-60698095D01*
X140023000Y-60412380D02*
X140456333Y-60412380D01*
X140223000Y-60793333D01*
X140323000Y-60793333D01*
X140389666Y-60840952D01*
X140423000Y-60888571D01*
X140456333Y-60983809D01*
X140456333Y-61221904D01*
X140423000Y-61317142D01*
X140389666Y-61364761D01*
X140323000Y-61412380D01*
X140123000Y-61412380D01*
X140056333Y-61364761D01*
X140023000Y-61317142D01*
%TO.C,C5*%
X145756333Y-62103142D02*
X145708714Y-62150761D01*
X145565857Y-62198380D01*
X145470619Y-62198380D01*
X145327761Y-62150761D01*
X145232523Y-62055523D01*
X145184904Y-61960285D01*
X145137285Y-61769809D01*
X145137285Y-61626952D01*
X145184904Y-61436476D01*
X145232523Y-61341238D01*
X145327761Y-61246000D01*
X145470619Y-61198380D01*
X145565857Y-61198380D01*
X145708714Y-61246000D01*
X145756333Y-61293619D01*
X146661095Y-61198380D02*
X146184904Y-61198380D01*
X146137285Y-61674571D01*
X146184904Y-61626952D01*
X146280142Y-61579333D01*
X146518238Y-61579333D01*
X146613476Y-61626952D01*
X146661095Y-61674571D01*
X146708714Y-61769809D01*
X146708714Y-62007904D01*
X146661095Y-62103142D01*
X146613476Y-62150761D01*
X146518238Y-62198380D01*
X146280142Y-62198380D01*
X146184904Y-62150761D01*
X146137285Y-62103142D01*
%TO.C,U3*%
D18*
X146083886Y-68579002D02*
X146894867Y-68579002D01*
X146990276Y-68531297D01*
X147037981Y-68483592D01*
X147085686Y-68388183D01*
X147085686Y-68197364D01*
X147037981Y-68101954D01*
X146990276Y-68054249D01*
X146894867Y-68006545D01*
X146083886Y-68006545D01*
X146083886Y-67624906D02*
X146083886Y-67004745D01*
X146465524Y-67338678D01*
X146465524Y-67195564D01*
X146513229Y-67100154D01*
X146560933Y-67052449D01*
X146656343Y-67004745D01*
X146894867Y-67004745D01*
X146990276Y-67052449D01*
X147037981Y-67100154D01*
X147085686Y-67195564D01*
X147085686Y-67481792D01*
X147037981Y-67577202D01*
X146990276Y-67624906D01*
X140543785Y-71960484D02*
X140543785Y-72438488D01*
X139539975Y-72438488D01*
X140543785Y-71625880D02*
X139539975Y-71625880D01*
X140256982Y-71291277D01*
X139539975Y-70956674D01*
X140543785Y-70956674D01*
X140543785Y-70478669D02*
X139539975Y-70478669D01*
X139539975Y-70096265D01*
X139587776Y-70000664D01*
X139635576Y-69952864D01*
X139731177Y-69905063D01*
X139874578Y-69905063D01*
X139970179Y-69952864D01*
X140017980Y-70000664D01*
X140065780Y-70096265D01*
X140065780Y-70478669D01*
X140543785Y-69427058D02*
X140543785Y-69235857D01*
X140495985Y-69140256D01*
X140448184Y-69092455D01*
X140304783Y-68996854D01*
X140113581Y-68949054D01*
X139731177Y-68949054D01*
X139635576Y-68996854D01*
X139587776Y-69044655D01*
X139539975Y-69140256D01*
X139539975Y-69331458D01*
X139587776Y-69427058D01*
X139635576Y-69474859D01*
X139731177Y-69522659D01*
X139970179Y-69522659D01*
X140065780Y-69474859D01*
X140113581Y-69427058D01*
X140161381Y-69331458D01*
X140161381Y-69140256D01*
X140113581Y-69044655D01*
X140065780Y-68996854D01*
X139970179Y-68949054D01*
X139635576Y-68566650D02*
X139587776Y-68518849D01*
X139539975Y-68423248D01*
X139539975Y-68184246D01*
X139587776Y-68088645D01*
X139635576Y-68040845D01*
X139731177Y-67993044D01*
X139826778Y-67993044D01*
X139970179Y-68040845D01*
X140543785Y-68614450D01*
X140543785Y-67993044D01*
X139539975Y-67371638D02*
X139539975Y-67276037D01*
X139587776Y-67180436D01*
X139635576Y-67132636D01*
X139731177Y-67084835D01*
X139922379Y-67037035D01*
X140161381Y-67037035D01*
X140352583Y-67084835D01*
X140448184Y-67132636D01*
X140495985Y-67180436D01*
X140543785Y-67276037D01*
X140543785Y-67371638D01*
X140495985Y-67467239D01*
X140448184Y-67515039D01*
X140352583Y-67562840D01*
X140161381Y-67610640D01*
X139922379Y-67610640D01*
X139731177Y-67562840D01*
X139635576Y-67515039D01*
X139587776Y-67467239D01*
X139539975Y-67371638D01*
X139539975Y-66176626D02*
X139539975Y-66367828D01*
X139587776Y-66463429D01*
X139635576Y-66511229D01*
X139778977Y-66606830D01*
X139970179Y-66654631D01*
X140352583Y-66654631D01*
X140448184Y-66606830D01*
X140495985Y-66559030D01*
X140543785Y-66463429D01*
X140543785Y-66272227D01*
X140495985Y-66176626D01*
X140448184Y-66128826D01*
X140352583Y-66081025D01*
X140113581Y-66081025D01*
X140017980Y-66128826D01*
X139970179Y-66176626D01*
X139922379Y-66272227D01*
X139922379Y-66463429D01*
X139970179Y-66559030D01*
X140017980Y-66606830D01*
X140113581Y-66654631D01*
X139874578Y-65220617D02*
X140543785Y-65220617D01*
X139492175Y-65459619D02*
X140209182Y-65698621D01*
X140209182Y-65077215D01*
X140495985Y-64742612D02*
X140543785Y-64599210D01*
X140543785Y-64360208D01*
X140495985Y-64264607D01*
X140448184Y-64216807D01*
X140352583Y-64169006D01*
X140256982Y-64169006D01*
X140161381Y-64216807D01*
X140113581Y-64264607D01*
X140065780Y-64360208D01*
X140017980Y-64551410D01*
X139970179Y-64647011D01*
X139922379Y-64694811D01*
X139826778Y-64742612D01*
X139731177Y-64742612D01*
X139635576Y-64694811D01*
X139587776Y-64647011D01*
X139539975Y-64551410D01*
X139539975Y-64312408D01*
X139587776Y-64169006D01*
X140543785Y-63738802D02*
X139539975Y-63738802D01*
X139539975Y-63499799D01*
X139587776Y-63356398D01*
X139683376Y-63260797D01*
X139778977Y-63212997D01*
X139970179Y-63165196D01*
X140113581Y-63165196D01*
X140304783Y-63212997D01*
X140400384Y-63260797D01*
X140495985Y-63356398D01*
X140543785Y-63499799D01*
X140543785Y-63738802D01*
%TO.C,C1*%
D11*
X108037333Y-83288142D02*
X107989714Y-83335761D01*
X107846857Y-83383380D01*
X107751619Y-83383380D01*
X107608761Y-83335761D01*
X107513523Y-83240523D01*
X107465904Y-83145285D01*
X107418285Y-82954809D01*
X107418285Y-82811952D01*
X107465904Y-82621476D01*
X107513523Y-82526238D01*
X107608761Y-82431000D01*
X107751619Y-82383380D01*
X107846857Y-82383380D01*
X107989714Y-82431000D01*
X108037333Y-82478619D01*
X108989714Y-83383380D02*
X108418285Y-83383380D01*
X108704000Y-83383380D02*
X108704000Y-82383380D01*
X108608761Y-82526238D01*
X108513523Y-82621476D01*
X108418285Y-82669095D01*
%TO.C,C2*%
X101687333Y-83288142D02*
X101639714Y-83335761D01*
X101496857Y-83383380D01*
X101401619Y-83383380D01*
X101258761Y-83335761D01*
X101163523Y-83240523D01*
X101115904Y-83145285D01*
X101068285Y-82954809D01*
X101068285Y-82811952D01*
X101115904Y-82621476D01*
X101163523Y-82526238D01*
X101258761Y-82431000D01*
X101401619Y-82383380D01*
X101496857Y-82383380D01*
X101639714Y-82431000D01*
X101687333Y-82478619D01*
X102068285Y-82478619D02*
X102115904Y-82431000D01*
X102211142Y-82383380D01*
X102449238Y-82383380D01*
X102544476Y-82431000D01*
X102592095Y-82478619D01*
X102639714Y-82573857D01*
X102639714Y-82669095D01*
X102592095Y-82811952D01*
X102020666Y-83383380D01*
X102639714Y-83383380D01*
%TO.C,C3*%
X98512333Y-83288142D02*
X98464714Y-83335761D01*
X98321857Y-83383380D01*
X98226619Y-83383380D01*
X98083761Y-83335761D01*
X97988523Y-83240523D01*
X97940904Y-83145285D01*
X97893285Y-82954809D01*
X97893285Y-82811952D01*
X97940904Y-82621476D01*
X97988523Y-82526238D01*
X98083761Y-82431000D01*
X98226619Y-82383380D01*
X98321857Y-82383380D01*
X98464714Y-82431000D01*
X98512333Y-82478619D01*
X98845666Y-82383380D02*
X99464714Y-82383380D01*
X99131380Y-82764333D01*
X99274238Y-82764333D01*
X99369476Y-82811952D01*
X99417095Y-82859571D01*
X99464714Y-82954809D01*
X99464714Y-83192904D01*
X99417095Y-83288142D01*
X99369476Y-83335761D01*
X99274238Y-83383380D01*
X98988523Y-83383380D01*
X98893285Y-83335761D01*
X98845666Y-83288142D01*
%TO.C,C4*%
X92035333Y-83288142D02*
X91987714Y-83335761D01*
X91844857Y-83383380D01*
X91749619Y-83383380D01*
X91606761Y-83335761D01*
X91511523Y-83240523D01*
X91463904Y-83145285D01*
X91416285Y-82954809D01*
X91416285Y-82811952D01*
X91463904Y-82621476D01*
X91511523Y-82526238D01*
X91606761Y-82431000D01*
X91749619Y-82383380D01*
X91844857Y-82383380D01*
X91987714Y-82431000D01*
X92035333Y-82478619D01*
X92892476Y-82716714D02*
X92892476Y-83383380D01*
X92654380Y-82335761D02*
X92416285Y-83050047D01*
X93035333Y-83050047D01*
%TO.C,Q2*%
X91344761Y-70143619D02*
X91249523Y-70096000D01*
X91154285Y-70000761D01*
X91011428Y-69857904D01*
X90916190Y-69810285D01*
X90820952Y-69810285D01*
X90868571Y-70048380D02*
X90773333Y-70000761D01*
X90678095Y-69905523D01*
X90630476Y-69715047D01*
X90630476Y-69381714D01*
X90678095Y-69191238D01*
X90773333Y-69096000D01*
X90868571Y-69048380D01*
X91059047Y-69048380D01*
X91154285Y-69096000D01*
X91249523Y-69191238D01*
X91297142Y-69381714D01*
X91297142Y-69715047D01*
X91249523Y-69905523D01*
X91154285Y-70000761D01*
X91059047Y-70048380D01*
X90868571Y-70048380D01*
X91678095Y-69143619D02*
X91725714Y-69096000D01*
X91820952Y-69048380D01*
X92059047Y-69048380D01*
X92154285Y-69096000D01*
X92201904Y-69143619D01*
X92249523Y-69238857D01*
X92249523Y-69334095D01*
X92201904Y-69476952D01*
X91630476Y-70048380D01*
X92249523Y-70048380D01*
%TO.C,Q3*%
X102266761Y-70143619D02*
X102171523Y-70096000D01*
X102076285Y-70000761D01*
X101933428Y-69857904D01*
X101838190Y-69810285D01*
X101742952Y-69810285D01*
X101790571Y-70048380D02*
X101695333Y-70000761D01*
X101600095Y-69905523D01*
X101552476Y-69715047D01*
X101552476Y-69381714D01*
X101600095Y-69191238D01*
X101695333Y-69096000D01*
X101790571Y-69048380D01*
X101981047Y-69048380D01*
X102076285Y-69096000D01*
X102171523Y-69191238D01*
X102219142Y-69381714D01*
X102219142Y-69715047D01*
X102171523Y-69905523D01*
X102076285Y-70000761D01*
X101981047Y-70048380D01*
X101790571Y-70048380D01*
X102552476Y-69048380D02*
X103171523Y-69048380D01*
X102838190Y-69429333D01*
X102981047Y-69429333D01*
X103076285Y-69476952D01*
X103123904Y-69524571D01*
X103171523Y-69619809D01*
X103171523Y-69857904D01*
X103123904Y-69953142D01*
X103076285Y-70000761D01*
X102981047Y-70048380D01*
X102695333Y-70048380D01*
X102600095Y-70000761D01*
X102552476Y-69953142D01*
%TO.C,Q4*%
X113188761Y-70143619D02*
X113093523Y-70096000D01*
X112998285Y-70000761D01*
X112855428Y-69857904D01*
X112760190Y-69810285D01*
X112664952Y-69810285D01*
X112712571Y-70048380D02*
X112617333Y-70000761D01*
X112522095Y-69905523D01*
X112474476Y-69715047D01*
X112474476Y-69381714D01*
X112522095Y-69191238D01*
X112617333Y-69096000D01*
X112712571Y-69048380D01*
X112903047Y-69048380D01*
X112998285Y-69096000D01*
X113093523Y-69191238D01*
X113141142Y-69381714D01*
X113141142Y-69715047D01*
X113093523Y-69905523D01*
X112998285Y-70000761D01*
X112903047Y-70048380D01*
X112712571Y-70048380D01*
X113998285Y-69381714D02*
X113998285Y-70048380D01*
X113760190Y-69000761D02*
X113522095Y-69715047D01*
X114141142Y-69715047D01*
%TO.C,R1*%
X111212333Y-83256380D02*
X110879000Y-82780190D01*
X110640904Y-83256380D02*
X110640904Y-82256380D01*
X111021857Y-82256380D01*
X111117095Y-82304000D01*
X111164714Y-82351619D01*
X111212333Y-82446857D01*
X111212333Y-82589714D01*
X111164714Y-82684952D01*
X111117095Y-82732571D01*
X111021857Y-82780190D01*
X110640904Y-82780190D01*
X112164714Y-83256380D02*
X111593285Y-83256380D01*
X111879000Y-83256380D02*
X111879000Y-82256380D01*
X111783761Y-82399238D01*
X111688523Y-82494476D01*
X111593285Y-82542095D01*
%TO.C,R2*%
X95337333Y-83256380D02*
X95004000Y-82780190D01*
X94765904Y-83256380D02*
X94765904Y-82256380D01*
X95146857Y-82256380D01*
X95242095Y-82304000D01*
X95289714Y-82351619D01*
X95337333Y-82446857D01*
X95337333Y-82589714D01*
X95289714Y-82684952D01*
X95242095Y-82732571D01*
X95146857Y-82780190D01*
X94765904Y-82780190D01*
X95718285Y-82351619D02*
X95765904Y-82304000D01*
X95861142Y-82256380D01*
X96099238Y-82256380D01*
X96194476Y-82304000D01*
X96242095Y-82351619D01*
X96289714Y-82446857D01*
X96289714Y-82542095D01*
X96242095Y-82684952D01*
X95670666Y-83256380D01*
X96289714Y-83256380D01*
%TO.C,R7*%
X104735333Y-78938380D02*
X104402000Y-78462190D01*
X104163904Y-78938380D02*
X104163904Y-77938380D01*
X104544857Y-77938380D01*
X104640095Y-77986000D01*
X104687714Y-78033619D01*
X104735333Y-78128857D01*
X104735333Y-78271714D01*
X104687714Y-78366952D01*
X104640095Y-78414571D01*
X104544857Y-78462190D01*
X104163904Y-78462190D01*
X105068666Y-77938380D02*
X105735333Y-77938380D01*
X105306761Y-78938380D01*
%TO.C,R8*%
X104735333Y-83383380D02*
X104402000Y-82907190D01*
X104163904Y-83383380D02*
X104163904Y-82383380D01*
X104544857Y-82383380D01*
X104640095Y-82431000D01*
X104687714Y-82478619D01*
X104735333Y-82573857D01*
X104735333Y-82716714D01*
X104687714Y-82811952D01*
X104640095Y-82859571D01*
X104544857Y-82907190D01*
X104163904Y-82907190D01*
X105306761Y-82811952D02*
X105211523Y-82764333D01*
X105163904Y-82716714D01*
X105116285Y-82621476D01*
X105116285Y-82573857D01*
X105163904Y-82478619D01*
X105211523Y-82431000D01*
X105306761Y-82383380D01*
X105497238Y-82383380D01*
X105592476Y-82431000D01*
X105640095Y-82478619D01*
X105687714Y-82573857D01*
X105687714Y-82621476D01*
X105640095Y-82716714D01*
X105592476Y-82764333D01*
X105497238Y-82811952D01*
X105306761Y-82811952D01*
X105211523Y-82859571D01*
X105163904Y-82907190D01*
X105116285Y-83002428D01*
X105116285Y-83192904D01*
X105163904Y-83288142D01*
X105211523Y-83335761D01*
X105306761Y-83383380D01*
X105497238Y-83383380D01*
X105592476Y-83335761D01*
X105640095Y-83288142D01*
X105687714Y-83192904D01*
X105687714Y-83002428D01*
X105640095Y-82907190D01*
X105592476Y-82859571D01*
X105497238Y-82811952D01*
%TO.C,R9*%
X108478962Y-86653666D02*
X108002772Y-86987000D01*
X108478962Y-87225095D02*
X107478962Y-87225095D01*
X107478962Y-86844142D01*
X107526582Y-86748904D01*
X107574201Y-86701285D01*
X107669439Y-86653666D01*
X107812296Y-86653666D01*
X107907534Y-86701285D01*
X107955153Y-86748904D01*
X108002772Y-86844142D01*
X108002772Y-87225095D01*
X108478962Y-86177476D02*
X108478962Y-85987000D01*
X108431343Y-85891761D01*
X108383724Y-85844142D01*
X108240867Y-85748904D01*
X108050391Y-85701285D01*
X107669439Y-85701285D01*
X107574201Y-85748904D01*
X107526582Y-85796523D01*
X107478962Y-85891761D01*
X107478962Y-86082238D01*
X107526582Y-86177476D01*
X107574201Y-86225095D01*
X107669439Y-86272714D01*
X107907534Y-86272714D01*
X108002772Y-86225095D01*
X108050391Y-86177476D01*
X108098010Y-86082238D01*
X108098010Y-85891761D01*
X108050391Y-85796523D01*
X108002772Y-85748904D01*
X107907534Y-85701285D01*
%TO.C,R10*%
X103817000Y-88336380D02*
X103583666Y-87860190D01*
X103417000Y-88336380D02*
X103417000Y-87336380D01*
X103683666Y-87336380D01*
X103750333Y-87384000D01*
X103783666Y-87431619D01*
X103817000Y-87526857D01*
X103817000Y-87669714D01*
X103783666Y-87764952D01*
X103750333Y-87812571D01*
X103683666Y-87860190D01*
X103417000Y-87860190D01*
X104483666Y-88336380D02*
X104083666Y-88336380D01*
X104283666Y-88336380D02*
X104283666Y-87336380D01*
X104217000Y-87479238D01*
X104150333Y-87574476D01*
X104083666Y-87622095D01*
X104917000Y-87336380D02*
X104983666Y-87336380D01*
X105050333Y-87384000D01*
X105083666Y-87431619D01*
X105117000Y-87526857D01*
X105150333Y-87717333D01*
X105150333Y-87955428D01*
X105117000Y-88145904D01*
X105083666Y-88241142D01*
X105050333Y-88288761D01*
X104983666Y-88336380D01*
X104917000Y-88336380D01*
X104850333Y-88288761D01*
X104817000Y-88241142D01*
X104783666Y-88145904D01*
X104750333Y-87955428D01*
X104750333Y-87717333D01*
X104783666Y-87526857D01*
X104817000Y-87431619D01*
X104850333Y-87384000D01*
X104917000Y-87336380D01*
%TO.C,U5*%
X135517776Y-90900123D02*
X135517776Y-91709647D01*
X135565395Y-91804885D01*
X135613014Y-91852504D01*
X135708252Y-91900123D01*
X135898728Y-91900123D01*
X135993966Y-91852504D01*
X136041585Y-91804885D01*
X136089204Y-91709647D01*
X136089204Y-90900123D01*
X137041585Y-90900123D02*
X136565395Y-90900123D01*
X136517776Y-91376314D01*
X136565395Y-91328695D01*
X136660633Y-91281076D01*
X136898728Y-91281076D01*
X136993966Y-91328695D01*
X137041585Y-91376314D01*
X137089204Y-91471552D01*
X137089204Y-91709647D01*
X137041585Y-91804885D01*
X136993966Y-91852504D01*
X136898728Y-91900123D01*
X136660633Y-91900123D01*
X136565395Y-91852504D01*
X136517776Y-91804885D01*
%TO.C,R3*%
X80732333Y-58999380D02*
X80399000Y-58523190D01*
X80160904Y-58999380D02*
X80160904Y-57999380D01*
X80541857Y-57999380D01*
X80637095Y-58047000D01*
X80684714Y-58094619D01*
X80732333Y-58189857D01*
X80732333Y-58332714D01*
X80684714Y-58427952D01*
X80637095Y-58475571D01*
X80541857Y-58523190D01*
X80160904Y-58523190D01*
X81065666Y-57999380D02*
X81684714Y-57999380D01*
X81351380Y-58380333D01*
X81494238Y-58380333D01*
X81589476Y-58427952D01*
X81637095Y-58475571D01*
X81684714Y-58570809D01*
X81684714Y-58808904D01*
X81637095Y-58904142D01*
X81589476Y-58951761D01*
X81494238Y-58999380D01*
X81208523Y-58999380D01*
X81113285Y-58951761D01*
X81065666Y-58904142D01*
%TO.C,R4*%
X91813618Y-58872380D02*
X91480285Y-58396190D01*
X91242189Y-58872380D02*
X91242189Y-57872380D01*
X91623142Y-57872380D01*
X91718380Y-57920000D01*
X91765999Y-57967619D01*
X91813618Y-58062857D01*
X91813618Y-58205714D01*
X91765999Y-58300952D01*
X91718380Y-58348571D01*
X91623142Y-58396190D01*
X91242189Y-58396190D01*
X92670761Y-58205714D02*
X92670761Y-58872380D01*
X92432665Y-57824761D02*
X92194570Y-58539047D01*
X92813618Y-58539047D01*
%TO.C,R5*%
X102742754Y-58999380D02*
X102409421Y-58523190D01*
X102171325Y-58999380D02*
X102171325Y-57999380D01*
X102552278Y-57999380D01*
X102647516Y-58047000D01*
X102695135Y-58094619D01*
X102742754Y-58189857D01*
X102742754Y-58332714D01*
X102695135Y-58427952D01*
X102647516Y-58475571D01*
X102552278Y-58523190D01*
X102171325Y-58523190D01*
X103647516Y-57999380D02*
X103171325Y-57999380D01*
X103123706Y-58475571D01*
X103171325Y-58427952D01*
X103266563Y-58380333D01*
X103504659Y-58380333D01*
X103599897Y-58427952D01*
X103647516Y-58475571D01*
X103695135Y-58570809D01*
X103695135Y-58808904D01*
X103647516Y-58904142D01*
X103599897Y-58951761D01*
X103504659Y-58999380D01*
X103266563Y-58999380D01*
X103171325Y-58951761D01*
X103123706Y-58904142D01*
%TO.C,R6*%
X113689226Y-58999380D02*
X113355893Y-58523190D01*
X113117797Y-58999380D02*
X113117797Y-57999380D01*
X113498750Y-57999380D01*
X113593988Y-58047000D01*
X113641607Y-58094619D01*
X113689226Y-58189857D01*
X113689226Y-58332714D01*
X113641607Y-58427952D01*
X113593988Y-58475571D01*
X113498750Y-58523190D01*
X113117797Y-58523190D01*
X114546369Y-57999380D02*
X114355893Y-57999380D01*
X114260654Y-58047000D01*
X114213035Y-58094619D01*
X114117797Y-58237476D01*
X114070178Y-58427952D01*
X114070178Y-58808904D01*
X114117797Y-58904142D01*
X114165416Y-58951761D01*
X114260654Y-58999380D01*
X114451131Y-58999380D01*
X114546369Y-58951761D01*
X114593988Y-58904142D01*
X114641607Y-58808904D01*
X114641607Y-58570809D01*
X114593988Y-58475571D01*
X114546369Y-58427952D01*
X114451131Y-58380333D01*
X114260654Y-58380333D01*
X114165416Y-58427952D01*
X114117797Y-58475571D01*
X114070178Y-58570809D01*
%TO.C,C6*%
X81129142Y-93384666D02*
X81176761Y-93432285D01*
X81224380Y-93575142D01*
X81224380Y-93670380D01*
X81176761Y-93813238D01*
X81081523Y-93908476D01*
X80986285Y-93956095D01*
X80795809Y-94003714D01*
X80652952Y-94003714D01*
X80462476Y-93956095D01*
X80367238Y-93908476D01*
X80272000Y-93813238D01*
X80224380Y-93670380D01*
X80224380Y-93575142D01*
X80272000Y-93432285D01*
X80319619Y-93384666D01*
X80224380Y-92527523D02*
X80224380Y-92718000D01*
X80272000Y-92813238D01*
X80319619Y-92860857D01*
X80462476Y-92956095D01*
X80652952Y-93003714D01*
X81033904Y-93003714D01*
X81129142Y-92956095D01*
X81176761Y-92908476D01*
X81224380Y-92813238D01*
X81224380Y-92622761D01*
X81176761Y-92527523D01*
X81129142Y-92479904D01*
X81033904Y-92432285D01*
X80795809Y-92432285D01*
X80700571Y-92479904D01*
X80652952Y-92527523D01*
X80605333Y-92622761D01*
X80605333Y-92813238D01*
X80652952Y-92908476D01*
X80700571Y-92956095D01*
X80795809Y-93003714D01*
%TO.C,C7*%
X81129142Y-91098666D02*
X81176761Y-91146285D01*
X81224380Y-91289142D01*
X81224380Y-91384380D01*
X81176761Y-91527238D01*
X81081523Y-91622476D01*
X80986285Y-91670095D01*
X80795809Y-91717714D01*
X80652952Y-91717714D01*
X80462476Y-91670095D01*
X80367238Y-91622476D01*
X80272000Y-91527238D01*
X80224380Y-91384380D01*
X80224380Y-91289142D01*
X80272000Y-91146285D01*
X80319619Y-91098666D01*
X80224380Y-90765333D02*
X80224380Y-90098666D01*
X81224380Y-90527238D01*
%TO.C,C8*%
X81129142Y-95543666D02*
X81176761Y-95591285D01*
X81224380Y-95734142D01*
X81224380Y-95829380D01*
X81176761Y-95972238D01*
X81081523Y-96067476D01*
X80986285Y-96115095D01*
X80795809Y-96162714D01*
X80652952Y-96162714D01*
X80462476Y-96115095D01*
X80367238Y-96067476D01*
X80272000Y-95972238D01*
X80224380Y-95829380D01*
X80224380Y-95734142D01*
X80272000Y-95591285D01*
X80319619Y-95543666D01*
X80652952Y-94972238D02*
X80605333Y-95067476D01*
X80557714Y-95115095D01*
X80462476Y-95162714D01*
X80414857Y-95162714D01*
X80319619Y-95115095D01*
X80272000Y-95067476D01*
X80224380Y-94972238D01*
X80224380Y-94781761D01*
X80272000Y-94686523D01*
X80319619Y-94638904D01*
X80414857Y-94591285D01*
X80462476Y-94591285D01*
X80557714Y-94638904D01*
X80605333Y-94686523D01*
X80652952Y-94781761D01*
X80652952Y-94972238D01*
X80700571Y-95067476D01*
X80748190Y-95115095D01*
X80843428Y-95162714D01*
X81033904Y-95162714D01*
X81129142Y-95115095D01*
X81176761Y-95067476D01*
X81224380Y-94972238D01*
X81224380Y-94781761D01*
X81176761Y-94686523D01*
X81129142Y-94638904D01*
X81033904Y-94591285D01*
X80843428Y-94591285D01*
X80748190Y-94638904D01*
X80700571Y-94686523D01*
X80652952Y-94781761D01*
%TO.C,C9*%
X143613142Y-56935666D02*
X143660761Y-56983285D01*
X143708380Y-57126142D01*
X143708380Y-57221380D01*
X143660761Y-57364238D01*
X143565523Y-57459476D01*
X143470285Y-57507095D01*
X143279809Y-57554714D01*
X143136952Y-57554714D01*
X142946476Y-57507095D01*
X142851238Y-57459476D01*
X142756000Y-57364238D01*
X142708380Y-57221380D01*
X142708380Y-57126142D01*
X142756000Y-56983285D01*
X142803619Y-56935666D01*
X143708380Y-56459476D02*
X143708380Y-56269000D01*
X143660761Y-56173761D01*
X143613142Y-56126142D01*
X143470285Y-56030904D01*
X143279809Y-55983285D01*
X142898857Y-55983285D01*
X142803619Y-56030904D01*
X142756000Y-56078523D01*
X142708380Y-56173761D01*
X142708380Y-56364238D01*
X142756000Y-56459476D01*
X142803619Y-56507095D01*
X142898857Y-56554714D01*
X143136952Y-56554714D01*
X143232190Y-56507095D01*
X143279809Y-56459476D01*
X143327428Y-56364238D01*
X143327428Y-56173761D01*
X143279809Y-56078523D01*
X143232190Y-56030904D01*
X143136952Y-55983285D01*
%TO.C,C10*%
X143486142Y-54933000D02*
X143533761Y-54966333D01*
X143581380Y-55066333D01*
X143581380Y-55133000D01*
X143533761Y-55233000D01*
X143438523Y-55299666D01*
X143343285Y-55333000D01*
X143152809Y-55366333D01*
X143009952Y-55366333D01*
X142819476Y-55333000D01*
X142724238Y-55299666D01*
X142629000Y-55233000D01*
X142581380Y-55133000D01*
X142581380Y-55066333D01*
X142629000Y-54966333D01*
X142676619Y-54933000D01*
X143581380Y-54266333D02*
X143581380Y-54666333D01*
X143581380Y-54466333D02*
X142581380Y-54466333D01*
X142724238Y-54533000D01*
X142819476Y-54599666D01*
X142867095Y-54666333D01*
X142581380Y-53833000D02*
X142581380Y-53766333D01*
X142629000Y-53699666D01*
X142676619Y-53666333D01*
X142771857Y-53633000D01*
X142962333Y-53599666D01*
X143200428Y-53599666D01*
X143390904Y-53633000D01*
X143486142Y-53666333D01*
X143533761Y-53699666D01*
X143581380Y-53766333D01*
X143581380Y-53833000D01*
X143533761Y-53899666D01*
X143486142Y-53933000D01*
X143390904Y-53966333D01*
X143200428Y-53999666D01*
X142962333Y-53999666D01*
X142771857Y-53966333D01*
X142676619Y-53933000D01*
X142629000Y-53899666D01*
X142581380Y-53833000D01*
%TO.C,J2*%
X77755380Y-88217333D02*
X78469666Y-88217333D01*
X78612523Y-88264952D01*
X78707761Y-88360190D01*
X78755380Y-88503047D01*
X78755380Y-88598285D01*
X77850619Y-87788761D02*
X77803000Y-87741142D01*
X77755380Y-87645904D01*
X77755380Y-87407809D01*
X77803000Y-87312571D01*
X77850619Y-87264952D01*
X77945857Y-87217333D01*
X78041095Y-87217333D01*
X78183952Y-87264952D01*
X78755380Y-87836380D01*
X78755380Y-87217333D01*
%TO.C,R11*%
X81224380Y-89096000D02*
X80748190Y-89329333D01*
X81224380Y-89496000D02*
X80224380Y-89496000D01*
X80224380Y-89229333D01*
X80272000Y-89162666D01*
X80319619Y-89129333D01*
X80414857Y-89096000D01*
X80557714Y-89096000D01*
X80652952Y-89129333D01*
X80700571Y-89162666D01*
X80748190Y-89229333D01*
X80748190Y-89496000D01*
X81224380Y-88429333D02*
X81224380Y-88829333D01*
X81224380Y-88629333D02*
X80224380Y-88629333D01*
X80367238Y-88696000D01*
X80462476Y-88762666D01*
X80510095Y-88829333D01*
X81224380Y-87762666D02*
X81224380Y-88162666D01*
X81224380Y-87962666D02*
X80224380Y-87962666D01*
X80367238Y-88029333D01*
X80462476Y-88096000D01*
X80510095Y-88162666D01*
%TO.C,R19*%
X81224380Y-86683000D02*
X80748190Y-86916333D01*
X81224380Y-87083000D02*
X80224380Y-87083000D01*
X80224380Y-86816333D01*
X80272000Y-86749666D01*
X80319619Y-86716333D01*
X80414857Y-86683000D01*
X80557714Y-86683000D01*
X80652952Y-86716333D01*
X80700571Y-86749666D01*
X80748190Y-86816333D01*
X80748190Y-87083000D01*
X81224380Y-86016333D02*
X81224380Y-86416333D01*
X81224380Y-86216333D02*
X80224380Y-86216333D01*
X80367238Y-86283000D01*
X80462476Y-86349666D01*
X80510095Y-86416333D01*
X81224380Y-85683000D02*
X81224380Y-85549666D01*
X81176761Y-85483000D01*
X81129142Y-85449666D01*
X80986285Y-85383000D01*
X80795809Y-85349666D01*
X80414857Y-85349666D01*
X80319619Y-85383000D01*
X80272000Y-85416333D01*
X80224380Y-85483000D01*
X80224380Y-85616333D01*
X80272000Y-85683000D01*
X80319619Y-85716333D01*
X80414857Y-85749666D01*
X80652952Y-85749666D01*
X80748190Y-85716333D01*
X80795809Y-85683000D01*
X80843428Y-85616333D01*
X80843428Y-85483000D01*
X80795809Y-85416333D01*
X80748190Y-85383000D01*
X80652952Y-85349666D01*
%TO.C,R20*%
X81224380Y-84270000D02*
X80748190Y-84503333D01*
X81224380Y-84670000D02*
X80224380Y-84670000D01*
X80224380Y-84403333D01*
X80272000Y-84336666D01*
X80319619Y-84303333D01*
X80414857Y-84270000D01*
X80557714Y-84270000D01*
X80652952Y-84303333D01*
X80700571Y-84336666D01*
X80748190Y-84403333D01*
X80748190Y-84670000D01*
X80319619Y-84003333D02*
X80272000Y-83970000D01*
X80224380Y-83903333D01*
X80224380Y-83736666D01*
X80272000Y-83670000D01*
X80319619Y-83636666D01*
X80414857Y-83603333D01*
X80510095Y-83603333D01*
X80652952Y-83636666D01*
X81224380Y-84036666D01*
X81224380Y-83603333D01*
X80224380Y-83170000D02*
X80224380Y-83103333D01*
X80272000Y-83036666D01*
X80319619Y-83003333D01*
X80414857Y-82970000D01*
X80605333Y-82936666D01*
X80843428Y-82936666D01*
X81033904Y-82970000D01*
X81129142Y-83003333D01*
X81176761Y-83036666D01*
X81224380Y-83103333D01*
X81224380Y-83170000D01*
X81176761Y-83236666D01*
X81129142Y-83270000D01*
X81033904Y-83303333D01*
X80843428Y-83336666D01*
X80605333Y-83336666D01*
X80414857Y-83303333D01*
X80319619Y-83270000D01*
X80272000Y-83236666D01*
X80224380Y-83170000D01*
%TO.C,R21*%
X81224380Y-81857000D02*
X80748190Y-82090333D01*
X81224380Y-82257000D02*
X80224380Y-82257000D01*
X80224380Y-81990333D01*
X80272000Y-81923666D01*
X80319619Y-81890333D01*
X80414857Y-81857000D01*
X80557714Y-81857000D01*
X80652952Y-81890333D01*
X80700571Y-81923666D01*
X80748190Y-81990333D01*
X80748190Y-82257000D01*
X80319619Y-81590333D02*
X80272000Y-81557000D01*
X80224380Y-81490333D01*
X80224380Y-81323666D01*
X80272000Y-81257000D01*
X80319619Y-81223666D01*
X80414857Y-81190333D01*
X80510095Y-81190333D01*
X80652952Y-81223666D01*
X81224380Y-81623666D01*
X81224380Y-81190333D01*
X81224380Y-80523666D02*
X81224380Y-80923666D01*
X81224380Y-80723666D02*
X80224380Y-80723666D01*
X80367238Y-80790333D01*
X80462476Y-80857000D01*
X80510095Y-80923666D01*
%TO.C,R22*%
X81797289Y-77158000D02*
X81321099Y-77391333D01*
X81797289Y-77558000D02*
X80797289Y-77558000D01*
X80797289Y-77291333D01*
X80844909Y-77224666D01*
X80892528Y-77191333D01*
X80987766Y-77158000D01*
X81130623Y-77158000D01*
X81225861Y-77191333D01*
X81273480Y-77224666D01*
X81321099Y-77291333D01*
X81321099Y-77558000D01*
X80892528Y-76891333D02*
X80844909Y-76858000D01*
X80797289Y-76791333D01*
X80797289Y-76624666D01*
X80844909Y-76558000D01*
X80892528Y-76524666D01*
X80987766Y-76491333D01*
X81083004Y-76491333D01*
X81225861Y-76524666D01*
X81797289Y-76924666D01*
X81797289Y-76491333D01*
X80892528Y-76224666D02*
X80844909Y-76191333D01*
X80797289Y-76124666D01*
X80797289Y-75958000D01*
X80844909Y-75891333D01*
X80892528Y-75858000D01*
X80987766Y-75824666D01*
X81083004Y-75824666D01*
X81225861Y-75858000D01*
X81797289Y-76258000D01*
X81797289Y-75824666D01*
%TO.C,R23*%
X81805847Y-79571000D02*
X81329657Y-79804333D01*
X81805847Y-79971000D02*
X80805847Y-79971000D01*
X80805847Y-79704333D01*
X80853467Y-79637666D01*
X80901086Y-79604333D01*
X80996324Y-79571000D01*
X81139181Y-79571000D01*
X81234419Y-79604333D01*
X81282038Y-79637666D01*
X81329657Y-79704333D01*
X81329657Y-79971000D01*
X80901086Y-79304333D02*
X80853467Y-79271000D01*
X80805847Y-79204333D01*
X80805847Y-79037666D01*
X80853467Y-78971000D01*
X80901086Y-78937666D01*
X80996324Y-78904333D01*
X81091562Y-78904333D01*
X81234419Y-78937666D01*
X81805847Y-79337666D01*
X81805847Y-78904333D01*
X80805847Y-78671000D02*
X80805847Y-78237666D01*
X81186800Y-78471000D01*
X81186800Y-78371000D01*
X81234419Y-78304333D01*
X81282038Y-78271000D01*
X81377276Y-78237666D01*
X81615371Y-78237666D01*
X81710609Y-78271000D01*
X81758228Y-78304333D01*
X81805847Y-78371000D01*
X81805847Y-78571000D01*
X81758228Y-78637666D01*
X81710609Y-78671000D01*
%TO.C,R24*%
X81667471Y-74649342D02*
X81191281Y-74882675D01*
X81667471Y-75049342D02*
X80667471Y-75049342D01*
X80667471Y-74782675D01*
X80715091Y-74716008D01*
X80762710Y-74682675D01*
X80857948Y-74649342D01*
X81000805Y-74649342D01*
X81096043Y-74682675D01*
X81143662Y-74716008D01*
X81191281Y-74782675D01*
X81191281Y-75049342D01*
X80762710Y-74382675D02*
X80715091Y-74349342D01*
X80667471Y-74282675D01*
X80667471Y-74116008D01*
X80715091Y-74049342D01*
X80762710Y-74016008D01*
X80857948Y-73982675D01*
X80953186Y-73982675D01*
X81096043Y-74016008D01*
X81667471Y-74416008D01*
X81667471Y-73982675D01*
X81000805Y-73382675D02*
X81667471Y-73382675D01*
X80619852Y-73549342D02*
X81334138Y-73716008D01*
X81334138Y-73282675D01*
%TO.C,U1*%
X86066380Y-88010904D02*
X86875904Y-88010904D01*
X86971142Y-87963285D01*
X87018761Y-87915666D01*
X87066380Y-87820428D01*
X87066380Y-87629952D01*
X87018761Y-87534714D01*
X86971142Y-87487095D01*
X86875904Y-87439476D01*
X86066380Y-87439476D01*
X87066380Y-86439476D02*
X87066380Y-87010904D01*
X87066380Y-86725190D02*
X86066380Y-86725190D01*
X86209238Y-86820428D01*
X86304476Y-86915666D01*
X86352095Y-87010904D01*
%TO.C,R25*%
X87307000Y-81097380D02*
X87073666Y-80621190D01*
X86907000Y-81097380D02*
X86907000Y-80097380D01*
X87173666Y-80097380D01*
X87240333Y-80145000D01*
X87273666Y-80192619D01*
X87307000Y-80287857D01*
X87307000Y-80430714D01*
X87273666Y-80525952D01*
X87240333Y-80573571D01*
X87173666Y-80621190D01*
X86907000Y-80621190D01*
X87573666Y-80192619D02*
X87607000Y-80145000D01*
X87673666Y-80097380D01*
X87840333Y-80097380D01*
X87907000Y-80145000D01*
X87940333Y-80192619D01*
X87973666Y-80287857D01*
X87973666Y-80383095D01*
X87940333Y-80525952D01*
X87540333Y-81097380D01*
X87973666Y-81097380D01*
X88607000Y-80097380D02*
X88273666Y-80097380D01*
X88240333Y-80573571D01*
X88273666Y-80525952D01*
X88340333Y-80478333D01*
X88507000Y-80478333D01*
X88573666Y-80525952D01*
X88607000Y-80573571D01*
X88640333Y-80668809D01*
X88640333Y-80906904D01*
X88607000Y-81002142D01*
X88573666Y-81049761D01*
X88507000Y-81097380D01*
X88340333Y-81097380D01*
X88273666Y-81049761D01*
X88240333Y-81002142D01*
%TO.C,R26*%
X114993000Y-76038380D02*
X114759666Y-75562190D01*
X114593000Y-76038380D02*
X114593000Y-75038380D01*
X114859666Y-75038380D01*
X114926333Y-75086000D01*
X114959666Y-75133619D01*
X114993000Y-75228857D01*
X114993000Y-75371714D01*
X114959666Y-75466952D01*
X114926333Y-75514571D01*
X114859666Y-75562190D01*
X114593000Y-75562190D01*
X115259666Y-75133619D02*
X115293000Y-75086000D01*
X115359666Y-75038380D01*
X115526333Y-75038380D01*
X115593000Y-75086000D01*
X115626333Y-75133619D01*
X115659666Y-75228857D01*
X115659666Y-75324095D01*
X115626333Y-75466952D01*
X115226333Y-76038380D01*
X115659666Y-76038380D01*
X116259666Y-75038380D02*
X116126333Y-75038380D01*
X116059666Y-75086000D01*
X116026333Y-75133619D01*
X115959666Y-75276476D01*
X115926333Y-75466952D01*
X115926333Y-75847904D01*
X115959666Y-75943142D01*
X115993000Y-75990761D01*
X116059666Y-76038380D01*
X116193000Y-76038380D01*
X116259666Y-75990761D01*
X116293000Y-75943142D01*
X116326333Y-75847904D01*
X116326333Y-75609809D01*
X116293000Y-75514571D01*
X116259666Y-75466952D01*
X116193000Y-75419333D01*
X116059666Y-75419333D01*
X115993000Y-75466952D01*
X115959666Y-75514571D01*
X115926333Y-75609809D01*
%TO.C,R27*%
X99131380Y-87318000D02*
X98655190Y-87551333D01*
X99131380Y-87718000D02*
X98131380Y-87718000D01*
X98131380Y-87451333D01*
X98179000Y-87384666D01*
X98226619Y-87351333D01*
X98321857Y-87318000D01*
X98464714Y-87318000D01*
X98559952Y-87351333D01*
X98607571Y-87384666D01*
X98655190Y-87451333D01*
X98655190Y-87718000D01*
X98226619Y-87051333D02*
X98179000Y-87018000D01*
X98131380Y-86951333D01*
X98131380Y-86784666D01*
X98179000Y-86718000D01*
X98226619Y-86684666D01*
X98321857Y-86651333D01*
X98417095Y-86651333D01*
X98559952Y-86684666D01*
X99131380Y-87084666D01*
X99131380Y-86651333D01*
X98131380Y-86418000D02*
X98131380Y-85951333D01*
X99131380Y-86251333D01*
%TO.C,J3*%
X145589666Y-51649380D02*
X145589666Y-52363666D01*
X145542047Y-52506523D01*
X145446809Y-52601761D01*
X145303952Y-52649380D01*
X145208714Y-52649380D01*
X145970619Y-51649380D02*
X146589666Y-51649380D01*
X146256333Y-52030333D01*
X146399190Y-52030333D01*
X146494428Y-52077952D01*
X146542047Y-52125571D01*
X146589666Y-52220809D01*
X146589666Y-52458904D01*
X146542047Y-52554142D01*
X146494428Y-52601761D01*
X146399190Y-52649380D01*
X146113476Y-52649380D01*
X146018238Y-52601761D01*
X145970619Y-52554142D01*
%TO.C,J5*%
X129511445Y-137307280D02*
X130225731Y-137307280D01*
X130368588Y-137354899D01*
X130463826Y-137450137D01*
X130511445Y-137592994D01*
X130511445Y-137688232D01*
X129511445Y-136354899D02*
X129511445Y-136831089D01*
X129987636Y-136878708D01*
X129940017Y-136831089D01*
X129892398Y-136735851D01*
X129892398Y-136497756D01*
X129940017Y-136402518D01*
X129987636Y-136354899D01*
X130082874Y-136307280D01*
X130320969Y-136307280D01*
X130416207Y-136354899D01*
X130463826Y-136402518D01*
X130511445Y-136497756D01*
X130511445Y-136735851D01*
X130463826Y-136831089D01*
X130416207Y-136878708D01*
%TO.C,J6*%
X151951445Y-127147280D02*
X152665731Y-127147280D01*
X152808588Y-127194899D01*
X152903826Y-127290137D01*
X152951445Y-127432994D01*
X152951445Y-127528232D01*
X151951445Y-126242518D02*
X151951445Y-126432994D01*
X151999065Y-126528232D01*
X152046684Y-126575851D01*
X152189541Y-126671089D01*
X152380017Y-126718708D01*
X152760969Y-126718708D01*
X152856207Y-126671089D01*
X152903826Y-126623470D01*
X152951445Y-126528232D01*
X152951445Y-126337756D01*
X152903826Y-126242518D01*
X152856207Y-126194899D01*
X152760969Y-126147280D01*
X152522874Y-126147280D01*
X152427636Y-126194899D01*
X152380017Y-126242518D01*
X152332398Y-126337756D01*
X152332398Y-126528232D01*
X152380017Y-126623470D01*
X152427636Y-126671089D01*
X152522874Y-126718708D01*
%TO.C,J8*%
X120523210Y-125642404D02*
X120523210Y-126356690D01*
X120475591Y-126499547D01*
X120380353Y-126594785D01*
X120237496Y-126642404D01*
X120142258Y-126642404D01*
X121142258Y-126070976D02*
X121047020Y-126023357D01*
X120999401Y-125975738D01*
X120951782Y-125880500D01*
X120951782Y-125832881D01*
X120999401Y-125737643D01*
X121047020Y-125690024D01*
X121142258Y-125642404D01*
X121332734Y-125642404D01*
X121427972Y-125690024D01*
X121475591Y-125737643D01*
X121523210Y-125832881D01*
X121523210Y-125880500D01*
X121475591Y-125975738D01*
X121427972Y-126023357D01*
X121332734Y-126070976D01*
X121142258Y-126070976D01*
X121047020Y-126118595D01*
X120999401Y-126166214D01*
X120951782Y-126261452D01*
X120951782Y-126451928D01*
X120999401Y-126547166D01*
X121047020Y-126594785D01*
X121142258Y-126642404D01*
X121332734Y-126642404D01*
X121427972Y-126594785D01*
X121475591Y-126547166D01*
X121523210Y-126451928D01*
X121523210Y-126261452D01*
X121475591Y-126166214D01*
X121427972Y-126118595D01*
X121332734Y-126070976D01*
%TO.C,U6*%
D18*
X137489650Y-132667240D02*
X138300631Y-132667240D01*
X138396040Y-132619535D01*
X138443745Y-132571830D01*
X138491450Y-132476421D01*
X138491450Y-132285602D01*
X138443745Y-132190192D01*
X138396040Y-132142487D01*
X138300631Y-132094783D01*
X137489650Y-132094783D01*
X137489650Y-131188392D02*
X137489650Y-131379211D01*
X137537355Y-131474621D01*
X137585059Y-131522325D01*
X137728174Y-131617735D01*
X137918993Y-131665440D01*
X138300631Y-131665440D01*
X138396040Y-131617735D01*
X138443745Y-131570030D01*
X138491450Y-131474621D01*
X138491450Y-131283802D01*
X138443745Y-131188392D01*
X138396040Y-131140687D01*
X138300631Y-131092983D01*
X138062107Y-131092983D01*
X137966697Y-131140687D01*
X137918993Y-131188392D01*
X137871288Y-131283802D01*
X137871288Y-131474621D01*
X137918993Y-131570030D01*
X137966697Y-131617735D01*
X138062107Y-131665440D01*
X145060789Y-135451498D02*
X145060789Y-135929502D01*
X144056979Y-135929502D01*
X145060789Y-135116894D02*
X144056979Y-135116894D01*
X144773986Y-134782291D01*
X144056979Y-134447688D01*
X145060789Y-134447688D01*
X145060789Y-133969683D02*
X144056979Y-133969683D01*
X144056979Y-133587279D01*
X144104780Y-133491678D01*
X144152580Y-133443878D01*
X144248181Y-133396077D01*
X144391582Y-133396077D01*
X144487183Y-133443878D01*
X144534984Y-133491678D01*
X144582784Y-133587279D01*
X144582784Y-133969683D01*
X145060789Y-132918072D02*
X145060789Y-132726871D01*
X145012989Y-132631270D01*
X144965188Y-132583469D01*
X144821787Y-132487868D01*
X144630585Y-132440068D01*
X144248181Y-132440068D01*
X144152580Y-132487868D01*
X144104780Y-132535669D01*
X144056979Y-132631270D01*
X144056979Y-132822472D01*
X144104780Y-132918072D01*
X144152580Y-132965873D01*
X144248181Y-133013673D01*
X144487183Y-133013673D01*
X144582784Y-132965873D01*
X144630585Y-132918072D01*
X144678385Y-132822472D01*
X144678385Y-132631270D01*
X144630585Y-132535669D01*
X144582784Y-132487868D01*
X144487183Y-132440068D01*
X144152580Y-132057664D02*
X144104780Y-132009863D01*
X144056979Y-131914262D01*
X144056979Y-131675260D01*
X144104780Y-131579659D01*
X144152580Y-131531859D01*
X144248181Y-131484058D01*
X144343782Y-131484058D01*
X144487183Y-131531859D01*
X145060789Y-132105464D01*
X145060789Y-131484058D01*
X144056979Y-130862652D02*
X144056979Y-130767051D01*
X144104780Y-130671450D01*
X144152580Y-130623650D01*
X144248181Y-130575849D01*
X144439383Y-130528049D01*
X144678385Y-130528049D01*
X144869587Y-130575849D01*
X144965188Y-130623650D01*
X145012989Y-130671450D01*
X145060789Y-130767051D01*
X145060789Y-130862652D01*
X145012989Y-130958253D01*
X144965188Y-131006053D01*
X144869587Y-131053854D01*
X144678385Y-131101654D01*
X144439383Y-131101654D01*
X144248181Y-131053854D01*
X144152580Y-131006053D01*
X144104780Y-130958253D01*
X144056979Y-130862652D01*
X144056979Y-129667640D02*
X144056979Y-129858842D01*
X144104780Y-129954443D01*
X144152580Y-130002243D01*
X144295981Y-130097844D01*
X144487183Y-130145645D01*
X144869587Y-130145645D01*
X144965188Y-130097844D01*
X145012989Y-130050044D01*
X145060789Y-129954443D01*
X145060789Y-129763241D01*
X145012989Y-129667640D01*
X144965188Y-129619840D01*
X144869587Y-129572039D01*
X144630585Y-129572039D01*
X144534984Y-129619840D01*
X144487183Y-129667640D01*
X144439383Y-129763241D01*
X144439383Y-129954443D01*
X144487183Y-130050044D01*
X144534984Y-130097844D01*
X144630585Y-130145645D01*
X144391582Y-128711631D02*
X145060789Y-128711631D01*
X144009179Y-128950633D02*
X144726186Y-129189635D01*
X144726186Y-128568229D01*
X145012989Y-128233626D02*
X145060789Y-128090224D01*
X145060789Y-127851222D01*
X145012989Y-127755621D01*
X144965188Y-127707821D01*
X144869587Y-127660020D01*
X144773986Y-127660020D01*
X144678385Y-127707821D01*
X144630585Y-127755621D01*
X144582784Y-127851222D01*
X144534984Y-128042424D01*
X144487183Y-128138025D01*
X144439383Y-128185825D01*
X144343782Y-128233626D01*
X144248181Y-128233626D01*
X144152580Y-128185825D01*
X144104780Y-128138025D01*
X144056979Y-128042424D01*
X144056979Y-127803422D01*
X144104780Y-127660020D01*
X145060789Y-127229816D02*
X144056979Y-127229816D01*
X144056979Y-126990813D01*
X144104780Y-126847412D01*
X144200380Y-126751811D01*
X144295981Y-126704011D01*
X144487183Y-126656210D01*
X144630585Y-126656210D01*
X144821787Y-126704011D01*
X144917388Y-126751811D01*
X145012989Y-126847412D01*
X145060789Y-126990813D01*
X145060789Y-127229816D01*
%TO.C,U7*%
D11*
X108664639Y-113414403D02*
X108664639Y-114223927D01*
X108712258Y-114319165D01*
X108759877Y-114366784D01*
X108855115Y-114414403D01*
X109045591Y-114414403D01*
X109140829Y-114366784D01*
X109188448Y-114319165D01*
X109236067Y-114223927D01*
X109236067Y-113414403D01*
X109617020Y-113414403D02*
X110283686Y-113414403D01*
X109855115Y-114414403D01*
%TO.C,U8*%
D18*
X77245344Y-106241858D02*
X77245344Y-109001241D01*
X77407661Y-109325875D01*
X77569977Y-109488191D01*
X77894611Y-109650508D01*
X78543877Y-109650508D01*
X78868511Y-109488191D01*
X79030827Y-109325875D01*
X79193144Y-109001241D01*
X79193144Y-106241858D01*
X81303261Y-107702708D02*
X80978627Y-107540391D01*
X80816311Y-107378075D01*
X80653994Y-107053441D01*
X80653994Y-106891125D01*
X80816311Y-106566491D01*
X80978627Y-106404175D01*
X81303261Y-106241858D01*
X81952527Y-106241858D01*
X82277161Y-106404175D01*
X82439477Y-106566491D01*
X82601794Y-106891125D01*
X82601794Y-107053441D01*
X82439477Y-107378075D01*
X82277161Y-107540391D01*
X81952527Y-107702708D01*
X81303261Y-107702708D01*
X80978627Y-107865025D01*
X80816311Y-108027341D01*
X80653994Y-108351975D01*
X80653994Y-109001241D01*
X80816311Y-109325875D01*
X80978627Y-109488191D01*
X81303261Y-109650508D01*
X81952527Y-109650508D01*
X82277161Y-109488191D01*
X82439477Y-109325875D01*
X82601794Y-109001241D01*
X82601794Y-108351975D01*
X82439477Y-108027341D01*
X82277161Y-107865025D01*
X81952527Y-107702708D01*
X58687581Y-135734292D02*
X57058009Y-135734292D01*
X57058009Y-132312192D01*
X59828281Y-135734292D02*
X59828281Y-132312192D01*
X60968981Y-134756550D01*
X62109681Y-132312192D01*
X62109681Y-135734292D01*
X63413338Y-132312192D02*
X65531781Y-132312192D01*
X64391081Y-133615850D01*
X64879952Y-133615850D01*
X65205866Y-133778807D01*
X65368824Y-133941764D01*
X65531781Y-134267678D01*
X65531781Y-135082464D01*
X65368824Y-135408378D01*
X65205866Y-135571335D01*
X64879952Y-135734292D01*
X63902209Y-135734292D01*
X63576295Y-135571335D01*
X63413338Y-135408378D01*
X68465009Y-133452892D02*
X68465009Y-135734292D01*
X67650224Y-132149235D02*
X66835438Y-134593592D01*
X68953881Y-134593592D01*
X71724152Y-132312192D02*
X71072324Y-132312192D01*
X70746409Y-132475150D01*
X70583452Y-132638107D01*
X70257538Y-133126978D01*
X70094581Y-133778807D01*
X70094581Y-135082464D01*
X70257538Y-135408378D01*
X70420495Y-135571335D01*
X70746409Y-135734292D01*
X71398238Y-135734292D01*
X71724152Y-135571335D01*
X71887109Y-135408378D01*
X72050066Y-135082464D01*
X72050066Y-134267678D01*
X71887109Y-133941764D01*
X71724152Y-133778807D01*
X71398238Y-133615850D01*
X70746409Y-133615850D01*
X70420495Y-133778807D01*
X70257538Y-133941764D01*
X70094581Y-134267678D01*
X74983295Y-133452892D02*
X74983295Y-135734292D01*
X74168509Y-132149235D02*
X73353724Y-134593592D01*
X75472166Y-134593592D01*
X76612866Y-134756550D02*
X78242438Y-134756550D01*
X76286952Y-135734292D02*
X77427652Y-132312192D01*
X78568352Y-135734292D01*
X79709052Y-135734292D02*
X79709052Y-132312192D01*
X80849752Y-134756550D01*
X81990452Y-132312192D01*
X81990452Y-135734292D01*
X83620024Y-135734292D02*
X83620024Y-132312192D01*
X83620024Y-133941764D02*
X85575509Y-133941764D01*
X85575509Y-135734292D02*
X85575509Y-132312192D01*
X86390295Y-136060207D02*
X88997609Y-136060207D01*
X89812395Y-135734292D02*
X89812395Y-132312192D01*
X91767881Y-135734292D01*
X91767881Y-132312192D01*
X94049281Y-132312192D02*
X94701109Y-132312192D01*
X95027024Y-132475150D01*
X95352938Y-132801064D01*
X95515895Y-133452892D01*
X95515895Y-134593592D01*
X95352938Y-135245421D01*
X95027024Y-135571335D01*
X94701109Y-135734292D01*
X94049281Y-135734292D01*
X93723366Y-135571335D01*
X93397452Y-135245421D01*
X93234495Y-134593592D01*
X93234495Y-133452892D01*
X93397452Y-132801064D01*
X93723366Y-132475150D01*
X94049281Y-132312192D01*
X96982509Y-135734292D02*
X96982509Y-132312192D01*
X98286166Y-132312192D01*
X98612081Y-132475150D01*
X98775038Y-132638107D01*
X98937995Y-132964021D01*
X98937995Y-133452892D01*
X98775038Y-133778807D01*
X98612081Y-133941764D01*
X98286166Y-134104721D01*
X96982509Y-134104721D01*
X101545309Y-133941764D02*
X102034181Y-134104721D01*
X102197138Y-134267678D01*
X102360095Y-134593592D01*
X102360095Y-135082464D01*
X102197138Y-135408378D01*
X102034181Y-135571335D01*
X101708266Y-135734292D01*
X100404609Y-135734292D01*
X100404609Y-132312192D01*
X101545309Y-132312192D01*
X101871224Y-132475150D01*
X102034181Y-132638107D01*
X102197138Y-132964021D01*
X102197138Y-133289935D01*
X102034181Y-133615850D01*
X101871224Y-133778807D01*
X101545309Y-133941764D01*
X100404609Y-133941764D01*
%TO.C,J9*%
D11*
X72628166Y-102024380D02*
X72628166Y-102738666D01*
X72580547Y-102881523D01*
X72485309Y-102976761D01*
X72342452Y-103024380D01*
X72247214Y-103024380D01*
X73151976Y-103024380D02*
X73342452Y-103024380D01*
X73437690Y-102976761D01*
X73485309Y-102929142D01*
X73580547Y-102786285D01*
X73628166Y-102595809D01*
X73628166Y-102214857D01*
X73580547Y-102119619D01*
X73532928Y-102072000D01*
X73437690Y-102024380D01*
X73247214Y-102024380D01*
X73151976Y-102072000D01*
X73104357Y-102119619D01*
X73056738Y-102214857D01*
X73056738Y-102452952D01*
X73104357Y-102548190D01*
X73151976Y-102595809D01*
X73247214Y-102643428D01*
X73437690Y-102643428D01*
X73532928Y-102595809D01*
X73580547Y-102548190D01*
X73628166Y-102452952D01*
%TO.C,J10*%
X87391976Y-139704380D02*
X87391976Y-140418666D01*
X87344357Y-140561523D01*
X87249119Y-140656761D01*
X87106261Y-140704380D01*
X87011023Y-140704380D01*
X88391976Y-140704380D02*
X87820547Y-140704380D01*
X88106261Y-140704380D02*
X88106261Y-139704380D01*
X88011023Y-139847238D01*
X87915785Y-139942476D01*
X87820547Y-139990095D01*
X89011023Y-139704380D02*
X89106261Y-139704380D01*
X89201500Y-139752000D01*
X89249119Y-139799619D01*
X89296738Y-139894857D01*
X89344357Y-140085333D01*
X89344357Y-140323428D01*
X89296738Y-140513904D01*
X89249119Y-140609142D01*
X89201500Y-140656761D01*
X89106261Y-140704380D01*
X89011023Y-140704380D01*
X88915785Y-140656761D01*
X88868166Y-140609142D01*
X88820547Y-140513904D01*
X88772928Y-140323428D01*
X88772928Y-140085333D01*
X88820547Y-139894857D01*
X88868166Y-139799619D01*
X88915785Y-139752000D01*
X89011023Y-139704380D01*
%TO.C,C11*%
X148213727Y-119600244D02*
X148166108Y-119647863D01*
X148023251Y-119695482D01*
X147928013Y-119695482D01*
X147785156Y-119647863D01*
X147689918Y-119552625D01*
X147642299Y-119457387D01*
X147594680Y-119266911D01*
X147594680Y-119124054D01*
X147642299Y-118933578D01*
X147689918Y-118838340D01*
X147785156Y-118743102D01*
X147928013Y-118695482D01*
X148023251Y-118695482D01*
X148166108Y-118743102D01*
X148213727Y-118790721D01*
X149166108Y-119695482D02*
X148594680Y-119695482D01*
X148880394Y-119695482D02*
X148880394Y-118695482D01*
X148785156Y-118838340D01*
X148689918Y-118933578D01*
X148594680Y-118981197D01*
X150118489Y-119695482D02*
X149547061Y-119695482D01*
X149832775Y-119695482D02*
X149832775Y-118695482D01*
X149737537Y-118838340D01*
X149642299Y-118933578D01*
X149547061Y-118981197D01*
%TO.C,C13*%
X148421728Y-118027245D02*
X148374109Y-118074864D01*
X148231252Y-118122483D01*
X148136014Y-118122483D01*
X147993157Y-118074864D01*
X147897919Y-117979626D01*
X147850300Y-117884388D01*
X147802681Y-117693912D01*
X147802681Y-117551055D01*
X147850300Y-117360579D01*
X147897919Y-117265341D01*
X147993157Y-117170103D01*
X148136014Y-117122483D01*
X148231252Y-117122483D01*
X148374109Y-117170103D01*
X148421728Y-117217722D01*
X149374109Y-118122483D02*
X148802681Y-118122483D01*
X149088395Y-118122483D02*
X149088395Y-117122483D01*
X148993157Y-117265341D01*
X148897919Y-117360579D01*
X148802681Y-117408198D01*
X149707443Y-117122483D02*
X150326490Y-117122483D01*
X149993157Y-117503436D01*
X150136014Y-117503436D01*
X150231252Y-117551055D01*
X150278871Y-117598674D01*
X150326490Y-117693912D01*
X150326490Y-117932007D01*
X150278871Y-118027245D01*
X150231252Y-118074864D01*
X150136014Y-118122483D01*
X149850300Y-118122483D01*
X149755062Y-118074864D01*
X149707443Y-118027245D01*
%TO.C,C14*%
X142706728Y-113399245D02*
X142659109Y-113446864D01*
X142516252Y-113494483D01*
X142421014Y-113494483D01*
X142278157Y-113446864D01*
X142182919Y-113351626D01*
X142135300Y-113256388D01*
X142087681Y-113065912D01*
X142087681Y-112923055D01*
X142135300Y-112732579D01*
X142182919Y-112637341D01*
X142278157Y-112542103D01*
X142421014Y-112494483D01*
X142516252Y-112494483D01*
X142659109Y-112542103D01*
X142706728Y-112589722D01*
X143659109Y-113494483D02*
X143087681Y-113494483D01*
X143373395Y-113494483D02*
X143373395Y-112494483D01*
X143278157Y-112637341D01*
X143182919Y-112732579D01*
X143087681Y-112780198D01*
X144516252Y-112827817D02*
X144516252Y-113494483D01*
X144278157Y-112446864D02*
X144040062Y-113161150D01*
X144659109Y-113161150D01*
%TO.C,C15*%
X142706728Y-120257245D02*
X142659109Y-120304864D01*
X142516252Y-120352483D01*
X142421014Y-120352483D01*
X142278157Y-120304864D01*
X142182919Y-120209626D01*
X142135300Y-120114388D01*
X142087681Y-119923912D01*
X142087681Y-119781055D01*
X142135300Y-119590579D01*
X142182919Y-119495341D01*
X142278157Y-119400103D01*
X142421014Y-119352483D01*
X142516252Y-119352483D01*
X142659109Y-119400103D01*
X142706728Y-119447722D01*
X143659109Y-120352483D02*
X143087681Y-120352483D01*
X143373395Y-120352483D02*
X143373395Y-119352483D01*
X143278157Y-119495341D01*
X143182919Y-119590579D01*
X143087681Y-119638198D01*
X144563871Y-119352483D02*
X144087681Y-119352483D01*
X144040062Y-119828674D01*
X144087681Y-119781055D01*
X144182919Y-119733436D01*
X144421014Y-119733436D01*
X144516252Y-119781055D01*
X144563871Y-119828674D01*
X144611490Y-119923912D01*
X144611490Y-120162007D01*
X144563871Y-120257245D01*
X144516252Y-120304864D01*
X144421014Y-120352483D01*
X144182919Y-120352483D01*
X144087681Y-120304864D01*
X144040062Y-120257245D01*
%TO.C,C16*%
X131506728Y-106089245D02*
X131459109Y-106136864D01*
X131316252Y-106184483D01*
X131221014Y-106184483D01*
X131078157Y-106136864D01*
X130982919Y-106041626D01*
X130935300Y-105946388D01*
X130887681Y-105755912D01*
X130887681Y-105613055D01*
X130935300Y-105422579D01*
X130982919Y-105327341D01*
X131078157Y-105232103D01*
X131221014Y-105184483D01*
X131316252Y-105184483D01*
X131459109Y-105232103D01*
X131506728Y-105279722D01*
X132459109Y-106184483D02*
X131887681Y-106184483D01*
X132173395Y-106184483D02*
X132173395Y-105184483D01*
X132078157Y-105327341D01*
X131982919Y-105422579D01*
X131887681Y-105470198D01*
X133316252Y-105184483D02*
X133125776Y-105184483D01*
X133030538Y-105232103D01*
X132982919Y-105279722D01*
X132887681Y-105422579D01*
X132840062Y-105613055D01*
X132840062Y-105994007D01*
X132887681Y-106089245D01*
X132935300Y-106136864D01*
X133030538Y-106184483D01*
X133221014Y-106184483D01*
X133316252Y-106136864D01*
X133363871Y-106089245D01*
X133411490Y-105994007D01*
X133411490Y-105755912D01*
X133363871Y-105660674D01*
X133316252Y-105613055D01*
X133221014Y-105565436D01*
X133030538Y-105565436D01*
X132935300Y-105613055D01*
X132887681Y-105660674D01*
X132840062Y-105755912D01*
%TO.C,J11*%
X145016966Y-111466626D02*
X145731252Y-111466626D01*
X145874109Y-111514245D01*
X145969347Y-111609483D01*
X146016966Y-111752341D01*
X146016966Y-111847579D01*
X146016966Y-110466626D02*
X146016966Y-111038055D01*
X146016966Y-110752341D02*
X145016966Y-110752341D01*
X145159824Y-110847579D01*
X145255062Y-110942817D01*
X145302681Y-111038055D01*
X146016966Y-109514245D02*
X146016966Y-110085674D01*
X146016966Y-109799960D02*
X145016966Y-109799960D01*
X145159824Y-109895198D01*
X145255062Y-109990436D01*
X145302681Y-110085674D01*
%TO.C,R28*%
X142813240Y-112172825D02*
X142479907Y-111696635D01*
X142241812Y-112172825D02*
X142241812Y-111172825D01*
X142622764Y-111172825D01*
X142718002Y-111220445D01*
X142765621Y-111268064D01*
X142813240Y-111363302D01*
X142813240Y-111506159D01*
X142765621Y-111601397D01*
X142718002Y-111649016D01*
X142622764Y-111696635D01*
X142241812Y-111696635D01*
X143194193Y-111268064D02*
X143241812Y-111220445D01*
X143337050Y-111172825D01*
X143575145Y-111172825D01*
X143670383Y-111220445D01*
X143718002Y-111268064D01*
X143765621Y-111363302D01*
X143765621Y-111458540D01*
X143718002Y-111601397D01*
X143146574Y-112172825D01*
X143765621Y-112172825D01*
X144337050Y-111601397D02*
X144241812Y-111553778D01*
X144194193Y-111506159D01*
X144146574Y-111410921D01*
X144146574Y-111363302D01*
X144194193Y-111268064D01*
X144241812Y-111220445D01*
X144337050Y-111172825D01*
X144527526Y-111172825D01*
X144622764Y-111220445D01*
X144670383Y-111268064D01*
X144718002Y-111363302D01*
X144718002Y-111410921D01*
X144670383Y-111506159D01*
X144622764Y-111553778D01*
X144527526Y-111601397D01*
X144337050Y-111601397D01*
X144241812Y-111649016D01*
X144194193Y-111696635D01*
X144146574Y-111791873D01*
X144146574Y-111982349D01*
X144194193Y-112077587D01*
X144241812Y-112125206D01*
X144337050Y-112172825D01*
X144527526Y-112172825D01*
X144622764Y-112125206D01*
X144670383Y-112077587D01*
X144718002Y-111982349D01*
X144718002Y-111791873D01*
X144670383Y-111696635D01*
X144622764Y-111649016D01*
X144527526Y-111601397D01*
%TO.C,R29*%
X142813240Y-114458825D02*
X142479907Y-113982635D01*
X142241812Y-114458825D02*
X142241812Y-113458825D01*
X142622764Y-113458825D01*
X142718002Y-113506445D01*
X142765621Y-113554064D01*
X142813240Y-113649302D01*
X142813240Y-113792159D01*
X142765621Y-113887397D01*
X142718002Y-113935016D01*
X142622764Y-113982635D01*
X142241812Y-113982635D01*
X143194193Y-113554064D02*
X143241812Y-113506445D01*
X143337050Y-113458825D01*
X143575145Y-113458825D01*
X143670383Y-113506445D01*
X143718002Y-113554064D01*
X143765621Y-113649302D01*
X143765621Y-113744540D01*
X143718002Y-113887397D01*
X143146574Y-114458825D01*
X143765621Y-114458825D01*
X144241812Y-114458825D02*
X144432288Y-114458825D01*
X144527526Y-114411206D01*
X144575145Y-114363587D01*
X144670383Y-114220730D01*
X144718002Y-114030254D01*
X144718002Y-113649302D01*
X144670383Y-113554064D01*
X144622764Y-113506445D01*
X144527526Y-113458825D01*
X144337050Y-113458825D01*
X144241812Y-113506445D01*
X144194193Y-113554064D01*
X144146574Y-113649302D01*
X144146574Y-113887397D01*
X144194193Y-113982635D01*
X144241812Y-114030254D01*
X144337050Y-114077873D01*
X144527526Y-114077873D01*
X144622764Y-114030254D01*
X144670383Y-113982635D01*
X144718002Y-113887397D01*
%TO.C,R30*%
X131477728Y-110910483D02*
X131144395Y-110434293D01*
X130906300Y-110910483D02*
X130906300Y-109910483D01*
X131287252Y-109910483D01*
X131382490Y-109958103D01*
X131430109Y-110005722D01*
X131477728Y-110100960D01*
X131477728Y-110243817D01*
X131430109Y-110339055D01*
X131382490Y-110386674D01*
X131287252Y-110434293D01*
X130906300Y-110434293D01*
X131811062Y-109910483D02*
X132430109Y-109910483D01*
X132096776Y-110291436D01*
X132239633Y-110291436D01*
X132334871Y-110339055D01*
X132382490Y-110386674D01*
X132430109Y-110481912D01*
X132430109Y-110720007D01*
X132382490Y-110815245D01*
X132334871Y-110862864D01*
X132239633Y-110910483D01*
X131953919Y-110910483D01*
X131858681Y-110862864D01*
X131811062Y-110815245D01*
X133049157Y-109910483D02*
X133144395Y-109910483D01*
X133239633Y-109958103D01*
X133287252Y-110005722D01*
X133334871Y-110100960D01*
X133382490Y-110291436D01*
X133382490Y-110529531D01*
X133334871Y-110720007D01*
X133287252Y-110815245D01*
X133239633Y-110862864D01*
X133144395Y-110910483D01*
X133049157Y-110910483D01*
X132953919Y-110862864D01*
X132906300Y-110815245D01*
X132858681Y-110720007D01*
X132811062Y-110529531D01*
X132811062Y-110291436D01*
X132858681Y-110100960D01*
X132906300Y-110005722D01*
X132953919Y-109958103D01*
X133049157Y-109910483D01*
%TO.C,R31*%
X140571966Y-108759960D02*
X140095776Y-109093293D01*
X140571966Y-109331388D02*
X139571966Y-109331388D01*
X139571966Y-108950436D01*
X139619586Y-108855198D01*
X139667205Y-108807579D01*
X139762443Y-108759960D01*
X139905300Y-108759960D01*
X140000538Y-108807579D01*
X140048157Y-108855198D01*
X140095776Y-108950436D01*
X140095776Y-109331388D01*
X139571966Y-108426626D02*
X139571966Y-107807579D01*
X139952919Y-108140912D01*
X139952919Y-107998055D01*
X140000538Y-107902817D01*
X140048157Y-107855198D01*
X140143395Y-107807579D01*
X140381490Y-107807579D01*
X140476728Y-107855198D01*
X140524347Y-107902817D01*
X140571966Y-107998055D01*
X140571966Y-108283769D01*
X140524347Y-108379007D01*
X140476728Y-108426626D01*
X140571966Y-106855198D02*
X140571966Y-107426626D01*
X140571966Y-107140912D02*
X139571966Y-107140912D01*
X139714824Y-107236150D01*
X139810062Y-107331388D01*
X139857681Y-107426626D01*
%TO.C,R32*%
X138158966Y-108759960D02*
X137682776Y-109093293D01*
X138158966Y-109331388D02*
X137158966Y-109331388D01*
X137158966Y-108950436D01*
X137206586Y-108855198D01*
X137254205Y-108807579D01*
X137349443Y-108759960D01*
X137492300Y-108759960D01*
X137587538Y-108807579D01*
X137635157Y-108855198D01*
X137682776Y-108950436D01*
X137682776Y-109331388D01*
X137158966Y-108426626D02*
X137158966Y-107807579D01*
X137539919Y-108140912D01*
X137539919Y-107998055D01*
X137587538Y-107902817D01*
X137635157Y-107855198D01*
X137730395Y-107807579D01*
X137968490Y-107807579D01*
X138063728Y-107855198D01*
X138111347Y-107902817D01*
X138158966Y-107998055D01*
X138158966Y-108283769D01*
X138111347Y-108379007D01*
X138063728Y-108426626D01*
X137254205Y-107426626D02*
X137206586Y-107379007D01*
X137158966Y-107283769D01*
X137158966Y-107045674D01*
X137206586Y-106950436D01*
X137254205Y-106902817D01*
X137349443Y-106855198D01*
X137444681Y-106855198D01*
X137587538Y-106902817D01*
X138158966Y-107474245D01*
X138158966Y-106855198D01*
%TO.C,R33*%
X131477728Y-113323483D02*
X131144395Y-112847293D01*
X130906300Y-113323483D02*
X130906300Y-112323483D01*
X131287252Y-112323483D01*
X131382490Y-112371103D01*
X131430109Y-112418722D01*
X131477728Y-112513960D01*
X131477728Y-112656817D01*
X131430109Y-112752055D01*
X131382490Y-112799674D01*
X131287252Y-112847293D01*
X130906300Y-112847293D01*
X131811062Y-112323483D02*
X132430109Y-112323483D01*
X132096776Y-112704436D01*
X132239633Y-112704436D01*
X132334871Y-112752055D01*
X132382490Y-112799674D01*
X132430109Y-112894912D01*
X132430109Y-113133007D01*
X132382490Y-113228245D01*
X132334871Y-113275864D01*
X132239633Y-113323483D01*
X131953919Y-113323483D01*
X131858681Y-113275864D01*
X131811062Y-113228245D01*
X132763443Y-112323483D02*
X133382490Y-112323483D01*
X133049157Y-112704436D01*
X133192014Y-112704436D01*
X133287252Y-112752055D01*
X133334871Y-112799674D01*
X133382490Y-112894912D01*
X133382490Y-113133007D01*
X133334871Y-113228245D01*
X133287252Y-113275864D01*
X133192014Y-113323483D01*
X132906300Y-113323483D01*
X132811062Y-113275864D01*
X132763443Y-113228245D01*
%TO.C,R34*%
X131507349Y-108497483D02*
X131174016Y-108021293D01*
X130935921Y-108497483D02*
X130935921Y-107497483D01*
X131316873Y-107497483D01*
X131412111Y-107545103D01*
X131459730Y-107592722D01*
X131507349Y-107687960D01*
X131507349Y-107830817D01*
X131459730Y-107926055D01*
X131412111Y-107973674D01*
X131316873Y-108021293D01*
X130935921Y-108021293D01*
X131840683Y-107497483D02*
X132459730Y-107497483D01*
X132126397Y-107878436D01*
X132269254Y-107878436D01*
X132364492Y-107926055D01*
X132412111Y-107973674D01*
X132459730Y-108068912D01*
X132459730Y-108307007D01*
X132412111Y-108402245D01*
X132364492Y-108449864D01*
X132269254Y-108497483D01*
X131983540Y-108497483D01*
X131888302Y-108449864D01*
X131840683Y-108402245D01*
X133316873Y-107830817D02*
X133316873Y-108497483D01*
X133078778Y-107449864D02*
X132840683Y-108164150D01*
X133459730Y-108164150D01*
%TO.C,R35*%
X131477728Y-115736483D02*
X131144395Y-115260293D01*
X130906300Y-115736483D02*
X130906300Y-114736483D01*
X131287252Y-114736483D01*
X131382490Y-114784103D01*
X131430109Y-114831722D01*
X131477728Y-114926960D01*
X131477728Y-115069817D01*
X131430109Y-115165055D01*
X131382490Y-115212674D01*
X131287252Y-115260293D01*
X130906300Y-115260293D01*
X131811062Y-114736483D02*
X132430109Y-114736483D01*
X132096776Y-115117436D01*
X132239633Y-115117436D01*
X132334871Y-115165055D01*
X132382490Y-115212674D01*
X132430109Y-115307912D01*
X132430109Y-115546007D01*
X132382490Y-115641245D01*
X132334871Y-115688864D01*
X132239633Y-115736483D01*
X131953919Y-115736483D01*
X131858681Y-115688864D01*
X131811062Y-115641245D01*
X133334871Y-114736483D02*
X132858681Y-114736483D01*
X132811062Y-115212674D01*
X132858681Y-115165055D01*
X132953919Y-115117436D01*
X133192014Y-115117436D01*
X133287252Y-115165055D01*
X133334871Y-115212674D01*
X133382490Y-115307912D01*
X133382490Y-115546007D01*
X133334871Y-115641245D01*
X133287252Y-115688864D01*
X133192014Y-115736483D01*
X132953919Y-115736483D01*
X132858681Y-115688864D01*
X132811062Y-115641245D01*
%TO.C,Rx2*%
X141635157Y-107250483D02*
X141301824Y-106774293D01*
X141063728Y-107250483D02*
X141063728Y-106250483D01*
X141444681Y-106250483D01*
X141539919Y-106298103D01*
X141587538Y-106345722D01*
X141635157Y-106440960D01*
X141635157Y-106583817D01*
X141587538Y-106679055D01*
X141539919Y-106726674D01*
X141444681Y-106774293D01*
X141063728Y-106774293D01*
X141968490Y-107250483D02*
X142492300Y-106583817D01*
X141968490Y-106583817D02*
X142492300Y-107250483D01*
X142825633Y-106345722D02*
X142873252Y-106298103D01*
X142968490Y-106250483D01*
X143206586Y-106250483D01*
X143301824Y-106298103D01*
X143349443Y-106345722D01*
X143397062Y-106440960D01*
X143397062Y-106536198D01*
X143349443Y-106679055D01*
X142778014Y-107250483D01*
X143397062Y-107250483D01*
%TO.C,Tx2*%
X140912919Y-104091483D02*
X141484347Y-104091483D01*
X141198633Y-105091483D02*
X141198633Y-104091483D01*
X141722443Y-105091483D02*
X142246252Y-104424817D01*
X141722443Y-104424817D02*
X142246252Y-105091483D01*
X142579586Y-104186722D02*
X142627205Y-104139103D01*
X142722443Y-104091483D01*
X142960538Y-104091483D01*
X143055776Y-104139103D01*
X143103395Y-104186722D01*
X143151014Y-104281960D01*
X143151014Y-104377198D01*
X143103395Y-104520055D01*
X142531966Y-105091483D01*
X143151014Y-105091483D01*
%TO.C,J12*%
X145893966Y-122261626D02*
X146608252Y-122261626D01*
X146751109Y-122309245D01*
X146846347Y-122404483D01*
X146893966Y-122547341D01*
X146893966Y-122642579D01*
X146893966Y-121261626D02*
X146893966Y-121833055D01*
X146893966Y-121547341D02*
X145893966Y-121547341D01*
X146036824Y-121642579D01*
X146132062Y-121737817D01*
X146179681Y-121833055D01*
X145989205Y-120880674D02*
X145941586Y-120833055D01*
X145893966Y-120737817D01*
X145893966Y-120499722D01*
X145941586Y-120404483D01*
X145989205Y-120356864D01*
X146084443Y-120309245D01*
X146179681Y-120309245D01*
X146322538Y-120356864D01*
X146893966Y-120928293D01*
X146893966Y-120309245D01*
%TO.C,BT1*%
X132661571Y-71397714D02*
X132709190Y-71254857D01*
X132756809Y-71207238D01*
X132852047Y-71159619D01*
X132994904Y-71159619D01*
X133090142Y-71207238D01*
X133137761Y-71254857D01*
X133185380Y-71350095D01*
X133185380Y-71731047D01*
X132185380Y-71731047D01*
X132185380Y-71397714D01*
X132233000Y-71302476D01*
X132280619Y-71254857D01*
X132375857Y-71207238D01*
X132471095Y-71207238D01*
X132566333Y-71254857D01*
X132613952Y-71302476D01*
X132661571Y-71397714D01*
X132661571Y-71731047D01*
X132185380Y-70873904D02*
X132185380Y-70302476D01*
X133185380Y-70588190D02*
X132185380Y-70588190D01*
X133185380Y-69445333D02*
X133185380Y-70016761D01*
X133185380Y-69731047D02*
X132185380Y-69731047D01*
X132328238Y-69826285D01*
X132423476Y-69921523D01*
X132471095Y-70016761D01*
X137140142Y-68433428D02*
X137140142Y-67290571D01*
X137711571Y-67862000D02*
X136568714Y-67862000D01*
%TO.C,R12*%
X129915142Y-41854380D02*
X129581809Y-41378190D01*
X129343714Y-41854380D02*
X129343714Y-40854380D01*
X129724666Y-40854380D01*
X129819904Y-40902000D01*
X129867523Y-40949619D01*
X129915142Y-41044857D01*
X129915142Y-41187714D01*
X129867523Y-41282952D01*
X129819904Y-41330571D01*
X129724666Y-41378190D01*
X129343714Y-41378190D01*
X130867523Y-41854380D02*
X130296095Y-41854380D01*
X130581809Y-41854380D02*
X130581809Y-40854380D01*
X130486571Y-40997238D01*
X130391333Y-41092476D01*
X130296095Y-41140095D01*
X131248476Y-40949619D02*
X131296095Y-40902000D01*
X131391333Y-40854380D01*
X131629428Y-40854380D01*
X131724666Y-40902000D01*
X131772285Y-40949619D01*
X131819904Y-41044857D01*
X131819904Y-41140095D01*
X131772285Y-41282952D01*
X131200857Y-41854380D01*
X131819904Y-41854380D01*
%TO.C,Rx1*%
X75107871Y-78984980D02*
X74774538Y-78508790D01*
X74536442Y-78984980D02*
X74536442Y-77984980D01*
X74917395Y-77984980D01*
X75012633Y-78032600D01*
X75060252Y-78080219D01*
X75107871Y-78175457D01*
X75107871Y-78318314D01*
X75060252Y-78413552D01*
X75012633Y-78461171D01*
X74917395Y-78508790D01*
X74536442Y-78508790D01*
X75441204Y-78984980D02*
X75965014Y-78318314D01*
X75441204Y-78318314D02*
X75965014Y-78984980D01*
X76869776Y-78984980D02*
X76298347Y-78984980D01*
X76584061Y-78984980D02*
X76584061Y-77984980D01*
X76488823Y-78127838D01*
X76393585Y-78223076D01*
X76298347Y-78270695D01*
%TO.C,Tx1*%
X74576133Y-80347180D02*
X75147561Y-80347180D01*
X74861847Y-81347180D02*
X74861847Y-80347180D01*
X75385657Y-81347180D02*
X75909466Y-80680514D01*
X75385657Y-80680514D02*
X75909466Y-81347180D01*
X76814228Y-81347180D02*
X76242800Y-81347180D01*
X76528514Y-81347180D02*
X76528514Y-80347180D01*
X76433276Y-80490038D01*
X76338038Y-80585276D01*
X76242800Y-80632895D01*
%TO.C,PWR1*%
X73869776Y-76610080D02*
X73869776Y-75610080D01*
X74250728Y-75610080D01*
X74345966Y-75657700D01*
X74393585Y-75705319D01*
X74441204Y-75800557D01*
X74441204Y-75943414D01*
X74393585Y-76038652D01*
X74345966Y-76086271D01*
X74250728Y-76133890D01*
X73869776Y-76133890D01*
X74774538Y-75610080D02*
X75012633Y-76610080D01*
X75203109Y-75895795D01*
X75393585Y-76610080D01*
X75631680Y-75610080D01*
X76584061Y-76610080D02*
X76250728Y-76133890D01*
X76012633Y-76610080D02*
X76012633Y-75610080D01*
X76393585Y-75610080D01*
X76488823Y-75657700D01*
X76536442Y-75705319D01*
X76584061Y-75800557D01*
X76584061Y-75943414D01*
X76536442Y-76038652D01*
X76488823Y-76086271D01*
X76393585Y-76133890D01*
X76012633Y-76133890D01*
X77536442Y-76610080D02*
X76965014Y-76610080D01*
X77250728Y-76610080D02*
X77250728Y-75610080D01*
X77155490Y-75752938D01*
X77060252Y-75848176D01*
X76965014Y-75895795D01*
%TO.C,D5*%
X134845680Y-65914495D02*
X133845680Y-65914495D01*
X133845680Y-65676400D01*
X133893300Y-65533542D01*
X133988538Y-65438304D01*
X134083776Y-65390685D01*
X134274252Y-65343066D01*
X134417109Y-65343066D01*
X134607585Y-65390685D01*
X134702823Y-65438304D01*
X134798061Y-65533542D01*
X134845680Y-65676400D01*
X134845680Y-65914495D01*
X133845680Y-64438304D02*
X133845680Y-64914495D01*
X134321871Y-64962114D01*
X134274252Y-64914495D01*
X134226633Y-64819257D01*
X134226633Y-64581161D01*
X134274252Y-64485923D01*
X134321871Y-64438304D01*
X134417109Y-64390685D01*
X134655204Y-64390685D01*
X134750442Y-64438304D01*
X134798061Y-64485923D01*
X134845680Y-64581161D01*
X134845680Y-64819257D01*
X134798061Y-64914495D01*
X134750442Y-64962114D01*
%TD*%
M02*
