%TF.GenerationSoftware,KiCad,Pcbnew,5.0.0-fee4fd1~66~ubuntu18.04.1*%
%TF.CreationDate,2019-06-24T19:08:59-03:00*%
%TF.ProjectId,Placa tesis,506C6163612074657369732E6B696361,rev?*%
%TF.SameCoordinates,Original*%
%TF.FileFunction,Paste,Top*%
%TF.FilePolarity,Positive*%
%FSLAX46Y46*%
G04 Gerber Fmt 4.6, Leading zero omitted, Abs format (unit mm)*
G04 Created by KiCad (PCBNEW 5.0.0-fee4fd1~66~ubuntu18.04.1) date Mon Jun 24 19:08:59 2019*
%MOMM*%
%LPD*%
G01*
G04 APERTURE LIST*
%ADD10C,0.150000*%
%ADD11R,1.000000X1.600000*%
%ADD12R,0.400000X1.200000*%
%ADD13R,5.511800X2.997200*%
%ADD14R,0.355600X1.422400*%
%ADD15R,1.700000X0.900000*%
%ADD16R,1.600000X1.000000*%
%ADD17R,0.250000X0.600000*%
%ADD18R,4.000000X2.600000*%
%ADD19R,0.900000X1.700000*%
%ADD20R,2.500000X1.000000*%
%ADD21R,1.000000X1.800000*%
%ADD22R,1.000000X3.200000*%
%ADD23R,1.300000X0.450000*%
%ADD24R,2.000000X1.500000*%
%ADD25R,1.422400X0.355600*%
%ADD26R,2.997200X5.511800*%
%ADD27R,1.500000X1.300000*%
%ADD28R,2.450000X7.190000*%
%ADD29R,2.000000X1.700000*%
%ADD30R,1.800000X2.500000*%
G04 APERTURE END LIST*
D10*
X70485000Y-140119100D02*
X153924000Y-140119100D01*
X70485000Y-101854000D02*
X153924000Y-101854000D01*
X153924000Y-41021000D02*
X153924000Y-140119100D01*
X70485000Y-41021000D02*
X70485000Y-140119100D01*
X70485000Y-41021000D02*
X153924000Y-41021000D01*
D11*
%TO.C,C12*%
X147564586Y-117134103D03*
X150564586Y-117134103D03*
%TD*%
D12*
%TO.C,U9*%
X135285086Y-112248103D03*
X135920086Y-112248103D03*
X136555086Y-112248103D03*
X137190086Y-112248103D03*
X137825086Y-112248103D03*
X138460086Y-112248103D03*
X139095086Y-112248103D03*
X139730086Y-112248103D03*
X139730086Y-117448103D03*
X139095086Y-117448103D03*
X138460086Y-117448103D03*
X137825086Y-117448103D03*
X137190086Y-117448103D03*
X136555086Y-117448103D03*
X135920086Y-117448103D03*
X135285086Y-117448103D03*
%TD*%
D13*
%TO.C,U4*%
X97155000Y-75311000D03*
D14*
X92938600Y-72466200D03*
X93573600Y-72466200D03*
X94234000Y-72466200D03*
X94869000Y-72466200D03*
X95529400Y-72466200D03*
X96189800Y-72466200D03*
X96824800Y-72466200D03*
X97485200Y-72466200D03*
X98120200Y-72466200D03*
X98780600Y-72466200D03*
X99441000Y-72466200D03*
X100076000Y-72466200D03*
X100736400Y-72466200D03*
X101371400Y-72466200D03*
X101371400Y-78155800D03*
X100736400Y-78155800D03*
X100076000Y-78155800D03*
X99441000Y-78155800D03*
X98780600Y-78155800D03*
X98120200Y-78155800D03*
X97485200Y-78155800D03*
X96824800Y-78155800D03*
X96189800Y-78155800D03*
X95529400Y-78155800D03*
X94869000Y-78155800D03*
X94234000Y-78155800D03*
X93573600Y-78155800D03*
X92938600Y-78155800D03*
%TD*%
D15*
%TO.C,R14*%
X142502681Y-59443743D03*
X142502681Y-62343743D03*
%TD*%
%TO.C,R13*%
X139581681Y-62290743D03*
X139581681Y-59390743D03*
%TD*%
D16*
%TO.C,C5*%
X145923000Y-63246000D03*
X145923000Y-60246000D03*
%TD*%
D17*
%TO.C,U3*%
X145141681Y-65925743D03*
X144641681Y-65925743D03*
X144141681Y-65925743D03*
X143641681Y-65925743D03*
X143141681Y-65925743D03*
X142641681Y-65925743D03*
X142141681Y-65925743D03*
X141641681Y-65925743D03*
X141641681Y-69725743D03*
X142141681Y-69725743D03*
X142641681Y-69725743D03*
X143141681Y-69725743D03*
X143641681Y-69725743D03*
X144141681Y-69725743D03*
X144641681Y-69725743D03*
X145141681Y-69725743D03*
D18*
X143391681Y-67825743D03*
%TD*%
D16*
%TO.C,C1*%
X108152000Y-81431000D03*
X108152000Y-84431000D03*
%TD*%
%TO.C,C2*%
X101751000Y-84431000D03*
X101751000Y-81431000D03*
%TD*%
%TO.C,C3*%
X98603000Y-81431000D03*
X98603000Y-84431000D03*
%TD*%
%TO.C,C4*%
X92202000Y-84431000D03*
X92202000Y-81431000D03*
%TD*%
D15*
%TO.C,R1*%
X111350000Y-84281000D03*
X111350000Y-81381000D03*
%TD*%
%TO.C,R2*%
X95400000Y-84281000D03*
X95400000Y-81381000D03*
%TD*%
%TO.C,R7*%
X104902000Y-79936000D03*
X104902000Y-77036000D03*
%TD*%
%TO.C,R8*%
X104949000Y-81381000D03*
X104949000Y-84281000D03*
%TD*%
D19*
%TO.C,R9*%
X106576582Y-86405586D03*
X109476582Y-86405586D03*
%TD*%
D15*
%TO.C,R10*%
X104267000Y-86434000D03*
X104267000Y-89334000D03*
%TD*%
D20*
%TO.C,U5*%
X128732978Y-91309063D03*
X128732978Y-89309063D03*
X128732978Y-87309063D03*
X128732978Y-85309063D03*
X128732978Y-83309063D03*
X128732978Y-81309063D03*
X128732978Y-79309063D03*
X128732978Y-77309063D03*
D21*
X131332978Y-75809063D03*
X133332978Y-75809063D03*
X135332978Y-75809063D03*
X137332978Y-75809063D03*
X139332978Y-75809063D03*
X141332978Y-75809063D03*
D20*
X143932978Y-77309063D03*
X143932978Y-79309063D03*
X143932978Y-81309063D03*
X143932978Y-83309063D03*
X143932978Y-85309063D03*
X143932978Y-87309063D03*
X143932978Y-89309063D03*
X143932978Y-91309063D03*
%TD*%
D22*
%TO.C,R3*%
X77926000Y-58420000D03*
X84126000Y-58420000D03*
%TD*%
%TO.C,R4*%
X95080285Y-58536516D03*
X88880285Y-58536516D03*
%TD*%
%TO.C,R5*%
X99809421Y-58511115D03*
X106009421Y-58511115D03*
%TD*%
%TO.C,R6*%
X116955893Y-58627348D03*
X110755893Y-58627348D03*
%TD*%
D11*
%TO.C,C6*%
X79272000Y-93218000D03*
X82272000Y-93218000D03*
%TD*%
%TO.C,C7*%
X82296000Y-90932000D03*
X79296000Y-90932000D03*
%TD*%
%TO.C,C8*%
X79272000Y-95504000D03*
X82272000Y-95504000D03*
%TD*%
%TO.C,C9*%
X141653000Y-56769000D03*
X144653000Y-56769000D03*
%TD*%
%TO.C,C10*%
X144653000Y-54483000D03*
X141653000Y-54483000D03*
%TD*%
D23*
%TO.C,J2*%
X76703000Y-89184000D03*
X76703000Y-88534000D03*
X76703000Y-87884000D03*
X76703000Y-87234000D03*
X76703000Y-86584000D03*
%TD*%
D19*
%TO.C,R11*%
X82222000Y-88646000D03*
X79322000Y-88646000D03*
%TD*%
%TO.C,R19*%
X79322000Y-86233000D03*
X82222000Y-86233000D03*
%TD*%
%TO.C,R20*%
X79269000Y-83820000D03*
X82169000Y-83820000D03*
%TD*%
%TO.C,R21*%
X79322000Y-81407000D03*
X82222000Y-81407000D03*
%TD*%
%TO.C,R22*%
X82730000Y-76660171D03*
X79830000Y-76660171D03*
%TD*%
%TO.C,R23*%
X79830000Y-79073171D03*
X82730000Y-79073171D03*
%TD*%
%TO.C,R24*%
X79830000Y-74247171D03*
X82730000Y-74247171D03*
%TD*%
D12*
%TO.C,U1*%
X84645500Y-84776000D03*
X85280500Y-84776000D03*
X85915500Y-84776000D03*
X86550500Y-84776000D03*
X87185500Y-84776000D03*
X87820500Y-84776000D03*
X88455500Y-84776000D03*
X89090500Y-84776000D03*
X89090500Y-89976000D03*
X88455500Y-89976000D03*
X87820500Y-89976000D03*
X87185500Y-89976000D03*
X86550500Y-89976000D03*
X85915500Y-89976000D03*
X85280500Y-89976000D03*
X84645500Y-89976000D03*
%TD*%
D15*
%TO.C,R25*%
X87757000Y-79142000D03*
X87757000Y-82042000D03*
%TD*%
%TO.C,R26*%
X115443000Y-77089000D03*
X115443000Y-74189000D03*
%TD*%
D19*
%TO.C,R27*%
X100129000Y-86868000D03*
X97229000Y-86868000D03*
%TD*%
D17*
%TO.C,U6*%
X139529065Y-133793947D03*
X140029065Y-133793947D03*
X140529065Y-133793947D03*
X141029065Y-133793947D03*
X141529065Y-133793947D03*
X142029065Y-133793947D03*
X142529065Y-133793947D03*
X143029065Y-133793947D03*
X143029065Y-129993947D03*
X142529065Y-129993947D03*
X142029065Y-129993947D03*
X141529065Y-129993947D03*
X141029065Y-129993947D03*
X140529065Y-129993947D03*
X140029065Y-129993947D03*
X139529065Y-129993947D03*
D18*
X141279065Y-131893947D03*
%TD*%
D24*
%TO.C,U7*%
X101426544Y-107962023D03*
X101426544Y-109962023D03*
X101426544Y-111962023D03*
X101426544Y-113962023D03*
X101426544Y-115962023D03*
X101426544Y-117962023D03*
X101426544Y-119962023D03*
X101426544Y-121962023D03*
X117426544Y-121962023D03*
X117426544Y-119962023D03*
X117426544Y-117962023D03*
X117426544Y-115962023D03*
X117426544Y-113962023D03*
X117426544Y-111962023D03*
X117426544Y-109962023D03*
X117426544Y-107962023D03*
%TD*%
D25*
%TO.C,U8*%
X77736700Y-117195600D03*
X77736700Y-117830600D03*
X77736700Y-118491000D03*
X77736700Y-119126000D03*
X77736700Y-119786400D03*
X77736700Y-120446800D03*
X77736700Y-121081800D03*
X77736700Y-121742200D03*
X77736700Y-122377200D03*
X77736700Y-123037600D03*
X77736700Y-123698000D03*
X77736700Y-124333000D03*
X77736700Y-124993400D03*
X77736700Y-125628400D03*
X83426300Y-125628400D03*
X83426300Y-124993400D03*
X83426300Y-124333000D03*
X83426300Y-123698000D03*
X83426300Y-123037600D03*
X83426300Y-122377200D03*
X83426300Y-121742200D03*
X83426300Y-121081800D03*
X83426300Y-120446800D03*
X83426300Y-119786400D03*
X83426300Y-119126000D03*
X83426300Y-118491000D03*
X83426300Y-117830600D03*
X83426300Y-117195600D03*
D26*
X80581500Y-121412000D03*
%TD*%
D11*
%TO.C,C11*%
X150564586Y-121706103D03*
X147564586Y-121706103D03*
%TD*%
%TO.C,C13*%
X150564586Y-119420103D03*
X147564586Y-119420103D03*
%TD*%
%TO.C,C14*%
X144849586Y-111292103D03*
X141849586Y-111292103D03*
%TD*%
%TO.C,C15*%
X141849586Y-118150103D03*
X144849586Y-118150103D03*
%TD*%
%TO.C,C16*%
X130649586Y-107482103D03*
X133649586Y-107482103D03*
%TD*%
D23*
%TO.C,J11*%
X147164586Y-109357103D03*
X147164586Y-110007103D03*
X147164586Y-110657103D03*
X147164586Y-111307103D03*
X147164586Y-111957103D03*
%TD*%
D19*
%TO.C,R28*%
X144906098Y-113570445D03*
X142006098Y-113570445D03*
%TD*%
%TO.C,R29*%
X142006098Y-115856445D03*
X144906098Y-115856445D03*
%TD*%
%TO.C,R30*%
X130670586Y-112308103D03*
X133570586Y-112308103D03*
%TD*%
D15*
%TO.C,R31*%
X138269586Y-106667103D03*
X138269586Y-109567103D03*
%TD*%
%TO.C,R32*%
X135856586Y-109567103D03*
X135856586Y-106667103D03*
%TD*%
D19*
%TO.C,R33*%
X133570586Y-114721103D03*
X130670586Y-114721103D03*
%TD*%
%TO.C,R34*%
X130700207Y-109895103D03*
X133600207Y-109895103D03*
%TD*%
%TO.C,R35*%
X133570586Y-117134103D03*
X130670586Y-117134103D03*
%TD*%
D27*
%TO.C,Rx2*%
X140729586Y-108498103D03*
X143429586Y-108498103D03*
%TD*%
%TO.C,Tx2*%
X143429586Y-106339103D03*
X140729586Y-106339103D03*
%TD*%
D28*
%TO.C,R12*%
X133608000Y-46482000D03*
X127508000Y-46482000D03*
%TD*%
D29*
%TO.C,Rx1*%
X73679300Y-76682600D03*
X77679300Y-76682600D03*
%TD*%
%TO.C,Tx1*%
X77742800Y-79044800D03*
X73742800Y-79044800D03*
%TD*%
%TO.C,PWR1*%
X73679300Y-74307700D03*
X77679300Y-74307700D03*
%TD*%
D30*
%TO.C,D5*%
X136893300Y-63176400D03*
X136893300Y-67176400D03*
%TD*%
M02*
