%TF.GenerationSoftware,KiCad,Pcbnew,5.0.0-fee4fd1~66~ubuntu18.04.1*%
%TF.CreationDate,2019-06-24T19:08:59-03:00*%
%TF.ProjectId,Placa tesis,506C6163612074657369732E6B696361,rev?*%
%TF.SameCoordinates,Original*%
%TF.FileFunction,Soldermask,Bot*%
%TF.FilePolarity,Negative*%
%FSLAX46Y46*%
G04 Gerber Fmt 4.6, Leading zero omitted, Abs format (unit mm)*
G04 Created by KiCad (PCBNEW 5.0.0-fee4fd1~66~ubuntu18.04.1) date Mon Jun 24 19:08:59 2019*
%MOMM*%
%LPD*%
G01*
G04 APERTURE LIST*
%ADD10C,0.150000*%
%ADD11O,2.100000X2.100000*%
%ADD12R,2.100000X2.100000*%
%ADD13C,3.400000*%
%ADD14O,4.360000X2.380000*%
%ADD15R,4.360000X2.380000*%
%ADD16O,2.400000X1.600000*%
%ADD17O,2.432000X2.940000*%
%ADD18O,1.200000X1.200000*%
%ADD19O,2.200000X1.550000*%
%ADD20O,2.400000X1.850000*%
%ADD21R,3.400000X3.400000*%
G04 APERTURE END LIST*
D10*
X70485000Y-140119100D02*
X153924000Y-140119100D01*
X70485000Y-101854000D02*
X153924000Y-101854000D01*
X153924000Y-41021000D02*
X153924000Y-140119100D01*
X70485000Y-41021000D02*
X70485000Y-140119100D01*
X70485000Y-41021000D02*
X153924000Y-41021000D01*
D11*
%TO.C,J1*%
X132715000Y-55118000D03*
X130175000Y-55118000D03*
D12*
X127635000Y-55118000D03*
%TD*%
%TO.C,J7*%
X97996544Y-123860024D03*
D11*
X97996544Y-121320024D03*
X97996544Y-118780024D03*
X97996544Y-116240024D03*
X97996544Y-113700024D03*
X97996544Y-111160024D03*
X97996544Y-108620024D03*
X97996544Y-106080024D03*
%TD*%
D13*
%TO.C,REF\002A\002A*%
X149098000Y-97028000D03*
%TD*%
D12*
%TO.C,OutP*%
X94869000Y-89408000D03*
%TD*%
D11*
%TO.C,TH1*%
X97409000Y-89408000D03*
D12*
X99949000Y-89408000D03*
%TD*%
D14*
%TO.C,D1*%
X80579001Y-46453001D03*
D15*
X80579001Y-51453001D03*
%TD*%
D14*
%TO.C,D2*%
X91440000Y-46435000D03*
D15*
X91440000Y-51435000D03*
%TD*%
%TO.C,D4*%
X113284000Y-51435000D03*
D14*
X113284000Y-46435000D03*
%TD*%
D15*
%TO.C,D3*%
X102362000Y-51435000D03*
D14*
X102362000Y-46435000D03*
%TD*%
D16*
%TO.C,U2*%
X122382978Y-89333063D03*
X150282978Y-89333063D03*
X122382978Y-86793063D03*
X150282978Y-86793063D03*
X122382978Y-84253063D03*
X150282978Y-84253063D03*
X122382978Y-81713063D03*
X150282978Y-81713063D03*
X122382978Y-79173063D03*
X150282978Y-79173063D03*
X122382978Y-76633063D03*
X150282978Y-76633063D03*
X122382978Y-74093063D03*
X150282978Y-74093063D03*
X122382978Y-71553063D03*
X150282978Y-71553063D03*
X122382978Y-69013063D03*
X150282978Y-69013063D03*
X122382978Y-66473063D03*
X150282978Y-66473063D03*
X122382978Y-63933063D03*
X150282978Y-63933063D03*
X122382978Y-61393063D03*
X150282978Y-61393063D03*
X122382978Y-58853063D03*
X150282978Y-58853063D03*
X122382978Y-56313063D03*
X150282978Y-56313063D03*
X122382978Y-53773063D03*
X150282978Y-53773063D03*
%TD*%
D17*
%TO.C,Q1*%
X83058000Y-65278000D03*
X77978000Y-65278000D03*
X80518000Y-65278000D03*
%TD*%
%TO.C,Q2*%
X91440000Y-65278000D03*
X88900000Y-65278000D03*
X93980000Y-65278000D03*
%TD*%
%TO.C,Q3*%
X104902000Y-65278000D03*
X99822000Y-65278000D03*
X102362000Y-65278000D03*
%TD*%
%TO.C,Q4*%
X113284000Y-65278000D03*
X110744000Y-65278000D03*
X115824000Y-65278000D03*
%TD*%
D18*
%TO.C,J2*%
X75603000Y-90384000D03*
X75603000Y-85384000D03*
D19*
X72853000Y-91759000D03*
X72853000Y-84009000D03*
D20*
X76653000Y-91609000D03*
X76653000Y-84159000D03*
%TD*%
D11*
%TO.C,J4*%
X118491000Y-74422000D03*
X118491000Y-76962000D03*
D12*
X118491000Y-79502000D03*
%TD*%
D13*
%TO.C,J3*%
X143383000Y-47117000D03*
D21*
X148463000Y-47117000D03*
%TD*%
D13*
%TO.C,REF\002A\002A*%
X74676000Y-97028000D03*
%TD*%
D11*
%TO.C,J5*%
X150169065Y-136973947D03*
X147629065Y-136973947D03*
X145089065Y-136973947D03*
X142549065Y-136973947D03*
X140009065Y-136973947D03*
X137469065Y-136973947D03*
X134929065Y-136973947D03*
D12*
X132389065Y-136973947D03*
%TD*%
D11*
%TO.C,J6*%
X132389065Y-126813947D03*
X134929065Y-126813947D03*
X137469065Y-126813947D03*
X140009065Y-126813947D03*
X142549065Y-126813947D03*
X145089065Y-126813947D03*
X147629065Y-126813947D03*
D12*
X150169065Y-126813947D03*
%TD*%
%TO.C,J8*%
X120856544Y-123860024D03*
D11*
X120856544Y-121320024D03*
X120856544Y-118780024D03*
X120856544Y-116240024D03*
X120856544Y-113700024D03*
X120856544Y-111160024D03*
X120856544Y-108620024D03*
X120856544Y-106080024D03*
%TD*%
%TO.C,J9*%
X72961500Y-137922000D03*
X72961500Y-135382000D03*
X72961500Y-132842000D03*
X72961500Y-130302000D03*
X72961500Y-127762000D03*
X72961500Y-125222000D03*
X72961500Y-122682000D03*
X72961500Y-120142000D03*
X72961500Y-117602000D03*
X72961500Y-115062000D03*
X72961500Y-112522000D03*
X72961500Y-109982000D03*
X72961500Y-107442000D03*
D12*
X72961500Y-104902000D03*
%TD*%
%TO.C,J10*%
X88201500Y-137922000D03*
D11*
X88201500Y-135382000D03*
X88201500Y-132842000D03*
X88201500Y-130302000D03*
X88201500Y-127762000D03*
X88201500Y-125222000D03*
X88201500Y-122682000D03*
X88201500Y-120142000D03*
X88201500Y-117602000D03*
X88201500Y-115062000D03*
X88201500Y-112522000D03*
X88201500Y-109982000D03*
X88201500Y-107442000D03*
X88201500Y-104902000D03*
%TD*%
D18*
%TO.C,J11*%
X148264586Y-108157103D03*
X148264586Y-113157103D03*
D19*
X151014586Y-106782103D03*
X151014586Y-114532103D03*
D20*
X147214586Y-106932103D03*
X147214586Y-114382103D03*
%TD*%
D11*
%TO.C,J12*%
X131411586Y-121452103D03*
X133951586Y-121452103D03*
X136491586Y-121452103D03*
X139031586Y-121452103D03*
X141571586Y-121452103D03*
D12*
X144111586Y-121452103D03*
%TD*%
D21*
%TO.C,BT1*%
X137033000Y-70612000D03*
D13*
X137033000Y-50122000D03*
%TD*%
M02*
