M48
; DRILL file {KiCad 5.1.5-52549c5~84~ubuntu18.04.1} date dom 26 jul 2020 00:26:12 -03
; FORMAT={-:-/ absolute / inch / decimal}
; #@! TF.CreationDate,2020-07-26T00:26:12-03:00
; #@! TF.GenerationSoftware,Kicad,Pcbnew,5.1.5-52549c5~84~ubuntu18.04.1
FMAT,2
INCH
T1C0.0157
T2C0.0315
T3C0.0394
T4C0.0450
T5C0.0520
T6C0.0591
T7C0.0598
T8C0.1181
%
G90
G05
T1
X3.9557Y-2.0817
X3.9606Y-1.9193
X4.128Y-1.8898
X4.1476Y-1.9291
X4.1673Y-1.9587
X4.187Y-1.998
X4.2264Y-1.8209
X4.2953Y-1.9193
X4.3425Y-2.7953
X4.351Y-1.813
X4.3512Y-2.2116
X4.356Y-2.2924
X4.4134Y-2.2638
X4.4528Y-2.7953
X4.4642Y-1.815
X4.4944Y-2.0786
X4.502Y-2.2146
X4.5037Y-1.9804
X4.5056Y-1.9489
X4.5071Y-1.8849
X4.5097Y-1.9171
X4.5142Y-2.054
X4.6763Y-2.0623
X4.689Y-3.1693
X4.7953Y-2.8386
X4.8504Y-1.7244
X4.8504Y-1.8346
X4.8504Y-1.9331
X4.9528Y-2.4016
X4.9665Y-3.1339
X4.9665Y-3.2126
X4.9665Y-3.2913
X4.9695Y-3.0945
X4.9724Y-2.1014
X4.9961Y-2.4528
X5.0512Y-2.0039
X5.084Y-3.4882
X5.084Y-3.5669
X5.0846Y-3.0157
X5.0846Y-3.0945
X5.0846Y-3.1732
X5.0846Y-3.252
X5.0846Y-3.3307
X5.0846Y-3.4094
X5.0984Y-1.937
X5.1929Y-2.9567
X5.2618Y-3.0551
X5.3386Y-3.3228
X5.3439Y-3.2093
X5.4193Y-3.1339
X5.498Y-2.9567
X5.5709Y-2.8465
X5.5768Y-2.9567
X5.6825Y-3.3307
X5.685Y-2.7441
X5.685Y-3.0157
X5.685Y-3.0945
X5.685Y-3.1732
X5.685Y-3.252
X5.685Y-3.4094
X5.685Y-3.4882
X5.8898Y-3.437
X5.9961Y-2.937
T2
X4.839Y-2.0882
X4.839Y-2.1882
X4.839Y-2.2882
X4.839Y-2.3882
X4.839Y-2.4882
X4.839Y-2.5882
X4.839Y-2.6882
X4.839Y-2.7882
X4.839Y-2.8882
X4.839Y-2.9882
X4.839Y-3.0882
X4.839Y-3.1882
X4.839Y-3.2882
X4.839Y-3.3882
X4.839Y-3.4882
X5.9375Y-2.0882
X5.9375Y-2.1882
X5.9375Y-2.2882
X5.9375Y-2.3882
X5.9375Y-2.4882
X5.9375Y-2.5882
X5.9375Y-2.6882
X5.9375Y-2.7882
X5.9375Y-2.8882
X5.9375Y-2.9882
X5.9375Y-3.0882
X5.9375Y-3.1882
X5.9375Y-3.2882
X5.9375Y-3.3882
X5.9375Y-3.4882
T3
X4.4039Y-2.5236
X4.5039Y-2.5236
X5.2441Y-2.4024
X5.2441Y-2.5024
X5.2441Y-2.6024
X5.2441Y-2.7024
X5.2441Y-2.8024
X5.5427Y-2.1346
X5.6427Y-2.1346
X5.7427Y-2.1346
X4.3031Y-2.5236
X5.0984Y-2.1024
X5.0984Y-2.2024
X5.0984Y-2.3024
X5.0984Y-2.4024
X5.0984Y-2.5024
X5.0984Y-2.6024
X5.0984Y-2.7024
X5.0984Y-2.8024
X4.2047Y-3.5157
X4.3047Y-3.5157
X4.4047Y-3.5157
X4.5047Y-3.5157
X4.3031Y-2.6693
X4.4031Y-2.6693
X4.5031Y-2.6693
X5.3898Y-2.5008
X5.3898Y-2.6008
X5.3898Y-2.7008
X5.3898Y-2.8008
T4
X4.0371Y-3.1717
X4.0371Y-3.2717
X4.0371Y-3.3717
X4.0371Y-2.3117
X4.0371Y-2.4117
X4.0371Y-2.5117
X4.0371Y-1.8817
X4.0371Y-1.9817
X4.0371Y-2.0817
X4.0371Y-2.7417
X4.0371Y-2.8417
X4.0371Y-2.9417
T5
X3.5296Y-1.7598
X3.5296Y-1.9567
X3.5296Y-2.2047
X3.5296Y-2.4016
X3.5296Y-3.0945
X3.5296Y-3.2913
X3.5296Y-2.6496
X3.5296Y-2.8465
T6
X4.6732Y-2.6579
X4.6732Y-3.4646
T7
X5.3039Y-1.8189
X5.5039Y-1.8189
T8
X3.3976Y-3.4803
X5.8898Y-1.7874
T0
M30
