%TF.GenerationSoftware,KiCad,Pcbnew,5.1.5-52549c5~84~ubuntu18.04.1*%
%TF.CreationDate,2020-07-26T00:26:10-03:00*%
%TF.ProjectId,Placa tesis,506c6163-6120-4746-9573-69732e6b6963,rev?*%
%TF.SameCoordinates,Original*%
%TF.FileFunction,Legend,Bot*%
%TF.FilePolarity,Positive*%
%FSLAX46Y46*%
G04 Gerber Fmt 4.6, Leading zero omitted, Abs format (unit mm)*
G04 Created by KiCad (PCBNEW 5.1.5-52549c5~84~ubuntu18.04.1) date 2020-07-26 00:26:10*
%MOMM*%
%LPD*%
G04 APERTURE LIST*
%TA.AperFunction,Profile*%
%ADD10C,0.150000*%
%TD*%
%ADD11C,0.120000*%
%ADD12C,0.150000*%
G04 APERTURE END LIST*
D10*
X82800000Y-91800000D02*
X153900000Y-91800000D01*
X153900000Y-41400000D02*
X153900000Y-91800000D01*
X82800000Y-41400000D02*
X82800000Y-91800000D01*
X82800000Y-41400000D02*
X153900000Y-41400000D01*
D11*
%TO.C,BT1*%
X118745281Y-61304329D02*
G75*
G03X115200000Y-83750000I-45281J-11495671D01*
G01*
X115173616Y-83748246D02*
G75*
G02X115700000Y-84500000I-273616J-751754D01*
G01*
X118654719Y-61304329D02*
G75*
G02X122200000Y-83750000I45281J-11495671D01*
G01*
X122226384Y-83748246D02*
G75*
G03X121700000Y-84500000I273616J-751754D01*
G01*
X121700000Y-90200000D02*
X121700000Y-84500000D01*
X115700000Y-90200000D02*
X121700000Y-90200000D01*
X115700000Y-90200000D02*
X115700000Y-84500000D01*
%TD*%
%TO.C,BT1*%
D12*
X122928571Y-87214285D02*
X122976190Y-87357142D01*
X123023809Y-87404761D01*
X123119047Y-87452380D01*
X123261904Y-87452380D01*
X123357142Y-87404761D01*
X123404761Y-87357142D01*
X123452380Y-87261904D01*
X123452380Y-86880952D01*
X122452380Y-86880952D01*
X122452380Y-87214285D01*
X122500000Y-87309523D01*
X122547619Y-87357142D01*
X122642857Y-87404761D01*
X122738095Y-87404761D01*
X122833333Y-87357142D01*
X122880952Y-87309523D01*
X122928571Y-87214285D01*
X122928571Y-86880952D01*
X122452380Y-87738095D02*
X122452380Y-88309523D01*
X123452380Y-88023809D02*
X122452380Y-88023809D01*
X123452380Y-89166666D02*
X123452380Y-88595238D01*
X123452380Y-88880952D02*
X122452380Y-88880952D01*
X122595238Y-88785714D01*
X122690476Y-88690476D01*
X122738095Y-88595238D01*
X118807142Y-84678571D02*
X118807142Y-85821428D01*
X119378571Y-85250000D02*
X118235714Y-85250000D01*
%TD*%
M02*
