%TF.GenerationSoftware,KiCad,Pcbnew,5.1.5-52549c5~84~ubuntu18.04.1*%
%TF.CreationDate,2020-07-26T00:26:10-03:00*%
%TF.ProjectId,Placa tesis,506c6163-6120-4746-9573-69732e6b6963,rev?*%
%TF.SameCoordinates,Original*%
%TF.FileFunction,Soldermask,Bot*%
%TF.FilePolarity,Negative*%
%FSLAX46Y46*%
G04 Gerber Fmt 4.6, Leading zero omitted, Abs format (unit mm)*
G04 Created by KiCad (PCBNEW 5.1.5-52549c5~84~ubuntu18.04.1) date 2020-07-26 00:26:10*
%MOMM*%
%LPD*%
G04 APERTURE LIST*
%TA.AperFunction,Profile*%
%ADD10C,0.150000*%
%TD*%
%ADD11R,2.100000X2.100000*%
%ADD12O,2.100000X2.100000*%
%ADD13R,4.360000X2.380000*%
%ADD14O,4.360000X2.380000*%
%ADD15C,3.400000*%
%ADD16O,2.940000X2.432000*%
%ADD17O,2.400000X1.600000*%
%ADD18R,3.400000X3.400000*%
G04 APERTURE END LIST*
D10*
X82800000Y-91800000D02*
X153900000Y-91800000D01*
X153900000Y-41400000D02*
X153900000Y-91800000D01*
X82800000Y-41400000D02*
X82800000Y-91800000D01*
X82800000Y-41400000D02*
X153900000Y-41400000D01*
D11*
%TO.C,J4*%
X114380000Y-67800000D03*
D12*
X111840000Y-67800000D03*
X109300000Y-67800000D03*
%TD*%
D13*
%TO.C,D4*%
X89651000Y-49700000D03*
D14*
X89651000Y-44700000D03*
%TD*%
D15*
%TO.C,REF\002A\002A*%
X86300000Y-88400000D03*
%TD*%
D11*
%TO.C,J13*%
X133200000Y-61020000D03*
D12*
X133200000Y-63560000D03*
X133200000Y-66100000D03*
X133200000Y-68640000D03*
X133200000Y-71180000D03*
%TD*%
D11*
%TO.C,J14*%
X129500000Y-53400000D03*
D12*
X129500000Y-55940000D03*
X129500000Y-58480000D03*
X129500000Y-61020000D03*
X129500000Y-63560000D03*
X129500000Y-66100000D03*
X129500000Y-68640000D03*
X129500000Y-71180000D03*
%TD*%
D11*
%TO.C,J15*%
X136900000Y-71140000D03*
D12*
X136900000Y-68600000D03*
X136900000Y-66060000D03*
X136900000Y-63520000D03*
%TD*%
D16*
%TO.C,Q4*%
X102541500Y-50335500D03*
X102541500Y-52875500D03*
X102541500Y-47795500D03*
%TD*%
D17*
%TO.C,U2*%
X150811500Y-53040000D03*
X122911500Y-53040000D03*
X150811500Y-55580000D03*
X122911500Y-55580000D03*
X150811500Y-58120000D03*
X122911500Y-58120000D03*
X150811500Y-60660000D03*
X122911500Y-60660000D03*
X150811500Y-63200000D03*
X122911500Y-63200000D03*
X150811500Y-65740000D03*
X122911500Y-65740000D03*
X150811500Y-68280000D03*
X122911500Y-68280000D03*
X150811500Y-70820000D03*
X122911500Y-70820000D03*
X150811500Y-73360000D03*
X122911500Y-73360000D03*
X150811500Y-75900000D03*
X122911500Y-75900000D03*
X150811500Y-78440000D03*
X122911500Y-78440000D03*
X150811500Y-80980000D03*
X122911500Y-80980000D03*
X150811500Y-83520000D03*
X122911500Y-83520000D03*
X150811500Y-86060000D03*
X122911500Y-86060000D03*
X150811500Y-88600000D03*
X122911500Y-88600000D03*
%TD*%
D12*
%TO.C,TH1*%
X114400000Y-64100000D03*
D11*
X111860000Y-64100000D03*
%TD*%
D12*
%TO.C,J1*%
X145865000Y-54218000D03*
X143325000Y-54218000D03*
D11*
X140785000Y-54218000D03*
%TD*%
D15*
%TO.C,REF\002A\002A*%
X149600000Y-45400000D03*
%TD*%
D11*
%TO.C,OutP*%
X109300000Y-64100000D03*
%TD*%
D14*
%TO.C,D1*%
X89651000Y-78600000D03*
D13*
X89651000Y-83600000D03*
%TD*%
D14*
%TO.C,D2*%
X89651000Y-67300000D03*
D13*
X89651000Y-72300000D03*
%TD*%
%TO.C,D3*%
X89651000Y-61000000D03*
D14*
X89651000Y-56000000D03*
%TD*%
D16*
%TO.C,Q1*%
X102541500Y-80561500D03*
X102541500Y-85641500D03*
X102541500Y-83101500D03*
%TD*%
%TO.C,Q2*%
X102541500Y-72179500D03*
X102541500Y-74719500D03*
X102541500Y-69639500D03*
%TD*%
%TO.C,Q3*%
X102541500Y-58717500D03*
X102541500Y-63797500D03*
X102541500Y-61257500D03*
%TD*%
D15*
%TO.C,J3*%
X134720000Y-46200000D03*
D18*
X139800000Y-46200000D03*
%TD*%
D15*
%TO.C,BT1*%
X118700000Y-67510000D03*
D18*
X118700000Y-88000000D03*
%TD*%
D11*
%TO.C,J5*%
X106800000Y-89300000D03*
D12*
X109340000Y-89300000D03*
X111880000Y-89300000D03*
X114420000Y-89300000D03*
%TD*%
M02*
