%TF.GenerationSoftware,KiCad,Pcbnew,5.1.5-52549c5~84~ubuntu18.04.1*%
%TF.CreationDate,2020-07-26T00:26:10-03:00*%
%TF.ProjectId,Placa tesis,506c6163-6120-4746-9573-69732e6b6963,rev?*%
%TF.SameCoordinates,Original*%
%TF.FileFunction,Legend,Top*%
%TF.FilePolarity,Positive*%
%FSLAX46Y46*%
G04 Gerber Fmt 4.6, Leading zero omitted, Abs format (unit mm)*
G04 Created by KiCad (PCBNEW 5.1.5-52549c5~84~ubuntu18.04.1) date 2020-07-26 00:26:10*
%MOMM*%
%LPD*%
G04 APERTURE LIST*
%TA.AperFunction,Profile*%
%ADD10C,0.150000*%
%TD*%
%ADD11C,0.300000*%
%ADD12C,0.200000*%
%ADD13C,0.500000*%
%ADD14C,0.120000*%
%ADD15C,0.150000*%
%ADD16C,0.100000*%
%ADD17C,0.152400*%
G04 APERTURE END LIST*
D10*
X82800000Y-91800000D02*
X153900000Y-91800000D01*
D11*
X142130428Y-60363857D02*
X142130428Y-61221000D01*
X140630428Y-60792428D02*
X142130428Y-60792428D01*
X141416142Y-61721000D02*
X141416142Y-62221000D01*
X140630428Y-62435285D02*
X140630428Y-61721000D01*
X142130428Y-61721000D01*
X142130428Y-62435285D01*
X140630428Y-63078142D02*
X142130428Y-63078142D01*
X141059000Y-63578142D01*
X142130428Y-64078142D01*
X140630428Y-64078142D01*
X140630428Y-64792428D02*
X142130428Y-64792428D01*
X142130428Y-65363857D01*
X142059000Y-65506714D01*
X141987571Y-65578142D01*
X141844714Y-65649571D01*
X141630428Y-65649571D01*
X141487571Y-65578142D01*
X141416142Y-65506714D01*
X141344714Y-65363857D01*
X141344714Y-64792428D01*
X140630428Y-68221000D02*
X140630428Y-67363857D01*
X140630428Y-67792428D02*
X142130428Y-67792428D01*
X141916142Y-67649571D01*
X141773285Y-67506714D01*
X141701857Y-67363857D01*
X142130428Y-68721000D02*
X140630428Y-69078142D01*
X141701857Y-69363857D01*
X140630428Y-69649571D01*
X142130428Y-70006714D01*
D12*
X137724000Y-51582000D02*
X137724000Y-68600000D01*
X137724000Y-68600000D02*
X148900000Y-68600000D01*
D10*
X153900000Y-41400000D02*
X153900000Y-91800000D01*
X82800000Y-41400000D02*
X82800000Y-91800000D01*
D13*
X113604710Y-57925500D02*
G75*
G03X113604710Y-57925500I-359210J0D01*
G01*
D11*
X120686071Y-53500785D02*
X120686071Y-52643642D01*
X122186071Y-53072214D02*
X120686071Y-53072214D01*
X122186071Y-52143642D02*
X120686071Y-52143642D01*
X121400357Y-52143642D02*
X121400357Y-51286500D01*
X122186071Y-51286500D02*
X120686071Y-51286500D01*
X122186071Y-49715071D02*
X121471785Y-50215071D01*
X122186071Y-50572214D02*
X120686071Y-50572214D01*
X120686071Y-50000785D01*
X120757500Y-49857928D01*
X120828928Y-49786500D01*
X120971785Y-49715071D01*
X121186071Y-49715071D01*
X121328928Y-49786500D01*
X121400357Y-49857928D01*
X121471785Y-50000785D01*
X121471785Y-50572214D01*
D12*
X148913000Y-51551000D02*
X148913000Y-68569000D01*
X137737000Y-51551000D02*
X148913000Y-51551000D01*
D10*
X82800000Y-41400000D02*
X153900000Y-41400000D01*
D14*
%TO.C,R12*%
X124120000Y-42790000D02*
X128180000Y-42790000D01*
X124120000Y-50410000D02*
X128180000Y-50410000D01*
%TO.C,J4*%
X107970000Y-66470000D02*
X107970000Y-69130000D01*
X113110000Y-66470000D02*
X107970000Y-66470000D01*
X113110000Y-69130000D02*
X107970000Y-69130000D01*
X113110000Y-66470000D02*
X113110000Y-69130000D01*
X114380000Y-66470000D02*
X115710000Y-66470000D01*
X115710000Y-66470000D02*
X115710000Y-67800000D01*
%TO.C,R26*%
X111097936Y-70090000D02*
X112302064Y-70090000D01*
X111097936Y-71910000D02*
X112302064Y-71910000D01*
%TO.C,R15*%
X148897936Y-49290000D02*
X150102064Y-49290000D01*
X148897936Y-51110000D02*
X150102064Y-51110000D01*
%TO.C,J13*%
X131870000Y-72510000D02*
X134530000Y-72510000D01*
X131870000Y-62290000D02*
X131870000Y-72510000D01*
X134530000Y-62290000D02*
X134530000Y-72510000D01*
X131870000Y-62290000D02*
X134530000Y-62290000D01*
X131870000Y-61020000D02*
X131870000Y-59690000D01*
X131870000Y-59690000D02*
X133200000Y-59690000D01*
%TO.C,U3*%
X127510000Y-54100000D02*
X127510000Y-52600000D01*
X127510000Y-54100000D02*
X127510000Y-55600000D01*
X124290000Y-54100000D02*
X124290000Y-52600000D01*
X124290000Y-54100000D02*
X124290000Y-57025000D01*
%TO.C,J14*%
X128170000Y-72510000D02*
X130830000Y-72510000D01*
X128170000Y-54670000D02*
X128170000Y-72510000D01*
X130830000Y-54670000D02*
X130830000Y-72510000D01*
X128170000Y-54670000D02*
X130830000Y-54670000D01*
X128170000Y-53400000D02*
X128170000Y-52070000D01*
X128170000Y-52070000D02*
X129500000Y-52070000D01*
%TO.C,J15*%
X138230000Y-62190000D02*
X135570000Y-62190000D01*
X138230000Y-69870000D02*
X138230000Y-62190000D01*
X135570000Y-69870000D02*
X135570000Y-62190000D01*
X138230000Y-69870000D02*
X135570000Y-69870000D01*
X138230000Y-71140000D02*
X138230000Y-72470000D01*
X138230000Y-72470000D02*
X136900000Y-72470000D01*
D15*
%TO.C,Q4*%
X104192500Y-55161500D02*
X100763500Y-55161500D01*
X104192500Y-45509500D02*
X100763500Y-45509500D01*
X105335500Y-55669500D02*
X105335500Y-45001500D01*
X104319500Y-52113500D02*
X105589500Y-52113500D01*
X104319500Y-48557500D02*
X105589500Y-48557500D01*
X104192500Y-45001500D02*
X104192500Y-55669500D01*
X100763500Y-55669500D02*
X100763500Y-45001500D01*
X105589500Y-45001500D02*
X100763500Y-45001500D01*
X105589500Y-55669500D02*
X100763500Y-55669500D01*
X105589500Y-55669500D02*
X105589500Y-45001500D01*
%TO.C,U2*%
X125957551Y-45420000D02*
G75*
G03X125957551Y-45420000I-1796051J0D01*
G01*
X151357551Y-45420000D02*
G75*
G03X151357551Y-45420000I-1796051J0D01*
G01*
X151357551Y-96220000D02*
G75*
G03X151357551Y-96220000I-1796051J0D01*
G01*
X125957551Y-96220000D02*
G75*
G03X125957551Y-96220000I-1796051J0D01*
G01*
X142011499Y-99200000D02*
X152311499Y-99200000D01*
X142011499Y-98750000D02*
X142011499Y-99200000D01*
X131711500Y-98750000D02*
X142011499Y-98750000D01*
X131711500Y-99200000D02*
X131711500Y-98750000D01*
X121411500Y-99200000D02*
X131711500Y-99200000D01*
X121411501Y-42440000D02*
X121411500Y-99200000D01*
X152311500Y-42440000D02*
X121411501Y-42440000D01*
X152311499Y-99200000D02*
X152311500Y-42440000D01*
D14*
%TO.C,U5*%
X144854500Y-91600000D02*
X145464500Y-91600000D01*
X144854500Y-91600000D02*
X144854500Y-99220000D01*
X144854500Y-74980000D02*
X144854500Y-75600000D01*
X142734500Y-74980000D02*
X144854500Y-74980000D01*
X128614500Y-74980000D02*
X130734500Y-74980000D01*
X128614500Y-75600000D02*
X128614500Y-74980000D01*
X128614500Y-99220000D02*
X128614500Y-91600000D01*
X144854500Y-99220000D02*
X128614500Y-99220000D01*
%TO.C,J1*%
X139455000Y-55548000D02*
X139455000Y-54218000D01*
X140785000Y-55548000D02*
X139455000Y-55548000D01*
X142055000Y-55548000D02*
X142055000Y-52888000D01*
X142055000Y-52888000D02*
X147195000Y-52888000D01*
X142055000Y-55548000D02*
X147195000Y-55548000D01*
X147195000Y-55548000D02*
X147195000Y-52888000D01*
%TO.C,OutP*%
X110630000Y-65430000D02*
X110630000Y-62770000D01*
X110570000Y-65430000D02*
X110630000Y-65430000D01*
X110570000Y-62770000D02*
X110630000Y-62770000D01*
X110570000Y-65430000D02*
X110570000Y-62770000D01*
X109300000Y-65430000D02*
X107970000Y-65430000D01*
X107970000Y-65430000D02*
X107970000Y-64100000D01*
D15*
%TO.C,Q1*%
X105589500Y-88435500D02*
X105589500Y-77767500D01*
X105589500Y-88435500D02*
X100763500Y-88435500D01*
X105589500Y-77767500D02*
X100763500Y-77767500D01*
X100763500Y-88435500D02*
X100763500Y-77767500D01*
X104192500Y-77767500D02*
X104192500Y-88435500D01*
X104319500Y-81323500D02*
X105589500Y-81323500D01*
X104319500Y-84879500D02*
X105589500Y-84879500D01*
X105335500Y-88435500D02*
X105335500Y-77767500D01*
X104192500Y-78275500D02*
X100763500Y-78275500D01*
X104192500Y-87927500D02*
X100763500Y-87927500D01*
D16*
%TO.C,U4*%
X110019700Y-57315900D02*
G75*
G02X110629300Y-57315900I304800J0D01*
G01*
D17*
X110629300Y-57315900D02*
X112534300Y-57315900D01*
X110019700Y-57315900D02*
X110629300Y-57315900D01*
X108114700Y-57315900D02*
X110019700Y-57315900D01*
X112534300Y-47613100D02*
X108114700Y-47613100D01*
D14*
%TO.C,C1*%
X118279020Y-41814020D02*
X116279020Y-41814020D01*
X116279020Y-43854020D02*
X118279020Y-43854020D01*
%TO.C,C2*%
X116279020Y-50255020D02*
X118279020Y-50255020D01*
X118279020Y-48215020D02*
X116279020Y-48215020D01*
%TO.C,C3*%
X118279020Y-51363020D02*
X116279020Y-51363020D01*
X116279020Y-53403020D02*
X118279020Y-53403020D01*
%TO.C,C4*%
X116279020Y-59804020D02*
X118279020Y-59804020D01*
X118279020Y-57764020D02*
X116279020Y-57764020D01*
D15*
%TO.C,Q2*%
X104192500Y-77005500D02*
X100763500Y-77005500D01*
X104192500Y-67353500D02*
X100763500Y-67353500D01*
X105335500Y-77513500D02*
X105335500Y-66845500D01*
X104319500Y-73957500D02*
X105589500Y-73957500D01*
X104319500Y-70401500D02*
X105589500Y-70401500D01*
X104192500Y-66845500D02*
X104192500Y-77513500D01*
X100763500Y-77513500D02*
X100763500Y-66845500D01*
X105589500Y-66845500D02*
X100763500Y-66845500D01*
X105589500Y-77513500D02*
X100763500Y-77513500D01*
X105589500Y-77513500D02*
X105589500Y-66845500D01*
%TO.C,Q3*%
X105589500Y-66591500D02*
X105589500Y-55923500D01*
X105589500Y-66591500D02*
X100763500Y-66591500D01*
X105589500Y-55923500D02*
X100763500Y-55923500D01*
X100763500Y-66591500D02*
X100763500Y-55923500D01*
X104192500Y-55923500D02*
X104192500Y-66591500D01*
X104319500Y-59479500D02*
X105589500Y-59479500D01*
X104319500Y-63035500D02*
X105589500Y-63035500D01*
X105335500Y-66591500D02*
X105335500Y-55923500D01*
X104192500Y-56431500D02*
X100763500Y-56431500D01*
X104192500Y-66083500D02*
X100763500Y-66083500D01*
D14*
%TO.C,R1*%
X116400000Y-60180000D02*
X118400000Y-60180000D01*
X118400000Y-62320000D02*
X116400000Y-62320000D01*
%TO.C,R2*%
X116365720Y-54500920D02*
X118365720Y-54500920D01*
X118365720Y-56640920D02*
X116365720Y-56640920D01*
%TO.C,R7*%
X110965000Y-44981000D02*
X112965000Y-44981000D01*
X112965000Y-47121000D02*
X110965000Y-47121000D01*
%TO.C,R8*%
X118401280Y-47090520D02*
X116401280Y-47090520D01*
X116401280Y-44950520D02*
X118401280Y-44950520D01*
%TO.C,R9*%
X113039000Y-44073000D02*
X111039000Y-44073000D01*
X111039000Y-41933000D02*
X113039000Y-41933000D01*
%TO.C,R3*%
X99916500Y-79993500D02*
X99916500Y-85193500D01*
X96276500Y-85193500D02*
X96276500Y-79993500D01*
%TO.C,R4*%
X96393016Y-74239215D02*
X96393016Y-69039215D01*
X100033016Y-69039215D02*
X100033016Y-74239215D01*
%TO.C,R5*%
X100007615Y-58110079D02*
X100007615Y-63310079D01*
X96367615Y-63310079D02*
X96367615Y-58110079D01*
%TO.C,R6*%
X96483848Y-52363607D02*
X96483848Y-47163607D01*
X100123848Y-47163607D02*
X100123848Y-52363607D01*
%TO.C,R27*%
X109572000Y-60800000D02*
X109572000Y-58800000D01*
X111712000Y-58800000D02*
X111712000Y-60800000D01*
%TO.C,J3*%
X142340000Y-42390000D02*
X132180000Y-42390000D01*
X142340000Y-50010000D02*
X142340000Y-42390000D01*
X132180000Y-50010000D02*
X142340000Y-50010000D01*
X132180000Y-42390000D02*
X132180000Y-50010000D01*
X132180000Y-43660000D02*
X142340000Y-43660000D01*
%TO.C,C9*%
X131990000Y-56902064D02*
X131990000Y-55697936D01*
X133810000Y-56902064D02*
X133810000Y-55697936D01*
%TO.C,C10*%
X136560000Y-56902064D02*
X136560000Y-55697936D01*
X134740000Y-56902064D02*
X134740000Y-55697936D01*
%TO.C,D5*%
X117150000Y-85800000D02*
X120450000Y-85800000D01*
X120450000Y-85800000D02*
X120450000Y-80400000D01*
X117150000Y-85800000D02*
X117150000Y-80400000D01*
%TO.C,R10*%
X112440000Y-59547936D02*
X112440000Y-60752064D01*
X114260000Y-59547936D02*
X114260000Y-60752064D01*
%TO.C,R13*%
X142397936Y-70810000D02*
X143602064Y-70810000D01*
X142397936Y-68990000D02*
X143602064Y-68990000D01*
%TO.C,R14*%
X142397936Y-71390000D02*
X143602064Y-71390000D01*
X142397936Y-73210000D02*
X143602064Y-73210000D01*
%TO.C,J5*%
X115750000Y-90630000D02*
X115750000Y-87970000D01*
X108070000Y-90630000D02*
X115750000Y-90630000D01*
X108070000Y-87970000D02*
X115750000Y-87970000D01*
X108070000Y-90630000D02*
X108070000Y-87970000D01*
X106800000Y-90630000D02*
X105470000Y-90630000D01*
X105470000Y-90630000D02*
X105470000Y-89300000D01*
%TD*%
%TO.C,R12*%
D15*
X125507142Y-41972380D02*
X125173809Y-41496190D01*
X124935714Y-41972380D02*
X124935714Y-40972380D01*
X125316666Y-40972380D01*
X125411904Y-41020000D01*
X125459523Y-41067619D01*
X125507142Y-41162857D01*
X125507142Y-41305714D01*
X125459523Y-41400952D01*
X125411904Y-41448571D01*
X125316666Y-41496190D01*
X124935714Y-41496190D01*
X126459523Y-41972380D02*
X125888095Y-41972380D01*
X126173809Y-41972380D02*
X126173809Y-40972380D01*
X126078571Y-41115238D01*
X125983333Y-41210476D01*
X125888095Y-41258095D01*
X126840476Y-41067619D02*
X126888095Y-41020000D01*
X126983333Y-40972380D01*
X127221428Y-40972380D01*
X127316666Y-41020000D01*
X127364285Y-41067619D01*
X127411904Y-41162857D01*
X127411904Y-41258095D01*
X127364285Y-41400952D01*
X126792857Y-41972380D01*
X127411904Y-41972380D01*
%TO.C,J4*%
X116162380Y-68133333D02*
X116876666Y-68133333D01*
X117019523Y-68180952D01*
X117114761Y-68276190D01*
X117162380Y-68419047D01*
X117162380Y-68514285D01*
X116495714Y-67228571D02*
X117162380Y-67228571D01*
X116114761Y-67466666D02*
X116829047Y-67704761D01*
X116829047Y-67085714D01*
%TO.C,R26*%
X111057142Y-69632380D02*
X110723809Y-69156190D01*
X110485714Y-69632380D02*
X110485714Y-68632380D01*
X110866666Y-68632380D01*
X110961904Y-68680000D01*
X111009523Y-68727619D01*
X111057142Y-68822857D01*
X111057142Y-68965714D01*
X111009523Y-69060952D01*
X110961904Y-69108571D01*
X110866666Y-69156190D01*
X110485714Y-69156190D01*
X111438095Y-68727619D02*
X111485714Y-68680000D01*
X111580952Y-68632380D01*
X111819047Y-68632380D01*
X111914285Y-68680000D01*
X111961904Y-68727619D01*
X112009523Y-68822857D01*
X112009523Y-68918095D01*
X111961904Y-69060952D01*
X111390476Y-69632380D01*
X112009523Y-69632380D01*
X112866666Y-68632380D02*
X112676190Y-68632380D01*
X112580952Y-68680000D01*
X112533333Y-68727619D01*
X112438095Y-68870476D01*
X112390476Y-69060952D01*
X112390476Y-69441904D01*
X112438095Y-69537142D01*
X112485714Y-69584761D01*
X112580952Y-69632380D01*
X112771428Y-69632380D01*
X112866666Y-69584761D01*
X112914285Y-69537142D01*
X112961904Y-69441904D01*
X112961904Y-69203809D01*
X112914285Y-69108571D01*
X112866666Y-69060952D01*
X112771428Y-69013333D01*
X112580952Y-69013333D01*
X112485714Y-69060952D01*
X112438095Y-69108571D01*
X112390476Y-69203809D01*
%TO.C,R15*%
X148857142Y-48832380D02*
X148523809Y-48356190D01*
X148285714Y-48832380D02*
X148285714Y-47832380D01*
X148666666Y-47832380D01*
X148761904Y-47880000D01*
X148809523Y-47927619D01*
X148857142Y-48022857D01*
X148857142Y-48165714D01*
X148809523Y-48260952D01*
X148761904Y-48308571D01*
X148666666Y-48356190D01*
X148285714Y-48356190D01*
X149809523Y-48832380D02*
X149238095Y-48832380D01*
X149523809Y-48832380D02*
X149523809Y-47832380D01*
X149428571Y-47975238D01*
X149333333Y-48070476D01*
X149238095Y-48118095D01*
X150714285Y-47832380D02*
X150238095Y-47832380D01*
X150190476Y-48308571D01*
X150238095Y-48260952D01*
X150333333Y-48213333D01*
X150571428Y-48213333D01*
X150666666Y-48260952D01*
X150714285Y-48308571D01*
X150761904Y-48403809D01*
X150761904Y-48641904D01*
X150714285Y-48737142D01*
X150666666Y-48784761D01*
X150571428Y-48832380D01*
X150333333Y-48832380D01*
X150238095Y-48784761D01*
X150190476Y-48737142D01*
%TO.C,J13*%
X132390476Y-58142380D02*
X132390476Y-58856666D01*
X132342857Y-58999523D01*
X132247619Y-59094761D01*
X132104761Y-59142380D01*
X132009523Y-59142380D01*
X133390476Y-59142380D02*
X132819047Y-59142380D01*
X133104761Y-59142380D02*
X133104761Y-58142380D01*
X133009523Y-58285238D01*
X132914285Y-58380476D01*
X132819047Y-58428095D01*
X133723809Y-58142380D02*
X134342857Y-58142380D01*
X134009523Y-58523333D01*
X134152380Y-58523333D01*
X134247619Y-58570952D01*
X134295238Y-58618571D01*
X134342857Y-58713809D01*
X134342857Y-58951904D01*
X134295238Y-59047142D01*
X134247619Y-59094761D01*
X134152380Y-59142380D01*
X133866666Y-59142380D01*
X133771428Y-59094761D01*
X133723809Y-59047142D01*
%TO.C,U3*%
X122902380Y-54861904D02*
X123711904Y-54861904D01*
X123807142Y-54814285D01*
X123854761Y-54766666D01*
X123902380Y-54671428D01*
X123902380Y-54480952D01*
X123854761Y-54385714D01*
X123807142Y-54338095D01*
X123711904Y-54290476D01*
X122902380Y-54290476D01*
X122902380Y-53909523D02*
X122902380Y-53290476D01*
X123283333Y-53623809D01*
X123283333Y-53480952D01*
X123330952Y-53385714D01*
X123378571Y-53338095D01*
X123473809Y-53290476D01*
X123711904Y-53290476D01*
X123807142Y-53338095D01*
X123854761Y-53385714D01*
X123902380Y-53480952D01*
X123902380Y-53766666D01*
X123854761Y-53861904D01*
X123807142Y-53909523D01*
%TO.C,J14*%
X128690476Y-50522380D02*
X128690476Y-51236666D01*
X128642857Y-51379523D01*
X128547619Y-51474761D01*
X128404761Y-51522380D01*
X128309523Y-51522380D01*
X129690476Y-51522380D02*
X129119047Y-51522380D01*
X129404761Y-51522380D02*
X129404761Y-50522380D01*
X129309523Y-50665238D01*
X129214285Y-50760476D01*
X129119047Y-50808095D01*
X130547619Y-50855714D02*
X130547619Y-51522380D01*
X130309523Y-50474761D02*
X130071428Y-51189047D01*
X130690476Y-51189047D01*
%TO.C,J15*%
X136090476Y-72922380D02*
X136090476Y-73636666D01*
X136042857Y-73779523D01*
X135947619Y-73874761D01*
X135804761Y-73922380D01*
X135709523Y-73922380D01*
X137090476Y-73922380D02*
X136519047Y-73922380D01*
X136804761Y-73922380D02*
X136804761Y-72922380D01*
X136709523Y-73065238D01*
X136614285Y-73160476D01*
X136519047Y-73208095D01*
X137995238Y-72922380D02*
X137519047Y-72922380D01*
X137471428Y-73398571D01*
X137519047Y-73350952D01*
X137614285Y-73303333D01*
X137852380Y-73303333D01*
X137947619Y-73350952D01*
X137995238Y-73398571D01*
X138042857Y-73493809D01*
X138042857Y-73731904D01*
X137995238Y-73827142D01*
X137947619Y-73874761D01*
X137852380Y-73922380D01*
X137614285Y-73922380D01*
X137519047Y-73874761D01*
X137471428Y-73827142D01*
%TO.C,Q4*%
X107407119Y-50430738D02*
X107359500Y-50525976D01*
X107264261Y-50621214D01*
X107121404Y-50764071D01*
X107073785Y-50859309D01*
X107073785Y-50954547D01*
X107311880Y-50906928D02*
X107264261Y-51002166D01*
X107169023Y-51097404D01*
X106978547Y-51145023D01*
X106645214Y-51145023D01*
X106454738Y-51097404D01*
X106359500Y-51002166D01*
X106311880Y-50906928D01*
X106311880Y-50716452D01*
X106359500Y-50621214D01*
X106454738Y-50525976D01*
X106645214Y-50478357D01*
X106978547Y-50478357D01*
X107169023Y-50525976D01*
X107264261Y-50621214D01*
X107311880Y-50716452D01*
X107311880Y-50906928D01*
X106645214Y-49621214D02*
X107311880Y-49621214D01*
X106264261Y-49859309D02*
X106978547Y-50097404D01*
X106978547Y-49478357D01*
%TO.C,U2*%
X125886298Y-97660060D02*
X125886298Y-98469584D01*
X125933917Y-98564822D01*
X125981536Y-98612441D01*
X126076774Y-98660060D01*
X126267250Y-98660060D01*
X126362488Y-98612441D01*
X126410107Y-98564822D01*
X126457726Y-98469584D01*
X126457726Y-97660060D01*
X126886298Y-97755299D02*
X126933917Y-97707680D01*
X127029155Y-97660060D01*
X127267250Y-97660060D01*
X127362488Y-97707680D01*
X127410107Y-97755299D01*
X127457726Y-97850537D01*
X127457726Y-97945775D01*
X127410107Y-98088632D01*
X126838679Y-98660060D01*
X127457726Y-98660060D01*
%TO.C,U5*%
X146532595Y-91812380D02*
X146532595Y-92621904D01*
X146580214Y-92717142D01*
X146627833Y-92764761D01*
X146723071Y-92812380D01*
X146913547Y-92812380D01*
X147008785Y-92764761D01*
X147056404Y-92717142D01*
X147104023Y-92621904D01*
X147104023Y-91812380D01*
X148056404Y-91812380D02*
X147580214Y-91812380D01*
X147532595Y-92288571D01*
X147580214Y-92240952D01*
X147675452Y-92193333D01*
X147913547Y-92193333D01*
X148008785Y-92240952D01*
X148056404Y-92288571D01*
X148104023Y-92383809D01*
X148104023Y-92621904D01*
X148056404Y-92717142D01*
X148008785Y-92764761D01*
X147913547Y-92812380D01*
X147675452Y-92812380D01*
X147580214Y-92764761D01*
X147532595Y-92717142D01*
%TO.C,J1*%
X137907380Y-54551333D02*
X138621666Y-54551333D01*
X138764523Y-54598952D01*
X138859761Y-54694190D01*
X138907380Y-54837047D01*
X138907380Y-54932285D01*
X138907380Y-53551333D02*
X138907380Y-54122761D01*
X138907380Y-53837047D02*
X137907380Y-53837047D01*
X138050238Y-53932285D01*
X138145476Y-54027523D01*
X138193095Y-54122761D01*
%TO.C,OutP*%
X111292380Y-65560333D02*
X111292380Y-65369857D01*
X111340000Y-65274619D01*
X111435238Y-65179380D01*
X111625714Y-65131761D01*
X111959047Y-65131761D01*
X112149523Y-65179380D01*
X112244761Y-65274619D01*
X112292380Y-65369857D01*
X112292380Y-65560333D01*
X112244761Y-65655571D01*
X112149523Y-65750809D01*
X111959047Y-65798428D01*
X111625714Y-65798428D01*
X111435238Y-65750809D01*
X111340000Y-65655571D01*
X111292380Y-65560333D01*
X111625714Y-64274619D02*
X112292380Y-64274619D01*
X111625714Y-64703190D02*
X112149523Y-64703190D01*
X112244761Y-64655571D01*
X112292380Y-64560333D01*
X112292380Y-64417476D01*
X112244761Y-64322238D01*
X112197142Y-64274619D01*
X111625714Y-63941285D02*
X111625714Y-63560333D01*
X111292380Y-63798428D02*
X112149523Y-63798428D01*
X112244761Y-63750809D01*
X112292380Y-63655571D01*
X112292380Y-63560333D01*
X112292380Y-63227000D02*
X111292380Y-63227000D01*
X111292380Y-62846047D01*
X111340000Y-62750809D01*
X111387619Y-62703190D01*
X111482857Y-62655571D01*
X111625714Y-62655571D01*
X111720952Y-62703190D01*
X111768571Y-62750809D01*
X111816190Y-62846047D01*
X111816190Y-63227000D01*
%TO.C,Q1*%
X107407119Y-83196738D02*
X107359500Y-83291976D01*
X107264261Y-83387214D01*
X107121404Y-83530071D01*
X107073785Y-83625309D01*
X107073785Y-83720547D01*
X107311880Y-83672928D02*
X107264261Y-83768166D01*
X107169023Y-83863404D01*
X106978547Y-83911023D01*
X106645214Y-83911023D01*
X106454738Y-83863404D01*
X106359500Y-83768166D01*
X106311880Y-83672928D01*
X106311880Y-83482452D01*
X106359500Y-83387214D01*
X106454738Y-83291976D01*
X106645214Y-83244357D01*
X106978547Y-83244357D01*
X107169023Y-83291976D01*
X107264261Y-83387214D01*
X107311880Y-83482452D01*
X107311880Y-83672928D01*
X107311880Y-82291976D02*
X107311880Y-82863404D01*
X107311880Y-82577690D02*
X106311880Y-82577690D01*
X106454738Y-82672928D01*
X106549976Y-82768166D01*
X106597595Y-82863404D01*
%TO.C,U4*%
D12*
X109283214Y-55617357D02*
X109283214Y-56588785D01*
X109340357Y-56703071D01*
X109397500Y-56760214D01*
X109511785Y-56817357D01*
X109740357Y-56817357D01*
X109854642Y-56760214D01*
X109911785Y-56703071D01*
X109968928Y-56588785D01*
X109968928Y-55617357D01*
X111054642Y-56017357D02*
X111054642Y-56817357D01*
X110768928Y-55560214D02*
X110483214Y-56417357D01*
X111226071Y-56417357D01*
%TO.C,C1*%
D15*
X116921877Y-42615353D02*
X116874258Y-42567734D01*
X116826639Y-42424877D01*
X116826639Y-42329639D01*
X116874258Y-42186781D01*
X116969496Y-42091543D01*
X117064734Y-42043924D01*
X117255210Y-41996305D01*
X117398067Y-41996305D01*
X117588543Y-42043924D01*
X117683781Y-42091543D01*
X117779020Y-42186781D01*
X117826639Y-42329639D01*
X117826639Y-42424877D01*
X117779020Y-42567734D01*
X117731400Y-42615353D01*
X116826639Y-43567734D02*
X116826639Y-42996305D01*
X116826639Y-43282020D02*
X117826639Y-43282020D01*
X117683781Y-43186781D01*
X117588543Y-43091543D01*
X117540924Y-42996305D01*
%TO.C,C2*%
X116921877Y-48965353D02*
X116874258Y-48917734D01*
X116826639Y-48774877D01*
X116826639Y-48679639D01*
X116874258Y-48536781D01*
X116969496Y-48441543D01*
X117064734Y-48393924D01*
X117255210Y-48346305D01*
X117398067Y-48346305D01*
X117588543Y-48393924D01*
X117683781Y-48441543D01*
X117779020Y-48536781D01*
X117826639Y-48679639D01*
X117826639Y-48774877D01*
X117779020Y-48917734D01*
X117731400Y-48965353D01*
X117731400Y-49346305D02*
X117779020Y-49393924D01*
X117826639Y-49489162D01*
X117826639Y-49727258D01*
X117779020Y-49822496D01*
X117731400Y-49870115D01*
X117636162Y-49917734D01*
X117540924Y-49917734D01*
X117398067Y-49870115D01*
X116826639Y-49298686D01*
X116826639Y-49917734D01*
%TO.C,C3*%
X116921877Y-52140353D02*
X116874258Y-52092734D01*
X116826639Y-51949877D01*
X116826639Y-51854639D01*
X116874258Y-51711781D01*
X116969496Y-51616543D01*
X117064734Y-51568924D01*
X117255210Y-51521305D01*
X117398067Y-51521305D01*
X117588543Y-51568924D01*
X117683781Y-51616543D01*
X117779020Y-51711781D01*
X117826639Y-51854639D01*
X117826639Y-51949877D01*
X117779020Y-52092734D01*
X117731400Y-52140353D01*
X117826639Y-52473686D02*
X117826639Y-53092734D01*
X117445686Y-52759400D01*
X117445686Y-52902258D01*
X117398067Y-52997496D01*
X117350448Y-53045115D01*
X117255210Y-53092734D01*
X117017115Y-53092734D01*
X116921877Y-53045115D01*
X116874258Y-52997496D01*
X116826639Y-52902258D01*
X116826639Y-52616543D01*
X116874258Y-52521305D01*
X116921877Y-52473686D01*
%TO.C,C4*%
X116921877Y-58617353D02*
X116874258Y-58569734D01*
X116826639Y-58426877D01*
X116826639Y-58331639D01*
X116874258Y-58188781D01*
X116969496Y-58093543D01*
X117064734Y-58045924D01*
X117255210Y-57998305D01*
X117398067Y-57998305D01*
X117588543Y-58045924D01*
X117683781Y-58093543D01*
X117779020Y-58188781D01*
X117826639Y-58331639D01*
X117826639Y-58426877D01*
X117779020Y-58569734D01*
X117731400Y-58617353D01*
X117493305Y-59474496D02*
X116826639Y-59474496D01*
X117874258Y-59236400D02*
X117159972Y-58998305D01*
X117159972Y-59617353D01*
%TO.C,Q2*%
X107407119Y-72274738D02*
X107359500Y-72369976D01*
X107264261Y-72465214D01*
X107121404Y-72608071D01*
X107073785Y-72703309D01*
X107073785Y-72798547D01*
X107311880Y-72750928D02*
X107264261Y-72846166D01*
X107169023Y-72941404D01*
X106978547Y-72989023D01*
X106645214Y-72989023D01*
X106454738Y-72941404D01*
X106359500Y-72846166D01*
X106311880Y-72750928D01*
X106311880Y-72560452D01*
X106359500Y-72465214D01*
X106454738Y-72369976D01*
X106645214Y-72322357D01*
X106978547Y-72322357D01*
X107169023Y-72369976D01*
X107264261Y-72465214D01*
X107311880Y-72560452D01*
X107311880Y-72750928D01*
X106407119Y-71941404D02*
X106359500Y-71893785D01*
X106311880Y-71798547D01*
X106311880Y-71560452D01*
X106359500Y-71465214D01*
X106407119Y-71417595D01*
X106502357Y-71369976D01*
X106597595Y-71369976D01*
X106740452Y-71417595D01*
X107311880Y-71989023D01*
X107311880Y-71369976D01*
%TO.C,Q3*%
X107407119Y-61352738D02*
X107359500Y-61447976D01*
X107264261Y-61543214D01*
X107121404Y-61686071D01*
X107073785Y-61781309D01*
X107073785Y-61876547D01*
X107311880Y-61828928D02*
X107264261Y-61924166D01*
X107169023Y-62019404D01*
X106978547Y-62067023D01*
X106645214Y-62067023D01*
X106454738Y-62019404D01*
X106359500Y-61924166D01*
X106311880Y-61828928D01*
X106311880Y-61638452D01*
X106359500Y-61543214D01*
X106454738Y-61447976D01*
X106645214Y-61400357D01*
X106978547Y-61400357D01*
X107169023Y-61447976D01*
X107264261Y-61543214D01*
X107311880Y-61638452D01*
X107311880Y-61828928D01*
X106311880Y-61067023D02*
X106311880Y-60447976D01*
X106692833Y-60781309D01*
X106692833Y-60638452D01*
X106740452Y-60543214D01*
X106788071Y-60495595D01*
X106883309Y-60447976D01*
X107121404Y-60447976D01*
X107216642Y-60495595D01*
X107264261Y-60543214D01*
X107311880Y-60638452D01*
X107311880Y-60924166D01*
X107264261Y-61019404D01*
X107216642Y-61067023D01*
%TO.C,R1*%
X116920619Y-61054333D02*
X117396809Y-60721000D01*
X116920619Y-60482904D02*
X117920619Y-60482904D01*
X117920619Y-60863857D01*
X117873000Y-60959095D01*
X117825380Y-61006714D01*
X117730142Y-61054333D01*
X117587285Y-61054333D01*
X117492047Y-61006714D01*
X117444428Y-60959095D01*
X117396809Y-60863857D01*
X117396809Y-60482904D01*
X116920619Y-62006714D02*
X116920619Y-61435285D01*
X116920619Y-61721000D02*
X117920619Y-61721000D01*
X117777761Y-61625761D01*
X117682523Y-61530523D01*
X117634904Y-61435285D01*
%TO.C,R2*%
X116886339Y-55300253D02*
X117362529Y-54966920D01*
X116886339Y-54728824D02*
X117886339Y-54728824D01*
X117886339Y-55109777D01*
X117838720Y-55205015D01*
X117791100Y-55252634D01*
X117695862Y-55300253D01*
X117553005Y-55300253D01*
X117457767Y-55252634D01*
X117410148Y-55205015D01*
X117362529Y-55109777D01*
X117362529Y-54728824D01*
X117791100Y-55681205D02*
X117838720Y-55728824D01*
X117886339Y-55824062D01*
X117886339Y-56062158D01*
X117838720Y-56157396D01*
X117791100Y-56205015D01*
X117695862Y-56252634D01*
X117600624Y-56252634D01*
X117457767Y-56205015D01*
X116886339Y-55633586D01*
X116886339Y-56252634D01*
%TO.C,R7*%
X111512619Y-45884333D02*
X111988809Y-45551000D01*
X111512619Y-45312904D02*
X112512619Y-45312904D01*
X112512619Y-45693857D01*
X112465000Y-45789095D01*
X112417380Y-45836714D01*
X112322142Y-45884333D01*
X112179285Y-45884333D01*
X112084047Y-45836714D01*
X112036428Y-45789095D01*
X111988809Y-45693857D01*
X111988809Y-45312904D01*
X112512619Y-46217666D02*
X112512619Y-46884333D01*
X111512619Y-46455761D01*
%TO.C,R8*%
X117048899Y-45900853D02*
X117525089Y-45567520D01*
X117048899Y-45329424D02*
X118048899Y-45329424D01*
X118048899Y-45710377D01*
X118001280Y-45805615D01*
X117953660Y-45853234D01*
X117858422Y-45900853D01*
X117715565Y-45900853D01*
X117620327Y-45853234D01*
X117572708Y-45805615D01*
X117525089Y-45710377D01*
X117525089Y-45329424D01*
X117620327Y-46472281D02*
X117667946Y-46377043D01*
X117715565Y-46329424D01*
X117810803Y-46281805D01*
X117858422Y-46281805D01*
X117953660Y-46329424D01*
X118001280Y-46377043D01*
X118048899Y-46472281D01*
X118048899Y-46662758D01*
X118001280Y-46757996D01*
X117953660Y-46805615D01*
X117858422Y-46853234D01*
X117810803Y-46853234D01*
X117715565Y-46805615D01*
X117667946Y-46757996D01*
X117620327Y-46662758D01*
X117620327Y-46472281D01*
X117572708Y-46377043D01*
X117525089Y-46329424D01*
X117429851Y-46281805D01*
X117239375Y-46281805D01*
X117144137Y-46329424D01*
X117096518Y-46377043D01*
X117048899Y-46472281D01*
X117048899Y-46662758D01*
X117096518Y-46757996D01*
X117144137Y-46805615D01*
X117239375Y-46853234D01*
X117429851Y-46853234D01*
X117525089Y-46805615D01*
X117572708Y-46757996D01*
X117620327Y-46662758D01*
%TO.C,R9*%
X112491380Y-43251080D02*
X112015190Y-43584414D01*
X112491380Y-43822509D02*
X111491380Y-43822509D01*
X111491380Y-43441556D01*
X111539000Y-43346318D01*
X111586619Y-43298699D01*
X111681857Y-43251080D01*
X111824714Y-43251080D01*
X111919952Y-43298699D01*
X111967571Y-43346318D01*
X112015190Y-43441556D01*
X112015190Y-43822509D01*
X112491380Y-42774890D02*
X112491380Y-42584414D01*
X112443761Y-42489175D01*
X112396142Y-42441556D01*
X112253285Y-42346318D01*
X112062809Y-42298699D01*
X111681857Y-42298699D01*
X111586619Y-42346318D01*
X111539000Y-42393937D01*
X111491380Y-42489175D01*
X111491380Y-42679652D01*
X111539000Y-42774890D01*
X111586619Y-42822509D01*
X111681857Y-42870128D01*
X111919952Y-42870128D01*
X112015190Y-42822509D01*
X112062809Y-42774890D01*
X112110428Y-42679652D01*
X112110428Y-42489175D01*
X112062809Y-42393937D01*
X112015190Y-42346318D01*
X111919952Y-42298699D01*
%TO.C,R3*%
X98675880Y-82887166D02*
X98199690Y-83220500D01*
X98675880Y-83458595D02*
X97675880Y-83458595D01*
X97675880Y-83077642D01*
X97723500Y-82982404D01*
X97771119Y-82934785D01*
X97866357Y-82887166D01*
X98009214Y-82887166D01*
X98104452Y-82934785D01*
X98152071Y-82982404D01*
X98199690Y-83077642D01*
X98199690Y-83458595D01*
X97675880Y-82553833D02*
X97675880Y-81934785D01*
X98056833Y-82268119D01*
X98056833Y-82125261D01*
X98104452Y-82030023D01*
X98152071Y-81982404D01*
X98247309Y-81934785D01*
X98485404Y-81934785D01*
X98580642Y-81982404D01*
X98628261Y-82030023D01*
X98675880Y-82125261D01*
X98675880Y-82410976D01*
X98628261Y-82506214D01*
X98580642Y-82553833D01*
%TO.C,R4*%
X98548880Y-71805881D02*
X98072690Y-72139215D01*
X98548880Y-72377310D02*
X97548880Y-72377310D01*
X97548880Y-71996357D01*
X97596500Y-71901119D01*
X97644119Y-71853500D01*
X97739357Y-71805881D01*
X97882214Y-71805881D01*
X97977452Y-71853500D01*
X98025071Y-71901119D01*
X98072690Y-71996357D01*
X98072690Y-72377310D01*
X97882214Y-70948738D02*
X98548880Y-70948738D01*
X97501261Y-71186834D02*
X98215547Y-71424929D01*
X98215547Y-70805881D01*
%TO.C,R5*%
X98675880Y-60876745D02*
X98199690Y-61210079D01*
X98675880Y-61448174D02*
X97675880Y-61448174D01*
X97675880Y-61067221D01*
X97723500Y-60971983D01*
X97771119Y-60924364D01*
X97866357Y-60876745D01*
X98009214Y-60876745D01*
X98104452Y-60924364D01*
X98152071Y-60971983D01*
X98199690Y-61067221D01*
X98199690Y-61448174D01*
X97675880Y-59971983D02*
X97675880Y-60448174D01*
X98152071Y-60495793D01*
X98104452Y-60448174D01*
X98056833Y-60352936D01*
X98056833Y-60114840D01*
X98104452Y-60019602D01*
X98152071Y-59971983D01*
X98247309Y-59924364D01*
X98485404Y-59924364D01*
X98580642Y-59971983D01*
X98628261Y-60019602D01*
X98675880Y-60114840D01*
X98675880Y-60352936D01*
X98628261Y-60448174D01*
X98580642Y-60495793D01*
%TO.C,R6*%
X98675880Y-49930273D02*
X98199690Y-50263607D01*
X98675880Y-50501702D02*
X97675880Y-50501702D01*
X97675880Y-50120749D01*
X97723500Y-50025511D01*
X97771119Y-49977892D01*
X97866357Y-49930273D01*
X98009214Y-49930273D01*
X98104452Y-49977892D01*
X98152071Y-50025511D01*
X98199690Y-50120749D01*
X98199690Y-50501702D01*
X97675880Y-49073130D02*
X97675880Y-49263607D01*
X97723500Y-49358845D01*
X97771119Y-49406464D01*
X97913976Y-49501702D01*
X98104452Y-49549321D01*
X98485404Y-49549321D01*
X98580642Y-49501702D01*
X98628261Y-49454083D01*
X98675880Y-49358845D01*
X98675880Y-49168368D01*
X98628261Y-49073130D01*
X98580642Y-49025511D01*
X98485404Y-48977892D01*
X98247309Y-48977892D01*
X98152071Y-49025511D01*
X98104452Y-49073130D01*
X98056833Y-49168368D01*
X98056833Y-49358845D01*
X98104452Y-49454083D01*
X98152071Y-49501702D01*
X98247309Y-49549321D01*
%TO.C,R27*%
X110192000Y-60252380D02*
X109958666Y-59776190D01*
X109792000Y-60252380D02*
X109792000Y-59252380D01*
X110058666Y-59252380D01*
X110125333Y-59300000D01*
X110158666Y-59347619D01*
X110192000Y-59442857D01*
X110192000Y-59585714D01*
X110158666Y-59680952D01*
X110125333Y-59728571D01*
X110058666Y-59776190D01*
X109792000Y-59776190D01*
X110458666Y-59347619D02*
X110492000Y-59300000D01*
X110558666Y-59252380D01*
X110725333Y-59252380D01*
X110792000Y-59300000D01*
X110825333Y-59347619D01*
X110858666Y-59442857D01*
X110858666Y-59538095D01*
X110825333Y-59680952D01*
X110425333Y-60252380D01*
X110858666Y-60252380D01*
X111092000Y-59252380D02*
X111558666Y-59252380D01*
X111258666Y-60252380D01*
%TO.C,J3*%
X136926666Y-50732380D02*
X136926666Y-51446666D01*
X136879047Y-51589523D01*
X136783809Y-51684761D01*
X136640952Y-51732380D01*
X136545714Y-51732380D01*
X137307619Y-50732380D02*
X137926666Y-50732380D01*
X137593333Y-51113333D01*
X137736190Y-51113333D01*
X137831428Y-51160952D01*
X137879047Y-51208571D01*
X137926666Y-51303809D01*
X137926666Y-51541904D01*
X137879047Y-51637142D01*
X137831428Y-51684761D01*
X137736190Y-51732380D01*
X137450476Y-51732380D01*
X137355238Y-51684761D01*
X137307619Y-51637142D01*
%TO.C,C9*%
X131437142Y-56466666D02*
X131484761Y-56514285D01*
X131532380Y-56657142D01*
X131532380Y-56752380D01*
X131484761Y-56895238D01*
X131389523Y-56990476D01*
X131294285Y-57038095D01*
X131103809Y-57085714D01*
X130960952Y-57085714D01*
X130770476Y-57038095D01*
X130675238Y-56990476D01*
X130580000Y-56895238D01*
X130532380Y-56752380D01*
X130532380Y-56657142D01*
X130580000Y-56514285D01*
X130627619Y-56466666D01*
X131532380Y-55990476D02*
X131532380Y-55800000D01*
X131484761Y-55704761D01*
X131437142Y-55657142D01*
X131294285Y-55561904D01*
X131103809Y-55514285D01*
X130722857Y-55514285D01*
X130627619Y-55561904D01*
X130580000Y-55609523D01*
X130532380Y-55704761D01*
X130532380Y-55895238D01*
X130580000Y-55990476D01*
X130627619Y-56038095D01*
X130722857Y-56085714D01*
X130960952Y-56085714D01*
X131056190Y-56038095D01*
X131103809Y-55990476D01*
X131151428Y-55895238D01*
X131151428Y-55704761D01*
X131103809Y-55609523D01*
X131056190Y-55561904D01*
X130960952Y-55514285D01*
%TO.C,C10*%
X134187142Y-56942857D02*
X134234761Y-56990476D01*
X134282380Y-57133333D01*
X134282380Y-57228571D01*
X134234761Y-57371428D01*
X134139523Y-57466666D01*
X134044285Y-57514285D01*
X133853809Y-57561904D01*
X133710952Y-57561904D01*
X133520476Y-57514285D01*
X133425238Y-57466666D01*
X133330000Y-57371428D01*
X133282380Y-57228571D01*
X133282380Y-57133333D01*
X133330000Y-56990476D01*
X133377619Y-56942857D01*
X134282380Y-55990476D02*
X134282380Y-56561904D01*
X134282380Y-56276190D02*
X133282380Y-56276190D01*
X133425238Y-56371428D01*
X133520476Y-56466666D01*
X133568095Y-56561904D01*
X133282380Y-55371428D02*
X133282380Y-55276190D01*
X133330000Y-55180952D01*
X133377619Y-55133333D01*
X133472857Y-55085714D01*
X133663333Y-55038095D01*
X133901428Y-55038095D01*
X134091904Y-55085714D01*
X134187142Y-55133333D01*
X134234761Y-55180952D01*
X134282380Y-55276190D01*
X134282380Y-55371428D01*
X134234761Y-55466666D01*
X134187142Y-55514285D01*
X134091904Y-55561904D01*
X133901428Y-55609523D01*
X133663333Y-55609523D01*
X133472857Y-55561904D01*
X133377619Y-55514285D01*
X133330000Y-55466666D01*
X133282380Y-55371428D01*
%TO.C,D5*%
X116752380Y-83138095D02*
X115752380Y-83138095D01*
X115752380Y-82900000D01*
X115800000Y-82757142D01*
X115895238Y-82661904D01*
X115990476Y-82614285D01*
X116180952Y-82566666D01*
X116323809Y-82566666D01*
X116514285Y-82614285D01*
X116609523Y-82661904D01*
X116704761Y-82757142D01*
X116752380Y-82900000D01*
X116752380Y-83138095D01*
X115752380Y-81661904D02*
X115752380Y-82138095D01*
X116228571Y-82185714D01*
X116180952Y-82138095D01*
X116133333Y-82042857D01*
X116133333Y-81804761D01*
X116180952Y-81709523D01*
X116228571Y-81661904D01*
X116323809Y-81614285D01*
X116561904Y-81614285D01*
X116657142Y-81661904D01*
X116704761Y-81709523D01*
X116752380Y-81804761D01*
X116752380Y-82042857D01*
X116704761Y-82138095D01*
X116657142Y-82185714D01*
%TO.C,R10*%
X115622380Y-60792857D02*
X115146190Y-61126190D01*
X115622380Y-61364285D02*
X114622380Y-61364285D01*
X114622380Y-60983333D01*
X114670000Y-60888095D01*
X114717619Y-60840476D01*
X114812857Y-60792857D01*
X114955714Y-60792857D01*
X115050952Y-60840476D01*
X115098571Y-60888095D01*
X115146190Y-60983333D01*
X115146190Y-61364285D01*
X115622380Y-59840476D02*
X115622380Y-60411904D01*
X115622380Y-60126190D02*
X114622380Y-60126190D01*
X114765238Y-60221428D01*
X114860476Y-60316666D01*
X114908095Y-60411904D01*
X114622380Y-59221428D02*
X114622380Y-59126190D01*
X114670000Y-59030952D01*
X114717619Y-58983333D01*
X114812857Y-58935714D01*
X115003333Y-58888095D01*
X115241428Y-58888095D01*
X115431904Y-58935714D01*
X115527142Y-58983333D01*
X115574761Y-59030952D01*
X115622380Y-59126190D01*
X115622380Y-59221428D01*
X115574761Y-59316666D01*
X115527142Y-59364285D01*
X115431904Y-59411904D01*
X115241428Y-59459523D01*
X115003333Y-59459523D01*
X114812857Y-59411904D01*
X114717619Y-59364285D01*
X114670000Y-59316666D01*
X114622380Y-59221428D01*
%TO.C,R13*%
X142357142Y-68532380D02*
X142023809Y-68056190D01*
X141785714Y-68532380D02*
X141785714Y-67532380D01*
X142166666Y-67532380D01*
X142261904Y-67580000D01*
X142309523Y-67627619D01*
X142357142Y-67722857D01*
X142357142Y-67865714D01*
X142309523Y-67960952D01*
X142261904Y-68008571D01*
X142166666Y-68056190D01*
X141785714Y-68056190D01*
X143309523Y-68532380D02*
X142738095Y-68532380D01*
X143023809Y-68532380D02*
X143023809Y-67532380D01*
X142928571Y-67675238D01*
X142833333Y-67770476D01*
X142738095Y-67818095D01*
X143642857Y-67532380D02*
X144261904Y-67532380D01*
X143928571Y-67913333D01*
X144071428Y-67913333D01*
X144166666Y-67960952D01*
X144214285Y-68008571D01*
X144261904Y-68103809D01*
X144261904Y-68341904D01*
X144214285Y-68437142D01*
X144166666Y-68484761D01*
X144071428Y-68532380D01*
X143785714Y-68532380D01*
X143690476Y-68484761D01*
X143642857Y-68437142D01*
%TO.C,R14*%
X142357142Y-70932380D02*
X142023809Y-70456190D01*
X141785714Y-70932380D02*
X141785714Y-69932380D01*
X142166666Y-69932380D01*
X142261904Y-69980000D01*
X142309523Y-70027619D01*
X142357142Y-70122857D01*
X142357142Y-70265714D01*
X142309523Y-70360952D01*
X142261904Y-70408571D01*
X142166666Y-70456190D01*
X141785714Y-70456190D01*
X143309523Y-70932380D02*
X142738095Y-70932380D01*
X143023809Y-70932380D02*
X143023809Y-69932380D01*
X142928571Y-70075238D01*
X142833333Y-70170476D01*
X142738095Y-70218095D01*
X144166666Y-70265714D02*
X144166666Y-70932380D01*
X143928571Y-69884761D02*
X143690476Y-70599047D01*
X144309523Y-70599047D01*
%TO.C,J5*%
X103922380Y-89633333D02*
X104636666Y-89633333D01*
X104779523Y-89680952D01*
X104874761Y-89776190D01*
X104922380Y-89919047D01*
X104922380Y-90014285D01*
X103922380Y-88680952D02*
X103922380Y-89157142D01*
X104398571Y-89204761D01*
X104350952Y-89157142D01*
X104303333Y-89061904D01*
X104303333Y-88823809D01*
X104350952Y-88728571D01*
X104398571Y-88680952D01*
X104493809Y-88633333D01*
X104731904Y-88633333D01*
X104827142Y-88680952D01*
X104874761Y-88728571D01*
X104922380Y-88823809D01*
X104922380Y-89061904D01*
X104874761Y-89157142D01*
X104827142Y-89204761D01*
%TD*%
M02*
