%TF.GenerationSoftware,KiCad,Pcbnew,5.1.5-52549c5~84~ubuntu18.04.1*%
%TF.CreationDate,2020-07-26T00:26:10-03:00*%
%TF.ProjectId,Placa tesis,506c6163-6120-4746-9573-69732e6b6963,rev?*%
%TF.SameCoordinates,Original*%
%TF.FileFunction,Soldermask,Top*%
%TF.FilePolarity,Negative*%
%FSLAX46Y46*%
G04 Gerber Fmt 4.6, Leading zero omitted, Abs format (unit mm)*
G04 Created by KiCad (PCBNEW 5.1.5-52549c5~84~ubuntu18.04.1) date 2020-07-26 00:26:10*
%MOMM*%
%LPD*%
G04 APERTURE LIST*
%TA.AperFunction,Profile*%
%ADD10C,0.150000*%
%TD*%
%ADD11R,2.850000X7.590000*%
%ADD12R,2.100000X2.100000*%
%ADD13O,2.100000X2.100000*%
%ADD14C,0.100000*%
%ADD15R,4.360000X2.380000*%
%ADD16O,4.360000X2.380000*%
%ADD17C,3.400000*%
%ADD18O,2.940000X2.432000*%
%ADD19O,2.400000X1.600000*%
%ADD20R,2.900000X1.400000*%
%ADD21R,1.400000X2.200000*%
%ADD22R,3.397200X5.911800*%
%ADD23R,1.822400X0.755600*%
%ADD24R,1.400000X2.000000*%
%ADD25R,1.300000X2.100000*%
%ADD26R,3.600000X1.400000*%
%ADD27R,2.100000X1.300000*%
%ADD28R,3.400000X3.400000*%
%ADD29R,2.200000X2.900000*%
G04 APERTURE END LIST*
D10*
X82800000Y-91800000D02*
X153900000Y-91800000D01*
X153900000Y-41400000D02*
X153900000Y-91800000D01*
X82800000Y-41400000D02*
X82800000Y-91800000D01*
X82800000Y-41400000D02*
X153900000Y-41400000D01*
D11*
%TO.C,R12*%
X129200000Y-46600000D03*
X123100000Y-46600000D03*
%TD*%
D12*
%TO.C,J4*%
X114380000Y-67800000D03*
D13*
X111840000Y-67800000D03*
X109300000Y-67800000D03*
%TD*%
D14*
%TO.C,R26*%
G36*
X110827346Y-69926589D02*
G01*
X110859380Y-69931341D01*
X110890794Y-69939210D01*
X110921286Y-69950120D01*
X110950561Y-69963966D01*
X110978338Y-69980615D01*
X111004350Y-69999907D01*
X111028345Y-70021655D01*
X111050093Y-70045650D01*
X111069385Y-70071662D01*
X111086034Y-70099439D01*
X111099880Y-70128714D01*
X111110790Y-70159206D01*
X111118659Y-70190620D01*
X111123411Y-70222654D01*
X111125000Y-70255000D01*
X111125000Y-71745000D01*
X111123411Y-71777346D01*
X111118659Y-71809380D01*
X111110790Y-71840794D01*
X111099880Y-71871286D01*
X111086034Y-71900561D01*
X111069385Y-71928338D01*
X111050093Y-71954350D01*
X111028345Y-71978345D01*
X111004350Y-72000093D01*
X110978338Y-72019385D01*
X110950561Y-72036034D01*
X110921286Y-72049880D01*
X110890794Y-72060790D01*
X110859380Y-72068659D01*
X110827346Y-72073411D01*
X110795000Y-72075000D01*
X109805000Y-72075000D01*
X109772654Y-72073411D01*
X109740620Y-72068659D01*
X109709206Y-72060790D01*
X109678714Y-72049880D01*
X109649439Y-72036034D01*
X109621662Y-72019385D01*
X109595650Y-72000093D01*
X109571655Y-71978345D01*
X109549907Y-71954350D01*
X109530615Y-71928338D01*
X109513966Y-71900561D01*
X109500120Y-71871286D01*
X109489210Y-71840794D01*
X109481341Y-71809380D01*
X109476589Y-71777346D01*
X109475000Y-71745000D01*
X109475000Y-70255000D01*
X109476589Y-70222654D01*
X109481341Y-70190620D01*
X109489210Y-70159206D01*
X109500120Y-70128714D01*
X109513966Y-70099439D01*
X109530615Y-70071662D01*
X109549907Y-70045650D01*
X109571655Y-70021655D01*
X109595650Y-69999907D01*
X109621662Y-69980615D01*
X109649439Y-69963966D01*
X109678714Y-69950120D01*
X109709206Y-69939210D01*
X109740620Y-69931341D01*
X109772654Y-69926589D01*
X109805000Y-69925000D01*
X110795000Y-69925000D01*
X110827346Y-69926589D01*
G37*
G36*
X113627346Y-69926589D02*
G01*
X113659380Y-69931341D01*
X113690794Y-69939210D01*
X113721286Y-69950120D01*
X113750561Y-69963966D01*
X113778338Y-69980615D01*
X113804350Y-69999907D01*
X113828345Y-70021655D01*
X113850093Y-70045650D01*
X113869385Y-70071662D01*
X113886034Y-70099439D01*
X113899880Y-70128714D01*
X113910790Y-70159206D01*
X113918659Y-70190620D01*
X113923411Y-70222654D01*
X113925000Y-70255000D01*
X113925000Y-71745000D01*
X113923411Y-71777346D01*
X113918659Y-71809380D01*
X113910790Y-71840794D01*
X113899880Y-71871286D01*
X113886034Y-71900561D01*
X113869385Y-71928338D01*
X113850093Y-71954350D01*
X113828345Y-71978345D01*
X113804350Y-72000093D01*
X113778338Y-72019385D01*
X113750561Y-72036034D01*
X113721286Y-72049880D01*
X113690794Y-72060790D01*
X113659380Y-72068659D01*
X113627346Y-72073411D01*
X113595000Y-72075000D01*
X112605000Y-72075000D01*
X112572654Y-72073411D01*
X112540620Y-72068659D01*
X112509206Y-72060790D01*
X112478714Y-72049880D01*
X112449439Y-72036034D01*
X112421662Y-72019385D01*
X112395650Y-72000093D01*
X112371655Y-71978345D01*
X112349907Y-71954350D01*
X112330615Y-71928338D01*
X112313966Y-71900561D01*
X112300120Y-71871286D01*
X112289210Y-71840794D01*
X112281341Y-71809380D01*
X112276589Y-71777346D01*
X112275000Y-71745000D01*
X112275000Y-70255000D01*
X112276589Y-70222654D01*
X112281341Y-70190620D01*
X112289210Y-70159206D01*
X112300120Y-70128714D01*
X112313966Y-70099439D01*
X112330615Y-70071662D01*
X112349907Y-70045650D01*
X112371655Y-70021655D01*
X112395650Y-69999907D01*
X112421662Y-69980615D01*
X112449439Y-69963966D01*
X112478714Y-69950120D01*
X112509206Y-69939210D01*
X112540620Y-69931341D01*
X112572654Y-69926589D01*
X112605000Y-69925000D01*
X113595000Y-69925000D01*
X113627346Y-69926589D01*
G37*
%TD*%
D15*
%TO.C,D4*%
X89651000Y-49700000D03*
D16*
X89651000Y-44700000D03*
%TD*%
D17*
%TO.C,REF\002A\002A*%
X86300000Y-88400000D03*
%TD*%
D14*
%TO.C,R15*%
G36*
X148627346Y-49126589D02*
G01*
X148659380Y-49131341D01*
X148690794Y-49139210D01*
X148721286Y-49150120D01*
X148750561Y-49163966D01*
X148778338Y-49180615D01*
X148804350Y-49199907D01*
X148828345Y-49221655D01*
X148850093Y-49245650D01*
X148869385Y-49271662D01*
X148886034Y-49299439D01*
X148899880Y-49328714D01*
X148910790Y-49359206D01*
X148918659Y-49390620D01*
X148923411Y-49422654D01*
X148925000Y-49455000D01*
X148925000Y-50945000D01*
X148923411Y-50977346D01*
X148918659Y-51009380D01*
X148910790Y-51040794D01*
X148899880Y-51071286D01*
X148886034Y-51100561D01*
X148869385Y-51128338D01*
X148850093Y-51154350D01*
X148828345Y-51178345D01*
X148804350Y-51200093D01*
X148778338Y-51219385D01*
X148750561Y-51236034D01*
X148721286Y-51249880D01*
X148690794Y-51260790D01*
X148659380Y-51268659D01*
X148627346Y-51273411D01*
X148595000Y-51275000D01*
X147605000Y-51275000D01*
X147572654Y-51273411D01*
X147540620Y-51268659D01*
X147509206Y-51260790D01*
X147478714Y-51249880D01*
X147449439Y-51236034D01*
X147421662Y-51219385D01*
X147395650Y-51200093D01*
X147371655Y-51178345D01*
X147349907Y-51154350D01*
X147330615Y-51128338D01*
X147313966Y-51100561D01*
X147300120Y-51071286D01*
X147289210Y-51040794D01*
X147281341Y-51009380D01*
X147276589Y-50977346D01*
X147275000Y-50945000D01*
X147275000Y-49455000D01*
X147276589Y-49422654D01*
X147281341Y-49390620D01*
X147289210Y-49359206D01*
X147300120Y-49328714D01*
X147313966Y-49299439D01*
X147330615Y-49271662D01*
X147349907Y-49245650D01*
X147371655Y-49221655D01*
X147395650Y-49199907D01*
X147421662Y-49180615D01*
X147449439Y-49163966D01*
X147478714Y-49150120D01*
X147509206Y-49139210D01*
X147540620Y-49131341D01*
X147572654Y-49126589D01*
X147605000Y-49125000D01*
X148595000Y-49125000D01*
X148627346Y-49126589D01*
G37*
G36*
X151427346Y-49126589D02*
G01*
X151459380Y-49131341D01*
X151490794Y-49139210D01*
X151521286Y-49150120D01*
X151550561Y-49163966D01*
X151578338Y-49180615D01*
X151604350Y-49199907D01*
X151628345Y-49221655D01*
X151650093Y-49245650D01*
X151669385Y-49271662D01*
X151686034Y-49299439D01*
X151699880Y-49328714D01*
X151710790Y-49359206D01*
X151718659Y-49390620D01*
X151723411Y-49422654D01*
X151725000Y-49455000D01*
X151725000Y-50945000D01*
X151723411Y-50977346D01*
X151718659Y-51009380D01*
X151710790Y-51040794D01*
X151699880Y-51071286D01*
X151686034Y-51100561D01*
X151669385Y-51128338D01*
X151650093Y-51154350D01*
X151628345Y-51178345D01*
X151604350Y-51200093D01*
X151578338Y-51219385D01*
X151550561Y-51236034D01*
X151521286Y-51249880D01*
X151490794Y-51260790D01*
X151459380Y-51268659D01*
X151427346Y-51273411D01*
X151395000Y-51275000D01*
X150405000Y-51275000D01*
X150372654Y-51273411D01*
X150340620Y-51268659D01*
X150309206Y-51260790D01*
X150278714Y-51249880D01*
X150249439Y-51236034D01*
X150221662Y-51219385D01*
X150195650Y-51200093D01*
X150171655Y-51178345D01*
X150149907Y-51154350D01*
X150130615Y-51128338D01*
X150113966Y-51100561D01*
X150100120Y-51071286D01*
X150089210Y-51040794D01*
X150081341Y-51009380D01*
X150076589Y-50977346D01*
X150075000Y-50945000D01*
X150075000Y-49455000D01*
X150076589Y-49422654D01*
X150081341Y-49390620D01*
X150089210Y-49359206D01*
X150100120Y-49328714D01*
X150113966Y-49299439D01*
X150130615Y-49271662D01*
X150149907Y-49245650D01*
X150171655Y-49221655D01*
X150195650Y-49199907D01*
X150221662Y-49180615D01*
X150249439Y-49163966D01*
X150278714Y-49150120D01*
X150309206Y-49139210D01*
X150340620Y-49131341D01*
X150372654Y-49126589D01*
X150405000Y-49125000D01*
X151395000Y-49125000D01*
X151427346Y-49126589D01*
G37*
%TD*%
D12*
%TO.C,J13*%
X133200000Y-61020000D03*
D13*
X133200000Y-63560000D03*
X133200000Y-66100000D03*
X133200000Y-68640000D03*
X133200000Y-71180000D03*
%TD*%
D14*
%TO.C,U3*%
G36*
X125092153Y-55375843D02*
G01*
X125109141Y-55378363D01*
X125125800Y-55382535D01*
X125141970Y-55388321D01*
X125157494Y-55395664D01*
X125172225Y-55404493D01*
X125186019Y-55414723D01*
X125198744Y-55426256D01*
X125210277Y-55438981D01*
X125220507Y-55452775D01*
X125229336Y-55467506D01*
X125236679Y-55483030D01*
X125242465Y-55499200D01*
X125246637Y-55515859D01*
X125249157Y-55532847D01*
X125250000Y-55550000D01*
X125250000Y-57050000D01*
X125249157Y-57067153D01*
X125246637Y-57084141D01*
X125242465Y-57100800D01*
X125236679Y-57116970D01*
X125229336Y-57132494D01*
X125220507Y-57147225D01*
X125210277Y-57161019D01*
X125198744Y-57173744D01*
X125186019Y-57185277D01*
X125172225Y-57195507D01*
X125157494Y-57204336D01*
X125141970Y-57211679D01*
X125125800Y-57217465D01*
X125109141Y-57221637D01*
X125092153Y-57224157D01*
X125075000Y-57225000D01*
X124725000Y-57225000D01*
X124707847Y-57224157D01*
X124690859Y-57221637D01*
X124674200Y-57217465D01*
X124658030Y-57211679D01*
X124642506Y-57204336D01*
X124627775Y-57195507D01*
X124613981Y-57185277D01*
X124601256Y-57173744D01*
X124589723Y-57161019D01*
X124579493Y-57147225D01*
X124570664Y-57132494D01*
X124563321Y-57116970D01*
X124557535Y-57100800D01*
X124553363Y-57084141D01*
X124550843Y-57067153D01*
X124550000Y-57050000D01*
X124550000Y-55550000D01*
X124550843Y-55532847D01*
X124553363Y-55515859D01*
X124557535Y-55499200D01*
X124563321Y-55483030D01*
X124570664Y-55467506D01*
X124579493Y-55452775D01*
X124589723Y-55438981D01*
X124601256Y-55426256D01*
X124613981Y-55414723D01*
X124627775Y-55404493D01*
X124642506Y-55395664D01*
X124658030Y-55388321D01*
X124674200Y-55382535D01*
X124690859Y-55378363D01*
X124707847Y-55375843D01*
X124725000Y-55375000D01*
X125075000Y-55375000D01*
X125092153Y-55375843D01*
G37*
G36*
X125592153Y-55375843D02*
G01*
X125609141Y-55378363D01*
X125625800Y-55382535D01*
X125641970Y-55388321D01*
X125657494Y-55395664D01*
X125672225Y-55404493D01*
X125686019Y-55414723D01*
X125698744Y-55426256D01*
X125710277Y-55438981D01*
X125720507Y-55452775D01*
X125729336Y-55467506D01*
X125736679Y-55483030D01*
X125742465Y-55499200D01*
X125746637Y-55515859D01*
X125749157Y-55532847D01*
X125750000Y-55550000D01*
X125750000Y-57050000D01*
X125749157Y-57067153D01*
X125746637Y-57084141D01*
X125742465Y-57100800D01*
X125736679Y-57116970D01*
X125729336Y-57132494D01*
X125720507Y-57147225D01*
X125710277Y-57161019D01*
X125698744Y-57173744D01*
X125686019Y-57185277D01*
X125672225Y-57195507D01*
X125657494Y-57204336D01*
X125641970Y-57211679D01*
X125625800Y-57217465D01*
X125609141Y-57221637D01*
X125592153Y-57224157D01*
X125575000Y-57225000D01*
X125225000Y-57225000D01*
X125207847Y-57224157D01*
X125190859Y-57221637D01*
X125174200Y-57217465D01*
X125158030Y-57211679D01*
X125142506Y-57204336D01*
X125127775Y-57195507D01*
X125113981Y-57185277D01*
X125101256Y-57173744D01*
X125089723Y-57161019D01*
X125079493Y-57147225D01*
X125070664Y-57132494D01*
X125063321Y-57116970D01*
X125057535Y-57100800D01*
X125053363Y-57084141D01*
X125050843Y-57067153D01*
X125050000Y-57050000D01*
X125050000Y-55550000D01*
X125050843Y-55532847D01*
X125053363Y-55515859D01*
X125057535Y-55499200D01*
X125063321Y-55483030D01*
X125070664Y-55467506D01*
X125079493Y-55452775D01*
X125089723Y-55438981D01*
X125101256Y-55426256D01*
X125113981Y-55414723D01*
X125127775Y-55404493D01*
X125142506Y-55395664D01*
X125158030Y-55388321D01*
X125174200Y-55382535D01*
X125190859Y-55378363D01*
X125207847Y-55375843D01*
X125225000Y-55375000D01*
X125575000Y-55375000D01*
X125592153Y-55375843D01*
G37*
G36*
X126092153Y-55375843D02*
G01*
X126109141Y-55378363D01*
X126125800Y-55382535D01*
X126141970Y-55388321D01*
X126157494Y-55395664D01*
X126172225Y-55404493D01*
X126186019Y-55414723D01*
X126198744Y-55426256D01*
X126210277Y-55438981D01*
X126220507Y-55452775D01*
X126229336Y-55467506D01*
X126236679Y-55483030D01*
X126242465Y-55499200D01*
X126246637Y-55515859D01*
X126249157Y-55532847D01*
X126250000Y-55550000D01*
X126250000Y-57050000D01*
X126249157Y-57067153D01*
X126246637Y-57084141D01*
X126242465Y-57100800D01*
X126236679Y-57116970D01*
X126229336Y-57132494D01*
X126220507Y-57147225D01*
X126210277Y-57161019D01*
X126198744Y-57173744D01*
X126186019Y-57185277D01*
X126172225Y-57195507D01*
X126157494Y-57204336D01*
X126141970Y-57211679D01*
X126125800Y-57217465D01*
X126109141Y-57221637D01*
X126092153Y-57224157D01*
X126075000Y-57225000D01*
X125725000Y-57225000D01*
X125707847Y-57224157D01*
X125690859Y-57221637D01*
X125674200Y-57217465D01*
X125658030Y-57211679D01*
X125642506Y-57204336D01*
X125627775Y-57195507D01*
X125613981Y-57185277D01*
X125601256Y-57173744D01*
X125589723Y-57161019D01*
X125579493Y-57147225D01*
X125570664Y-57132494D01*
X125563321Y-57116970D01*
X125557535Y-57100800D01*
X125553363Y-57084141D01*
X125550843Y-57067153D01*
X125550000Y-57050000D01*
X125550000Y-55550000D01*
X125550843Y-55532847D01*
X125553363Y-55515859D01*
X125557535Y-55499200D01*
X125563321Y-55483030D01*
X125570664Y-55467506D01*
X125579493Y-55452775D01*
X125589723Y-55438981D01*
X125601256Y-55426256D01*
X125613981Y-55414723D01*
X125627775Y-55404493D01*
X125642506Y-55395664D01*
X125658030Y-55388321D01*
X125674200Y-55382535D01*
X125690859Y-55378363D01*
X125707847Y-55375843D01*
X125725000Y-55375000D01*
X126075000Y-55375000D01*
X126092153Y-55375843D01*
G37*
G36*
X126592153Y-55375843D02*
G01*
X126609141Y-55378363D01*
X126625800Y-55382535D01*
X126641970Y-55388321D01*
X126657494Y-55395664D01*
X126672225Y-55404493D01*
X126686019Y-55414723D01*
X126698744Y-55426256D01*
X126710277Y-55438981D01*
X126720507Y-55452775D01*
X126729336Y-55467506D01*
X126736679Y-55483030D01*
X126742465Y-55499200D01*
X126746637Y-55515859D01*
X126749157Y-55532847D01*
X126750000Y-55550000D01*
X126750000Y-57050000D01*
X126749157Y-57067153D01*
X126746637Y-57084141D01*
X126742465Y-57100800D01*
X126736679Y-57116970D01*
X126729336Y-57132494D01*
X126720507Y-57147225D01*
X126710277Y-57161019D01*
X126698744Y-57173744D01*
X126686019Y-57185277D01*
X126672225Y-57195507D01*
X126657494Y-57204336D01*
X126641970Y-57211679D01*
X126625800Y-57217465D01*
X126609141Y-57221637D01*
X126592153Y-57224157D01*
X126575000Y-57225000D01*
X126225000Y-57225000D01*
X126207847Y-57224157D01*
X126190859Y-57221637D01*
X126174200Y-57217465D01*
X126158030Y-57211679D01*
X126142506Y-57204336D01*
X126127775Y-57195507D01*
X126113981Y-57185277D01*
X126101256Y-57173744D01*
X126089723Y-57161019D01*
X126079493Y-57147225D01*
X126070664Y-57132494D01*
X126063321Y-57116970D01*
X126057535Y-57100800D01*
X126053363Y-57084141D01*
X126050843Y-57067153D01*
X126050000Y-57050000D01*
X126050000Y-55550000D01*
X126050843Y-55532847D01*
X126053363Y-55515859D01*
X126057535Y-55499200D01*
X126063321Y-55483030D01*
X126070664Y-55467506D01*
X126079493Y-55452775D01*
X126089723Y-55438981D01*
X126101256Y-55426256D01*
X126113981Y-55414723D01*
X126127775Y-55404493D01*
X126142506Y-55395664D01*
X126158030Y-55388321D01*
X126174200Y-55382535D01*
X126190859Y-55378363D01*
X126207847Y-55375843D01*
X126225000Y-55375000D01*
X126575000Y-55375000D01*
X126592153Y-55375843D01*
G37*
G36*
X127092153Y-55375843D02*
G01*
X127109141Y-55378363D01*
X127125800Y-55382535D01*
X127141970Y-55388321D01*
X127157494Y-55395664D01*
X127172225Y-55404493D01*
X127186019Y-55414723D01*
X127198744Y-55426256D01*
X127210277Y-55438981D01*
X127220507Y-55452775D01*
X127229336Y-55467506D01*
X127236679Y-55483030D01*
X127242465Y-55499200D01*
X127246637Y-55515859D01*
X127249157Y-55532847D01*
X127250000Y-55550000D01*
X127250000Y-57050000D01*
X127249157Y-57067153D01*
X127246637Y-57084141D01*
X127242465Y-57100800D01*
X127236679Y-57116970D01*
X127229336Y-57132494D01*
X127220507Y-57147225D01*
X127210277Y-57161019D01*
X127198744Y-57173744D01*
X127186019Y-57185277D01*
X127172225Y-57195507D01*
X127157494Y-57204336D01*
X127141970Y-57211679D01*
X127125800Y-57217465D01*
X127109141Y-57221637D01*
X127092153Y-57224157D01*
X127075000Y-57225000D01*
X126725000Y-57225000D01*
X126707847Y-57224157D01*
X126690859Y-57221637D01*
X126674200Y-57217465D01*
X126658030Y-57211679D01*
X126642506Y-57204336D01*
X126627775Y-57195507D01*
X126613981Y-57185277D01*
X126601256Y-57173744D01*
X126589723Y-57161019D01*
X126579493Y-57147225D01*
X126570664Y-57132494D01*
X126563321Y-57116970D01*
X126557535Y-57100800D01*
X126553363Y-57084141D01*
X126550843Y-57067153D01*
X126550000Y-57050000D01*
X126550000Y-55550000D01*
X126550843Y-55532847D01*
X126553363Y-55515859D01*
X126557535Y-55499200D01*
X126563321Y-55483030D01*
X126570664Y-55467506D01*
X126579493Y-55452775D01*
X126589723Y-55438981D01*
X126601256Y-55426256D01*
X126613981Y-55414723D01*
X126627775Y-55404493D01*
X126642506Y-55395664D01*
X126658030Y-55388321D01*
X126674200Y-55382535D01*
X126690859Y-55378363D01*
X126707847Y-55375843D01*
X126725000Y-55375000D01*
X127075000Y-55375000D01*
X127092153Y-55375843D01*
G37*
G36*
X127092153Y-50975843D02*
G01*
X127109141Y-50978363D01*
X127125800Y-50982535D01*
X127141970Y-50988321D01*
X127157494Y-50995664D01*
X127172225Y-51004493D01*
X127186019Y-51014723D01*
X127198744Y-51026256D01*
X127210277Y-51038981D01*
X127220507Y-51052775D01*
X127229336Y-51067506D01*
X127236679Y-51083030D01*
X127242465Y-51099200D01*
X127246637Y-51115859D01*
X127249157Y-51132847D01*
X127250000Y-51150000D01*
X127250000Y-52650000D01*
X127249157Y-52667153D01*
X127246637Y-52684141D01*
X127242465Y-52700800D01*
X127236679Y-52716970D01*
X127229336Y-52732494D01*
X127220507Y-52747225D01*
X127210277Y-52761019D01*
X127198744Y-52773744D01*
X127186019Y-52785277D01*
X127172225Y-52795507D01*
X127157494Y-52804336D01*
X127141970Y-52811679D01*
X127125800Y-52817465D01*
X127109141Y-52821637D01*
X127092153Y-52824157D01*
X127075000Y-52825000D01*
X126725000Y-52825000D01*
X126707847Y-52824157D01*
X126690859Y-52821637D01*
X126674200Y-52817465D01*
X126658030Y-52811679D01*
X126642506Y-52804336D01*
X126627775Y-52795507D01*
X126613981Y-52785277D01*
X126601256Y-52773744D01*
X126589723Y-52761019D01*
X126579493Y-52747225D01*
X126570664Y-52732494D01*
X126563321Y-52716970D01*
X126557535Y-52700800D01*
X126553363Y-52684141D01*
X126550843Y-52667153D01*
X126550000Y-52650000D01*
X126550000Y-51150000D01*
X126550843Y-51132847D01*
X126553363Y-51115859D01*
X126557535Y-51099200D01*
X126563321Y-51083030D01*
X126570664Y-51067506D01*
X126579493Y-51052775D01*
X126589723Y-51038981D01*
X126601256Y-51026256D01*
X126613981Y-51014723D01*
X126627775Y-51004493D01*
X126642506Y-50995664D01*
X126658030Y-50988321D01*
X126674200Y-50982535D01*
X126690859Y-50978363D01*
X126707847Y-50975843D01*
X126725000Y-50975000D01*
X127075000Y-50975000D01*
X127092153Y-50975843D01*
G37*
G36*
X126592153Y-50975843D02*
G01*
X126609141Y-50978363D01*
X126625800Y-50982535D01*
X126641970Y-50988321D01*
X126657494Y-50995664D01*
X126672225Y-51004493D01*
X126686019Y-51014723D01*
X126698744Y-51026256D01*
X126710277Y-51038981D01*
X126720507Y-51052775D01*
X126729336Y-51067506D01*
X126736679Y-51083030D01*
X126742465Y-51099200D01*
X126746637Y-51115859D01*
X126749157Y-51132847D01*
X126750000Y-51150000D01*
X126750000Y-52650000D01*
X126749157Y-52667153D01*
X126746637Y-52684141D01*
X126742465Y-52700800D01*
X126736679Y-52716970D01*
X126729336Y-52732494D01*
X126720507Y-52747225D01*
X126710277Y-52761019D01*
X126698744Y-52773744D01*
X126686019Y-52785277D01*
X126672225Y-52795507D01*
X126657494Y-52804336D01*
X126641970Y-52811679D01*
X126625800Y-52817465D01*
X126609141Y-52821637D01*
X126592153Y-52824157D01*
X126575000Y-52825000D01*
X126225000Y-52825000D01*
X126207847Y-52824157D01*
X126190859Y-52821637D01*
X126174200Y-52817465D01*
X126158030Y-52811679D01*
X126142506Y-52804336D01*
X126127775Y-52795507D01*
X126113981Y-52785277D01*
X126101256Y-52773744D01*
X126089723Y-52761019D01*
X126079493Y-52747225D01*
X126070664Y-52732494D01*
X126063321Y-52716970D01*
X126057535Y-52700800D01*
X126053363Y-52684141D01*
X126050843Y-52667153D01*
X126050000Y-52650000D01*
X126050000Y-51150000D01*
X126050843Y-51132847D01*
X126053363Y-51115859D01*
X126057535Y-51099200D01*
X126063321Y-51083030D01*
X126070664Y-51067506D01*
X126079493Y-51052775D01*
X126089723Y-51038981D01*
X126101256Y-51026256D01*
X126113981Y-51014723D01*
X126127775Y-51004493D01*
X126142506Y-50995664D01*
X126158030Y-50988321D01*
X126174200Y-50982535D01*
X126190859Y-50978363D01*
X126207847Y-50975843D01*
X126225000Y-50975000D01*
X126575000Y-50975000D01*
X126592153Y-50975843D01*
G37*
G36*
X126092153Y-50975843D02*
G01*
X126109141Y-50978363D01*
X126125800Y-50982535D01*
X126141970Y-50988321D01*
X126157494Y-50995664D01*
X126172225Y-51004493D01*
X126186019Y-51014723D01*
X126198744Y-51026256D01*
X126210277Y-51038981D01*
X126220507Y-51052775D01*
X126229336Y-51067506D01*
X126236679Y-51083030D01*
X126242465Y-51099200D01*
X126246637Y-51115859D01*
X126249157Y-51132847D01*
X126250000Y-51150000D01*
X126250000Y-52650000D01*
X126249157Y-52667153D01*
X126246637Y-52684141D01*
X126242465Y-52700800D01*
X126236679Y-52716970D01*
X126229336Y-52732494D01*
X126220507Y-52747225D01*
X126210277Y-52761019D01*
X126198744Y-52773744D01*
X126186019Y-52785277D01*
X126172225Y-52795507D01*
X126157494Y-52804336D01*
X126141970Y-52811679D01*
X126125800Y-52817465D01*
X126109141Y-52821637D01*
X126092153Y-52824157D01*
X126075000Y-52825000D01*
X125725000Y-52825000D01*
X125707847Y-52824157D01*
X125690859Y-52821637D01*
X125674200Y-52817465D01*
X125658030Y-52811679D01*
X125642506Y-52804336D01*
X125627775Y-52795507D01*
X125613981Y-52785277D01*
X125601256Y-52773744D01*
X125589723Y-52761019D01*
X125579493Y-52747225D01*
X125570664Y-52732494D01*
X125563321Y-52716970D01*
X125557535Y-52700800D01*
X125553363Y-52684141D01*
X125550843Y-52667153D01*
X125550000Y-52650000D01*
X125550000Y-51150000D01*
X125550843Y-51132847D01*
X125553363Y-51115859D01*
X125557535Y-51099200D01*
X125563321Y-51083030D01*
X125570664Y-51067506D01*
X125579493Y-51052775D01*
X125589723Y-51038981D01*
X125601256Y-51026256D01*
X125613981Y-51014723D01*
X125627775Y-51004493D01*
X125642506Y-50995664D01*
X125658030Y-50988321D01*
X125674200Y-50982535D01*
X125690859Y-50978363D01*
X125707847Y-50975843D01*
X125725000Y-50975000D01*
X126075000Y-50975000D01*
X126092153Y-50975843D01*
G37*
G36*
X125592153Y-50975843D02*
G01*
X125609141Y-50978363D01*
X125625800Y-50982535D01*
X125641970Y-50988321D01*
X125657494Y-50995664D01*
X125672225Y-51004493D01*
X125686019Y-51014723D01*
X125698744Y-51026256D01*
X125710277Y-51038981D01*
X125720507Y-51052775D01*
X125729336Y-51067506D01*
X125736679Y-51083030D01*
X125742465Y-51099200D01*
X125746637Y-51115859D01*
X125749157Y-51132847D01*
X125750000Y-51150000D01*
X125750000Y-52650000D01*
X125749157Y-52667153D01*
X125746637Y-52684141D01*
X125742465Y-52700800D01*
X125736679Y-52716970D01*
X125729336Y-52732494D01*
X125720507Y-52747225D01*
X125710277Y-52761019D01*
X125698744Y-52773744D01*
X125686019Y-52785277D01*
X125672225Y-52795507D01*
X125657494Y-52804336D01*
X125641970Y-52811679D01*
X125625800Y-52817465D01*
X125609141Y-52821637D01*
X125592153Y-52824157D01*
X125575000Y-52825000D01*
X125225000Y-52825000D01*
X125207847Y-52824157D01*
X125190859Y-52821637D01*
X125174200Y-52817465D01*
X125158030Y-52811679D01*
X125142506Y-52804336D01*
X125127775Y-52795507D01*
X125113981Y-52785277D01*
X125101256Y-52773744D01*
X125089723Y-52761019D01*
X125079493Y-52747225D01*
X125070664Y-52732494D01*
X125063321Y-52716970D01*
X125057535Y-52700800D01*
X125053363Y-52684141D01*
X125050843Y-52667153D01*
X125050000Y-52650000D01*
X125050000Y-51150000D01*
X125050843Y-51132847D01*
X125053363Y-51115859D01*
X125057535Y-51099200D01*
X125063321Y-51083030D01*
X125070664Y-51067506D01*
X125079493Y-51052775D01*
X125089723Y-51038981D01*
X125101256Y-51026256D01*
X125113981Y-51014723D01*
X125127775Y-51004493D01*
X125142506Y-50995664D01*
X125158030Y-50988321D01*
X125174200Y-50982535D01*
X125190859Y-50978363D01*
X125207847Y-50975843D01*
X125225000Y-50975000D01*
X125575000Y-50975000D01*
X125592153Y-50975843D01*
G37*
G36*
X125092153Y-50975843D02*
G01*
X125109141Y-50978363D01*
X125125800Y-50982535D01*
X125141970Y-50988321D01*
X125157494Y-50995664D01*
X125172225Y-51004493D01*
X125186019Y-51014723D01*
X125198744Y-51026256D01*
X125210277Y-51038981D01*
X125220507Y-51052775D01*
X125229336Y-51067506D01*
X125236679Y-51083030D01*
X125242465Y-51099200D01*
X125246637Y-51115859D01*
X125249157Y-51132847D01*
X125250000Y-51150000D01*
X125250000Y-52650000D01*
X125249157Y-52667153D01*
X125246637Y-52684141D01*
X125242465Y-52700800D01*
X125236679Y-52716970D01*
X125229336Y-52732494D01*
X125220507Y-52747225D01*
X125210277Y-52761019D01*
X125198744Y-52773744D01*
X125186019Y-52785277D01*
X125172225Y-52795507D01*
X125157494Y-52804336D01*
X125141970Y-52811679D01*
X125125800Y-52817465D01*
X125109141Y-52821637D01*
X125092153Y-52824157D01*
X125075000Y-52825000D01*
X124725000Y-52825000D01*
X124707847Y-52824157D01*
X124690859Y-52821637D01*
X124674200Y-52817465D01*
X124658030Y-52811679D01*
X124642506Y-52804336D01*
X124627775Y-52795507D01*
X124613981Y-52785277D01*
X124601256Y-52773744D01*
X124589723Y-52761019D01*
X124579493Y-52747225D01*
X124570664Y-52732494D01*
X124563321Y-52716970D01*
X124557535Y-52700800D01*
X124553363Y-52684141D01*
X124550843Y-52667153D01*
X124550000Y-52650000D01*
X124550000Y-51150000D01*
X124550843Y-51132847D01*
X124553363Y-51115859D01*
X124557535Y-51099200D01*
X124563321Y-51083030D01*
X124570664Y-51067506D01*
X124579493Y-51052775D01*
X124589723Y-51038981D01*
X124601256Y-51026256D01*
X124613981Y-51014723D01*
X124627775Y-51004493D01*
X124642506Y-50995664D01*
X124658030Y-50988321D01*
X124674200Y-50982535D01*
X124690859Y-50978363D01*
X124707847Y-50975843D01*
X124725000Y-50975000D01*
X125075000Y-50975000D01*
X125092153Y-50975843D01*
G37*
%TD*%
D12*
%TO.C,J14*%
X129500000Y-53400000D03*
D13*
X129500000Y-55940000D03*
X129500000Y-58480000D03*
X129500000Y-61020000D03*
X129500000Y-63560000D03*
X129500000Y-66100000D03*
X129500000Y-68640000D03*
X129500000Y-71180000D03*
%TD*%
D12*
%TO.C,J15*%
X136900000Y-71140000D03*
D13*
X136900000Y-68600000D03*
X136900000Y-66060000D03*
X136900000Y-63520000D03*
%TD*%
D18*
%TO.C,Q4*%
X102541500Y-50335500D03*
X102541500Y-52875500D03*
X102541500Y-47795500D03*
%TD*%
D19*
%TO.C,U2*%
X150811500Y-53040000D03*
X122911500Y-53040000D03*
X150811500Y-55580000D03*
X122911500Y-55580000D03*
X150811500Y-58120000D03*
X122911500Y-58120000D03*
X150811500Y-60660000D03*
X122911500Y-60660000D03*
X150811500Y-63200000D03*
X122911500Y-63200000D03*
X150811500Y-65740000D03*
X122911500Y-65740000D03*
X150811500Y-68280000D03*
X122911500Y-68280000D03*
X150811500Y-70820000D03*
X122911500Y-70820000D03*
X150811500Y-73360000D03*
X122911500Y-73360000D03*
X150811500Y-75900000D03*
X122911500Y-75900000D03*
X150811500Y-78440000D03*
X122911500Y-78440000D03*
X150811500Y-80980000D03*
X122911500Y-80980000D03*
X150811500Y-83520000D03*
X122911500Y-83520000D03*
X150811500Y-86060000D03*
X122911500Y-86060000D03*
X150811500Y-88600000D03*
X122911500Y-88600000D03*
%TD*%
D20*
%TO.C,U5*%
X129134500Y-90600000D03*
X129134500Y-88600000D03*
X129134500Y-86600000D03*
X129134500Y-84600000D03*
X129134500Y-82600000D03*
X129134500Y-80600000D03*
X129134500Y-78600000D03*
X129134500Y-76600000D03*
D21*
X131734500Y-75100000D03*
X133734500Y-75100000D03*
X135734500Y-75100000D03*
X137734500Y-75100000D03*
X139734500Y-75100000D03*
X141734500Y-75100000D03*
D20*
X144334500Y-76600000D03*
X144334500Y-78600000D03*
X144334500Y-80600000D03*
X144334500Y-82600000D03*
X144334500Y-84600000D03*
X144334500Y-86600000D03*
X144334500Y-88600000D03*
X144334500Y-90600000D03*
%TD*%
D13*
%TO.C,TH1*%
X114400000Y-64100000D03*
D12*
X111860000Y-64100000D03*
%TD*%
D13*
%TO.C,J1*%
X145865000Y-54218000D03*
X143325000Y-54218000D03*
D12*
X140785000Y-54218000D03*
%TD*%
D17*
%TO.C,REF\002A\002A*%
X149600000Y-45400000D03*
%TD*%
D12*
%TO.C,OutP*%
X109300000Y-64100000D03*
%TD*%
D16*
%TO.C,D1*%
X89651000Y-78600000D03*
D15*
X89651000Y-83600000D03*
%TD*%
D16*
%TO.C,D2*%
X89651000Y-67300000D03*
D15*
X89651000Y-72300000D03*
%TD*%
%TO.C,D3*%
X89651000Y-61000000D03*
D16*
X89651000Y-56000000D03*
%TD*%
D18*
%TO.C,Q1*%
X102541500Y-80561500D03*
X102541500Y-85641500D03*
X102541500Y-83101500D03*
%TD*%
D22*
%TO.C,U4*%
X110324500Y-52464500D03*
D23*
X107479700Y-56680900D03*
X107479700Y-56045900D03*
X107479700Y-55385500D03*
X107479700Y-54750500D03*
X107479700Y-54090100D03*
X107479700Y-53429700D03*
X107479700Y-52794700D03*
X107479700Y-52134300D03*
X107479700Y-51499300D03*
X107479700Y-50838900D03*
X107479700Y-50178500D03*
X107479700Y-49543500D03*
X107479700Y-48883100D03*
X107479700Y-48248100D03*
X113169300Y-48248100D03*
X113169300Y-48883100D03*
X113169300Y-49543500D03*
X113169300Y-50178500D03*
X113169300Y-50838900D03*
X113169300Y-51499300D03*
X113169300Y-52134300D03*
X113169300Y-52794700D03*
X113169300Y-53429700D03*
X113169300Y-54090100D03*
X113169300Y-54750500D03*
X113169300Y-55385500D03*
X113169300Y-56045900D03*
X113169300Y-56680900D03*
%TD*%
D24*
%TO.C,C1*%
X115779020Y-42834020D03*
X118779020Y-42834020D03*
%TD*%
%TO.C,C2*%
X118779020Y-49235020D03*
X115779020Y-49235020D03*
%TD*%
%TO.C,C3*%
X115779020Y-52383020D03*
X118779020Y-52383020D03*
%TD*%
%TO.C,C4*%
X118779020Y-58784020D03*
X115779020Y-58784020D03*
%TD*%
D18*
%TO.C,Q2*%
X102541500Y-72179500D03*
X102541500Y-74719500D03*
X102541500Y-69639500D03*
%TD*%
%TO.C,Q3*%
X102541500Y-58717500D03*
X102541500Y-63797500D03*
X102541500Y-61257500D03*
%TD*%
D25*
%TO.C,R1*%
X118850000Y-61250000D03*
X115950000Y-61250000D03*
%TD*%
%TO.C,R2*%
X118815720Y-55570920D03*
X115915720Y-55570920D03*
%TD*%
%TO.C,R7*%
X113415000Y-46051000D03*
X110515000Y-46051000D03*
%TD*%
%TO.C,R8*%
X115951280Y-46020520D03*
X118851280Y-46020520D03*
%TD*%
%TO.C,R9*%
X110589000Y-43003000D03*
X113489000Y-43003000D03*
%TD*%
D26*
%TO.C,R3*%
X98096500Y-85693500D03*
X98096500Y-79493500D03*
%TD*%
%TO.C,R4*%
X98213016Y-68539215D03*
X98213016Y-74739215D03*
%TD*%
%TO.C,R5*%
X98187615Y-63810079D03*
X98187615Y-57610079D03*
%TD*%
%TO.C,R6*%
X98303848Y-46663607D03*
X98303848Y-52863607D03*
%TD*%
D27*
%TO.C,R27*%
X110642000Y-58350000D03*
X110642000Y-61250000D03*
%TD*%
D17*
%TO.C,J3*%
X134720000Y-46200000D03*
D28*
X139800000Y-46200000D03*
%TD*%
D17*
%TO.C,BT1*%
X118700000Y-67510000D03*
D28*
X118700000Y-88000000D03*
%TD*%
D14*
%TO.C,C9*%
G36*
X133677346Y-56876589D02*
G01*
X133709380Y-56881341D01*
X133740794Y-56889210D01*
X133771286Y-56900120D01*
X133800561Y-56913966D01*
X133828338Y-56930615D01*
X133854350Y-56949907D01*
X133878345Y-56971655D01*
X133900093Y-56995650D01*
X133919385Y-57021662D01*
X133936034Y-57049439D01*
X133949880Y-57078714D01*
X133960790Y-57109206D01*
X133968659Y-57140620D01*
X133973411Y-57172654D01*
X133975000Y-57205000D01*
X133975000Y-58195000D01*
X133973411Y-58227346D01*
X133968659Y-58259380D01*
X133960790Y-58290794D01*
X133949880Y-58321286D01*
X133936034Y-58350561D01*
X133919385Y-58378338D01*
X133900093Y-58404350D01*
X133878345Y-58428345D01*
X133854350Y-58450093D01*
X133828338Y-58469385D01*
X133800561Y-58486034D01*
X133771286Y-58499880D01*
X133740794Y-58510790D01*
X133709380Y-58518659D01*
X133677346Y-58523411D01*
X133645000Y-58525000D01*
X132155000Y-58525000D01*
X132122654Y-58523411D01*
X132090620Y-58518659D01*
X132059206Y-58510790D01*
X132028714Y-58499880D01*
X131999439Y-58486034D01*
X131971662Y-58469385D01*
X131945650Y-58450093D01*
X131921655Y-58428345D01*
X131899907Y-58404350D01*
X131880615Y-58378338D01*
X131863966Y-58350561D01*
X131850120Y-58321286D01*
X131839210Y-58290794D01*
X131831341Y-58259380D01*
X131826589Y-58227346D01*
X131825000Y-58195000D01*
X131825000Y-57205000D01*
X131826589Y-57172654D01*
X131831341Y-57140620D01*
X131839210Y-57109206D01*
X131850120Y-57078714D01*
X131863966Y-57049439D01*
X131880615Y-57021662D01*
X131899907Y-56995650D01*
X131921655Y-56971655D01*
X131945650Y-56949907D01*
X131971662Y-56930615D01*
X131999439Y-56913966D01*
X132028714Y-56900120D01*
X132059206Y-56889210D01*
X132090620Y-56881341D01*
X132122654Y-56876589D01*
X132155000Y-56875000D01*
X133645000Y-56875000D01*
X133677346Y-56876589D01*
G37*
G36*
X133677346Y-54076589D02*
G01*
X133709380Y-54081341D01*
X133740794Y-54089210D01*
X133771286Y-54100120D01*
X133800561Y-54113966D01*
X133828338Y-54130615D01*
X133854350Y-54149907D01*
X133878345Y-54171655D01*
X133900093Y-54195650D01*
X133919385Y-54221662D01*
X133936034Y-54249439D01*
X133949880Y-54278714D01*
X133960790Y-54309206D01*
X133968659Y-54340620D01*
X133973411Y-54372654D01*
X133975000Y-54405000D01*
X133975000Y-55395000D01*
X133973411Y-55427346D01*
X133968659Y-55459380D01*
X133960790Y-55490794D01*
X133949880Y-55521286D01*
X133936034Y-55550561D01*
X133919385Y-55578338D01*
X133900093Y-55604350D01*
X133878345Y-55628345D01*
X133854350Y-55650093D01*
X133828338Y-55669385D01*
X133800561Y-55686034D01*
X133771286Y-55699880D01*
X133740794Y-55710790D01*
X133709380Y-55718659D01*
X133677346Y-55723411D01*
X133645000Y-55725000D01*
X132155000Y-55725000D01*
X132122654Y-55723411D01*
X132090620Y-55718659D01*
X132059206Y-55710790D01*
X132028714Y-55699880D01*
X131999439Y-55686034D01*
X131971662Y-55669385D01*
X131945650Y-55650093D01*
X131921655Y-55628345D01*
X131899907Y-55604350D01*
X131880615Y-55578338D01*
X131863966Y-55550561D01*
X131850120Y-55521286D01*
X131839210Y-55490794D01*
X131831341Y-55459380D01*
X131826589Y-55427346D01*
X131825000Y-55395000D01*
X131825000Y-54405000D01*
X131826589Y-54372654D01*
X131831341Y-54340620D01*
X131839210Y-54309206D01*
X131850120Y-54278714D01*
X131863966Y-54249439D01*
X131880615Y-54221662D01*
X131899907Y-54195650D01*
X131921655Y-54171655D01*
X131945650Y-54149907D01*
X131971662Y-54130615D01*
X131999439Y-54113966D01*
X132028714Y-54100120D01*
X132059206Y-54089210D01*
X132090620Y-54081341D01*
X132122654Y-54076589D01*
X132155000Y-54075000D01*
X133645000Y-54075000D01*
X133677346Y-54076589D01*
G37*
%TD*%
%TO.C,C10*%
G36*
X136427346Y-54076589D02*
G01*
X136459380Y-54081341D01*
X136490794Y-54089210D01*
X136521286Y-54100120D01*
X136550561Y-54113966D01*
X136578338Y-54130615D01*
X136604350Y-54149907D01*
X136628345Y-54171655D01*
X136650093Y-54195650D01*
X136669385Y-54221662D01*
X136686034Y-54249439D01*
X136699880Y-54278714D01*
X136710790Y-54309206D01*
X136718659Y-54340620D01*
X136723411Y-54372654D01*
X136725000Y-54405000D01*
X136725000Y-55395000D01*
X136723411Y-55427346D01*
X136718659Y-55459380D01*
X136710790Y-55490794D01*
X136699880Y-55521286D01*
X136686034Y-55550561D01*
X136669385Y-55578338D01*
X136650093Y-55604350D01*
X136628345Y-55628345D01*
X136604350Y-55650093D01*
X136578338Y-55669385D01*
X136550561Y-55686034D01*
X136521286Y-55699880D01*
X136490794Y-55710790D01*
X136459380Y-55718659D01*
X136427346Y-55723411D01*
X136395000Y-55725000D01*
X134905000Y-55725000D01*
X134872654Y-55723411D01*
X134840620Y-55718659D01*
X134809206Y-55710790D01*
X134778714Y-55699880D01*
X134749439Y-55686034D01*
X134721662Y-55669385D01*
X134695650Y-55650093D01*
X134671655Y-55628345D01*
X134649907Y-55604350D01*
X134630615Y-55578338D01*
X134613966Y-55550561D01*
X134600120Y-55521286D01*
X134589210Y-55490794D01*
X134581341Y-55459380D01*
X134576589Y-55427346D01*
X134575000Y-55395000D01*
X134575000Y-54405000D01*
X134576589Y-54372654D01*
X134581341Y-54340620D01*
X134589210Y-54309206D01*
X134600120Y-54278714D01*
X134613966Y-54249439D01*
X134630615Y-54221662D01*
X134649907Y-54195650D01*
X134671655Y-54171655D01*
X134695650Y-54149907D01*
X134721662Y-54130615D01*
X134749439Y-54113966D01*
X134778714Y-54100120D01*
X134809206Y-54089210D01*
X134840620Y-54081341D01*
X134872654Y-54076589D01*
X134905000Y-54075000D01*
X136395000Y-54075000D01*
X136427346Y-54076589D01*
G37*
G36*
X136427346Y-56876589D02*
G01*
X136459380Y-56881341D01*
X136490794Y-56889210D01*
X136521286Y-56900120D01*
X136550561Y-56913966D01*
X136578338Y-56930615D01*
X136604350Y-56949907D01*
X136628345Y-56971655D01*
X136650093Y-56995650D01*
X136669385Y-57021662D01*
X136686034Y-57049439D01*
X136699880Y-57078714D01*
X136710790Y-57109206D01*
X136718659Y-57140620D01*
X136723411Y-57172654D01*
X136725000Y-57205000D01*
X136725000Y-58195000D01*
X136723411Y-58227346D01*
X136718659Y-58259380D01*
X136710790Y-58290794D01*
X136699880Y-58321286D01*
X136686034Y-58350561D01*
X136669385Y-58378338D01*
X136650093Y-58404350D01*
X136628345Y-58428345D01*
X136604350Y-58450093D01*
X136578338Y-58469385D01*
X136550561Y-58486034D01*
X136521286Y-58499880D01*
X136490794Y-58510790D01*
X136459380Y-58518659D01*
X136427346Y-58523411D01*
X136395000Y-58525000D01*
X134905000Y-58525000D01*
X134872654Y-58523411D01*
X134840620Y-58518659D01*
X134809206Y-58510790D01*
X134778714Y-58499880D01*
X134749439Y-58486034D01*
X134721662Y-58469385D01*
X134695650Y-58450093D01*
X134671655Y-58428345D01*
X134649907Y-58404350D01*
X134630615Y-58378338D01*
X134613966Y-58350561D01*
X134600120Y-58321286D01*
X134589210Y-58290794D01*
X134581341Y-58259380D01*
X134576589Y-58227346D01*
X134575000Y-58195000D01*
X134575000Y-57205000D01*
X134576589Y-57172654D01*
X134581341Y-57140620D01*
X134589210Y-57109206D01*
X134600120Y-57078714D01*
X134613966Y-57049439D01*
X134630615Y-57021662D01*
X134649907Y-56995650D01*
X134671655Y-56971655D01*
X134695650Y-56949907D01*
X134721662Y-56930615D01*
X134749439Y-56913966D01*
X134778714Y-56900120D01*
X134809206Y-56889210D01*
X134840620Y-56881341D01*
X134872654Y-56876589D01*
X134905000Y-56875000D01*
X136395000Y-56875000D01*
X136427346Y-56876589D01*
G37*
%TD*%
D29*
%TO.C,D5*%
X118800000Y-84400000D03*
X118800000Y-80400000D03*
%TD*%
D14*
%TO.C,R10*%
G36*
X114127346Y-60726589D02*
G01*
X114159380Y-60731341D01*
X114190794Y-60739210D01*
X114221286Y-60750120D01*
X114250561Y-60763966D01*
X114278338Y-60780615D01*
X114304350Y-60799907D01*
X114328345Y-60821655D01*
X114350093Y-60845650D01*
X114369385Y-60871662D01*
X114386034Y-60899439D01*
X114399880Y-60928714D01*
X114410790Y-60959206D01*
X114418659Y-60990620D01*
X114423411Y-61022654D01*
X114425000Y-61055000D01*
X114425000Y-62045000D01*
X114423411Y-62077346D01*
X114418659Y-62109380D01*
X114410790Y-62140794D01*
X114399880Y-62171286D01*
X114386034Y-62200561D01*
X114369385Y-62228338D01*
X114350093Y-62254350D01*
X114328345Y-62278345D01*
X114304350Y-62300093D01*
X114278338Y-62319385D01*
X114250561Y-62336034D01*
X114221286Y-62349880D01*
X114190794Y-62360790D01*
X114159380Y-62368659D01*
X114127346Y-62373411D01*
X114095000Y-62375000D01*
X112605000Y-62375000D01*
X112572654Y-62373411D01*
X112540620Y-62368659D01*
X112509206Y-62360790D01*
X112478714Y-62349880D01*
X112449439Y-62336034D01*
X112421662Y-62319385D01*
X112395650Y-62300093D01*
X112371655Y-62278345D01*
X112349907Y-62254350D01*
X112330615Y-62228338D01*
X112313966Y-62200561D01*
X112300120Y-62171286D01*
X112289210Y-62140794D01*
X112281341Y-62109380D01*
X112276589Y-62077346D01*
X112275000Y-62045000D01*
X112275000Y-61055000D01*
X112276589Y-61022654D01*
X112281341Y-60990620D01*
X112289210Y-60959206D01*
X112300120Y-60928714D01*
X112313966Y-60899439D01*
X112330615Y-60871662D01*
X112349907Y-60845650D01*
X112371655Y-60821655D01*
X112395650Y-60799907D01*
X112421662Y-60780615D01*
X112449439Y-60763966D01*
X112478714Y-60750120D01*
X112509206Y-60739210D01*
X112540620Y-60731341D01*
X112572654Y-60726589D01*
X112605000Y-60725000D01*
X114095000Y-60725000D01*
X114127346Y-60726589D01*
G37*
G36*
X114127346Y-57926589D02*
G01*
X114159380Y-57931341D01*
X114190794Y-57939210D01*
X114221286Y-57950120D01*
X114250561Y-57963966D01*
X114278338Y-57980615D01*
X114304350Y-57999907D01*
X114328345Y-58021655D01*
X114350093Y-58045650D01*
X114369385Y-58071662D01*
X114386034Y-58099439D01*
X114399880Y-58128714D01*
X114410790Y-58159206D01*
X114418659Y-58190620D01*
X114423411Y-58222654D01*
X114425000Y-58255000D01*
X114425000Y-59245000D01*
X114423411Y-59277346D01*
X114418659Y-59309380D01*
X114410790Y-59340794D01*
X114399880Y-59371286D01*
X114386034Y-59400561D01*
X114369385Y-59428338D01*
X114350093Y-59454350D01*
X114328345Y-59478345D01*
X114304350Y-59500093D01*
X114278338Y-59519385D01*
X114250561Y-59536034D01*
X114221286Y-59549880D01*
X114190794Y-59560790D01*
X114159380Y-59568659D01*
X114127346Y-59573411D01*
X114095000Y-59575000D01*
X112605000Y-59575000D01*
X112572654Y-59573411D01*
X112540620Y-59568659D01*
X112509206Y-59560790D01*
X112478714Y-59549880D01*
X112449439Y-59536034D01*
X112421662Y-59519385D01*
X112395650Y-59500093D01*
X112371655Y-59478345D01*
X112349907Y-59454350D01*
X112330615Y-59428338D01*
X112313966Y-59400561D01*
X112300120Y-59371286D01*
X112289210Y-59340794D01*
X112281341Y-59309380D01*
X112276589Y-59277346D01*
X112275000Y-59245000D01*
X112275000Y-58255000D01*
X112276589Y-58222654D01*
X112281341Y-58190620D01*
X112289210Y-58159206D01*
X112300120Y-58128714D01*
X112313966Y-58099439D01*
X112330615Y-58071662D01*
X112349907Y-58045650D01*
X112371655Y-58021655D01*
X112395650Y-57999907D01*
X112421662Y-57980615D01*
X112449439Y-57963966D01*
X112478714Y-57950120D01*
X112509206Y-57939210D01*
X112540620Y-57931341D01*
X112572654Y-57926589D01*
X112605000Y-57925000D01*
X114095000Y-57925000D01*
X114127346Y-57926589D01*
G37*
%TD*%
%TO.C,R13*%
G36*
X144927346Y-68826589D02*
G01*
X144959380Y-68831341D01*
X144990794Y-68839210D01*
X145021286Y-68850120D01*
X145050561Y-68863966D01*
X145078338Y-68880615D01*
X145104350Y-68899907D01*
X145128345Y-68921655D01*
X145150093Y-68945650D01*
X145169385Y-68971662D01*
X145186034Y-68999439D01*
X145199880Y-69028714D01*
X145210790Y-69059206D01*
X145218659Y-69090620D01*
X145223411Y-69122654D01*
X145225000Y-69155000D01*
X145225000Y-70645000D01*
X145223411Y-70677346D01*
X145218659Y-70709380D01*
X145210790Y-70740794D01*
X145199880Y-70771286D01*
X145186034Y-70800561D01*
X145169385Y-70828338D01*
X145150093Y-70854350D01*
X145128345Y-70878345D01*
X145104350Y-70900093D01*
X145078338Y-70919385D01*
X145050561Y-70936034D01*
X145021286Y-70949880D01*
X144990794Y-70960790D01*
X144959380Y-70968659D01*
X144927346Y-70973411D01*
X144895000Y-70975000D01*
X143905000Y-70975000D01*
X143872654Y-70973411D01*
X143840620Y-70968659D01*
X143809206Y-70960790D01*
X143778714Y-70949880D01*
X143749439Y-70936034D01*
X143721662Y-70919385D01*
X143695650Y-70900093D01*
X143671655Y-70878345D01*
X143649907Y-70854350D01*
X143630615Y-70828338D01*
X143613966Y-70800561D01*
X143600120Y-70771286D01*
X143589210Y-70740794D01*
X143581341Y-70709380D01*
X143576589Y-70677346D01*
X143575000Y-70645000D01*
X143575000Y-69155000D01*
X143576589Y-69122654D01*
X143581341Y-69090620D01*
X143589210Y-69059206D01*
X143600120Y-69028714D01*
X143613966Y-68999439D01*
X143630615Y-68971662D01*
X143649907Y-68945650D01*
X143671655Y-68921655D01*
X143695650Y-68899907D01*
X143721662Y-68880615D01*
X143749439Y-68863966D01*
X143778714Y-68850120D01*
X143809206Y-68839210D01*
X143840620Y-68831341D01*
X143872654Y-68826589D01*
X143905000Y-68825000D01*
X144895000Y-68825000D01*
X144927346Y-68826589D01*
G37*
G36*
X142127346Y-68826589D02*
G01*
X142159380Y-68831341D01*
X142190794Y-68839210D01*
X142221286Y-68850120D01*
X142250561Y-68863966D01*
X142278338Y-68880615D01*
X142304350Y-68899907D01*
X142328345Y-68921655D01*
X142350093Y-68945650D01*
X142369385Y-68971662D01*
X142386034Y-68999439D01*
X142399880Y-69028714D01*
X142410790Y-69059206D01*
X142418659Y-69090620D01*
X142423411Y-69122654D01*
X142425000Y-69155000D01*
X142425000Y-70645000D01*
X142423411Y-70677346D01*
X142418659Y-70709380D01*
X142410790Y-70740794D01*
X142399880Y-70771286D01*
X142386034Y-70800561D01*
X142369385Y-70828338D01*
X142350093Y-70854350D01*
X142328345Y-70878345D01*
X142304350Y-70900093D01*
X142278338Y-70919385D01*
X142250561Y-70936034D01*
X142221286Y-70949880D01*
X142190794Y-70960790D01*
X142159380Y-70968659D01*
X142127346Y-70973411D01*
X142095000Y-70975000D01*
X141105000Y-70975000D01*
X141072654Y-70973411D01*
X141040620Y-70968659D01*
X141009206Y-70960790D01*
X140978714Y-70949880D01*
X140949439Y-70936034D01*
X140921662Y-70919385D01*
X140895650Y-70900093D01*
X140871655Y-70878345D01*
X140849907Y-70854350D01*
X140830615Y-70828338D01*
X140813966Y-70800561D01*
X140800120Y-70771286D01*
X140789210Y-70740794D01*
X140781341Y-70709380D01*
X140776589Y-70677346D01*
X140775000Y-70645000D01*
X140775000Y-69155000D01*
X140776589Y-69122654D01*
X140781341Y-69090620D01*
X140789210Y-69059206D01*
X140800120Y-69028714D01*
X140813966Y-68999439D01*
X140830615Y-68971662D01*
X140849907Y-68945650D01*
X140871655Y-68921655D01*
X140895650Y-68899907D01*
X140921662Y-68880615D01*
X140949439Y-68863966D01*
X140978714Y-68850120D01*
X141009206Y-68839210D01*
X141040620Y-68831341D01*
X141072654Y-68826589D01*
X141105000Y-68825000D01*
X142095000Y-68825000D01*
X142127346Y-68826589D01*
G37*
%TD*%
%TO.C,R14*%
G36*
X142127346Y-71226589D02*
G01*
X142159380Y-71231341D01*
X142190794Y-71239210D01*
X142221286Y-71250120D01*
X142250561Y-71263966D01*
X142278338Y-71280615D01*
X142304350Y-71299907D01*
X142328345Y-71321655D01*
X142350093Y-71345650D01*
X142369385Y-71371662D01*
X142386034Y-71399439D01*
X142399880Y-71428714D01*
X142410790Y-71459206D01*
X142418659Y-71490620D01*
X142423411Y-71522654D01*
X142425000Y-71555000D01*
X142425000Y-73045000D01*
X142423411Y-73077346D01*
X142418659Y-73109380D01*
X142410790Y-73140794D01*
X142399880Y-73171286D01*
X142386034Y-73200561D01*
X142369385Y-73228338D01*
X142350093Y-73254350D01*
X142328345Y-73278345D01*
X142304350Y-73300093D01*
X142278338Y-73319385D01*
X142250561Y-73336034D01*
X142221286Y-73349880D01*
X142190794Y-73360790D01*
X142159380Y-73368659D01*
X142127346Y-73373411D01*
X142095000Y-73375000D01*
X141105000Y-73375000D01*
X141072654Y-73373411D01*
X141040620Y-73368659D01*
X141009206Y-73360790D01*
X140978714Y-73349880D01*
X140949439Y-73336034D01*
X140921662Y-73319385D01*
X140895650Y-73300093D01*
X140871655Y-73278345D01*
X140849907Y-73254350D01*
X140830615Y-73228338D01*
X140813966Y-73200561D01*
X140800120Y-73171286D01*
X140789210Y-73140794D01*
X140781341Y-73109380D01*
X140776589Y-73077346D01*
X140775000Y-73045000D01*
X140775000Y-71555000D01*
X140776589Y-71522654D01*
X140781341Y-71490620D01*
X140789210Y-71459206D01*
X140800120Y-71428714D01*
X140813966Y-71399439D01*
X140830615Y-71371662D01*
X140849907Y-71345650D01*
X140871655Y-71321655D01*
X140895650Y-71299907D01*
X140921662Y-71280615D01*
X140949439Y-71263966D01*
X140978714Y-71250120D01*
X141009206Y-71239210D01*
X141040620Y-71231341D01*
X141072654Y-71226589D01*
X141105000Y-71225000D01*
X142095000Y-71225000D01*
X142127346Y-71226589D01*
G37*
G36*
X144927346Y-71226589D02*
G01*
X144959380Y-71231341D01*
X144990794Y-71239210D01*
X145021286Y-71250120D01*
X145050561Y-71263966D01*
X145078338Y-71280615D01*
X145104350Y-71299907D01*
X145128345Y-71321655D01*
X145150093Y-71345650D01*
X145169385Y-71371662D01*
X145186034Y-71399439D01*
X145199880Y-71428714D01*
X145210790Y-71459206D01*
X145218659Y-71490620D01*
X145223411Y-71522654D01*
X145225000Y-71555000D01*
X145225000Y-73045000D01*
X145223411Y-73077346D01*
X145218659Y-73109380D01*
X145210790Y-73140794D01*
X145199880Y-73171286D01*
X145186034Y-73200561D01*
X145169385Y-73228338D01*
X145150093Y-73254350D01*
X145128345Y-73278345D01*
X145104350Y-73300093D01*
X145078338Y-73319385D01*
X145050561Y-73336034D01*
X145021286Y-73349880D01*
X144990794Y-73360790D01*
X144959380Y-73368659D01*
X144927346Y-73373411D01*
X144895000Y-73375000D01*
X143905000Y-73375000D01*
X143872654Y-73373411D01*
X143840620Y-73368659D01*
X143809206Y-73360790D01*
X143778714Y-73349880D01*
X143749439Y-73336034D01*
X143721662Y-73319385D01*
X143695650Y-73300093D01*
X143671655Y-73278345D01*
X143649907Y-73254350D01*
X143630615Y-73228338D01*
X143613966Y-73200561D01*
X143600120Y-73171286D01*
X143589210Y-73140794D01*
X143581341Y-73109380D01*
X143576589Y-73077346D01*
X143575000Y-73045000D01*
X143575000Y-71555000D01*
X143576589Y-71522654D01*
X143581341Y-71490620D01*
X143589210Y-71459206D01*
X143600120Y-71428714D01*
X143613966Y-71399439D01*
X143630615Y-71371662D01*
X143649907Y-71345650D01*
X143671655Y-71321655D01*
X143695650Y-71299907D01*
X143721662Y-71280615D01*
X143749439Y-71263966D01*
X143778714Y-71250120D01*
X143809206Y-71239210D01*
X143840620Y-71231341D01*
X143872654Y-71226589D01*
X143905000Y-71225000D01*
X144895000Y-71225000D01*
X144927346Y-71226589D01*
G37*
%TD*%
D12*
%TO.C,J5*%
X106800000Y-89300000D03*
D13*
X109340000Y-89300000D03*
X111880000Y-89300000D03*
X114420000Y-89300000D03*
%TD*%
M02*
